<svg xmlns="http://www.w3.org/2000/svg"  viewBox="0 0 48 48" width="96px" height="96px"><path fill="#a39e96" d="M15.944,4.978c-5.466,0-10.08,4.046-11.501,11.823c-1.311,7.171-0.524,26.196,16.464,26.196 c14.139,0,16.278-9.942,17.378-14.446s3.441-6.489,7.695-7.585c2.239-0.577,1.363-2.633-1.471-2.571 c-2.677,0.059-5.205,2.531-6.096,2.038c-1.284-0.709-0.327-5.594-2.726-8.297c-1.256-1.414-3.301-0.236-2.17,3.503 c0.818,2.706,0.512,12.225-4.462,12.225c-4.413,0-5.592-4.326-4.525-10.241C25.698,11.154,23.305,4.978,15.944,4.978z"/><path fill="#a49f97" d="M15.944,4.991c7.329,0,9.706,6.196,8.545,12.608c-0.788,4.336-0.357,7.823,1.654,9.384 c0.735,0.571,1.685,0.887,2.865,0.893c0.749,0.004,1.394-0.206,1.948-0.575c1.3-0.869,2.103-2.628,2.527-4.55 c0.594-2.686,0.47-5.692,0.069-7.051c-0.445-1.49-0.396-2.578-0.096-3.256c0.452-1.016,1.458-1.132,2.213-0.3 c1.352,1.491,1.63,3.736,1.851,5.504c0.17,1.357,0.302,2.451,0.852,2.769c0.399,0.231,1.13-0.137,2.061-0.616 c0.492-0.253,1.05-0.536,1.63-0.784c0.747-0.32,1.551-0.567,2.368-0.59c2.827-0.084,3.725,1.93,1.515,2.504 c-4.209,1.097-6.584,3.093-7.687,7.587c-0.042,0.17-0.085,0.348-0.13,0.533c-0.019,0.077-0.039,0.161-0.059,0.24 c-1.176,4.769-3.8,13.661-17.164,13.661c-5.612,0-9.46-2.08-12.045-5.136C3.663,31.668,3.595,21.598,4.47,16.799 c0.032-0.173,0.065-0.344,0.099-0.514C6.091,8.86,10.605,4.991,15.944,4.991z"/><path fill="#a5a098" d="M15.944,5.003c7.297,0,9.659,6.215,8.503,12.571c-0.794,4.339-0.355,7.833,1.649,9.403 c0.734,0.576,1.685,0.897,2.863,0.91c0.748,0.008,1.396-0.195,1.953-0.557c1.307-0.852,2.139-2.598,2.576-4.511 c0.613-2.675,0.498-5.68,0.097-7.059c-0.434-1.49-0.397-2.58-0.103-3.262c0.438-1.017,1.412-1.163,2.168-0.348 c1.348,1.454,1.62,3.722,1.841,5.484c0.169,1.349,0.299,2.437,0.84,2.764c0.395,0.238,1.115-0.111,2.04-0.574 c0.489-0.245,1.052-0.52,1.627-0.767c0.744-0.322,1.544-0.572,2.356-0.6c2.818-0.107,3.739,1.868,1.559,2.438 c-4.163,1.097-6.573,3.105-7.679,7.588c-0.042,0.17-0.085,0.348-0.13,0.533c-0.018,0.076-0.04,0.163-0.059,0.241 c-1.174,4.765-3.788,13.649-17.138,13.649c-5.595,0-9.439-2.07-12.024-5.127C3.699,31.648,3.623,21.6,4.496,16.797 c0.031-0.173,0.064-0.344,0.099-0.513C6.111,8.875,10.611,5.003,15.944,5.003z"/><path fill="#a5a199" d="M15.944,5.016c7.265,0,9.611,6.235,8.462,12.535c-0.8,4.343-0.354,7.843,1.645,9.422 c0.733,0.581,1.685,0.907,2.861,0.926c0.747,0.013,1.397-0.185,1.959-0.54c1.314-0.835,2.176-2.569,2.625-4.473 c0.631-2.664,0.524-5.667,0.124-7.067c-0.425-1.489-0.396-2.582-0.111-3.267c0.425-1.018,1.366-1.193,2.122-0.396 c1.345,1.418,1.61,3.708,1.83,5.465c0.168,1.34,0.296,2.423,0.828,2.759c0.39,0.246,1.101-0.085,2.019-0.532 c0.485-0.237,1.055-0.502,1.624-0.75c0.742-0.322,1.537-0.574,2.344-0.61c2.811-0.123,3.753,1.805,1.603,2.372 c-4.117,1.097-6.562,3.117-7.672,7.59c-0.042,0.17-0.086,0.348-0.131,0.533c-0.018,0.074-0.04,0.165-0.059,0.241 c-1.173,4.761-3.775,13.636-17.113,13.636c-5.577,0-9.418-2.06-12.003-5.119c-5.169-6.115-5.252-16.14-4.381-20.948 c0.031-0.173,0.064-0.343,0.099-0.512C6.131,8.889,10.616,5.016,15.944,5.016z"/><path fill="#a6a19a" d="M15.944,5.029c7.233,0,9.564,6.254,8.42,12.498c-0.806,4.346-0.352,7.853,1.641,9.441 c0.732,0.585,1.684,0.917,2.86,0.943c0.746,0.017,1.399-0.174,1.964-0.522c1.321-0.818,2.212-2.539,2.674-4.434 c0.65-2.653,0.55-5.654,0.152-7.074c-0.417-1.488-0.396-2.584-0.118-3.272c0.411-1.018,1.32-1.223,2.077-0.444 c1.341,1.382,1.6,3.694,1.82,5.446c0.167,1.331,0.293,2.409,0.816,2.754c0.385,0.254,1.086-0.059,1.998-0.491 c0.482-0.229,1.057-0.486,1.621-0.733c0.739-0.324,1.529-0.578,2.332-0.619c2.803-0.144,3.767,1.742,1.647,2.305 c-4.072,1.097-6.551,3.128-7.664,7.591c-0.043,0.17-0.086,0.348-0.131,0.533c-0.018,0.073-0.041,0.167-0.059,0.242 c-1.172,4.757-3.763,13.624-17.087,13.624c-5.559,0-9.397-2.051-11.982-5.11C3.77,31.607,3.68,21.605,4.55,16.793 c0.031-0.173,0.064-0.343,0.098-0.512C6.152,8.903,10.622,5.029,15.944,5.029z"/><path fill="#a7a29b" d="M15.944,5.041c7.201,0,9.516,6.274,8.379,12.461c-0.812,4.349-0.351,7.863,1.636,9.46 c0.731,0.59,1.684,0.927,2.858,0.96c0.746,0.021,1.4-0.164,1.969-0.505c1.328-0.802,2.249-2.51,2.723-4.395 c0.669-2.642,0.576-5.642,0.18-7.082c-0.409-1.487-0.396-2.586-0.126-3.277c0.398-1.018,1.274-1.254,2.032-0.492 c1.337,1.345,1.591,3.681,1.809,5.426c0.166,1.322,0.289,2.395,0.805,2.749c0.38,0.261,1.072-0.033,1.977-0.449 c0.478-0.221,1.06-0.469,1.618-0.716c0.736-0.326,1.522-0.582,2.32-0.629c2.795-0.164,3.779,1.675,1.691,2.239 c-4.028,1.088-6.54,3.14-7.656,7.593c-0.043,0.171-0.087,0.348-0.132,0.533c-0.017,0.071-0.041,0.169-0.059,0.242 c-1.17,4.752-3.751,13.611-17.061,13.611c-5.541,0-9.377-2.041-11.961-5.101c-5.14-6.083-5.237-16.063-4.369-20.879 c0.031-0.172,0.064-0.343,0.098-0.511C6.172,8.917,10.627,5.041,15.944,5.041z"/><path fill="#a8a39c" d="M15.944,5.054c7.169,0,9.469,6.293,8.337,12.425c-0.818,4.353-0.349,7.873,1.632,9.48 c0.73,0.595,1.684,0.937,2.856,0.976c0.745,0.025,1.402-0.152,1.975-0.487c1.337-0.782,2.285-2.48,2.772-4.357 c0.688-2.631,0.602-5.629,0.208-7.09c-0.4-1.485-0.396-2.587-0.133-3.283c0.385-1.019,1.228-1.284,1.986-0.539 c1.333,1.309,1.581,3.667,1.799,5.407c0.165,1.313,0.286,2.381,0.793,2.744c0.376,0.269,1.057-0.007,1.956-0.408 c0.475-0.213,1.062-0.452,1.615-0.699c0.733-0.328,1.515-0.586,2.308-0.639c2.787-0.185,3.793,1.611,1.734,2.173 c-3.983,1.087-6.53,3.152-7.648,7.594c-0.043,0.171-0.087,0.349-0.132,0.533c-0.017,0.07-0.042,0.171-0.059,0.243 c-1.169,4.748-3.739,13.599-17.036,13.599c-5.523,0-9.356-2.031-11.941-5.092c-5.125-6.067-5.23-16.025-4.363-20.845 c0.031-0.172,0.064-0.342,0.098-0.51C6.193,8.931,10.633,5.054,15.944,5.054z"/><path fill="#a8a49d" d="M15.944,5.067c7.137,0,9.422,6.313,8.296,12.388c-0.824,4.356-0.348,7.883,1.628,9.499 c0.729,0.599,1.683,0.947,2.855,0.993c0.744,0.029,1.404-0.141,1.98-0.469c1.344-0.765,2.322-2.451,2.821-4.318 c0.706-2.62,0.628-5.616,0.236-7.097c-0.392-1.484-0.396-2.589-0.14-3.288c0.372-1.019,1.182-1.314,1.941-0.587 c1.329,1.273,1.571,3.653,1.788,5.388c0.163,1.305,0.283,2.368,0.781,2.739c0.371,0.277,1.042,0.019,1.935-0.366 c0.471-0.204,1.065-0.435,1.611-0.682c0.73-0.33,1.508-0.59,2.296-0.649c2.779-0.206,3.807,1.548,1.778,2.107 c-3.938,1.085-6.519,3.164-7.641,7.596c-0.043,0.171-0.087,0.349-0.132,0.533c-0.017,0.068-0.042,0.173-0.06,0.243 c-1.168,4.744-3.726,13.587-17.01,13.587c-5.506,0-9.335-2.022-11.92-5.083c-5.11-6.051-5.222-15.986-4.357-20.811 c0.031-0.172,0.063-0.342,0.097-0.51C6.213,8.945,10.638,5.067,15.944,5.067z"/><path fill="#a9a59e" d="M15.944,5.079c7.105,0,9.387,6.335,8.255,12.351c-0.821,4.361-0.346,7.893,1.623,9.518 c0.728,0.604,1.683,0.957,2.853,1.01c0.744,0.033,1.405-0.131,1.986-0.452c1.351-0.748,2.358-2.421,2.87-4.279 c0.725-2.609,0.654-5.603,0.264-7.105c-0.385-1.483-0.395-2.591-0.148-3.293c0.359-1.019,1.135-1.345,1.895-0.635 c1.324,1.236,1.561,3.639,1.778,5.368c0.162,1.296,0.28,2.354,0.769,2.734c0.366,0.285,1.028,0.045,1.914-0.325 c0.468-0.196,1.067-0.418,1.608-0.665c0.727-0.331,1.5-0.594,2.284-0.658c2.772-0.227,3.821,1.484,1.822,2.04 c-3.893,1.084-6.508,3.176-7.633,7.597c-0.044,0.171-0.088,0.349-0.133,0.533c-0.016,0.067-0.043,0.175-0.06,0.244 c-1.166,4.74-3.714,13.574-16.984,13.574c-5.488,0-9.314-2.012-11.899-5.075c-5.095-6.035-5.214-15.947-4.351-20.777 c0.031-0.172,0.063-0.342,0.097-0.509C6.234,8.96,10.644,5.079,15.944,5.079z"/><path fill="#aaa69f" d="M15.944,5.092c7.073,0,9.341,6.355,8.213,12.315c-0.826,4.365-0.344,7.903,1.619,9.537 c0.727,0.608,1.683,0.967,2.851,1.026c0.743,0.038,1.407-0.12,1.991-0.434c1.358-0.731,2.395-2.391,2.919-4.241 c0.744-2.598,0.679-5.59,0.292-7.113c-0.377-1.481-0.395-2.592-0.155-3.298c0.347-1.019,1.089-1.375,1.85-0.683 c1.32,1.2,1.551,3.625,1.767,5.349c0.161,1.287,0.277,2.34,0.757,2.729c0.362,0.293,1.013,0.072,1.892-0.283 c0.464-0.188,1.07-0.402,1.605-0.648c0.724-0.333,1.493-0.598,2.272-0.668c2.764-0.248,3.835,1.421,1.866,1.974 c-3.848,1.082-6.497,3.188-7.625,7.599c-0.044,0.171-0.088,0.349-0.133,0.533c-0.016,0.065-0.043,0.177-0.06,0.244 c-1.165,4.735-3.702,13.562-16.959,13.562c-5.47,0-9.293-2.002-11.878-5.066c-5.081-6.019-5.207-15.909-4.345-20.742 c0.031-0.172,0.063-0.341,0.097-0.508C6.254,8.974,10.65,5.092,15.944,5.092z"/><path fill="#aba6a0" d="M15.944,5.104c7.041,0,9.295,6.375,8.172,12.278c-0.831,4.368-0.343,7.913,1.614,9.556 c0.726,0.613,1.682,0.978,2.85,1.043c0.742,0.042,1.408-0.11,1.996-0.417c1.366-0.714,2.431-2.362,2.968-4.202 c0.762-2.587,0.705-5.578,0.32-7.12c-0.369-1.48-0.395-2.594-0.162-3.304c0.334-1.019,1.042-1.406,1.805-0.731 c1.315,1.164,1.542,3.611,1.757,5.33c0.16,1.278,0.273,2.327,0.745,2.724c0.357,0.301,0.999,0.098,1.871-0.242 c0.46-0.18,1.072-0.385,1.602-0.631c0.721-0.335,1.486-0.602,2.26-0.678c2.756-0.268,3.848,1.357,1.91,1.908 c-3.803,1.081-6.486,3.2-7.617,7.6c-0.044,0.171-0.089,0.349-0.134,0.533c-0.016,0.064-0.044,0.179-0.06,0.245 c-1.164,4.731-3.69,13.549-16.933,13.549c-5.452,0-9.272-1.992-11.857-5.057c-5.066-6.003-5.199-15.87-4.339-20.708 c0.031-0.172,0.063-0.341,0.096-0.508C6.275,8.988,10.655,5.104,15.944,5.104z"/><path fill="#aba7a1" d="M15.944,5.117c7.009,0,9.248,6.394,8.13,12.241c-0.836,4.372-0.341,7.923,1.61,9.575 c0.724,0.618,1.682,0.988,2.848,1.059c0.741,0.046,1.41-0.099,2.002-0.399c1.373-0.697,2.468-2.332,3.017-4.163 c0.781-2.576,0.73-5.565,0.348-7.128c-0.362-1.478-0.394-2.596-0.17-3.309c0.321-1.02,0.995-1.436,1.759-0.779 c1.31,1.128,1.532,3.598,1.746,5.31c0.159,1.269,0.27,2.313,0.733,2.719c0.352,0.309,0.984,0.124,1.85-0.2 c0.457-0.172,1.075-0.368,1.599-0.614c0.718-0.337,1.479-0.606,2.248-0.687c2.748-0.289,3.862,1.294,1.954,1.842 c-3.757,1.079-6.475,3.212-7.61,7.602c-0.045,0.171-0.089,0.349-0.134,0.533c-0.015,0.062-0.044,0.181-0.06,0.245 c-1.162,4.727-3.677,13.537-16.908,13.537c-5.434,0-9.251-1.983-11.836-5.048c-5.051-5.987-5.192-15.832-4.333-20.674 c0.03-0.171,0.062-0.34,0.096-0.507C6.295,9.002,10.661,5.117,15.944,5.117z"/><path fill="#aca8a2" d="M15.944,5.13c6.977,0,9.202,6.414,8.089,12.204c-0.841,4.375-0.34,7.933,1.606,9.595 c0.723,0.622,1.682,0.998,2.846,1.076c0.741,0.05,1.411-0.088,2.007-0.382c1.38-0.68,2.504-2.303,3.066-4.124 c0.8-2.564,0.756-5.552,0.376-7.136c-0.354-1.477-0.394-2.597-0.177-3.314c0.308-1.02,0.949-1.467,1.714-0.827 c1.305,1.091,1.522,3.584,1.736,5.291c0.158,1.261,0.267,2.3,0.721,2.714c0.347,0.317,0.97,0.15,1.829-0.159 c0.453-0.164,1.077-0.352,1.596-0.597c0.715-0.339,1.472-0.61,2.236-0.697c2.741-0.311,3.876,1.23,1.998,1.775 c-3.712,1.078-6.465,3.224-7.602,7.603c-0.045,0.171-0.09,0.349-0.134,0.533c-0.015,0.061-0.045,0.183-0.06,0.246 c-1.161,4.722-3.665,13.524-16.882,13.524c-5.416,0-9.23-1.973-11.816-5.039c-5.036-5.971-5.184-15.793-4.327-20.64 c0.03-0.171,0.062-0.34,0.096-0.506C6.316,9.016,10.666,5.13,15.944,5.13z"/><path fill="#ada9a3" d="M15.944,5.142c6.945,0,9.156,6.434,8.047,12.168c-0.847,4.379-0.338,7.943,1.601,9.614 c0.722,0.627,1.681,1.008,2.845,1.093c0.74,0.054,1.413-0.078,2.013-0.364c1.387-0.662,2.541-2.273,3.115-4.086 c0.819-2.553,0.781-5.539,0.404-7.143c-0.347-1.475-0.394-2.599-0.185-3.319c0.296-1.02,0.902-1.497,1.668-0.875 c1.3,1.055,1.512,3.57,1.725,5.272c0.157,1.252,0.264,2.287,0.709,2.709c0.343,0.325,0.955,0.176,1.808-0.117 c0.45-0.156,1.079-0.335,1.592-0.58c0.712-0.341,1.465-0.615,2.224-0.707c2.733-0.332,3.89,1.167,2.042,1.709 c-3.667,1.076-6.454,3.235-7.594,7.605c-0.045,0.171-0.09,0.349-0.135,0.533c-0.014,0.059-0.045,0.185-0.06,0.246 c-1.16,4.718-3.653,13.512-16.856,13.512c-5.399,0-9.209-1.963-11.795-5.031c-5.022-5.955-5.177-15.755-4.321-20.605 c0.03-0.171,0.062-0.34,0.095-0.506C6.336,9.03,10.672,5.142,15.944,5.142z"/><path fill="#aeaaa4" d="M15.944,5.155c6.913,0,9.109,6.454,8.006,12.131c-0.852,4.382-0.337,7.953,1.597,9.633 c0.721,0.631,1.681,1.018,2.843,1.109c0.739,0.058,1.414-0.067,2.018-0.347c1.394-0.645,2.577-2.244,3.164-4.047 c0.837-2.542,0.806-5.526,0.432-7.151c-0.34-1.474-0.393-2.6-0.192-3.325c0.283-1.02,0.855-1.528,1.623-0.922 c1.294,1.019,1.503,3.556,1.715,5.252c0.156,1.243,0.26,2.273,0.697,2.704c0.338,0.333,0.94,0.202,1.787-0.076 c0.446-0.148,1.082-0.318,1.589-0.564c0.709-0.343,1.457-0.619,2.212-0.716c2.725-0.353,3.904,1.103,2.085,1.643 c-3.622,1.075-6.443,3.247-7.587,7.606c-0.045,0.172-0.09,0.349-0.135,0.533c-0.014,0.058-0.046,0.187-0.06,0.247 c-1.158,4.714-3.641,13.499-16.831,13.499c-5.381,0-9.189-1.953-11.774-5.022c-5.007-5.939-5.169-15.716-4.315-20.571 c0.03-0.171,0.062-0.339,0.095-0.505C6.357,9.045,10.677,5.155,15.944,5.155z"/><path fill="#aeaba5" d="M15.944,5.167c6.881,0,9.062,6.473,7.964,12.094c-0.857,4.386-0.332,7.959,1.592,9.652 c0.721,0.635,1.681,1.028,2.841,1.126c0.738,0.063,1.416-0.057,2.023-0.329c1.401-0.628,2.614-2.214,3.213-4.008 c0.856-2.531,0.831-5.513,0.459-7.159c-0.333-1.472-0.393-2.602-0.199-3.33c0.271-1.02,0.808-1.558,1.578-0.97 c1.288,0.983,1.493,3.542,1.704,5.233c0.155,1.234,0.257,2.26,0.685,2.699c0.333,0.342,0.926,0.228,1.766-0.034 c0.443-0.14,1.084-0.302,1.586-0.547c0.706-0.345,1.45-0.623,2.2-0.726c2.717-0.374,3.917,1.04,2.129,1.577 c-3.577,1.074-6.432,3.259-7.579,7.608c-0.046,0.172-0.091,0.35-0.136,0.533c-0.014,0.056-0.046,0.189-0.06,0.247 c-1.157,4.71-3.628,13.487-16.805,13.487c-5.363,0-9.168-1.944-11.753-5.013C4.162,31.385,3.992,21.63,4.845,16.771 c0.03-0.171,0.062-0.339,0.095-0.504C6.377,9.059,10.683,5.167,15.944,5.167z"/><path fill="#afaca6" d="M15.944,5.18c6.849,0,9.016,6.493,7.923,12.058c-0.862,4.389-0.33,7.969,1.588,9.671 c0.72,0.639,1.68,1.038,2.839,1.143c0.738,0.067,1.417-0.046,2.029-0.311c1.408-0.611,2.65-2.185,3.262-3.97 c0.875-2.52,0.856-5.499,0.487-7.166c-0.326-1.47-0.392-2.603-0.207-3.335c0.258-1.02,0.76-1.588,1.532-1.018 c1.282,0.947,1.483,3.528,1.694,5.214c0.153,1.225,0.254,2.247,0.673,2.694c0.328,0.35,0.911,0.254,1.744,0.007 c0.439-0.131,1.087-0.285,1.583-0.53c0.703-0.347,1.443-0.627,2.188-0.736c2.71-0.396,3.931,0.977,2.173,1.51 c-3.532,1.072-6.421,3.271-7.571,7.609c-0.046,0.172-0.091,0.35-0.136,0.533c-0.013,0.055-0.047,0.191-0.061,0.248 c-1.156,4.705-3.616,13.475-16.779,13.475c-5.345,0-9.147-1.934-11.732-5.004c-4.977-5.907-5.154-15.639-4.303-20.503 c0.03-0.17,0.061-0.338,0.094-0.504C6.398,9.073,10.688,5.18,15.944,5.18z"/><path fill="#b0aca7" d="M15.944,5.193c6.817,0,8.969,6.513,7.881,12.021c-0.868,4.393-0.328,7.979,1.584,9.69 c0.719,0.644,1.68,1.048,2.838,1.159c0.737,0.071,1.419-0.035,2.034-0.294c1.415-0.595,2.683-2.156,3.311-3.931 c0.888-2.511,0.881-5.486,0.515-7.174c-0.319-1.469-0.391-2.605-0.214-3.34c0.246-1.019,0.713-1.619,1.487-1.066 c1.276,0.912,1.473,3.515,1.683,5.194c0.152,1.217,0.25,2.234,0.661,2.689c0.323,0.358,0.897,0.28,1.723,0.049 c0.436-0.123,1.089-0.268,1.58-0.513c0.7-0.349,1.436-0.631,2.176-0.746c2.702-0.417,3.945,0.913,2.217,1.444 c-3.487,1.071-6.41,3.283-7.563,7.611c-0.046,0.172-0.092,0.35-0.136,0.533c-0.013,0.053-0.047,0.193-0.061,0.248 c-1.154,4.701-3.604,13.462-16.754,13.462c-5.327,0-9.126-1.924-11.712-4.995c-4.963-5.891-5.146-15.6-4.297-20.468 c0.03-0.17,0.061-0.338,0.094-0.503C6.418,9.087,10.694,5.193,15.944,5.193z"/><path fill="#b1ada8" d="M15.944,5.205c6.785,0,8.922,6.533,7.84,11.984c-0.873,4.396-0.327,7.989,1.579,9.709 c0.718,0.648,1.68,1.059,2.836,1.176c0.736,0.075,1.42-0.025,2.04-0.276c1.422-0.578,2.719-2.127,3.36-3.892 c0.907-2.5,0.906-5.473,0.543-7.182c-0.312-1.467-0.391-2.606-0.222-3.345c0.233-1.019,0.665-1.649,1.442-1.114 c1.27,0.876,1.463,3.501,1.673,5.175c0.151,1.208,0.247,2.221,0.649,2.684c0.319,0.367,0.882,0.306,1.702,0.091 c0.432-0.115,1.092-0.252,1.577-0.496c0.697-0.351,1.429-0.635,2.164-0.755c2.694-0.439,3.959,0.85,2.261,1.378 c-3.441,1.07-6.4,3.295-7.556,7.612c-0.046,0.172-0.092,0.35-0.137,0.533c-0.013,0.052-0.048,0.195-0.061,0.249 c-1.153,4.697-3.592,13.45-16.728,13.45c-5.309,0-9.105-1.914-11.691-4.987c-4.948-5.875-5.139-15.562-4.291-20.434 c0.03-0.17,0.061-0.338,0.094-0.502C6.439,9.101,10.699,5.205,15.944,5.205z"/><path fill="#b1aea9" d="M15.944,5.218c6.753,0,8.875,6.552,7.798,11.948c-0.879,4.4-0.325,7.999,1.575,9.729 c0.717,0.653,1.679,1.069,2.834,1.193c0.735,0.079,1.422-0.014,2.045-0.259c1.429-0.561,2.756-2.097,3.408-3.854 c0.925-2.489,0.931-5.46,0.571-7.189c-0.305-1.465-0.39-2.608-0.229-3.351c0.221-1.019,0.618-1.68,1.396-1.162 c1.263,0.84,1.454,3.487,1.662,5.156c0.15,1.199,0.243,2.208,0.637,2.679c0.314,0.375,0.867,0.332,1.681,0.132 c0.428-0.107,1.094-0.235,1.574-0.479c0.694-0.353,1.422-0.64,2.153-0.765c2.687-0.46,3.973,0.787,2.305,1.312 c-3.396,1.069-6.389,3.307-7.548,7.614c-0.047,0.172-0.092,0.35-0.137,0.533c-0.012,0.05-0.048,0.197-0.061,0.249 c-1.152,4.693-3.579,13.437-16.702,13.437c-5.292,0-9.084-1.905-11.67-4.978c-4.933-5.859-5.131-15.523-4.285-20.4 c0.03-0.17,0.061-0.337,0.093-0.502C6.459,9.115,10.705,5.218,15.944,5.218z"/><path fill="#b2afaa" d="M15.944,5.23c6.721,0,8.828,6.572,7.757,11.911c-0.884,4.403-0.323,8.009,1.57,9.748 c0.716,0.657,1.679,1.079,2.833,1.209c0.735,0.084,1.423-0.004,2.051-0.241c1.436-0.544,2.792-2.068,3.457-3.815 c0.944-2.478,0.956-5.447,0.599-7.197c-0.298-1.463-0.389-2.609-0.236-3.356c0.209-1.019,0.57-1.71,1.351-1.21 c1.256,0.805,1.444,3.473,1.652,5.136c0.149,1.19,0.24,2.195,0.625,2.674c0.309,0.384,0.853,0.36,1.66,0.174 c0.425-0.098,1.096-0.219,1.57-0.462c0.691-0.355,1.414-0.644,2.141-0.775c2.679-0.482,3.986,0.723,2.349,1.245 c-3.351,1.068-6.378,3.319-7.54,7.615c-0.047,0.172-0.093,0.35-0.138,0.533c-0.012,0.049-0.049,0.199-0.061,0.25 c-1.15,4.688-3.567,13.425-16.677,13.425c-5.274,0-9.063-1.895-11.649-4.969C4.34,31.284,4.134,21.642,4.979,16.761 c0.029-0.17,0.06-0.337,0.093-0.501C6.479,9.13,10.71,5.23,15.944,5.23z"/><path fill="#b3b0ab" d="M15.944,5.243c6.689,0,8.781,6.592,7.715,11.874c-0.89,4.407-0.322,8.019,1.566,9.767 c0.715,0.662,1.679,1.089,2.831,1.226c0.734,0.088,1.425,0.007,2.056-0.224c1.443-0.527,2.828-2.038,3.506-3.776 c0.963-2.467,0.98-5.434,0.627-7.205c-0.292-1.462-0.389-2.61-0.244-3.361c0.197-1.019,0.522-1.74,1.305-1.258 c1.249,0.77,1.434,3.459,1.641,5.117c0.148,1.181,0.236,2.182,0.613,2.669c0.304,0.392,0.839,0.386,1.639,0.215 c0.421-0.09,1.099-0.202,1.567-0.445c0.688-0.357,1.407-0.648,2.129-0.784c2.671-0.504,4,0.66,2.393,1.179 c-3.306,1.067-6.367,3.33-7.532,7.617c-0.047,0.172-0.093,0.35-0.138,0.533c-0.012,0.047-0.049,0.201-0.061,0.25 c-1.149,4.684-3.555,13.412-16.651,13.412c-5.256,0-9.042-1.885-11.628-4.96c-4.903-5.827-5.116-15.446-4.273-20.331 c0.029-0.17,0.06-0.336,0.093-0.5C6.5,9.144,10.716,5.243,15.944,5.243z"/><path fill="#b4b1ac" d="M15.944,5.256c6.656,0,8.734,6.611,7.674,11.838c-0.895,4.41-0.32,8.029,1.562,9.786 c0.714,0.667,1.678,1.099,2.829,1.243c0.733,0.092,1.426,0.017,2.061-0.206c1.45-0.51,2.865-2.009,3.555-3.737 c0.981-2.456,1.005-5.421,0.655-7.212c-0.285-1.46-0.388-2.612-0.251-3.366c0.185-1.018,0.474-1.77,1.26-1.305 c1.241,0.734,1.424,3.445,1.631,5.098c0.147,1.173,0.232,2.17,0.601,2.664c0.299,0.401,0.824,0.412,1.618,0.257 c0.418-0.082,1.101-0.185,1.564-0.428c0.685-0.359,1.4-0.653,2.117-0.794c2.664-0.526,4.014,0.597,2.436,1.113 c-3.261,1.066-6.356,3.342-7.525,7.618c-0.048,0.172-0.094,0.35-0.138,0.533c-0.011,0.046-0.05,0.203-0.061,0.251 c-1.148,4.68-3.543,13.4-16.625,13.4c-5.238,0-9.021-1.875-11.607-4.951c-4.889-5.811-5.108-15.407-4.267-20.297 c0.029-0.169,0.06-0.336,0.092-0.5C6.52,9.158,10.721,5.256,15.944,5.256z"/><path fill="#b4b2ad" d="M15.944,5.268c6.624,0,8.687,6.631,7.632,11.801c-0.901,4.414-0.319,8.039,1.557,9.805 c0.713,0.671,1.678,1.109,2.828,1.259c0.733,0.096,1.428,0.028,2.067-0.189c1.457-0.493,2.901-1.98,3.604-3.699 c1-2.445,1.029-5.407,0.683-7.22c-0.279-1.458-0.387-2.613-0.258-3.372c0.173-1.018,0.426-1.801,1.215-1.353 c1.234,0.7,1.414,3.432,1.621,5.079c0.146,1.164,0.229,2.157,0.589,2.659c0.294,0.409,0.809,0.438,1.597,0.298 c0.414-0.074,1.104-0.169,1.561-0.411c0.682-0.361,1.393-0.657,2.105-0.804c2.656-0.547,4.028,0.534,2.48,1.047 c-3.216,1.065-6.345,3.354-7.517,7.62c-0.048,0.172-0.094,0.35-0.139,0.533c-0.011,0.045-0.05,0.205-0.061,0.251 c-1.146,4.675-3.53,13.387-16.6,13.387c-5.22,0-9.001-1.866-11.587-4.943C4.447,31.223,4.219,21.649,5.06,16.755 c0.029-0.169,0.06-0.336,0.092-0.499C6.541,9.172,10.727,5.268,15.944,5.268z"/><path fill="#b5b2ae" d="M15.944,5.281c6.592,0,8.64,6.651,7.591,11.764c-0.906,4.417-0.317,8.049,1.553,9.824 c0.712,0.676,1.677,1.119,2.826,1.276c0.732,0.1,1.429,0.038,2.072-0.171c1.464-0.477,2.938-1.95,3.653-3.66 c1.019-2.435,1.054-5.394,0.711-7.228c-0.272-1.456-0.386-2.614-0.266-3.377c0.161-1.018,0.377-1.831,1.169-1.401 c1.226,0.665,1.405,3.418,1.61,5.059c0.145,1.155,0.225,2.144,0.577,2.654c0.289,0.418,0.795,0.464,1.575,0.34 c0.411-0.065,1.106-0.152,1.558-0.394c0.679-0.363,1.386-0.661,2.093-0.813c2.648-0.57,4.042,0.471,2.524,0.98 c-3.17,1.064-6.335,3.366-7.509,7.621c-0.048,0.173-0.094,0.351-0.139,0.533c-0.011,0.043-0.05,0.207-0.061,0.252 c-1.145,4.671-3.518,13.375-16.574,13.375c-5.203,0-8.98-1.856-11.566-4.934c-4.859-5.779-5.093-15.33-4.255-20.229 c0.029-0.169,0.06-0.335,0.091-0.498C6.561,9.186,10.733,5.281,15.944,5.281z"/><path fill="#b6b3af" d="M15.944,5.293c6.56,0,8.593,6.67,7.549,11.728c-0.912,4.421-0.315,8.059,1.548,9.844 c0.711,0.68,1.677,1.129,2.824,1.292c0.731,0.104,1.43,0.049,2.078-0.153c1.471-0.46,2.974-1.921,3.702-3.621 c1.037-2.424,1.078-5.381,0.739-7.236c-0.266-1.454-0.385-2.616-0.273-3.382c0.149-1.018,0.329-1.861,1.124-1.449 c1.218,0.63,1.395,3.404,1.6,5.04c0.144,1.146,0.221,2.131,0.565,2.649c0.283,0.426,0.78,0.49,1.554,0.381 c0.407-0.057,1.108-0.136,1.555-0.377c0.675-0.365,1.379-0.666,2.081-0.823c2.641-0.592,4.056,0.408,2.568,0.914 c-3.125,1.064-6.324,3.378-7.501,7.623c-0.048,0.173-0.095,0.351-0.14,0.534c-0.01,0.042-0.051,0.209-0.062,0.252 c-1.144,4.667-3.506,13.362-16.548,13.362c-5.185,0-8.959-1.846-11.545-4.925c-4.844-5.763-5.086-15.292-4.249-20.194 c0.029-0.169,0.059-0.335,0.091-0.498C6.582,9.2,10.738,5.293,15.944,5.293z"/><path fill="#b7b4b0" d="M15.944,5.306c6.528,0,8.545,6.69,7.508,11.691c-0.918,4.424-0.314,8.069,1.544,9.863 c0.709,0.685,1.677,1.139,2.823,1.309c0.73,0.109,1.432,0.059,2.083-0.136c1.478-0.443,3.011-1.891,3.751-3.583 c1.056-2.413,1.102-5.368,0.767-7.243c-0.26-1.452-0.384-2.617-0.281-3.387c0.137-1.017,0.28-1.89,1.078-1.497 c1.209,0.596,1.385,3.39,1.589,5.021c0.142,1.137,0.217,2.119,0.553,2.644c0.278,0.435,0.766,0.516,1.533,0.423 c0.404-0.049,1.111-0.119,1.551-0.36c0.672-0.367,1.371-0.67,2.069-0.833c2.633-0.614,4.069,0.345,2.612,0.848 c-3.08,1.063-6.313,3.39-7.494,7.624c-0.049,0.173-0.095,0.351-0.14,0.534c-0.01,0.04-0.051,0.212-0.062,0.253 c-1.142,4.663-3.494,13.35-16.523,13.35c-5.167,0-8.938-1.836-11.524-4.916c-4.83-5.747-5.078-15.253-4.243-20.16 c0.029-0.169,0.059-0.335,0.091-0.497C6.602,9.215,10.744,5.306,15.944,5.306z"/><path fill="#b7b5b0" d="M15.944,5.319c6.496,0,8.498,6.709,7.466,11.654c-0.924,4.428-0.312,8.079,1.54,9.882 c0.708,0.69,1.676,1.15,2.821,1.326c0.73,0.113,1.433,0.07,2.088-0.118c1.485-0.426,3.047-1.862,3.8-3.544 c1.075-2.402,1.126-5.354,0.794-7.251c-0.254-1.451-0.383-2.618-0.288-3.393c0.125-1.017,0.232-1.92,1.033-1.545 c1.201,0.562,1.375,3.376,1.579,5.001c0.141,1.129,0.213,2.106,0.541,2.639c0.273,0.444,0.751,0.542,1.512,0.464 c0.4-0.041,1.113-0.103,1.548-0.343c0.669-0.369,1.364-0.675,2.057-0.843c2.625-0.636,4.083,0.282,2.656,0.781 c-3.035,1.062-6.302,3.402-7.486,7.626c-0.049,0.173-0.096,0.351-0.14,0.534c-0.009,0.039-0.052,0.214-0.062,0.253 c-1.141,4.658-3.481,13.338-16.497,13.338c-5.149,0-8.917-1.827-11.503-4.908c-4.815-5.731-5.071-15.214-4.237-20.126 c0.029-0.169,0.059-0.334,0.09-0.497C6.623,9.229,10.749,5.319,15.944,5.319z"/><path fill="#b8b6b1" d="M15.945,5.331c6.464,0,8.45,6.729,7.425,11.618c-0.93,4.431-0.311,8.089,1.535,9.901 c0.707,0.694,1.676,1.16,2.819,1.342c0.729,0.117,1.435,0.08,2.094-0.101c1.492-0.41,3.084-1.832,3.849-3.505 c1.093-2.391,1.15-5.341,0.822-7.259c-0.248-1.449-0.382-2.62-0.295-3.398c0.113-1.017,0.183-1.949,0.988-1.593 c1.192,0.528,1.366,3.362,1.568,4.982c0.14,1.12,0.209,2.094,0.529,2.634c0.268,0.452,0.736,0.568,1.491,0.506 c0.396-0.033,1.115-0.087,1.545-0.326c0.666-0.372,1.357-0.679,2.045-0.852c2.618-0.659,4.097,0.219,2.7,0.715 c-2.99,1.062-6.291,3.414-7.478,7.627c-0.049,0.173-0.096,0.351-0.141,0.534c-0.009,0.037-0.052,0.216-0.062,0.254 c-1.14,4.654-3.469,13.325-16.471,13.325c-5.131,0-8.896-1.817-11.482-4.899c-4.8-5.715-5.063-15.176-4.231-20.091 c0.029-0.168,0.059-0.334,0.09-0.496C6.643,9.243,10.755,5.331,15.945,5.331z"/><path fill="#b9b7b2" d="M15.945,5.344c6.432,0,8.403,6.749,7.383,11.581c-0.936,4.434-0.309,8.099,1.531,9.92 c0.706,0.699,1.676,1.17,2.818,1.359c0.728,0.121,1.436,0.091,2.099-0.083c1.499-0.393,3.12-1.802,3.898-3.467 c1.112-2.38,1.174-5.328,0.85-7.266c-0.242-1.447-0.381-2.621-0.303-3.403c0.102-1.016,0.134-1.979,0.942-1.641 c1.183,0.495,1.356,3.349,1.558,4.963c0.139,1.111,0.205,2.081,0.517,2.629c0.262,0.461,0.722,0.594,1.47,0.547 c0.393-0.025,1.118-0.07,1.542-0.309c0.663-0.374,1.35-0.684,2.033-0.862c2.61-0.681,4.111,0.156,2.744,0.649 c-2.944,1.061-6.28,3.426-7.47,7.629c-0.05,0.173-0.097,0.351-0.141,0.534c-0.009,0.036-0.053,0.218-0.062,0.254 c-1.138,4.65-3.457,13.313-16.446,13.313c-5.113,0-8.875-1.807-11.462-4.89C4.66,31.102,4.39,21.663,5.22,16.743 c0.029-0.168,0.058-0.333,0.09-0.495C6.664,9.257,10.76,5.344,15.945,5.344z"/><path fill="#bab7b3" d="M15.945,5.356c6.4,0,8.355,6.768,7.342,11.544c-0.942,4.438-0.308,8.109,1.526,9.939 c0.705,0.704,1.675,1.18,2.816,1.376c0.727,0.125,1.438,0.101,2.105-0.066c1.506-0.376,3.157-1.773,3.947-3.428 c1.131-2.369,1.198-5.314,0.878-7.274c-0.236-1.445-0.38-2.622-0.31-3.408c0.09-1.016,0.085-2.008,0.897-1.688 c1.174,0.462,1.346,3.335,1.547,4.943c0.138,1.102,0.201,2.068,0.505,2.624c0.257,0.47,0.707,0.621,1.449,0.589 c0.389-0.017,1.12-0.054,1.539-0.292c0.66-0.376,1.343-0.688,2.021-0.872c2.602-0.704,4.125,0.093,2.788,0.583 c-2.899,1.061-6.27,3.437-7.463,7.63c-0.05,0.173-0.097,0.351-0.142,0.534c-0.008,0.034-0.053,0.22-0.062,0.255 c-1.137,4.646-3.445,13.3-16.42,13.3c-5.096,0-8.854-1.798-11.441-4.881c-4.77-5.683-5.048-15.099-4.219-20.023 c0.028-0.168,0.058-0.333,0.089-0.495C6.684,9.271,10.766,5.356,15.945,5.356z"/><path fill="#bab8b4" d="M15.945,5.369c6.368,0,8.307,6.788,7.3,11.508c-0.948,4.441-0.306,8.119,1.522,9.958 c0.704,0.708,1.675,1.19,2.814,1.392c0.727,0.13,1.439,0.111,2.11-0.048c1.512-0.36,3.193-1.743,3.996-3.389 c1.15-2.358,1.222-5.301,0.906-7.282c-0.23-1.443-0.379-2.624-0.318-3.414c0.079-1.016,0.035-2.037,0.851-1.736 c1.164,0.429,1.336,3.321,1.537,4.924c0.137,1.093,0.197,2.056,0.493,2.619c0.252,0.479,0.693,0.647,1.428,0.63 c0.386-0.008,1.122-0.037,1.536-0.276c0.657-0.378,1.335-0.693,2.009-0.881c2.594-0.726,4.139,0.03,2.831,0.516 c-2.854,1.061-6.259,3.449-7.455,7.632c-0.05,0.173-0.097,0.351-0.142,0.534c-0.008,0.033-0.054,0.222-0.062,0.255 C36.166,32.954,33.869,41.6,20.907,41.6c-5.078,0-8.833-1.788-11.42-4.872c-4.756-5.666-5.04-15.06-4.213-19.989 c0.028-0.168,0.058-0.333,0.089-0.494C6.705,9.285,10.771,5.369,15.945,5.369z"/><path fill="#bbb9b5" d="M15.945,5.382c6.336,0,8.26,6.807,7.259,11.471c-0.954,4.444-0.305,8.129,1.518,9.978 c0.703,0.713,1.675,1.2,2.813,1.409c0.726,0.134,1.44,0.122,2.115-0.031c1.519-0.343,3.23-1.714,4.045-3.35 c1.169-2.347,1.245-5.288,0.934-7.289c-0.224-1.441-0.377-2.625-0.325-3.419c0.067-1.016-0.014-2.066,0.806-1.784 c1.155,0.396,1.326,3.307,1.526,4.905c0.136,1.085,0.193,2.043,0.481,2.614c0.246,0.487,0.678,0.677,1.406,0.672 c0.382-0.003,1.125-0.021,1.532-0.259c0.654-0.381,1.328-0.697,1.997-0.891c2.586-0.749,4.153-0.032,2.875,0.45 c-2.808,1.061-6.248,3.461-7.447,7.633c-0.05,0.173-0.098,0.351-0.142,0.534c-0.008,0.031-0.054,0.224-0.062,0.256 c-1.134,4.637-3.42,13.275-16.369,13.275c-5.06,0-8.813-1.778-11.399-4.864c-4.741-5.65-5.033-15.021-4.207-19.954 c0.028-0.168,0.058-0.332,0.089-0.493C6.725,9.3,10.777,5.382,15.945,5.382z"/><path fill="#bcbab6" d="M15.945,5.394c6.304,0,8.212,6.827,7.217,11.434c-0.96,4.448-0.303,8.139,1.513,9.997 c0.702,0.717,1.674,1.21,2.811,1.426c0.725,0.138,1.442,0.132,2.121-0.013c1.526-0.327,3.266-1.684,4.094-3.312 c1.187-2.336,1.269-5.274,0.962-7.297c-0.218-1.439-0.376-2.626-0.332-3.424c0.056-1.015-0.063-2.094,0.761-1.832 c1.145,0.364,1.317,3.293,1.516,4.885c0.135,1.076,0.189,2.031,0.469,2.609c0.241,0.496,0.663,0.699,1.385,0.714 c0.379,0.008,1.127-0.005,1.529-0.242c0.65-0.383,1.321-0.702,1.985-0.901c2.578-0.772,4.167-0.095,2.919,0.384 c-2.763,1.061-6.237,3.473-7.439,7.635c-0.051,0.173-0.098,0.352-0.143,0.534c-0.007,0.03-0.055,0.226-0.062,0.256 C36.117,32.88,33.842,41.51,20.907,41.51c-5.042,0-8.792-1.768-11.378-4.855c-4.726-5.634-5.025-14.983-4.201-19.92 c0.028-0.168,0.058-0.332,0.088-0.493C6.746,9.314,10.782,5.394,15.945,5.394z"/><path fill="#bdbbb7" d="M15.945,5.407c6.272,0,8.164,6.846,7.176,11.397c-0.966,4.451-0.302,8.149,1.509,10.016 c0.701,0.722,1.674,1.22,2.809,1.442c0.724,0.142,1.443,0.143,2.126,0.005c1.533-0.31,3.303-1.655,4.143-3.273 c1.206-2.324,1.292-5.261,0.99-7.305c-0.213-1.437-0.375-2.628-0.34-3.429c0.044-1.015-0.113-2.122,0.715-1.88 c1.136,0.332,1.307,3.279,1.505,4.866c0.134,1.067,0.184,2.018,0.457,2.604c0.235,0.505,0.649,0.725,1.364,0.755 c0.375,0.016,1.129,0.012,1.526-0.225c0.647-0.385,1.314-0.707,1.973-0.91c2.571-0.795,4.181-0.158,2.963,0.318 c-2.718,1.061-6.226,3.485-7.432,7.636c-0.051,0.174-0.099,0.352-0.143,0.534c-0.007,0.028-0.055,0.228-0.063,0.257 c-1.131,4.629-3.396,13.25-16.317,13.25c-5.024,0-8.771-1.759-11.358-4.846c-4.711-5.618-5.018-14.944-4.195-19.886 c0.028-0.167,0.057-0.331,0.088-0.492C6.766,9.328,10.788,5.407,15.945,5.407z"/><path fill="#bdbcb8" d="M15.945,5.42c6.24,0,8.116,6.866,7.134,11.361c-0.973,4.454-0.3,8.16,1.505,10.035 c0.699,0.727,1.674,1.231,2.807,1.459c0.724,0.146,1.445,0.153,2.132,0.022c1.54-0.294,3.339-1.625,4.192-3.234 c1.225-2.313,1.316-5.247,1.018-7.312c-0.207-1.435-0.373-2.629-0.347-3.435c0.033-1.015-0.162-2.15,0.67-1.928 c1.126,0.301,1.297,3.266,1.495,4.847c0.132,1.058,0.18,2.006,0.445,2.599c0.23,0.514,0.634,0.751,1.343,0.797 c0.371,0.024,1.131,0.028,1.523-0.208c0.644-0.388,1.307-0.711,1.961-0.92c2.563-0.818,4.195-0.22,3.007,0.251 c-2.672,1.061-6.215,3.497-7.424,7.638c-0.051,0.174-0.099,0.352-0.144,0.534c-0.007,0.027-0.056,0.23-0.063,0.257 c-1.13,4.624-3.383,13.238-16.292,13.238c-5.007,0-8.75-1.749-11.337-4.837C4.874,30.98,4.56,21.677,5.381,16.731 c0.028-0.167,0.057-0.331,0.088-0.491C6.787,9.342,10.793,5.42,15.945,5.42z"/><path fill="#bebdb9" d="M15.945,5.432c6.208,0,8.068,6.885,7.093,11.324c-0.979,4.458-0.299,8.17,1.5,10.054 c0.698,0.731,1.673,1.241,2.806,1.476c0.723,0.15,1.446,0.163,2.137,0.04c1.547-0.277,3.376-1.596,4.241-3.196 c1.244-2.302,1.339-5.234,1.046-7.32c-0.201-1.434-0.372-2.63-0.354-3.44c0.022-1.014-0.212-2.178,0.624-1.976 c1.116,0.27,1.287,3.252,1.484,4.827c0.131,1.049,0.176,1.993,0.433,2.594c0.224,0.522,0.619,0.777,1.322,0.838 c0.368,0.032,1.134,0.044,1.52-0.191c0.641-0.39,1.299-0.716,1.949-0.93c2.555-0.841,4.209-0.283,3.051,0.185 c-2.627,1.061-6.205,3.509-7.416,7.639c-0.051,0.174-0.099,0.352-0.144,0.534c-0.006,0.025-0.056,0.232-0.063,0.258 c-1.129,4.62-3.371,13.226-16.266,13.226c-4.989,0-8.729-1.739-11.316-4.828C4.909,30.96,4.589,21.679,5.408,16.729 c0.028-0.167,0.057-0.331,0.087-0.491C6.807,9.356,10.799,5.432,15.945,5.432z"/><path fill="#bfbdba" d="M15.945,5.445c6.176,0,8.02,6.905,7.051,11.287c-0.986,4.461-0.301,8.184,1.496,10.073 c0.696,0.738,1.673,1.251,2.804,1.492c0.722,0.155,1.447,0.174,2.142,0.057c1.554-0.261,3.413-1.566,4.29-3.157 c1.263-2.291,1.362-5.221,1.074-7.328c-0.196-1.432-0.37-2.632-0.362-3.445c0.011-1.014-0.262-2.205,0.579-2.024 c1.106,0.239,1.277,3.238,1.474,4.808c0.13,1.041,0.171,1.98,0.421,2.589c0.218,0.531,0.605,0.803,1.301,0.88 c0.364,0.04,1.136,0.061,1.517-0.174c0.637-0.393,1.292-0.721,1.937-0.94c2.546-0.864,4.223-0.345,3.095,0.119 c-2.581,1.062-6.194,3.521-7.408,7.641c-0.052,0.174-0.1,0.352-0.144,0.534c-0.006,0.024-0.057,0.234-0.063,0.258 c-1.127,4.616-3.359,13.213-16.24,13.213c-4.971,0-8.708-1.729-11.295-4.82c-4.667-5.57-4.995-14.829-4.177-19.783 c0.028-0.167,0.057-0.33,0.087-0.49C6.828,9.37,10.804,5.445,15.945,5.445z"/><path fill="#c0bebb" d="M15.945,5.457c6.144,0,7.971,6.924,7.01,11.251c-0.992,4.464-0.3,8.194,1.491,10.093 c0.695,0.742,1.673,1.261,2.802,1.509c0.722,0.159,1.449,0.184,2.148,0.075c1.561-0.244,3.449-1.537,4.338-3.118 c1.282-2.28,1.385-5.207,1.101-7.335c-0.19-1.43-0.369-2.633-0.369-3.45c0-1.014-0.311-2.232,0.534-2.072 c1.096,0.209,1.268,3.224,1.463,4.789c0.129,1.032,0.167,1.968,0.409,2.584c0.213,0.54,0.59,0.829,1.28,0.921 c0.361,0.048,1.138,0.077,1.514-0.157c0.634-0.395,1.285-0.725,1.925-0.949c2.538-0.888,4.237-0.408,3.139,0.053 c-2.536,1.062-6.183,3.533-7.401,7.642c-0.052,0.174-0.1,0.352-0.145,0.534c-0.005,0.022-0.057,0.236-0.063,0.259 c-1.126,4.611-3.347,13.201-16.215,13.201c-4.953,0-8.687-1.72-11.274-4.811C4.98,30.92,4.645,21.684,5.462,16.725 c0.028-0.167,0.056-0.33,0.087-0.489C6.848,9.385,10.81,5.457,15.945,5.457z"/><path fill="#c0bfbc" d="M15.945,5.47c6.112,0,7.923,6.943,6.968,11.214c-0.999,4.467-0.298,8.204,1.487,10.112 c0.693,0.747,1.672,1.271,2.801,1.525c0.721,0.163,1.45,0.194,2.153,0.092c1.568-0.228,3.489-1.505,4.387-3.08 c1.305-2.267,1.408-5.194,1.129-7.343c-0.185-1.428-0.367-2.634-0.377-3.456c-0.012-1.014-0.361-2.259,0.488-2.119 c1.087,0.179,1.258,3.21,1.453,4.769c0.128,1.023,0.162,1.955,0.397,2.579c0.207,0.549,0.576,0.855,1.258,0.963 c0.357,0.056,1.14,0.093,1.51-0.14c0.631-0.398,1.277-0.73,1.913-0.959c2.53-0.911,4.251-0.47,3.182-0.014 c-2.49,1.063-6.172,3.544-7.393,7.643c-0.052,0.174-0.101,0.352-0.145,0.534c-0.005,0.021-0.058,0.238-0.063,0.259 c-1.125,4.607-3.334,13.188-16.189,13.188c-4.935,0-8.666-1.71-11.253-4.802c-4.637-5.538-4.98-14.751-4.165-19.715 c0.027-0.166,0.056-0.329,0.086-0.489C6.868,9.399,10.815,5.47,15.945,5.47z"/><path fill="#c1c0bd" d="M15.945,5.483c6.08,0,7.875,6.963,6.927,11.177c-1.006,4.471-0.297,8.214,1.483,10.131 c0.692,0.751,1.672,1.281,2.799,1.542c0.72,0.167,1.452,0.205,2.159,0.11c1.575-0.211,3.525-1.476,4.436-3.041 c1.324-2.256,1.431-5.18,1.157-7.351c-0.18-1.426-0.366-2.636-0.384-3.461c-0.023-1.013-0.41-2.286,0.443-2.167 c1.077,0.149,1.248,3.197,1.442,4.75c0.127,1.014,0.158,1.943,0.385,2.574c0.201,0.557,0.561,0.881,1.237,1.004 c0.353,0.065,1.143,0.109,1.507-0.123c0.628-0.4,1.27-0.735,1.901-0.969c2.522-0.935,4.265-0.532,3.226-0.08 c-2.444,1.064-6.161,3.556-7.385,7.645c-0.053,0.174-0.101,0.352-0.145,0.534c-0.005,0.019-0.058,0.24-0.063,0.26 c-1.123,4.603-3.322,13.176-16.163,13.176c-4.917,0-8.645-1.7-11.233-4.793c-4.623-5.522-4.972-14.713-4.159-19.68 c0.027-0.166,0.056-0.329,0.086-0.488C6.889,9.413,10.821,5.483,15.945,5.483z"/><path fill="#c2c1be" d="M15.945,5.495c6.048,0,7.826,6.982,6.885,11.141c-1.013,4.474-0.295,8.224,1.478,10.15 c0.691,0.756,1.672,1.291,2.797,1.559c0.719,0.171,1.453,0.215,2.164,0.127c1.581-0.195,3.562-1.446,4.485-3.002 c1.343-2.245,1.453-5.167,1.185-7.358c-0.174-1.424-0.364-2.637-0.391-3.466c-0.034-1.013-0.46-2.312,0.397-2.215 c1.067,0.12,1.238,3.183,1.432,4.731c0.126,1.005,0.153,1.93,0.374,2.569c0.195,0.566,0.546,0.907,1.216,1.046 c0.35,0.073,1.145,0.126,1.504-0.106c0.624-0.403,1.263-0.74,1.889-0.978c2.514-0.958,4.279-0.594,3.27-0.146 c-2.398,1.065-6.15,3.568-7.377,7.646c-0.053,0.174-0.102,0.352-0.146,0.534c-0.004,0.018-0.059,0.242-0.063,0.26 c-1.122,4.599-3.31,13.163-16.138,13.163c-4.9,0-8.625-1.69-11.212-4.784C5.087,30.859,4.73,21.691,5.542,16.719 c0.027-0.166,0.056-0.329,0.086-0.487C6.909,9.427,10.827,5.495,15.945,5.495z"/><path fill="#c3c2bf" d="M15.945,5.508c6.016,0,7.778,7.002,6.844,11.104c-1.02,4.477-0.293,8.234,1.474,10.169 c0.69,0.761,1.671,1.301,2.796,1.575c0.719,0.175,1.454,0.225,2.17,0.145c1.588-0.179,3.598-1.417,4.534-2.964 c1.361-2.233,1.476-5.154,1.213-7.366c-0.169-1.422-0.362-2.638-0.399-3.471c-0.044-1.013-0.509-2.337,0.352-2.263 c1.058,0.091,1.229,3.169,1.421,4.711c0.125,0.997,0.149,1.918,0.362,2.564c0.189,0.575,0.532,0.933,1.195,1.087 c0.346,0.081,1.147,0.142,1.501-0.089c0.621-0.405,1.256-0.744,1.877-0.988c2.505-0.982,4.293-0.656,3.314-0.212 c-2.352,1.067-6.14,3.58-7.37,7.648c-0.053,0.174-0.102,0.352-0.146,0.534c-0.004,0.016-0.059,0.244-0.063,0.261 c-1.121,4.594-3.298,13.151-16.112,13.151c-4.882,0-8.604-1.681-11.191-4.776c-4.593-5.49-4.957-14.636-4.147-19.612 c0.027-0.166,0.056-0.328,0.085-0.487C6.93,9.441,10.832,5.508,15.945,5.508z"/><path fill="#c3c3c0" d="M15.945,5.52c5.984,0,7.73,7.021,6.802,11.067c-1.027,4.48-0.292,8.244,1.469,10.188 c0.689,0.765,1.671,1.311,2.794,1.592c0.718,0.18,1.456,0.236,2.175,0.163c1.595-0.162,3.635-1.387,4.583-2.925 c1.38-2.222,1.498-5.14,1.241-7.374c-0.164-1.42-0.36-2.64-0.406-3.477c-0.055-1.013-0.559-2.363,0.307-2.311 c1.048,0.063,1.219,3.155,1.411,4.692c0.124,0.988,0.144,1.905,0.35,2.559c0.183,0.584,0.517,0.959,1.174,1.129 c0.343,0.089,1.149,0.158,1.498-0.072c0.617-0.408,1.248-0.749,1.865-0.998c2.497-1.006,4.308-0.718,3.358-0.279 c-2.306,1.068-6.129,3.592-7.362,7.649c-0.053,0.174-0.102,0.353-0.147,0.534c-0.004,0.015-0.06,0.246-0.064,0.261 c-1.119,4.59-3.285,13.138-16.086,13.138c-4.864,0-8.583-1.671-11.17-4.767c-4.578-5.474-4.95-14.597-4.141-19.578 c0.027-0.166,0.055-0.328,0.085-0.486C6.95,9.455,10.838,5.52,15.945,5.52z"/><path fill="#c4c3c1" d="M15.945,5.533c5.952,0,7.681,7.04,6.761,11.031c-1.034,4.483-0.29,8.254,1.465,10.207 c0.688,0.77,1.671,1.322,2.792,1.609c0.717,0.184,1.457,0.246,2.18,0.18c1.602-0.146,3.671-1.358,4.632-2.886 c1.399-2.211,1.521-5.127,1.269-7.381c-0.158-1.418-0.359-2.641-0.414-3.482c-0.066-1.013-0.601-2.474,0.261-2.359 c1.03,0.138,1.209,3.141,1.4,4.673c0.123,0.979,0.139,1.892,0.338,2.554c0.177,0.592,0.502,0.985,1.153,1.17 c0.339,0.097,1.151,0.174,1.495-0.055c0.614-0.411,1.241-0.754,1.853-1.007c2.489-1.03,4.322-0.78,3.402-0.345 c-2.26,1.07-6.118,3.604-7.354,7.651c-0.054,0.175-0.103,0.353-0.147,0.534c-0.003,0.013-0.06,0.248-0.064,0.262 c-1.118,4.586-3.273,13.126-16.061,13.126c-4.846,0-8.562-1.661-11.149-4.758c-4.564-5.458-4.942-14.559-4.135-19.543 c0.027-0.166,0.055-0.328,0.085-0.485C6.971,9.47,10.843,5.533,15.945,5.533z"/><path fill="#c5c4c2" d="M15.945,5.546c5.92,0,7.632,7.06,6.719,10.994c-1.041,4.486-0.289,8.264,1.461,10.227 c0.687,0.774,1.67,1.332,2.791,1.625c0.716,0.188,1.459,0.256,2.186,0.198c1.609-0.13,3.708-1.328,4.681-2.847 c1.417-2.2,1.543-5.113,1.297-7.389c-0.153-1.416-0.357-2.643-0.421-3.487c-0.077-1.013-0.653-2.492,0.216-2.407 c1.025,0.101,1.199,3.127,1.39,4.653c0.121,0.97,0.135,1.88,0.326,2.549c0.171,0.601,0.488,1.011,1.132,1.212 c0.336,0.105,1.154,0.19,1.491-0.038c0.61-0.413,1.233-0.759,1.841-1.017c2.48-1.054,4.336-0.842,3.446-0.411 c-2.214,1.072-6.107,3.616-7.346,7.652c-0.054,0.175-0.103,0.353-0.147,0.534c-0.003,0.012-0.061,0.25-0.064,0.262 c-1.117,4.582-3.261,13.113-16.035,13.113c-4.828,0-8.541-1.651-11.128-4.749C5.23,30.778,4.844,21.7,5.65,16.711 c0.027-0.165,0.055-0.327,0.084-0.485C6.991,9.484,10.849,5.546,15.945,5.546z"/><path fill="#c6c5c3" d="M15.945,5.558c5.888,0,7.584,7.079,6.678,10.957c-1.048,4.489-0.287,8.274,1.456,10.246 c0.686,0.779,1.67,1.342,2.789,1.642c0.716,0.192,1.46,0.266,2.191,0.215c1.616-0.113,3.744-1.298,4.73-2.809 c1.436-2.189,1.565-5.1,1.325-7.397c-0.148-1.415-0.355-2.644-0.428-3.492c-0.088-1.013-0.704-2.508,0.17-2.455 c1.02,0.063,1.189,3.114,1.379,4.634c0.12,0.961,0.13,1.867,0.314,2.544c0.165,0.61,0.473,1.037,1.111,1.253 c0.332,0.113,1.156,0.207,1.488-0.021c0.607-0.416,1.226-0.764,1.829-1.027c2.471-1.078,4.351-0.904,3.49-0.477 c-2.168,1.074-6.096,3.628-7.339,7.654c-0.054,0.175-0.104,0.353-0.148,0.534c-0.003,0.01-0.061,0.252-0.064,0.263 c-1.115,4.577-3.249,13.101-16.009,13.101c-4.81,0-8.52-1.642-11.108-4.74c-4.534-5.426-4.927-14.481-4.123-19.475 c0.027-0.165,0.055-0.327,0.084-0.484C7.012,9.498,10.854,5.558,15.945,5.558z"/><path fill="#c6c6c4" d="M15.945,5.571c5.856,0,7.535,7.098,6.636,10.921c-1.056,4.492-0.286,8.284,1.452,10.265 c0.685,0.784,1.67,1.352,2.787,1.659c0.715,0.196,1.462,0.275,2.197,0.233c1.623-0.1,3.781-1.269,4.779-2.77 c1.455-2.178,1.587-5.086,1.353-7.404c-0.143-1.413-0.353-2.646-0.436-3.498c-0.098-1.013-0.754-2.46,0.125-2.502 c1.013-0.048,1.18,3.1,1.369,4.615c0.119,0.953,0.125,1.854,0.302,2.539c0.159,0.619,0.459,1.063,1.089,1.295 c0.328,0.121,1.158,0.223,1.485-0.004c0.603-0.419,1.219-0.769,1.817-1.036c2.463-1.102,4.365-0.966,3.533-0.544 c-2.121,1.076-6.085,3.639-7.331,7.655c-0.054,0.175-0.104,0.353-0.148,0.534c-0.002,0.009-0.062,0.254-0.064,0.264 c-1.114,4.573-3.236,13.089-15.984,13.089c-4.793,0-8.499-1.632-11.087-4.732c-4.519-5.41-4.919-14.443-4.117-19.441 c0.027-0.165,0.054-0.326,0.084-0.483C7.032,9.512,10.86,5.571,15.945,5.571z"/><path fill="#c7c7c5" d="M15.945,5.583c5.824,0,7.486,7.117,6.595,10.884c-1.063,4.495-0.284,8.294,1.447,10.284 c0.683,0.788,1.669,1.362,2.786,1.675c0.714,0.201,1.463,0.286,2.202,0.25c1.63-0.084,3.817-1.239,4.828-2.731 c1.474-2.167,1.609-5.073,1.381-7.412c-0.138-1.411-0.351-2.647-0.443-3.503c-0.109-1.013-0.803-2.484,0.08-2.55 c1.005-0.075,1.17,3.086,1.358,4.595c0.118,0.944,0.12,1.842,0.29,2.534c0.153,0.627,0.444,1.088,1.068,1.337 c0.325,0.129,1.16,0.239,1.482,0.012c0.6-0.422,1.211-0.774,1.805-1.046c2.454-1.126,4.38-1.027,3.577-0.61 c-2.074,1.079-6.075,3.651-7.323,7.657c-0.055,0.175-0.104,0.353-0.149,0.534c-0.002,0.007-0.062,0.256-0.064,0.264 c-1.113,4.569-3.224,13.076-15.958,13.076c-4.775,0-8.478-1.622-11.066-4.723C5.336,30.717,4.929,21.707,5.73,16.705 c0.026-0.165,0.054-0.326,0.083-0.483C7.053,9.526,10.865,5.583,15.945,5.583z"/><path fill="#c8c8c6" d="M15.945,5.596c5.792,0,7.43,7.135,6.553,10.847c-1.079,4.496-0.283,8.304,1.443,10.303 c0.682,0.793,1.669,1.372,2.784,1.692c0.713,0.205,1.464,0.296,2.207,0.268c1.637-0.067,3.854-1.21,4.877-2.693 c1.492-2.156,1.631-5.06,1.409-7.42c-0.133-1.409-0.349-2.649-0.45-3.508c-0.12-1.013-0.851-2.507,0.034-2.598 c0.998-0.102,1.16,3.072,1.348,4.576c0.117,0.935,0.116,1.829,0.278,2.529c0.147,0.636,0.43,1.113,1.047,1.378 c0.322,0.137,1.162,0.255,1.479,0.029c0.596-0.425,1.204-0.778,1.793-1.056c2.445-1.15,4.394-1.089,3.621-0.676 c-2.027,1.082-6.064,3.663-7.315,7.658c-0.055,0.175-0.105,0.353-0.149,0.534c-0.001,0.006-0.063,0.258-0.064,0.265 c-1.111,4.565-3.212,13.064-15.932,13.064c-4.757,0-8.457-1.612-11.045-4.714c-4.49-5.378-4.904-14.366-4.105-19.372 c0.026-0.165,0.054-0.326,0.083-0.482C7.073,9.54,10.871,5.596,15.945,5.596z"/><path fill="#c9c8c7" d="M15.945,5.609c5.76,0,7.383,7.155,6.512,10.811c-1.085,4.5-0.281,8.314,1.439,10.322 c0.681,0.797,1.669,1.382,2.782,1.708c0.713,0.209,1.466,0.307,2.213,0.285c1.644-0.05,3.89-1.18,4.926-2.654 c1.511-2.145,1.653-5.046,1.436-7.427c-0.128-1.407-0.347-2.65-0.458-3.513c-0.13-1.013-0.899-2.53-0.011-2.646 c0.99-0.129,1.15,3.058,1.337,4.557c0.116,0.926,0.111,1.816,0.266,2.524c0.141,0.645,0.415,1.139,1.026,1.42 c0.318,0.145,1.164,0.271,1.476,0.046c0.593-0.428,1.196-0.783,1.781-1.066c2.436-1.175,4.409-1.15,3.665-0.743 c-1.98,1.085-6.053,3.675-7.308,7.66c-0.055,0.175-0.105,0.353-0.149,0.534c-0.001,0.004-0.063,0.26-0.064,0.265 c-1.11,4.56-3.2,13.051-15.907,13.051c-4.739,0-8.437-1.603-11.024-4.705c-4.475-5.362-4.897-14.327-4.099-19.338 c0.026-0.165,0.054-0.325,0.083-0.482C7.094,9.555,10.876,5.609,15.945,5.609z"/><path fill="#c9c9c8" d="M15.945,5.621c5.728,0,7.336,7.174,6.47,10.774c-1.091,4.503-0.279,8.324,1.434,10.342 c0.68,0.802,1.668,1.392,2.781,1.725c0.712,0.213,1.467,0.317,2.218,0.303c1.651-0.033,3.927-1.151,4.975-2.615 c1.53-2.134,1.674-5.033,1.464-7.435c-0.123-1.405-0.345-2.652-0.465-3.519c-0.141-1.013-0.946-2.553-0.056-2.694 c0.983-0.156,1.141,3.044,1.327,4.537c0.115,0.917,0.106,1.804,0.254,2.519c0.135,0.653,0.401,1.165,1.005,1.461 c0.314,0.153,1.166,0.287,1.473,0.063c0.589-0.431,1.188-0.789,1.769-1.075c2.425-1.204,4.424-1.212,3.709-0.809 c-1.932,1.089-6.042,3.687-7.3,7.661c-0.056,0.175-0.106,0.353-0.15,0.534c-0.001,0.003-0.064,0.262-0.064,0.266 c-1.109,4.556-3.187,13.039-15.881,13.039c-4.721,0-8.416-1.593-11.004-4.696c-4.46-5.346-4.889-14.288-4.093-19.304 c0.026-0.164,0.054-0.325,0.082-0.481C7.114,9.569,10.882,5.621,15.945,5.621z"/><path fill="#cacac9" d="M15.945,5.634c5.696,0,7.288,7.194,6.429,10.737c-1.097,4.506-0.278,8.334,1.43,10.361 c0.679,0.807,1.668,1.402,2.779,1.742c0.711,0.217,1.469,0.328,2.224,0.321c1.658-0.017,3.963-1.121,5.024-2.577 c1.548-2.123,1.693-5.019,1.492-7.443c-0.119-1.403-0.341-2.654-0.473-3.524c-0.15-1.013-0.993-2.576-0.102-2.742 c0.977-0.182,1.131,3.031,1.316,4.518c0.114,0.909,0.1,1.791,0.242,2.514c0.128,0.662,0.386,1.191,0.984,1.503 c0.311,0.161,1.168,0.303,1.469,0.08c0.585-0.434,1.181-0.794,1.757-1.085c2.417-1.226,4.438-1.273,3.753-0.875 c-1.885,1.093-6.031,3.699-7.292,7.663c-0.056,0.175-0.106,0.354-0.15,0.534c0,0.001-0.064,0.265-0.065,0.266 c-1.107,4.552-3.175,13.026-15.855,13.026c-4.704,0-8.395-1.583-10.983-4.688c-4.445-5.33-4.881-14.25-4.087-19.269 c0.026-0.164,0.053-0.324,0.082-0.48C7.135,9.583,10.887,5.634,15.945,5.634z"/><path fill="#cbcbca" d="M20.907,40.609c-4.686,0-8.374-1.574-10.962-4.679C5.37,30.443,5.046,21.134,5.946,16.215 c1.209-6.618,4.947-10.569,9.999-10.569c5.664,0,7.241,7.213,6.387,10.701c-1.104,4.51-0.276,8.344,1.425,10.38 c1.112,1.331,3.063,2.096,5.006,2.096c1.665,0,3.999-1.092,5.073-2.538c2.466-3.323,1.424-8.581,1.04-10.979 c-0.162-1.013-1.04-2.598-0.147-2.79c0.971-0.208,1.121,3.017,1.306,4.499c0.216,1.725-0.043,3.37,1.192,4.053 c0.307,0.169,1.17,0.319,1.466,0.097c3.032-2.276,6.355-2.522,5.542-2.036c-1.918,1.147-6.397,3.946-7.435,8.199l-0.065,0.267 C35.631,32.143,33.574,40.609,20.907,40.609z"/><radialGradient id="58OkKSIsdwV7wwJVHGAqPa" cx="8.842" cy="15.714" r="4.167" gradientTransform="matrix(1.1571 .2259 -.3167 1.6217 4.419 -9.36)" gradientUnits="userSpaceOnUse"><stop offset="0" stop-color="#e6e6e4" stop-opacity=".8"/><stop offset="1" stop-color="#e6e6e4" stop-opacity="0"/></radialGradient><path fill="url(#58OkKSIsdwV7wwJVHGAqPa)" d="M14.331,19.031c-0.753,3.855-3.448,6.572-6.02,6.07s-4.047-4.034-3.295-7.889	s3.448-6.572,6.02-6.07S15.084,15.176,14.331,19.031z" opacity=".7"/><radialGradient id="58OkKSIsdwV7wwJVHGAqPb" cx="15.626" cy="9.15" r="4.167" gradientTransform="matrix(1.4624 0 0 .79 -6.62 1.387)" gradientUnits="userSpaceOnUse"><stop offset="0" stop-color="#e6e6e4" stop-opacity=".8"/><stop offset="1" stop-color="#e6e6e4" stop-opacity="0"/></radialGradient><ellipse cx="16.23" cy="8.615" fill="url(#58OkKSIsdwV7wwJVHGAqPb)" opacity=".7" rx="5.886" ry="3.4"/><radialGradient id="58OkKSIsdwV7wwJVHGAqPc" cx="22.51" cy="24.345" r="17.138" gradientUnits="userSpaceOnUse"><stop offset="0" stop-color="#e6e6e4" stop-opacity=".8"/><stop offset="1" stop-color="#e6e6e4" stop-opacity="0"/></radialGradient><path fill="url(#58OkKSIsdwV7wwJVHGAqPc)" d="M16.131,22.552c-4.83,0-8.099,4.215-7.628,10.094c0.288,3.59,6.075,10.047,14.704,9.011	c8.726-1.048,13.052-9.44,13.949-13.675s-1.801-4.951-2.879-2.379c-1.456,3.475-4.993,5.954-9.067,3.375	C21.723,26.771,22.108,22.552,16.131,22.552z"/><linearGradient id="58OkKSIsdwV7wwJVHGAqPd" x1="21.613" x2="21.514" y1="37.165" y2="24.013" gradientUnits="userSpaceOnUse"><stop offset="0" stop-color="#80756e" stop-opacity="0"/><stop offset="1" stop-color="#80756e" stop-opacity=".8"/></linearGradient><path fill="url(#58OkKSIsdwV7wwJVHGAqPd)" d="M24.036,27.342c0.567,2.185-0.22,7.565-1.919,9.608s-2.972-1.744-3.183-2.391	C18.724,33.91,24.036,27.342,24.036,27.342z"/><linearGradient id="58OkKSIsdwV7wwJVHGAqPe" x1="13.444" x2="4.079" y1="38.015" y2="24.364" gradientUnits="userSpaceOnUse"><stop offset="0" stop-color="#80756e" stop-opacity="0"/><stop offset="1" stop-color="#80756e" stop-opacity=".8"/></linearGradient><path fill="url(#58OkKSIsdwV7wwJVHGAqPe)" d="M6.824,28.536c0.05,1.584,1.028,6.392,4.346,8.673c1.721,1.036,2.051-1.904,2.137-2.701	C13.393,33.711,6.824,28.536,6.824,28.536z"/><linearGradient id="58OkKSIsdwV7wwJVHGAqPf" x1="23.214" x2="18.381" y1="26.799" y2="37.211" gradientUnits="userSpaceOnUse"><stop offset="0" stop-color="#cbcbca"/><stop offset="1" stop-color="#a8a39c"/></linearGradient><path fill="url(#58OkKSIsdwV7wwJVHGAqPf)" d="M22.306,25.906c-0.641,2.278-3.096,4.946-4.364,6.264c-0.823,0.856-0.86,1.554-0.582,2.386	c0.278,0.832,0.938,2.045,1.802,2.492c0.863,0.448,1.974-0.012,3.037-1.742s1.913-5.382,1.838-7.964	C23.343,26.123,22.306,25.906,22.306,25.906z"/><linearGradient id="58OkKSIsdwV7wwJVHGAqPg" x1="7.555" x2="14.231" y1="28.703" y2="36.674" gradientUnits="userSpaceOnUse"><stop offset="0" stop-color="#cbcbca"/><stop offset="1" stop-color="#a8a39c"/></linearGradient><path fill="url(#58OkKSIsdwV7wwJVHGAqPg)" d="M8.074,26.988c1.005,2.443,3.083,4.193,5.025,5.395c1.577,0.977,1.027,2.289,0.734,3.127	s-1.152,1.467-2.33,0.648c-1.778-1.236-3.606-3.827-4.677-7.622C7.776,27.528,8.074,26.988,8.074,26.988z"/><linearGradient id="58OkKSIsdwV7wwJVHGAqPh" x1="11.493" x2="14.75" y1="11.466" y2="14.723" gradientUnits="userSpaceOnUse"><stop offset="0" stop-color="#80756e" stop-opacity="0"/><stop offset="1" stop-color="#80756e" stop-opacity=".8"/></linearGradient><ellipse cx="12.663" cy="12.636" fill="url(#58OkKSIsdwV7wwJVHGAqPh)" rx="1.827" ry="1.596"/><linearGradient id="58OkKSIsdwV7wwJVHGAqPi" x1="22.364" x2="20.804" y1="11.661" y2="14.883" gradientUnits="userSpaceOnUse"><stop offset="0" stop-color="#80756e" stop-opacity="0"/><stop offset="1" stop-color="#80756e" stop-opacity=".8"/></linearGradient><ellipse cx="21.892" cy="12.636" fill="url(#58OkKSIsdwV7wwJVHGAqPi)" rx="1.827" ry="1.596"/><radialGradient id="58OkKSIsdwV7wwJVHGAqPj" cx="13.999" cy="12.265" r="1.313" gradientUnits="userSpaceOnUse"><stop offset=".003" stop-color="#a6a6a6"/><stop offset=".043" stop-color="#9c9b9a"/><stop offset=".244" stop-color="#706762"/><stop offset=".416" stop-color="#504139"/><stop offset=".552" stop-color="#3c2a20"/><stop offset=".634" stop-color="#352117"/><stop offset=".988"/></radialGradient><circle cx="13.178" cy="12.352" r="1.312" fill="url(#58OkKSIsdwV7wwJVHGAqPj)"/><radialGradient id="58OkKSIsdwV7wwJVHGAqPk" cx="22.268" cy="12.333" r="1.313" gradientUnits="userSpaceOnUse"><stop offset=".003" stop-color="#a6a6a6"/><stop offset=".043" stop-color="#9c9b9a"/><stop offset=".244" stop-color="#706762"/><stop offset=".416" stop-color="#504139"/><stop offset=".552" stop-color="#3c2a20"/><stop offset=".634" stop-color="#352117"/><stop offset=".988"/></radialGradient><circle cx="21.378" cy="12.352" r="1.312" fill="url(#58OkKSIsdwV7wwJVHGAqPk)"/><linearGradient id="58OkKSIsdwV7wwJVHGAqPl" x1="17.504" x2="17.504" y1="15.602" y2="19.29" gradientUnits="userSpaceOnUse"><stop offset="0" stop-color="#afafa9"/><stop offset="1" stop-color="#8c867e"/></linearGradient><circle cx="17.504" cy="17.975" r="1.656" fill="url(#58OkKSIsdwV7wwJVHGAqPl)"/><linearGradient id="58OkKSIsdwV7wwJVHGAqPm" x1="15.632" x2="15.632" y1="14.803" y2="18.424" gradientUnits="userSpaceOnUse"><stop offset="0" stop-color="#cbcbca"/><stop offset="1" stop-color="#a8a39c"/></linearGradient><circle cx="15.632" cy="16.534" r="2.098" fill="url(#58OkKSIsdwV7wwJVHGAqPm)"/><linearGradient id="58OkKSIsdwV7wwJVHGAqPn" x1="19.376" x2="19.376" y1="14.803" y2="18.424" gradientUnits="userSpaceOnUse"><stop offset="0" stop-color="#cbcbca"/><stop offset="1" stop-color="#a8a39c"/></linearGradient><circle cx="19.376" cy="16.534" r="2.098" fill="url(#58OkKSIsdwV7wwJVHGAqPn)"/><radialGradient id="58OkKSIsdwV7wwJVHGAqPo" cx="17.58" cy="14.008" r="1.948" gradientUnits="userSpaceOnUse"><stop offset="0" stop-color="#594845"/><stop offset=".405" stop-color="#53433f"/><stop offset=".948" stop-color="#423733"/><stop offset="1" stop-color="#403531"/></radialGradient><path fill="url(#58OkKSIsdwV7wwJVHGAqPo)" d="M17.504,13.927c-1.44,0-2.016,0.435-2.016,0.871c0,0.435,0.288,0.871,0.576,1.089	c0.288,0.218,0.576,0.653,1.44,0.653s1.152-0.435,1.44-0.653c0.288-0.218,0.576-0.653,0.576-1.089	C19.52,14.362,18.944,13.927,17.504,13.927z"/><linearGradient id="58OkKSIsdwV7wwJVHGAqPp" x1="13.833" x2="16.647" y1="9.515" y2="12.056" gradientUnits="userSpaceOnUse"><stop offset="0" stop-color="#80756e" stop-opacity="0"/><stop offset="1" stop-color="#80756e" stop-opacity=".8"/></linearGradient><path fill="url(#58OkKSIsdwV7wwJVHGAqPp)" d="M14.16,10.646c0.204,0.2,0.353,0.452,0.57,0.637c0.217,0.185,0.546,0.291,0.787,0.138	c0.305-0.194,0.276-0.644,0.184-0.994c-0.111-0.422-0.264-0.838-0.506-1.202s-0.578-0.674-0.986-0.831	c-0.407-0.157-0.888-0.147-1.263,0.076s-0.62,0.673-0.551,1.104c0.047,0.298,0.256,0.564,0.528,0.691	c0.252,0.118,0.498,0.06,0.76,0.113C13.865,10.415,14.028,10.517,14.16,10.646z"/><linearGradient id="58OkKSIsdwV7wwJVHGAqPq" x1="21.028" x2="17.926" y1="9.163" y2="12.264" gradientUnits="userSpaceOnUse"><stop offset="0" stop-color="#80756e" stop-opacity="0"/><stop offset="1" stop-color="#80756e" stop-opacity=".8"/></linearGradient><path fill="url(#58OkKSIsdwV7wwJVHGAqPq)" d="M20.341,10.646c-0.204,0.2-0.353,0.452-0.571,0.637c-0.217,0.185-0.546,0.291-0.787,0.138	c-0.305-0.194-0.276-0.644-0.184-0.994c0.111-0.422,0.264-0.838,0.506-1.202c0.242-0.364,0.578-0.674,0.986-0.831	c0.407-0.157,0.888-0.147,1.263,0.076s0.62,0.673,0.551,1.104c-0.047,0.298-0.256,0.564-0.528,0.691	c-0.252,0.118-0.498,0.06-0.76,0.113C20.636,10.415,20.472,10.517,20.341,10.646z"/><linearGradient id="58OkKSIsdwV7wwJVHGAqPr" x1="7.532" x2="2.849" y1="19.636" y2="19.403" gradientUnits="userSpaceOnUse"><stop offset="0" stop-color="#80756e" stop-opacity="0"/><stop offset="1" stop-color="#80756e" stop-opacity=".8"/></linearGradient><path fill="url(#58OkKSIsdwV7wwJVHGAqPr)" d="M6.016,21.859c-0.468,0.611-1.232,1.019-1.986,1.019c-0.061-2.383,0.132-4.512,0.418-6.081	c0.041-0.244,0.092-0.479,0.143-0.723c0.092,0.051,0.183,0.122,0.275,0.193c0.519,0.418,0.947,0.947,1.253,1.538	c0.173,0.336,0.306,0.682,0.397,1.049C6.759,19.873,6.647,21.024,6.016,21.859z"/><linearGradient id="58OkKSIsdwV7wwJVHGAqPs" x1="9.486" x2="4.671" y1="23.748" y2="26.172" gradientUnits="userSpaceOnUse"><stop offset="0" stop-color="#80756e" stop-opacity="0"/><stop offset="1" stop-color="#80756e" stop-opacity=".8"/></linearGradient><path fill="url(#58OkKSIsdwV7wwJVHGAqPs)" d="M7.13,23.475c0.288-0.306,0.806-0.327,1.156-0.096c0.35,0.232,0.533,0.67,0.518,1.089	c-0.015,0.42-0.206,0.819-0.471,1.146c-0.275,0.339-0.645,0.618-1.073,0.703c-0.428,0.085-0.913-0.052-1.174-0.403	c-0.207-0.279-0.285-0.857,0.076-1.052c0.126-0.068,0.267-0.095,0.375-0.195c0.15-0.138,0.205-0.358,0.268-0.545	C6.883,23.895,6.961,23.654,7.13,23.475z"/><linearGradient id="58OkKSIsdwV7wwJVHGAqPt" x1="19.634" x2="27.945" y1="20.323" y2="21.387" gradientUnits="userSpaceOnUse"><stop offset="0" stop-color="#80756e" stop-opacity="0"/><stop offset="1" stop-color="#80756e" stop-opacity=".8"/></linearGradient><path fill="url(#58OkKSIsdwV7wwJVHGAqPt)" d="M24.329,23.438c-0.01,0.01-0.031,0.01-0.041,0.02c-0.693,0.346-1.927,0.045-2.149-0.235	c-0.758-0.954-0.865-1.615-0.566-2.532c0.197-0.603,0.66-1.23,1.206-1.552c0.546-0.322,1.051-0.693,1.621-0.978	c0.02-0.01,0.031-0.031,0.051-0.041C24.125,20.128,24.064,21.93,24.329,23.438z"/><linearGradient id="58OkKSIsdwV7wwJVHGAqPu" x1="20.117" x2="22.777" y1="29.289" y2="31.691" gradientTransform="rotate(19.965 17.587 30.48)" gradientUnits="userSpaceOnUse"><stop offset="0" stop-color="#80756e" stop-opacity="0"/><stop offset="1" stop-color="#80756e" stop-opacity=".8"/></linearGradient><path fill="url(#58OkKSIsdwV7wwJVHGAqPu)" d="M22.676,27.493c-0.576,1.533-1.293,2.992-2.031,4.133c-0.279,0.431-0.56,0.816-0.837,1.147	c-0.278,0.332-0.552,0.611-0.814,0.828c-0.074,0.061-0.146,0.117-0.218,0.168c-0.067,0.048-0.148,0.118-0.207,0.132	c0.026-0.084,0.13-0.179,0.166-0.222c0.068-0.082,0.137-0.166,0.206-0.252c0.136-0.169,0.272-0.344,0.409-0.524	c0.272-0.359,0.545-0.739,0.817-1.139c0.274-0.401,0.547-0.822,0.818-1.261c0.27-0.437,0.539-0.891,0.804-1.36	c0.267-0.472,0.531-0.959,0.79-1.46C22.611,27.618,22.643,27.556,22.676,27.493z"/><linearGradient id="58OkKSIsdwV7wwJVHGAqPv" x1="21.643" x2="24.304" y1="30.722" y2="33.124" gradientTransform="rotate(12.683 15.668 29.66)" gradientUnits="userSpaceOnUse"><stop offset="0" stop-color="#80756e" stop-opacity="0"/><stop offset="1" stop-color="#80756e" stop-opacity=".8"/></linearGradient><path fill="url(#58OkKSIsdwV7wwJVHGAqPv)" d="M23.203,29.007c-0.377,1.593-0.903,3.132-1.49,4.357c-0.222,0.463-0.452,0.88-0.685,1.244	c-0.234,0.365-0.47,0.676-0.703,0.924c-0.065,0.07-0.13,0.134-0.195,0.194c-0.06,0.056-0.132,0.136-0.188,0.157	c0.015-0.086,0.106-0.194,0.136-0.242c0.057-0.091,0.115-0.182,0.172-0.276c0.113-0.185,0.227-0.376,0.339-0.572	c0.224-0.391,0.447-0.802,0.666-1.233c0.22-0.433,0.438-0.885,0.652-1.355c0.213-0.467,0.421-0.952,0.625-1.451	c0.205-0.502,0.405-1.019,0.599-1.549C23.156,29.139,23.18,29.073,23.203,29.007z"/><linearGradient id="58OkKSIsdwV7wwJVHGAqPw" x1="14.806" x2="17.417" y1="32.05" y2="34.407" gradientTransform="scale(-1 1) rotate(36.813 4.003 -6.905)" gradientUnits="userSpaceOnUse"><stop offset="0" stop-color="#80756e" stop-opacity="0"/><stop offset="1" stop-color="#80756e" stop-opacity=".8"/></linearGradient><path fill="url(#58OkKSIsdwV7wwJVHGAqPw)" d="M8.212,28.937c0.835,1.209,1.756,2.322,2.607,3.152c0.322,0.313,0.633,0.586,0.927,0.813	c0.295,0.228,0.573,0.409,0.826,0.539c0.071,0.036,0.14,0.069,0.207,0.097c0.063,0.026,0.142,0.07,0.189,0.068	c-0.041-0.067-0.144-0.127-0.182-0.157c-0.073-0.057-0.146-0.115-0.22-0.174c-0.146-0.117-0.294-0.239-0.444-0.366	c-0.298-0.252-0.602-0.523-0.91-0.81c-0.31-0.289-0.625-0.595-0.944-0.917c-0.317-0.32-0.637-0.657-0.96-1.007	c-0.324-0.352-0.649-0.718-0.975-1.097C8.293,29.032,8.252,28.984,8.212,28.937z"/><linearGradient id="58OkKSIsdwV7wwJVHGAqPx" x1="15.789" x2="18.395" y1="32.684" y2="35.037" gradientTransform="scale(-1 1) rotate(29.526 2.96 -17.296)" gradientUnits="userSpaceOnUse"><stop offset="0" stop-color="#80756e" stop-opacity="0"/><stop offset="1" stop-color="#80756e" stop-opacity=".8"/></linearGradient><path fill="url(#58OkKSIsdwV7wwJVHGAqPx)" d="M8.219,30.379c0.702,1.307,1.502,2.532,2.264,3.47c0.288,0.354,0.57,0.667,0.84,0.932	c0.271,0.266,0.529,0.484,0.768,0.649c0.067,0.046,0.133,0.088,0.197,0.125c0.06,0.035,0.134,0.089,0.182,0.095	c-0.034-0.072-0.131-0.146-0.166-0.18c-0.067-0.066-0.134-0.134-0.201-0.202c-0.134-0.136-0.268-0.277-0.404-0.423	c-0.271-0.291-0.545-0.6-0.823-0.927c-0.279-0.328-0.561-0.674-0.844-1.036c-0.282-0.36-0.566-0.736-0.85-1.127	c-0.285-0.392-0.571-0.799-0.856-1.218C8.289,30.483,8.254,30.431,8.219,30.379z"/><linearGradient id="58OkKSIsdwV7wwJVHGAqPy" x1="37.722" x2="41.907" y1="22.621" y2="12.333" gradientUnits="userSpaceOnUse"><stop offset="0" stop-color="#80756e" stop-opacity="0"/><stop offset="1" stop-color="#80756e" stop-opacity=".8"/></linearGradient><path fill="url(#58OkKSIsdwV7wwJVHGAqPy)" d="M45.982,20.963c-3.3,0.856-5.449,2.231-6.753,4.909c-0.377-1.436-1.609-2.638-3.066-2.913	c-0.601-0.112-1.222-0.071-1.803,0.102c-0.397,0.122-0.784,0.306-1.12,0.54c0.835-2.903,0.723-6.468,0.275-7.965	c-1.131-3.738,0.917-4.919,2.169-3.504c2.404,2.709,1.446,7.588,2.73,8.301c0.886,0.489,3.422-1.976,6.091-2.037	C47.347,18.335,48.223,20.392,45.982,20.963z"/><radialGradient id="58OkKSIsdwV7wwJVHGAqPz" cx="-2106.836" cy="-169.77" r=".808" gradientTransform="matrix(.5257 .5644 -.7318 .6816 1001.956 1320)" gradientUnits="userSpaceOnUse"><stop offset="0" stop-color="#0f0f0f"/><stop offset=".91" stop-color="#111" stop-opacity=".09"/><stop offset="1" stop-color="#121212" stop-opacity="0"/></radialGradient><path fill="url(#58OkKSIsdwV7wwJVHGAqPz)" d="M18.094,15.784c-0.235-0.252-0.16-0.703,0.167-1.007c0.327-0.304,0.782-0.347,1.016-0.095	c0.235,0.252,0.16,0.703-0.167,1.007C18.784,15.994,18.329,16.036,18.094,15.784z"/><radialGradient id="58OkKSIsdwV7wwJVHGAqPA" cx="-2109.155" cy="-167.85" r=".808" gradientTransform="matrix(-.5257 .5644 .7318 .6816 -969.566 1320)" gradientUnits="userSpaceOnUse"><stop offset="0" stop-color="#0f0f0f"/><stop offset=".91" stop-color="#111" stop-opacity=".09"/><stop offset="1" stop-color="#121212" stop-opacity="0"/></radialGradient><path fill="url(#58OkKSIsdwV7wwJVHGAqPA)" d="M16.92,15.784c0.235-0.252,0.16-0.703-0.167-1.007s-0.782-0.347-1.016-0.095	c-0.235,0.252-0.16,0.703,0.167,1.007C16.23,15.994,16.685,16.036,16.92,15.784z"/></svg>