<svg xmlns="http://www.w3.org/2000/svg" xmlns:xlink="http://www.w3.org/1999/xlink" viewBox="0 0 48 48" width="96px" height="96px"><defs><linearGradient id="PRgCnyRcInC3WOqy9PzUMb" x1="14.011" x2="13.87" y1="21.706" y2="13.546" data-name="Безымянный градиент 121" gradientUnits="userSpaceOnUse"><stop offset="0" stop-color="#00db00"/><stop offset=".27" stop-color="#00d209"/><stop offset=".718" stop-color="#00b81f"/><stop offset="1" stop-color="#00a531"/></linearGradient><linearGradient id="PRgCnyRcInC3WOqy9PzUMc" x1="24.674" x2="5.89" y1="7.361" y2="2.296" data-name="Безымянный градиент 163" gradientUnits="userSpaceOnUse"><stop offset="0" stop-color="#89003f"/><stop offset=".151" stop-color="#92003c"/><stop offset=".401" stop-color="#ac0033"/><stop offset=".718" stop-color="#d50025"/><stop offset="1" stop-color="#ff0017"/></linearGradient><linearGradient id="PRgCnyRcInC3WOqy9PzUMd" x1="15.189" x2="15.33" y1="47.398" y2="40.785" xlink:href="#PRgCnyRcInC3WOqy9PzUMa"/><linearGradient id="PRgCnyRcInC3WOqy9PzUMe" x1="33.061" x2="33.061" y1="47.118" y2="42.756" xlink:href="#PRgCnyRcInC3WOqy9PzUMa"/><linearGradient id="PRgCnyRcInC3WOqy9PzUMf" x1="15.943" x2="15.837" y1="11.073" y2="5.375" xlink:href="#PRgCnyRcInC3WOqy9PzUMa"/><linearGradient id="PRgCnyRcInC3WOqy9PzUMg" x1="13.866" x2="13.022" y1="15.871" y2="6.726" data-name="Безымянный градиент 90" gradientUnits="userSpaceOnUse"><stop offset="0" stop-color="#ffb800"/><stop offset=".2" stop-color="#ffaf00"/><stop offset=".531" stop-color="#ff9500"/><stop offset=".952" stop-color="#ff6c00"/><stop offset="1" stop-color="#ff6700"/></linearGradient><linearGradient id="PRgCnyRcInC3WOqy9PzUMa" x1="5.677" x2="14.33" y1="5.085" y2="7.301" data-name="Безымянный градиент 60" gradientUnits="userSpaceOnUse"><stop offset="0" stop-color="#009bf7"/><stop offset=".202" stop-color="#0092f8"/><stop offset=".536" stop-color="#0078fa"/><stop offset=".961" stop-color="#004fff"/><stop offset="1" stop-color="#004bff"/></linearGradient><linearGradient id="PRgCnyRcInC3WOqy9PzUMh" x1="23.256" x2="22.693" y1="27.674" y2="16.418" data-name="Безымянный градиент 146" gradientUnits="userSpaceOnUse"><stop offset="0" stop-color="#ec00ff"/><stop offset=".131" stop-color="#e302fa"/><stop offset=".348" stop-color="#c909ec"/><stop offset=".625" stop-color="#a013d5"/><stop offset=".947" stop-color="#6721b6"/><stop offset="1" stop-color="#5d23b1"/></linearGradient><linearGradient id="PRgCnyRcInC3WOqy9PzUMi" x1="23.621" x2="23.199" y1="34.497" y2="26.336" data-name="Безымянный градиент 157" gradientUnits="userSpaceOnUse"><stop offset="0" stop-color="#5900ef"/><stop offset=".165" stop-color="#5401e6"/><stop offset=".438" stop-color="#4702cc"/><stop offset=".784" stop-color="#3305a3"/><stop offset="1" stop-color="#240786"/></linearGradient><linearGradient id="PRgCnyRcInC3WOqy9PzUMj" x1="23.813" x2="24.094" y1="39.221" y2="31.905" xlink:href="#PRgCnyRcInC3WOqy9PzUMb"/><linearGradient id="PRgCnyRcInC3WOqy9PzUMk" x1="15.236" x2="15.518" y1="35.205" y2="41.255" xlink:href="#PRgCnyRcInC3WOqy9PzUMc"/><linearGradient id="PRgCnyRcInC3WOqy9PzUMl" x1="33.155" x2="33.296" y1="36.142" y2="41.489" xlink:href="#PRgCnyRcInC3WOqy9PzUMc"/></defs><path fill="none" stroke="#ec00ff" stroke-linecap="round" stroke-linejoin="round" d="M34.766,26.869a2.8,2.8,0,0,1,1.768-1.382,2.471,2.471,0,0,1,1.615.283c1.1.644,1.373,2.118,2.587,6.856a2.985,2.985,0,0,0,1.055,1.77,2.546,2.546,0,0,0,1.291.443"/><path fill="none" stroke="#ffb800" stroke-linecap="round" stroke-miterlimit="10" d="M34.381,26.805s1.5-2.687,2.82-2.4c.668.143,1.033,1,1.421,2.231,1.669,5.32.7,8.039,2.543,10.3a5.953,5.953,0,0,0,2.67,1.813"/><path fill="none" stroke="#0080ec" stroke-linecap="round" stroke-miterlimit="10" d="M33.333,28.03s1.68-3.164,3.251-2.869c.616.116.989.726,1.287,1.275,2.1,3.859,2.745,8.85,4.167,10.251a3.214,3.214,0,0,0,1.3.775"/><path fill="none" stroke="#00db00" stroke-linecap="round" stroke-miterlimit="10" d="M33.535,26.322s.736-1.781,1.843-1.782c.479,0,1.033.321,1.892,1.782,2.2,3.746,1.31,6.287,3.334,8.205a5.281,5.281,0,0,0,2.209,1.222"/><path fill="url(#PRgCnyRcInC3WOqy9PzUMc)" d="M17.667,5.506c-.032-.021-.064-.032-.1-.053.1.213.192.437.288.65-.181.086-.363.182-.544.267-.224-.576-.448-1.141-.672-1.707.01.459.021.9.032,1.355-.256.032-.534.085-.79.128-.181-.363-.363-.736-.544-1.11v1.42c-.32.053-.63.106-.95.17-.266-.469-.533-.939-.8-1.4-.021.522-.043,1.066-.075,1.589l-.618.139c-.075-.117-.15-.245-.224-.363-.1-.16-.2-.32-.3-.491-.182.235-.363.47-.534.705a8.555,8.555,0,0,0,.118-2.358,3.227,3.227,0,0,1-.31-2.006V2.433a1.6,1.6,0,0,1,.246-.427,1.1,1.1,0,0,1,.16-.16,1.725,1.725,0,0,1,.362-.235,1.317,1.317,0,0,1,.182-.064,1.116,1.116,0,0,1,.3-.074c.032-.011.074-.011.1-.022.053,0,.085-.01.117-.01a1.48,1.48,0,0,1,.373.01c.523.075,1.4.427,2.636,1.889.064.064.128.128.2.192.5.48,1.184,1.142,1.963,1.974-.107.064-.214.117-.32.181A2.7,2.7,0,0,1,17.667,5.506Z"/><path fill="url(#PRgCnyRcInC3WOqy9PzUMa)" d="M11.916,9.913a3.883,3.883,0,0,0,.9-2.358,5.676,5.676,0,0,0-.138-.961c.074.118.149.246.224.363l.618-.139c.032-.523.054-1.067.075-1.589.267.458.534.928.8,1.4.32-.064.63-.117.95-.17V5.036c.181.374.363.747.544,1.11.256-.043.534-.1.79-.128-.011-.459-.022-.9-.032-1.355.224.566.448,1.131.672,1.707.181-.085.363-.181.544-.267-.1-.213-.192-.437-.288-.65.032.021.064.032.1.053.053.085.107.171.16.267v.01c.373.6.779,1.323,1.195,2.156Z"/><path fill="#ff3d0e" d="M6.99,14.671V14.7H6.979C6.979,14.693,6.99,14.682,6.99,14.671Z"/><path fill="#ff3d0e" d="M13.434,21.041h-.043a.132.132,0,0,0,.011-.064Z"/><path fill="#ff3d0e" d="M16.123,21.041h-.032c0-.011.011-.032.011-.043A.079.079,0,0,0,16.123,21.041Z"/><path fill="url(#PRgCnyRcInC3WOqy9PzUMd)" d="M19.58,39.67v.011a1.277,1.277,0,0,0-.032.288v3.7a4.009,4.009,0,0,1-4.225,3.915,4.162,4.162,0,0,1-3.788-4.235V42.327a22.753,22.753,0,0,0-.427-4.257v-.011c.021-.085.032-.17.053-.256.1.384.193.779.278,1.174.256.011.5.032.747.043.085-.427.16-.865.245-1.3.085.6.182,1.184.278,1.771l.544-.128c.053-.448.106-.886.149-1.323.192.4.374.79.555,1.184.192-.01.373-.032.555-.053.085-.5.181-1,.266-1.5.171.448.353.885.523,1.323.214.021.427.032.63.053.053-.331.107-.651.171-.971.16.438.33.875.5,1.312.16-.042.331-.074.491-.117.181-.459.352-.907.533-1.355.075.4.16.8.235,1.2.267-.032.534-.075.79-.117.149-.385.3-.779.448-1.163.149.618.288,1.237.427,1.845Z"/><path fill="#ff3d0e" d="M30.644,31.764h-.01v-.032C30.634,31.743,30.644,31.754,30.644,31.764Z"/><path fill="url(#PRgCnyRcInC3WOqy9PzUMe)" d="M37.068,38.315v5.421a3.852,3.852,0,0,1-7.7,0V39.969a1.217,1.217,0,0,0-.309-.811c.117-.01.234,0,.352,0l.1-1.792c.192.661.384,1.334.565,1.995.278.021.555.043.833.053q.128-.927.256-1.856c.138.437.277.885.405,1.334l.736-.064c.064-.363.118-.737.182-1.1.2.64.394,1.28.6,1.92.278-.064.555-.117.832-.181.054-.47.118-.939.171-1.4.107.341.224.694.331,1.046.288,0,.565-.011.843-.011q.063-.672.128-1.344c.16.64.32,1.28.469,1.92.288-.032.566-.064.854-.107.1-.458.2-.906.3-1.365C37.025,38.241,37.046,38.283,37.068,38.315Z"/><path fill="#f70000" d="M20.956,6.5c-.085.054-.394-.2-.629-.427-.043.32-.075.63-.107.95-.181.043-.373.1-.555.139-.085-.6-.181-1.185-.267-1.771-.085.437-.16.864-.245,1.3-.245-.021-.5-.032-.747-.042-.1-.395-.181-.79-.277-1.185-.1.459-.192.907-.288,1.355l-.9-.032c-.149-.5-.3-1.013-.448-1.515-.128.5-.256,1.014-.394,1.515h-.6c-.1-.309-.2-.619-.3-.928-.213.192-.427.373-.64.566a8.807,8.807,0,0,0,.608-2.348c.16-1.376-.085-2.176.523-3.019a1.555,1.555,0,0,1,.982-.7,1.659,1.659,0,0,1,1.3.5c.907.768.833,1.5,1.676,3.222C20.348,5.506,21.084,6.391,20.956,6.5Z"/><path fill="url(#PRgCnyRcInC3WOqy9PzUMf)" d="M21.66,11.353a2.56,2.56,0,0,0-.469.043.8.8,0,0,0-.16.021c-.075-.395-.16-.8-.235-1.206-.181.459-.352.907-.533,1.366-.171.032-.331.075-.5.117-.16-.437-.33-.885-.5-1.323-.054.331-.107.651-.16.982-.214-.021-.416-.043-.63-.053-.17-.438-.352-.886-.523-1.323-.1.5-.181,1-.266,1.5-.182.021-.374.032-.555.053-.182-.394-.374-.789-.555-1.184-.053.437-.107.875-.149,1.312-.182.054-.374.1-.555.139-.086-.587-.182-1.184-.267-1.771-.085.437-.16.864-.245,1.3-.246-.011-.5-.032-.747-.043-.1-.395-.182-.79-.278-1.174l-.288,1.345-.9-.032c-.149-.5-.3-1.014-.448-1.515-.128.5-.256,1.013-.395,1.515h-.6c-.118-.363-.235-.715-.352-1.078-.1.437-.193.886-.278,1.323-.256-.032-.512-.064-.779-.107-.021-.309-.042-.619-.074-.928a14.58,14.58,0,0,0,3.04-1.7,4.387,4.387,0,0,0,1.825-2.294,5.2,5.2,0,0,0,.117-.79c.1.309.2.619.3.928h.6c.138-.5.266-1.013.394-1.515.15.5.3,1.014.448,1.515l.9.032c.1-.448.192-.9.288-1.355.1.395.181.79.277,1.185.246.01.5.021.747.042.085-.437.16-.864.245-1.3.086.586.182,1.173.267,1.771.182-.043.374-.1.555-.139.032-.32.064-.63.107-.95.021.075.042.139.064.214.213.747.427,1.632.619,2.657.074.4.053.32.1.522A11.079,11.079,0,0,0,21.66,11.353Z"/><path fill="#0080ec" d="M9.028,11.129c.266-.107.522-.2.768-.31l-.16.449c-.2,0-.406.01-.6.021C9.038,11.236,9.028,11.182,9.028,11.129Z"/><path fill="url(#PRgCnyRcInC3WOqy9PzUMg)" d="M21.554,14.437a1.9,1.9,0,0,0,.294,1.029,1.83,1.83,0,0,0,.29.343l-.264.58c-.163-.19-.316-.288-.388-.247-.017.01-.053.041-.05.162l-.725-.064c-.128-.331-.256-.651-.395-.982-.043.555-.075,1.1-.117,1.643-.224-.021-.448-.042-.672-.053-.139-.619-.278-1.238-.427-1.857-.15.395-.3.779-.448,1.163-.256.043-.523.086-.79.128-.075-.4-.16-.811-.235-1.2-.181.448-.352.907-.533,1.355-.16.042-.331.085-.491.117-.171-.437-.341-.875-.5-1.312-.064.32-.118.651-.171.971-.2-.011-.416-.032-.63-.054-.17-.437-.352-.875-.523-1.312-.085.5-.181,1-.266,1.5-.182.011-.363.032-.555.054-.181-.406-.363-.8-.555-1.195-.043.437-.1.885-.149,1.323l-.544.128c-.1-.587-.193-1.174-.278-1.761-.085.427-.16.865-.245,1.291-.246-.01-.491-.021-.747-.042-.085-.395-.182-.779-.278-1.174-.1.448-.192.9-.288,1.355l-.9-.032c-.149-.512-.3-1.014-.448-1.526-.128.512-.256,1.014-.384,1.526h-.6c-.128-.363-.245-.725-.362-1.078-.1.438-.182.875-.278,1.323-.256-.042-.512-.074-.768-.106-.053-.576-.1-1.153-.149-1.729v-.032c0,.011-.011.022-.011.032-.171.47-.341.95-.512,1.419-.2.011-.395.022-.6.022-.032-.438-.074-.886-.106-1.334-.064.171-.128.341-.2.512a3.922,3.922,0,0,1-.075-.619,4.683,4.683,0,0,1,.032-.533,3.277,3.277,0,0,1,2.251-2.593c.438-.149.865-.3,1.26-.448,0,.053.01.107.01.16.192-.011.395-.021.6-.021l.16-.449.427-.181c.032.309.053.619.074.928.267.043.523.075.779.107.085-.437.181-.886.278-1.323.117.363.234.715.352,1.078h.6c.139-.5.267-1.014.395-1.515.149.5.3,1.013.448,1.515l.9.032.288-1.345c.1.384.182.779.278,1.174.245.011.5.032.747.043.085-.438.16-.865.245-1.3.085.587.181,1.184.267,1.771.181-.043.373-.085.555-.139.042-.437.1-.875.149-1.312.181.395.373.79.555,1.184.181-.021.373-.032.555-.053.085-.5.17-1,.266-1.5.171.437.353.885.523,1.323.214.01.416.032.63.053.053-.331.106-.651.16-.982.171.438.341.886.5,1.323.171-.042.331-.085.5-.117.181-.459.352-.907.533-1.366.075.406.16.811.235,1.206.107-.021.224-.032.331-.053a15.542,15.542,0,0,1,.2,2.044C21.568,13.767,21.566,14.11,21.554,14.437Z"/><path fill="url(#PRgCnyRcInC3WOqy9PzUMb)" d="M21.543,15.973c-.021.6-.043,1.216-.1,1.857a7.261,7.261,0,0,0,0,2.226,4.754,4.754,0,0,0,.607,1.562l-.188.285-.4-.348-.032.521-.362-.033q-.186-.019-.363-.042c-.128-.32-.256-.64-.395-.96-.043.544-.075,1.088-.117,1.633l-.672-.064c-.118-.513-.235-1.046-.363-1.569-.022-.1-.043-.181-.064-.277-.032.1-.075.181-.107.277-.117.3-.224.6-.341.886-.256.042-.523.074-.79.117-.064-.331-.128-.672-.192-1a1.324,1.324,0,0,1-.043-.192c-.021.064-.053.128-.074.192-.16.384-.3.768-.459,1.163-.16.043-.331.075-.491.117-.16-.426-.331-.842-.48-1.28A.079.079,0,0,1,16.1,21c0,.011-.011.032-.011.043-.053.32-.107.619-.16.939-.2-.021-.416-.032-.63-.053-.117-.288-.234-.587-.352-.886-.053-.139-.117-.288-.171-.437-.021.149-.053.288-.074.437-.064.352-.128.715-.192,1.067-.182.021-.363.043-.555.053-.171-.373-.341-.746-.523-1.12l-.032-.064a.132.132,0,0,1-.011.064c-.032.416-.085.832-.138,1.259l-.544.128c-.075-.459-.15-.928-.214-1.387l-.064-.384c-.021.128-.053.256-.075.384-.053.31-.106.608-.17.918-.246-.011-.491-.032-.747-.043-.021-.117-.054-.245-.085-.363v-.01l-.744.175a3.2,3.2,0,0,0,.917-1.365,3.312,3.312,0,0,0,.1-.71,1.816,1.816,0,0,0-.031-.485,1.213,1.213,0,0,0-.908-.87c-.672-.16-1.344-.309-2.006-.458a3.181,3.181,0,0,1-2.817-1.686c.2,0,.4-.011.6-.022.171-.469.341-.949.512-1.419H6.99c.053.576.1,1.153.149,1.729.256.032.512.064.768.106.1-.448.182-.885.278-1.323.117.353.234.715.362,1.078h.6c.128-.512.256-1.014.384-1.526.149.512.3,1.014.448,1.526l.9.032c.1-.459.192-.907.288-1.355.1.395.193.779.278,1.174.256.021.5.032.747.042.085-.426.16-.864.245-1.291.085.587.182,1.174.278,1.761l.544-.128c.053-.438.106-.886.149-1.323.192.394.374.789.555,1.195.192-.022.373-.043.555-.054.085-.5.181-1,.266-1.5.171.437.353.875.523,1.312.214.022.427.043.63.054.053-.32.107-.651.171-.971.16.437.33.875.5,1.312.16-.032.331-.075.491-.117.181-.448.352-.907.533-1.355.075.394.16.8.235,1.205.267-.042.534-.085.79-.128.149-.384.3-.768.448-1.163.149.619.288,1.238.427,1.857.224.011.448.032.672.053.042-.544.074-1.088.117-1.643.139.331.267.651.395.982l.725.064Z"/><path fill="url(#PRgCnyRcInC3WOqy9PzUMh)" d="M36.753,28.314c-.262.031-.54.055-.832.068-.129.006-.256.009-.379.011-.118-.353-.224-.705-.342-1.057-.053.47-.106.939-.17,1.409-.278.053-.555.117-.822.17-.2-.629-.405-1.269-.608-1.91-.053.363-.117.726-.171,1.1l-.736.065c-.139-.449-.267-.9-.405-1.345-.086.63-.182,1.248-.267,1.867-.278-.021-.555-.032-.822-.053-.192-.672-.373-1.334-.565-2.006-.032.6-.075,1.2-.107,1.793-.277,0-.544,0-.821-.011-.107-.342-.225-.683-.342-1.024-.064.512-.139,1.035-.213,1.547-.267,0-.544-.011-.822-.022-.139-.5-.267-1-.405-1.5-.032.363-.054.725-.086,1.088-.245-.074-.5-.138-.747-.213-.117-.342-.245-.683-.373-1.014-.085.534-.181,1.067-.267,1.6-.245-.022-.5-.032-.747-.043-.106-.491-.2-.992-.309-1.494-.053.331-.1.672-.139,1-.2.032-.395.064-.587.086-.128-.395-.256-.779-.384-1.174l-.192,1.44c-.245-.01-.48-.021-.715-.021q-.224-.737-.448-1.472c-.117.405-.245.81-.373,1.216-.235-.032-.48-.053-.715-.075-.139-.32-.267-.651-.395-.971-.043.544-.085,1.089-.128,1.643l-.672-.064c-.139-.618-.278-1.227-.416-1.845l-.448,1.152c-.267.043-.534.085-.79.128-.085-.406-.16-.8-.245-1.206-.171.459-.352.907-.523,1.355-.171.043-.331.086-.5.128-.17-.437-.33-.885-.5-1.323-.053.331-.107.651-.16.982-.214-.021-.427-.043-.63-.054-.181-.448-.352-.885-.533-1.323l-.256,1.505c-.192.021-.374.032-.555.053-.192-.395-.374-.789-.555-1.184l-.16,1.312c-.181.043-.363.1-.544.139-.085-.6-.182-1.184-.278-1.771-.074.437-.16.864-.234,1.3-.246-.022-.5-.033-.747-.043-.1-.395-.192-.79-.278-1.185-.1.459-.192.907-.3,1.356l-.9-.032c-.138-.5-.288-1.014-.437-1.516l-.32,1.217-.548-.387.738-1.873c.2-.77.386-1.6.546-2.478.113-.623.2-1.225.278-1.8.031.118.064.246.085.363.256.011.5.032.747.043.064-.31.117-.608.17-.918.022-.128.054-.256.075-.384l.064.384c.064.459.139.928.214,1.387l.544-.128c.053-.427.106-.843.138-1.259h.043c.182.374.352.747.523,1.12.192-.01.373-.032.555-.053.064-.352.128-.715.192-1.067.021-.149.053-.288.074-.437.054.149.118.3.171.437.118.3.235.6.352.886.214.021.427.032.63.053.053-.32.107-.619.16-.939h.032c.149.438.32.854.48,1.28.16-.042.331-.074.491-.117.16-.395.3-.779.459-1.163.021-.064.053-.128.074-.192a1.324,1.324,0,0,0,.043.192c.064.331.128.672.192,1,.267-.043.534-.075.79-.117.117-.288.224-.587.341-.886.032-.1.075-.181.107-.277.021.1.042.181.064.277.128.523.245,1.056.363,1.569l.672.064c.042-.545.074-1.089.117-1.633.139.32.267.64.395.96.245.032.48.054.725.075,0-.011.011-.021.011-.032v.512A2.347,2.347,0,0,0,23.794,24.9h6.733a6.508,6.508,0,0,1,3.82,1.237c.028.02.045.033.061.046.054.042.092.076.1.082.107.1.8.62.8.62a7.854,7.854,0,0,1,.985.874A6.415,6.415,0,0,1,36.753,28.314Z"/><path fill="url(#PRgCnyRcInC3WOqy9PzUMi)" d="M37.068,31.444l.582,2.436a2.385,2.385,0,0,1-.625.173l-.043.005-.48-1.92c-.032.448-.075.9-.117,1.333-.278.011-.566.011-.843.022-.118-.352-.224-.7-.342-1.057-.053.47-.106.939-.17,1.409-.278.053-.555.117-.822.171-.2-.641-.405-1.27-.608-1.91-.053.362-.117.725-.171,1.1l-.736.064c-.139-.448-.267-.9-.405-1.345-.086.619-.182,1.249-.267,1.867-.278-.021-.555-.032-.822-.053-.192-.661-.362-1.312-.555-1.974,0-.01-.01-.021-.01-.032v.032c-.032.587-.075,1.174-.107,1.761-.277,0-.544,0-.821-.011-.107-.341-.225-.683-.342-1.024-.064.512-.139,1.035-.213,1.547-.267-.011-.544-.011-.822-.021-.139-.5-.267-1-.405-1.5-.032.363-.054.726-.086,1.088-.245-.074-.5-.138-.747-.213-.117-.341-.245-.683-.373-1.024-.085.533-.181,1.067-.267,1.6L25.7,33.93c-.106-.5-.2-.992-.309-1.494-.053.331-.1.673-.139,1-.2.032-.395.054-.587.086-.128-.395-.256-.779-.384-1.174l-.192,1.44-.715-.032c-.149-.48-.3-.97-.448-1.461-.117.405-.245.811-.373,1.216-.235-.032-.48-.053-.715-.075-.139-.33-.267-.65-.395-.971-.043.545-.085,1.089-.128,1.644l-.672-.064c-.139-.619-.278-1.238-.416-1.846l-.448,1.152c-.267.043-.534.085-.79.128-.085-.405-.16-.8-.245-1.206-.171.459-.352.907-.523,1.355-.171.043-.331.086-.5.128-.17-.448-.33-.885-.5-1.323-.053.331-.107.651-.16.982-.214-.021-.427-.043-.63-.053-.181-.448-.352-.886-.533-1.323l-.256,1.5c-.192.021-.374.032-.555.053-.192-.394-.374-.789-.555-1.184l-.16,1.312c-.181.043-.363.086-.544.139-.085-.6-.182-1.184-.278-1.771-.074.427-.16.864-.234,1.3-.246-.022-.5-.032-.747-.054-.1-.384-.192-.779-.278-1.173-.1.458-.192.907-.3,1.355l-.9-.032c-.138-.5-.288-1.014-.437-1.515-.128.5-.267,1.013-.395,1.515L9.5,33.379l.406-1.493a3.557,3.557,0,0,0,.124-1.174,14.345,14.345,0,0,1,.308-2.6v-.021l.32-1.217c.149.5.3,1.014.437,1.516l.9.032c.106-.449.2-.9.3-1.356.086.395.182.79.278,1.185.245.01.5.021.747.043.074-.438.16-.865.234-1.3.1.587.193,1.174.278,1.771.181-.043.363-.1.544-.139l.16-1.312c.181.395.363.789.555,1.184.181-.021.363-.032.555-.053l.256-1.505c.181.438.352.875.533,1.323.2.011.416.033.63.054.053-.331.107-.651.16-.982.171.438.331.886.5,1.323.171-.042.331-.085.5-.128.171-.448.352-.9.523-1.355.085.406.16.8.245,1.206.256-.043.523-.085.79-.128l.448-1.152c.138.618.277,1.227.416,1.845l.672.064c.043-.554.085-1.1.128-1.643.128.32.256.651.395.971.235.022.48.043.715.075.128-.406.256-.811.373-1.216q.225.735.448,1.472c.235,0,.47.011.715.021l.192-1.44c.128.395.256.779.384,1.174.192-.022.384-.054.587-.086.043-.331.086-.672.139-1,.107.5.2,1,.309,1.494.246.011.5.021.747.043.086-.534.182-1.067.267-1.6.128.331.256.672.373,1.014.246.075.5.139.747.213.032-.363.054-.725.086-1.088.138.5.266,1,.405,1.5.278.011.555.022.822.022.074-.512.149-1.035.213-1.547.117.341.235.682.342,1.024.277.011.544.011.821.011.032-.6.075-1.2.107-1.793.192.672.373,1.334.565,2.006.267.021.544.032.822.053.085-.619.181-1.237.267-1.867.138.448.266.9.405,1.345l.736-.065c.054-.373.118-.736.171-1.1.2.641.405,1.281.608,1.91.267-.053.544-.117.822-.17.064-.47.117-.939.17-1.409.118.352.224.7.342,1.057.245-.011.512-.011.757-.022A6.493,6.493,0,0,1,37.068,31.444Z"/><path fill="url(#PRgCnyRcInC3WOqy9PzUMj)" d="M37.068,34.048l.319,3c.083.209.164.438.237.686.04.136.075.268.106.4a1.585,1.585,0,0,0-.876.765,1.485,1.485,0,0,0-.149.683c-.288.042-.566.074-.854.106-.149-.64-.309-1.28-.469-1.92q-.065.672-.128,1.344c-.278,0-.555.011-.843.011-.107-.352-.224-.7-.331-1.046-.053.459-.117.928-.171,1.4-.277.064-.554.117-.832.181-.2-.64-.395-1.28-.6-1.92-.064.362-.118.736-.182,1.1l-.736.064c-.128-.448-.267-.9-.405-1.334q-.129.928-.256,1.856c-.278-.01-.555-.032-.833-.053-.181-.661-.373-1.334-.565-1.995l-.1,1.792c-.118,0-.235-.01-.352,0-.16-.01-.32-.01-.47-.01a3.584,3.584,0,0,1-.117-.363l-.224-.672c-.032.2-.054.416-.086.619-.042.309-.085.618-.128.938-.277-.01-.554-.021-.832-.021-.075-.3-.16-.608-.235-.917-.053-.2-.106-.395-.16-.6-.021.2-.032.4-.053.6-.011.16-.032.33-.043.49-.245-.064-.491-.138-.736-.2-.032-.1-.075-.192-.107-.288-.085-.246-.17-.491-.266-.737l-.128.737c-.054.288-.1.576-.15.864l-.736-.032c-.064-.278-.117-.555-.181-.832-.043-.224-.1-.449-.139-.662-.032.224-.064.438-.1.662-.011.106-.032.224-.043.33l-.576.1c-.043-.138-.1-.288-.139-.426-.085-.257-.17-.5-.256-.758-.032.256-.064.5-.1.758-.032.224-.064.458-.1.682-.235,0-.469-.01-.715-.021-.064-.224-.128-.437-.2-.661-.075-.267-.15-.534-.235-.8-.086.267-.171.534-.246.8-.042.138-.085.266-.128.405-.245-.021-.48-.043-.725-.075-.043-.106-.085-.2-.128-.309-.085-.224-.171-.448-.267-.662-.021.256-.043.513-.053.769-.022.288-.043.586-.064.875-.2-.022-.416-.043-.619-.054V39.67h-.053c-.139-.608-.278-1.226-.427-1.845-.15.384-.3.779-.448,1.163-.256.042-.523.085-.79.117-.075-.395-.16-.8-.235-1.2-.181.448-.352.9-.533,1.355-.16.043-.331.075-.491.117-.171-.437-.341-.874-.5-1.312-.064.32-.118.64-.171.971-.2-.021-.416-.032-.63-.053-.17-.438-.352-.875-.523-1.323-.085.5-.181,1-.266,1.5-.182.021-.363.043-.555.053-.181-.394-.363-.789-.555-1.184-.043.437-.1.875-.149,1.323l-.544.128c-.1-.587-.193-1.174-.278-1.771-.085.437-.16.875-.245,1.3-.246-.011-.491-.032-.747-.043-.041-.193-.085-.39-.135-.591-.083-.34-.174-.664-.268-.972l-.238.6-.4-.233a3.34,3.34,0,0,0,.261-1.4,3.281,3.281,0,0,0-.085-.621c-.107-.486-.25-1.209-.416-2.272h.106c.128-.5.267-1.014.395-1.515.149.5.3,1.013.437,1.515l.9.032c.106-.448.2-.9.3-1.355.086.394.182.789.278,1.173.245.022.5.032.747.054.074-.438.16-.875.234-1.3.1.587.193,1.174.278,1.771.181-.053.363-.1.544-.139l.16-1.312c.181.4.363.79.555,1.184.181-.021.363-.032.555-.053l.256-1.5c.181.437.352.875.533,1.323.2.01.416.032.63.053.053-.331.107-.651.16-.982.171.438.331.875.5,1.323.171-.042.331-.085.5-.128.171-.448.352-.9.523-1.355.085.406.16.8.245,1.206.256-.043.523-.085.79-.128l.448-1.152c.138.608.277,1.227.416,1.846l.672.064c.043-.555.085-1.1.128-1.644.128.321.256.641.395.971.235.022.48.043.715.075.128-.405.256-.811.373-1.216.15.491.3.981.448,1.461l.715.033.192-1.441c.128.4.256.779.384,1.174.192-.032.384-.054.587-.086.043-.33.086-.672.139-1,.107.5.2.993.309,1.494l.747.032c.086-.533.182-1.067.267-1.6.128.341.256.683.373,1.024.246.075.5.139.747.213.032-.362.054-.725.086-1.088.138.5.266,1,.405,1.5.278.01.555.01.822.021.074-.512.149-1.035.213-1.547.117.341.235.683.342,1.024.277.011.544.011.821.011.032-.587.075-1.174.107-1.761h.01c.193.662.363,1.313.555,1.974.267.021.544.032.822.054.085-.619.181-1.249.267-1.868.138.448.266.9.405,1.345l.736-.064c.054-.374.118-.737.171-1.1.2.64.405,1.269.608,1.91.267-.054.544-.118.822-.171.064-.47.117-.939.17-1.409.118.353.224.7.342,1.057.277-.011.565-.011.843-.022.042-.437.085-.885.117-1.333Z"/><path fill="url(#PRgCnyRcInC3WOqy9PzUMk)" d="M19.58,39.67v.011a1.277,1.277,0,0,0-.032.288l.585,3.417-.585.211c-.079-.272-.157-.553-.231-.844q-.121-.477-.217-.927c-.15.384-.3.779-.448,1.163-.256.042-.523.085-.79.117-.075-.4-.16-.8-.235-1.2-.181.448-.352.9-.533,1.355-.16.043-.331.075-.491.118-.171-.438-.341-.875-.5-1.313-.064.32-.118.64-.171.971-.2-.021-.416-.032-.63-.053-.17-.438-.352-.875-.523-1.323-.085.5-.181,1-.266,1.5-.182.022-.363.043-.555.054-.181-.395-.363-.79-.555-1.185-.043.438-.1.875-.149,1.323l-.544.128c-.1-.587-.193-1.173-.278-1.771-.085.438-.16.875-.245,1.3-.1,0-.21-.01-.322-.02a4.8,4.8,0,0,1-.788-.143l.316-1.53a9.5,9.5,0,0,0,.03-1.141,9.606,9.606,0,0,0-.314-2.117v-.011a5.26,5.26,0,0,1-.076-.749c0-.107,0-.21,0-.308q.119.675.272,1.384.066.3.135.591c.256.011.5.032.747.043.085-.427.16-.865.245-1.3.085.6.182,1.184.278,1.771l.544-.128c.053-.448.106-.886.149-1.323.192.4.374.79.555,1.184.192-.01.373-.032.555-.053.085-.5.181-1,.266-1.5.171.448.353.885.523,1.323.214.021.427.032.63.053.053-.331.107-.651.171-.971.16.438.33.875.5,1.312.16-.042.331-.074.491-.117.181-.459.352-.907.533-1.355.075.4.16.8.235,1.2.267-.032.534-.075.79-.117.149-.385.3-.779.448-1.163.062.3.134.607.217.927S19.489,39.379,19.58,39.67Z"/><path fill="url(#PRgCnyRcInC3WOqy9PzUMl)" d="M37.068,38.315l.389,3.541.246.844-.635.176-.209-.985-.005,1-.149.683c-.288.042-.566.074-.854.106-.149-.64-.309-1.28-.469-1.92q-.065.672-.128,1.344c-.278,0-.555.011-.843.011-.107-.352-.224-.7-.331-1.046-.053.459-.117.928-.171,1.4-.277.064-.554.117-.832.181-.2-.64-.395-1.28-.6-1.92-.064.363-.118.736-.182,1.1l-.736.064c-.128-.448-.267-.9-.405-1.334q-.129.928-.256,1.857c-.278-.011-.555-.032-.833-.054a8.773,8.773,0,0,1-.278-1,8.592,8.592,0,0,1-.142-.861l-.241,1.656-.445-.108.4-3.083a1.217,1.217,0,0,0-.309-.811c.117-.01.234,0,.352,0l.1-1.792c.192.661.384,1.334.565,1.995.278.021.555.043.833.053q.128-.927.256-1.856c.138.437.277.885.405,1.334l.736-.064c.064-.363.118-.737.182-1.1.2.64.394,1.28.6,1.92.278-.064.555-.117.832-.181.054-.47.118-.939.171-1.4.107.341.224.694.331,1.046.288,0,.565-.011.843-.011q.063-.672.128-1.344c.16.64.32,1.28.469,1.92.288-.032.566-.064.854-.107a4.836,4.836,0,0,1,.149-.682A4.648,4.648,0,0,1,37.068,38.315Z"/><circle cx="16.062" cy="11.846" r="1.934" fill="#f3f3f3"/><circle cx="16.123" cy="11.801" r="1.024" fill="#151515"/></svg>