<svg xmlns="http://www.w3.org/2000/svg"  viewBox="0 0 48 48" width="96px" height="96px"><linearGradient id="3tgMv39psE8oXbI5tPPPVa" x1="21.641" x2="19.505" y1="41.385" y2="22.279" gradientTransform="rotate(10.263 2.066 40.726)" gradientUnits="userSpaceOnUse"><stop offset=".487" stop-color="#74a333"/><stop offset=".612" stop-color="#6e9b2f"/><stop offset=".806" stop-color="#5d8524"/><stop offset="1" stop-color="#476915"/></linearGradient><path fill="url(#3tgMv39psE8oXbI5tPPPVa)" d="M19.376,41.795c0.315-0.188,0.66-0.349,0.978-0.553c0.273-0.251,0.612-0.448,0.859-0.744	c0.509-0.573,0.96-1.242,1.268-2.008c0.654-1.519,0.909-3.263,1.064-5.004c0.131-1.752,0.054-3.526,0.009-5.304	c-0.057-1.779-0.093-3.574,0.079-5.369c0.017-0.18,0.189-0.275,0.37-0.258c0.177,0.017,0.426,0.136,0.415,0.312	c-0.117,1.751-0.079,3.518-0.04,5.291c0.055,1.775,0.115,3.557,0.135,5.359c0.032,1.801-0.057,3.643-0.577,5.488	c-0.499,1.826-1.649,3.69-3.404,4.836c-0.543,0.355-1.271,0.202-1.626-0.341c-0.355-0.543-0.202-1.271,0.341-1.625	c0.012-0.008,0.025-0.016,0.037-0.023L19.376,41.795z"/><radialGradient id="3tgMv39psE8oXbI5tPPPVb" cx="23.981" cy="22.999" r=".474" gradientUnits="userSpaceOnUse"><stop offset="0" stop-color="#5b871b"/><stop offset="1" stop-color="#5b871b" stop-opacity="0"/></radialGradient><circle cx="23.981" cy="22.999" r=".474" fill="url(#3tgMv39psE8oXbI5tPPPVb)"/><radialGradient id="3tgMv39psE8oXbI5tPPPVc" cx="-16.497" cy="14.571" r="71.917" gradientTransform="rotate(-45.001 24 23)" gradientUnits="userSpaceOnUse"><stop offset=".435" stop-color="#78b324"/><stop offset=".487" stop-color="#76b023"/><stop offset=".521" stop-color="#70a722"/><stop offset=".551" stop-color="#66981f"/><stop offset=".573" stop-color="#5b871b"/><stop offset=".573" stop-color="#6ea321"/><stop offset=".581" stop-color="#6da121"/><stop offset=".672" stop-color="#608e1c"/><stop offset=".736" stop-color="#5b871b"/></radialGradient><path fill="url(#3tgMv39psE8oXbI5tPPPVc)" d="M21.075,7.452c-1.936-1.936-5.076-1.936-7.013,0c-1.152,1.152-1.602,2.729-1.383,4.227	c-1.497-0.219-3.074,0.231-4.227,1.383c-1.936,1.936-1.936,5.076,0,7.013c3.341,3.341,12.367,1.619,13.519,2.299	c0.622,0.367,1.533,0.883,1.909,0.506c0.376-0.376-0.23-1.25-0.506-1.909C22.838,19.693,24.417,10.794,21.075,7.452z"/><radialGradient id="3tgMv39psE8oXbI5tPPPVd" cx="-16.47" cy="-2.44" r="71.869" gradientTransform="scale(1 -1) rotate(49.758 55.272 -8.525)" gradientUnits="userSpaceOnUse"><stop offset=".435" stop-color="#78b324"/><stop offset=".487" stop-color="#76b023"/><stop offset=".521" stop-color="#70a722"/><stop offset=".551" stop-color="#66981f"/><stop offset=".573" stop-color="#5b871b"/><stop offset=".573" stop-color="#6ea321"/><stop offset=".581" stop-color="#6da121"/><stop offset=".672" stop-color="#608e1c"/><stop offset=".736" stop-color="#5b871b"/></radialGradient><path fill="url(#3tgMv39psE8oXbI5tPPPVd)" d="M39.721,24.646c2.089,1.768,2.349,4.895,0.581,6.984c-1.052,1.243-2.585,1.822-4.095,1.728	c0.342,1.473,0.025,3.081-1.027,4.324c-1.768,2.089-4.895,2.349-6.984,0.581c-3.604-3.051-2.638-12.182-3.41-13.273	c-0.417-0.589-1.006-1.453-0.663-1.859c0.343-0.406,1.264,0.125,1.943,0.346C27.384,23.905,36.116,21.595,39.721,24.646z"/><radialGradient id="3tgMv39psE8oXbI5tPPPVe" cx="-16.47" cy="14.56" r="71.869" gradientTransform="scale(-1) rotate(49.982 49.353 -51.505)" gradientUnits="userSpaceOnUse"><stop offset=".435" stop-color="#78b324"/><stop offset=".487" stop-color="#76b023"/><stop offset=".521" stop-color="#70a722"/><stop offset=".551" stop-color="#66981f"/><stop offset=".573" stop-color="#5b871b"/><stop offset=".573" stop-color="#6ea321"/><stop offset=".581" stop-color="#6da121"/><stop offset=".672" stop-color="#608e1c"/><stop offset=".736" stop-color="#5b871b"/></radialGradient><path fill="url(#3tgMv39psE8oXbI5tPPPVe)" d="M8.262,24.582c-2.096,1.76-2.368,4.886-0.608,6.982c1.047,1.247,2.578,1.832,4.088,1.744	c-0.348,1.472-0.037,3.081,1.01,4.328c1.76,2.096,4.886,2.368,6.982,0.608c3.616-3.037,2.685-12.171,3.461-13.259	c0.419-0.587,1.012-1.449,0.67-1.857c-0.342-0.407-1.264,0.12-1.944,0.339C20.602,23.889,11.879,21.545,8.262,24.582z"/><radialGradient id="3tgMv39psE8oXbI5tPPPVf" cx="-16.497" cy="-2.429" r="71.917" gradientTransform="scale(-1 1) rotate(-45 20.521 72.442)" gradientUnits="userSpaceOnUse"><stop offset=".435" stop-color="#78b324"/><stop offset=".487" stop-color="#76b023"/><stop offset=".521" stop-color="#70a722"/><stop offset=".551" stop-color="#66981f"/><stop offset=".573" stop-color="#5b871b"/><stop offset=".573" stop-color="#6ea321"/><stop offset=".581" stop-color="#6da121"/><stop offset=".672" stop-color="#608e1c"/><stop offset=".736" stop-color="#5b871b"/></radialGradient><path fill="url(#3tgMv39psE8oXbI5tPPPVf)" d="M26.925,7.452c1.936-1.936,5.076-1.936,7.013,0c1.152,1.152,1.602,2.729,1.383,4.227	c1.497-0.219,3.074,0.231,4.227,1.383c1.936,1.936,1.936,5.076,0,7.013c-3.341,3.341-12.367,1.619-13.519,2.299	c-0.622,0.367-1.533,0.883-1.909,0.506c-0.376-0.376,0.23-1.25,0.506-1.909C25.162,19.693,23.583,10.794,26.925,7.452z"/></svg>