<svg xmlns="http://www.w3.org/2000/svg"  viewBox="0 0 48 48" width="96px" height="96px"><linearGradient id="_pE~QBoKR5mAoyCjNNkDDa" x1="13.173" x2="29.784" y1="1.186" y2="44.33" gradientUnits="userSpaceOnUse"><stop offset="0" stop-color="#ffd3a4"/><stop offset=".306" stop-color="#f27630"/><stop offset=".721" stop-color="#eb5b11"/><stop offset=".975" stop-color="#e84f03"/></linearGradient><path fill="url(#_pE~QBoKR5mAoyCjNNkDDa)" d="M45,28c0,9-2,13-2,13s-3-2-4-3c0,2-1.39,5.04-3,6c-2-2-4-3-4-3c-2,4-8,4-8,4s-6,0-8-4c0,0-2,1-4,3	c-1.61-0.96-3-4-3-6c-1,1-4,3-4,3s-2-4-2-13c0-7,4.04-16.84,7-20c2.34-2.5,6-6,10-6c2.67,0,4,1,4,1s1.33-1,4-1c4,0,7.66,3.5,10,6	C40.96,11.16,45,21,45,28z"/><radialGradient id="_pE~QBoKR5mAoyCjNNkDDb" cx="24" cy="33.622" r="21.485" gradientTransform="matrix(1 0 0 1.1644 0 -5.528)" gradientUnits="userSpaceOnUse"><stop offset="0" stop-color="#ef6a22" stop-opacity="0"/><stop offset=".307" stop-color="#f3712b" stop-opacity=".369"/><stop offset=".811" stop-color="#fe8244" stop-opacity=".973"/><stop offset=".833" stop-color="#ff8345"/><stop offset=".907" stop-color="#fd8142" stop-opacity=".56"/><stop offset=".97" stop-color="#f77b37" stop-opacity=".182"/><stop offset="1" stop-color="#f2762f" stop-opacity="0"/></radialGradient><path fill="url(#_pE~QBoKR5mAoyCjNNkDDb)" d="M45,28c0,9-2,13-2,13s-3-2-4-3c0,2-1.39,5.04-3,6c-2-2-4-3-4-3c-2,4-8,4-8,4s-6,0-8-4c0,0-2,1-4,3	c-1.61-0.96-3-4-3-6c-1,1-4,3-4,3s-2-4-2-13c0-7,4.04-16.84,7-20c2.34-2.5,14-1,14-1s11.66-1.5,14,1C40.96,11.16,45,21,45,28z"/><radialGradient id="_pE~QBoKR5mAoyCjNNkDDc" cx="24" cy="37.53" r="15.958" gradientTransform="matrix(1 0 0 1.1644 0 -6.17)" gradientUnits="userSpaceOnUse"><stop offset="0" stop-color="#c14717"/><stop offset=".201" stop-color="#ca501e"/><stop offset=".531" stop-color="#e36830"/><stop offset=".833" stop-color="#ff8345"/><stop offset=".907" stop-color="#fd8142" stop-opacity=".56"/><stop offset=".97" stop-color="#f77b37" stop-opacity=".182"/><stop offset="1" stop-color="#f2762f" stop-opacity="0"/></radialGradient><path fill="url(#_pE~QBoKR5mAoyCjNNkDDc)" d="M39,38c0,2-1.39,5.04-3,6c-2-2-4-3-4-3c-2,4-8,6-8,6s-6-2-8-6c0,0-2,1-4,3c-1.61-0.96-3-4-3-6	c0,0,2.04-15.84,5-19c2.34-2.5,10-4,10-4s7.66,1.5,10,4C36.96,22.16,39,38,39,38z"/><radialGradient id="_pE~QBoKR5mAoyCjNNkDDd" cx="23.874" cy="27.755" r="18.88" gradientTransform="matrix(1 0 0 1.1076 0 -2.986)" gradientUnits="userSpaceOnUse"><stop offset=".361" stop-color="#932a00"/><stop offset="1" stop-color="#f99c6c" stop-opacity="0"/></radialGradient><path fill="url(#_pE~QBoKR5mAoyCjNNkDDd)" d="M45,28c0,9-2,13-2,13s-3-2-4-3c0,2-1.39,5.04-3,6c-2-2-4-3-4-3c-2,4-8,6-8,6s-6-2-8-6c0,0-2,1-4,3	c-1.61-0.96-3-4-3-6c-1,1-4,3-4,3s-2-4-2-13c0-7,4.04-16.84,7-20c2.34-2.5,6-6,10-6c2.67,0,4,1,4,1s1.33-1,4-1c4,0,7.66,3.5,10,6	C40.96,11.16,45,21,45,28z"/><radialGradient id="_pE~QBoKR5mAoyCjNNkDDe" cx="24.215" cy="8.316" r="4.884" gradientTransform="matrix(1 0 0 2.1722 0 -9.748)" gradientUnits="userSpaceOnUse"><stop offset="0" stop-color="#d75e25"/><stop offset=".564" stop-color="#ef7130" stop-opacity=".392"/><stop offset=".928" stop-color="#f87834" stop-opacity="0"/></radialGradient><path fill="url(#_pE~QBoKR5mAoyCjNNkDDe)" d="M24,3v31c-11.095,0-17.688-0.088-20.73-0.71C3.11,31.82,3,30.07,3,28c0-7,4.04-16.84,7-20 c1.83-1.95,4.46-4.51,7.42-5.54C18.26,2.17,19.12,2,20,2C22.67,2,24,3,24,3z"/><radialGradient id="_pE~QBoKR5mAoyCjNNkDDf" cx="-179.785" cy="8.514" r="5.036" gradientTransform="matrix(-1 0 0 2.1722 -156 -9.98)" gradientUnits="userSpaceOnUse"><stop offset="0" stop-color="#d75e25"/><stop offset=".564" stop-color="#ef7130" stop-opacity=".392"/><stop offset=".928" stop-color="#f87834" stop-opacity="0"/></radialGradient><path fill="url(#_pE~QBoKR5mAoyCjNNkDDf)" d="M24,3v32c11.05,0,18.04-1.16,20.73-1.71C44.89,31.82,45,30.07,45,28c0-7-4.04-16.84-7-20 c-1.83-1.95-4.46-4.51-7.42-5.54C29.74,2.17,28.88,2,28,2C25.33,2,24,3,24,3z"/><linearGradient id="_pE~QBoKR5mAoyCjNNkDDg" x1="36.423" x2="41.637" y1="7.102" y2="12.597" gradientUnits="userSpaceOnUse"><stop offset="0" stop-color="#f48744"/><stop offset=".013" stop-color="#f38340"/><stop offset=".1" stop-color="#ef712a"/><stop offset=".202" stop-color="#ed6319"/><stop offset=".329" stop-color="#eb580e"/><stop offset=".506" stop-color="#e95307"/><stop offset="1" stop-color="#e95105"/></linearGradient><path fill="url(#_pE~QBoKR5mAoyCjNNkDDg)" d="M41,9.71c0,3.02-0.85,4.33-1.62,4.89C39.31,14.47,38,12,34.39,8.28C35.51,7.24,37.1,6,38.33,6 C40.47,6,41,7.59,41,9.71z"/><path fill="#FFCC80" d="M40,10.31c0,1.035-0.113,1.82-0.283,2.428S39.32,13.775,39.09,14.1c-0.26-0.425-0.705-1.105-1.381-1.994 c-0.338-0.444-0.734-0.941-1.194-1.484c-0.46-0.543-0.983-1.132-1.575-1.762c0.435-0.435,0.947-0.9,1.464-1.256S37.44,7,37.89,7 C39.58,7,40,8.42,40,10.31z"/><path fill="#FCC97E" d="M36.396,7.645c0.514-0.354,1.031-0.599,1.478-0.599c0.754,0,1.253,0.286,1.573,0.772 c0.389,0.591,0.515,1.477,0.517,2.503c0.001,0.713-0.053,1.306-0.142,1.805c-0.039,0.216-0.084,0.414-0.135,0.597 c-0.167,0.6-0.39,1.026-0.616,1.349c-0.26-0.424-0.702-1.098-1.373-1.979c-0.335-0.44-0.727-0.932-1.182-1.47 c-0.453-0.536-0.969-1.117-1.554-1.739C35.389,8.456,35.891,7.997,36.396,7.645z"/><path fill="#FAC67C" d="M36.389,7.686c0.513-0.352,1.026-0.595,1.47-0.594c0.745,0,1.239,0.283,1.556,0.765 c0.385,0.584,0.511,1.46,0.513,2.476c0.001,0.704-0.051,1.291-0.138,1.785c-0.038,0.214-0.082,0.41-0.132,0.59 c-0.164,0.593-0.383,1.015-0.606,1.336c-0.26-0.422-0.699-1.092-1.364-1.964c-0.332-0.436-0.721-0.923-1.171-1.455 c-0.447-0.529-0.956-1.102-1.532-1.715C35.402,8.487,35.894,8.034,36.389,7.686z"/><path fill="#F7C47A" d="M36.382,7.728c0.511-0.35,1.021-0.59,1.462-0.59c0.737,0,1.225,0.281,1.54,0.757 c0.381,0.578,0.506,1.444,0.509,2.449c0.002,0.695-0.049,1.276-0.134,1.766c-0.037,0.211-0.081,0.405-0.13,0.584 c-0.161,0.586-0.376,1.004-0.595,1.323c-0.259-0.421-0.697-1.085-1.355-1.95c-0.329-0.432-0.714-0.914-1.16-1.441 c-0.441-0.521-0.943-1.087-1.51-1.691C35.416,8.518,35.897,8.071,36.382,7.728z"/><path fill="#F5C178" d="M36.375,7.769c0.509-0.348,1.016-0.585,1.453-0.585c0.728,0,1.211,0.278,1.523,0.75 c0.377,0.571,0.501,1.428,0.506,2.422c0.002,0.686-0.047,1.261-0.131,1.746c-0.036,0.209-0.079,0.4-0.127,0.577 c-0.158,0.579-0.369,0.993-0.584,1.31c-0.259-0.419-0.694-1.079-1.347-1.935c-0.326-0.428-0.707-0.905-1.148-1.427 c-0.435-0.514-0.93-1.072-1.489-1.667C35.43,8.549,35.9,8.108,36.375,7.769z"/><path fill="#F2BE77" d="M36.367,7.81c0.507-0.345,1.011-0.581,1.445-0.58c0.72,0.001,1.197,0.275,1.506,0.743 c0.373,0.565,0.497,1.411,0.502,2.395c0.003,0.677-0.045,1.245-0.127,1.727c-0.036,0.206-0.078,0.396-0.124,0.571 c-0.155,0.571-0.362,0.981-0.573,1.296c-0.259-0.418-0.691-1.072-1.338-1.921c-0.323-0.424-0.701-0.897-1.137-1.412 c-0.429-0.507-0.916-1.056-1.467-1.643C35.443,8.579,35.904,8.145,36.367,7.81z"/><path fill="#EFBB75" d="M36.36,7.852c0.505-0.343,1.006-0.576,1.437-0.575c0.711,0.001,1.184,0.272,1.489,0.735 c0.368,0.558,0.492,1.395,0.498,2.368c0.003,0.668-0.044,1.23-0.124,1.707c-0.035,0.204-0.076,0.391-0.122,0.564 c-0.152,0.564-0.355,0.97-0.562,1.283c-0.259-0.417-0.688-1.066-1.329-1.906c-0.321-0.42-0.694-0.888-1.126-1.398 c-0.423-0.5-0.903-1.041-1.446-1.619C35.457,8.61,35.907,8.182,36.36,7.852z"/><path fill="#EDB973" d="M36.353,7.893c0.503-0.341,1.001-0.571,1.428-0.571c0.702,0.001,1.17,0.269,1.472,0.728 c0.364,0.552,0.487,1.379,0.495,2.341c0.004,0.66-0.041,1.215-0.12,1.688c-0.034,0.201-0.074,0.387-0.119,0.558 c-0.148,0.557-0.348,0.959-0.551,1.27c-0.259-0.415-0.685-1.059-1.321-1.891c-0.318-0.416-0.687-0.879-1.114-1.384 c-0.417-0.492-0.89-1.026-1.424-1.596C35.471,8.641,35.91,8.219,36.353,7.893z"/><path fill="#EAB671" d="M36.345,7.934c0.502-0.339,0.996-0.567,1.42-0.566c0.694,0.001,1.156,0.267,1.456,0.72 c0.36,0.545,0.483,1.362,0.491,2.314c0.004,0.651-0.039,1.2-0.116,1.668c-0.033,0.199-0.072,0.382-0.117,0.551 c-0.144,0.55-0.341,0.948-0.54,1.257c-0.259-0.414-0.683-1.053-1.312-1.877c-0.315-0.412-0.681-0.87-1.103-1.369 c-0.411-0.485-0.876-1.011-1.403-1.572C35.484,8.672,35.913,8.256,36.345,7.934z"/><path fill="#E8B36F" d="M36.338,7.976c0.5-0.337,0.99-0.562,1.412-0.561c0.685,0.001,1.142,0.264,1.439,0.713 c0.356,0.539,0.478,1.346,0.488,2.287c0.005,0.642-0.037,1.185-0.113,1.649c-0.032,0.196-0.071,0.377-0.114,0.545 c-0.141,0.543-0.334,0.937-0.529,1.244c-0.258-0.413-0.68-1.046-1.303-1.862c-0.312-0.408-0.674-0.861-1.092-1.355 c-0.404-0.478-0.863-0.996-1.381-1.548C35.498,8.703,35.917,8.293,36.338,7.976z"/><path fill="#E5B06D" d="M36.331,8.017c0.498-0.334,0.985-0.558,1.404-0.556c0.677,0.001,1.129,0.261,1.422,0.706 c0.352,0.533,0.473,1.33,0.484,2.26c0.005,0.633-0.035,1.17-0.109,1.629c-0.031,0.194-0.069,0.373-0.112,0.538 c-0.138,0.536-0.327,0.925-0.518,1.23c-0.258-0.411-0.677-1.04-1.295-1.847c-0.309-0.404-0.667-0.852-1.08-1.341 c-0.398-0.471-0.85-0.98-1.359-1.524C35.512,8.734,35.92,8.331,36.331,8.017z"/><path fill="#E2AE6B" d="M36.323,8.058c0.496-0.332,0.98-0.553,1.395-0.552c0.668,0.001,1.115,0.258,1.405,0.698 c0.347,0.526,0.469,1.314,0.48,2.233c0.006,0.624-0.033,1.154-0.105,1.61c-0.03,0.191-0.067,0.368-0.109,0.532 c-0.135,0.528-0.32,0.914-0.507,1.217c-0.258-0.41-0.674-1.033-1.286-1.833c-0.306-0.4-0.661-0.843-1.069-1.326 c-0.392-0.464-0.837-0.965-1.338-1.5C35.526,8.765,35.923,8.368,36.323,8.058z"/><path fill="#E0AB69" d="M36.316,8.1c0.494-0.33,0.975-0.548,1.387-0.547c0.66,0.001,1.101,0.255,1.389,0.691 c0.343,0.52,0.464,1.297,0.477,2.206c0.006,0.615-0.031,1.139-0.102,1.59c-0.03,0.189-0.066,0.363-0.107,0.525 c-0.132,0.521-0.313,0.903-0.496,1.204c-0.258-0.408-0.671-1.027-1.277-1.818c-0.303-0.396-0.654-0.834-1.058-1.312 c-0.386-0.456-0.823-0.95-1.316-1.476C35.539,8.796,35.926,8.405,36.316,8.1z"/><path fill="#DDA867" d="M36.309,8.141c0.492-0.328,0.97-0.544,1.379-0.542c0.651,0.002,1.087,0.253,1.372,0.683 c0.339,0.513,0.459,1.281,0.473,2.179c0.007,0.606-0.029,1.124-0.098,1.571c-0.029,0.186-0.064,0.359-0.104,0.519 c-0.128,0.514-0.306,0.892-0.485,1.191c-0.258-0.407-0.669-1.02-1.269-1.803c-0.3-0.392-0.647-0.826-1.047-1.297 c-0.38-0.449-0.81-0.935-1.295-1.453C35.553,8.827,35.93,8.442,36.309,8.141z"/><path fill="#DBA565" d="M36.301,8.182c0.491-0.326,0.965-0.539,1.371-0.538c0.643,0.002,1.073,0.25,1.355,0.676 c0.335,0.507,0.457,1.265,0.469,2.152c0.009,0.598-0.027,1.109-0.094,1.551c-0.028,0.184-0.063,0.354-0.102,0.512 c-0.125,0.507-0.299,0.881-0.474,1.178c-0.258-0.406-0.666-1.014-1.26-1.789c-0.297-0.387-0.641-0.817-1.035-1.283 c-0.374-0.442-0.797-0.92-1.273-1.429C35.567,8.857,35.933,8.479,36.301,8.182z"/><path fill="#D8A364" d="M36.294,8.223c0.489-0.324,0.96-0.535,1.362-0.533c0.634,0.002,1.06,0.247,1.338,0.668 c0.331,0.5,0.452,1.248,0.466,2.125c0.009,0.589-0.025,1.094-0.091,1.532c-0.027,0.181-0.061,0.349-0.099,0.506 c-0.122,0.5-0.292,0.869-0.463,1.164c-0.257-0.404-0.663-1.007-1.251-1.774c-0.294-0.383-0.634-0.808-1.024-1.269 c-0.368-0.435-0.784-0.904-1.252-1.405C35.58,8.888,35.936,8.516,36.294,8.223z"/><path fill="#D5A062" d="M36.287,8.265c0.487-0.321,0.955-0.53,1.354-0.528c0.626,0.002,1.046,0.244,1.322,0.661 c0.326,0.494,0.447,1.232,0.462,2.098c0.01,0.58-0.023,1.079-0.087,1.512c-0.026,0.179-0.059,0.345-0.097,0.499 c-0.119,0.492-0.285,0.858-0.452,1.151c-0.257-0.403-0.66-1.001-1.243-1.76c-0.291-0.379-0.627-0.799-1.013-1.254 c-0.362-0.427-0.77-0.889-1.23-1.381C35.594,8.919,35.939,8.553,36.287,8.265z"/><path fill="#D39D60" d="M36.28,8.306c0.485-0.319,0.95-0.525,1.346-0.523c0.617,0.002,1.032,0.241,1.305,0.654 c0.322,0.487,0.443,1.216,0.459,2.071c0.01,0.571-0.021,1.063-0.084,1.493c-0.026,0.176-0.058,0.34-0.094,0.493 c-0.116,0.485-0.278,0.847-0.441,1.138c-0.257-0.402-0.657-0.994-1.234-1.745c-0.288-0.375-0.621-0.79-1.001-1.24 c-0.356-0.42-0.757-0.874-1.208-1.357C35.608,8.95,35.943,8.59,36.28,8.306z"/><path fill="#D09A5E" d="M36.272,8.347c0.483-0.317,0.945-0.521,1.338-0.519c0.608,0.002,1.018,0.239,1.288,0.646 c0.318,0.481,0.438,1.199,0.455,2.044c0.011,0.562-0.019,1.048-0.08,1.473c-0.025,0.174-0.056,0.335-0.091,0.486 c-0.113,0.478-0.271,0.836-0.43,1.125c-0.257-0.4-0.655-0.988-1.225-1.73c-0.285-0.371-0.614-0.781-0.99-1.226 c-0.349-0.413-0.744-0.859-1.187-1.334C35.621,8.981,35.946,8.627,36.272,8.347z"/><path fill="#CE985C" d="M36.265,8.389c0.481-0.315,0.94-0.516,1.329-0.514c0.6,0.002,1.005,0.236,1.271,0.639 c0.314,0.474,0.434,1.183,0.451,2.017c0.012,0.553-0.017,1.033-0.076,1.454c-0.024,0.171-0.054,0.331-0.089,0.48 c-0.109,0.471-0.264,0.824-0.419,1.112c-0.257-0.399-0.652-0.981-1.217-1.716c-0.282-0.367-0.607-0.772-0.979-1.211 c-0.343-0.406-0.73-0.844-1.165-1.31C35.635,9.012,35.949,8.664,36.265,8.389z"/><path fill="#CB955A" d="M36.258,8.43c0.48-0.313,0.935-0.512,1.321-0.509c0.591,0.002,0.991,0.233,1.255,0.631 c0.31,0.468,0.429,1.167,0.448,1.99c0.012,0.545-0.015,1.018-0.073,1.434c-0.023,0.169-0.053,0.326-0.086,0.473 c-0.106,0.464-0.257,0.813-0.408,1.098c-0.257-0.397-0.649-0.975-1.208-1.701c-0.28-0.363-0.601-0.763-0.967-1.197 c-0.337-0.399-0.717-0.829-1.144-1.286C35.649,9.043,35.952,8.701,36.258,8.43z"/><path fill="#C89258" d="M36.25,8.471c0.478-0.311,0.929-0.507,1.313-0.504c0.583,0.002,0.977,0.23,1.238,0.624 c0.305,0.461,0.425,1.151,0.444,1.963c0.013,0.536-0.013,1.003-0.069,1.415c-0.023,0.166-0.051,0.321-0.084,0.467 c-0.103,0.456-0.25,0.802-0.397,1.085c-0.256-0.396-0.646-0.968-1.199-1.686c-0.277-0.359-0.594-0.755-0.956-1.183 c-0.331-0.391-0.704-0.813-1.122-1.262C35.662,9.074,35.956,8.738,36.25,8.471z"/><path fill="#C68F56" d="M36.243,8.513c0.476-0.308,0.924-0.502,1.305-0.5c0.574,0.003,0.963,0.227,1.221,0.616 c0.301,0.455,0.42,1.134,0.44,1.936c0.013,0.527-0.011,0.987-0.065,1.395c-0.022,0.164-0.049,0.317-0.081,0.46 c-0.1,0.449-0.243,0.791-0.386,1.072c-0.256-0.395-0.643-0.962-1.191-1.672c-0.274-0.355-0.587-0.746-0.945-1.168 c-0.325-0.384-0.691-0.798-1.101-1.238C35.676,9.105,35.959,8.775,36.243,8.513z"/><path fill="#C38D54" d="M36.236,8.554c0.474-0.306,0.919-0.498,1.296-0.495c0.566,0.003,0.95,0.225,1.204,0.609 c0.297,0.449,0.415,1.118,0.437,1.909c0.014,0.518-0.009,0.972-0.062,1.376c-0.021,0.161-0.048,0.312-0.079,0.454 c-0.097,0.442-0.236,0.78-0.375,1.059c-0.256-0.393-0.641-0.955-1.182-1.657c-0.271-0.351-0.581-0.737-0.933-1.154 c-0.319-0.377-0.677-0.783-1.079-1.214C35.69,9.135,35.962,8.812,36.236,8.554z"/><path fill="#C18A52" d="M36.228,8.595c0.472-0.304,0.914-0.493,1.288-0.49c0.557,0.003,0.936,0.222,1.187,0.602 c0.293,0.442,0.411,1.102,0.433,1.882c0.015,0.509-0.007,0.957-0.058,1.356c-0.02,0.159-0.046,0.308-0.076,0.447 c-0.094,0.435-0.229,0.768-0.364,1.045c-0.256-0.392-0.638-0.949-1.173-1.643c-0.268-0.347-0.574-0.728-0.922-1.14 c-0.313-0.37-0.664-0.768-1.057-1.191C35.703,9.166,35.965,8.849,36.228,8.595z"/><path fill="#BE8751" d="M36.221,8.637c0.47-0.302,0.909-0.488,1.28-0.485c0.549,0.003,0.922,0.219,1.171,0.594 c0.289,0.436,0.406,1.085,0.43,1.855c0.015,0.5-0.005,0.942-0.054,1.337c-0.019,0.156-0.045,0.303-0.074,0.441 c-0.091,0.428-0.222,0.757-0.353,1.032c-0.256-0.391-0.635-0.942-1.165-1.628c-0.265-0.343-0.567-0.719-0.911-1.125 c-0.307-0.363-0.651-0.753-1.036-1.167C35.717,9.197,35.969,8.886,36.221,8.637z"/><path fill="#BB844F" d="M36.214,8.678c0.469-0.3,0.904-0.484,1.272-0.481c0.54,0.003,0.908,0.216,1.154,0.587 c0.284,0.429,0.402,1.069,0.426,1.828c0.016,0.491-0.004,0.927-0.051,1.317c-0.019,0.154-0.043,0.298-0.071,0.434 c-0.087,0.42-0.215,0.746-0.342,1.019c-0.256-0.389-0.632-0.936-1.156-1.613c-0.262-0.339-0.561-0.71-0.899-1.111 c-0.3-0.355-0.637-0.737-1.014-1.143C35.731,9.228,35.972,8.923,36.214,8.678z"/><path fill="#B9824D" d="M36.206,8.719c0.467-0.297,0.899-0.479,1.263-0.476c0.531,0.003,0.894,0.214,1.137,0.579 c0.28,0.423,0.397,1.053,0.422,1.801c0.016,0.483-0.002,0.911-0.047,1.298c-0.018,0.151-0.041,0.294-0.069,0.428 c-0.084,0.413-0.208,0.735-0.331,1.006c-0.255-0.388-0.629-0.929-1.147-1.599c-0.259-0.335-0.554-0.701-0.888-1.097 c-0.294-0.348-0.624-0.722-0.993-1.119C35.745,9.259,35.975,8.96,36.206,8.719z"/><path fill="#B67F4B" d="M36.199,8.761c0.465-0.295,0.894-0.475,1.255-0.471c0.523,0.003,0.881,0.211,1.12,0.572 c0.276,0.416,0.392,1.036,0.419,1.774c0.017,0.474,0,0.896-0.044,1.278c-0.017,0.149-0.04,0.289-0.066,0.421 c-0.081,0.406-0.201,0.724-0.32,0.993c-0.255-0.386-0.627-0.923-1.139-1.584c-0.256-0.331-0.547-0.692-0.877-1.082 c-0.288-0.341-0.611-0.707-0.971-1.095C35.758,9.29,35.978,8.997,36.199,8.761z"/><path fill="#B37C49" d="M36.192,8.802c0.463-0.293,0.889-0.47,1.247-0.467c0.514,0.003,0.867,0.208,1.104,0.565 c0.272,0.41,0.388,1.02,0.415,1.747c0.017,0.465,0.002,0.881-0.04,1.259c-0.016,0.146-0.038,0.284-0.064,0.415 c-0.078,0.399-0.194,0.712-0.309,0.979c-0.255-0.385-0.624-0.916-1.13-1.569c-0.253-0.327-0.541-0.684-0.865-1.068 c-0.282-0.334-0.598-0.692-0.95-1.071C35.772,9.321,35.982,9.035,36.192,8.802z"/><path fill="#B17947" d="M36.185,8.843c0.461-0.291,0.884-0.465,1.239-0.462c0.506,0.004,0.853,0.205,1.087,0.557 c0.268,0.403,0.383,1.004,0.411,1.72c0.018,0.456,0.004,0.866-0.036,1.239c-0.016,0.144-0.036,0.28-0.061,0.408 c-0.075,0.391-0.187,0.701-0.298,0.966c-0.255-0.384-0.621-0.91-1.121-1.555c-0.25-0.323-0.534-0.675-0.854-1.054 c-0.276-0.326-0.584-0.677-0.928-1.048C35.786,9.352,35.985,9.072,36.185,8.843z"/><path fill="#AE7645" d="M36.177,8.885c0.459-0.289,0.879-0.461,1.23-0.457c0.497,0.004,0.839,0.202,1.07,0.55 c0.263,0.397,0.379,0.987,0.408,1.693c0.019,0.447,0.006,0.851-0.033,1.22c-0.015,0.141-0.035,0.275-0.059,0.402 c-0.072,0.384-0.18,0.69-0.287,0.953c-0.255-0.382-0.618-0.903-1.113-1.54c-0.247-0.318-0.527-0.666-0.843-1.039 c-0.27-0.319-0.571-0.661-0.906-1.024C35.799,9.382,35.988,9.109,36.177,8.885z"/><path fill="#AC7443" d="M36.17,8.926c0.458-0.287,0.873-0.456,1.222-0.452c0.489,0.004,0.826,0.2,1.053,0.542 c0.259,0.39,0.374,0.971,0.404,1.666c0.019,0.438,0.008,0.835-0.029,1.2c-0.014,0.139-0.033,0.27-0.056,0.395 c-0.069,0.377-0.173,0.679-0.276,0.94c-0.254-0.381-0.615-0.897-1.104-1.525c-0.244-0.314-0.521-0.657-0.832-1.025 c-0.264-0.312-0.558-0.646-0.885-1C35.813,9.413,35.991,9.146,36.17,8.926z"/><path fill="#A97141" d="M36.163,8.967c0.456-0.284,0.868-0.452,1.214-0.448c0.48,0.004,0.812,0.197,1.037,0.535 c0.255,0.384,0.369,0.955,0.401,1.639c0.02,0.429,0.01,0.82-0.025,1.181c-0.013,0.136-0.032,0.266-0.053,0.389 c-0.066,0.37-0.166,0.668-0.265,0.927c-0.254-0.379-0.613-0.89-1.095-1.511c-0.241-0.31-0.514-0.648-0.82-1.011 c-0.258-0.305-0.545-0.631-0.863-0.976C35.827,9.444,35.994,9.183,36.163,8.967z"/><path fill="#A66E40" d="M36.155,9.008c0.454-0.282,0.863-0.447,1.206-0.443c0.472,0.004,0.798,0.194,1.02,0.527 c0.251,0.378,0.365,0.939,0.397,1.612c0.02,0.421,0.012,0.805-0.022,1.161c-0.013,0.134-0.03,0.261-0.051,0.382 c-0.063,0.362-0.159,0.656-0.254,0.913c-0.254-0.378-0.61-0.884-1.087-1.496c-0.238-0.306-0.507-0.639-0.809-0.996 c-0.251-0.298-0.531-0.616-0.842-0.952C35.84,9.475,35.998,9.22,36.155,9.008z"/><path fill="#A46B3E" d="M36.148,9.05c0.452-0.28,0.858-0.442,1.197-0.438c0.463,0.004,0.784,0.191,1.003,0.52 c0.247,0.371,0.36,0.922,0.393,1.585c0.021,0.412,0.014,0.79-0.018,1.142c-0.012,0.131-0.028,0.256-0.048,0.376 c-0.06,0.355-0.152,0.645-0.243,0.9c-0.254-0.377-0.607-0.877-1.078-1.482c-0.236-0.302-0.501-0.63-0.798-0.982 c-0.245-0.29-0.518-0.601-0.82-0.929C35.854,9.506,36.001,9.257,36.148,9.05z"/><path fill="#A1693C" d="M36.141,9.091c0.45-0.278,0.853-0.438,1.189-0.433c0.454,0.004,0.771,0.188,0.986,0.513 c0.242,0.365,0.355,0.906,0.39,1.558c0.021,0.403,0.015,0.775-0.014,1.122c-0.011,0.129-0.027,0.252-0.046,0.369 c-0.057,0.348-0.145,0.634-0.232,0.887c-0.254-0.375-0.604-0.871-1.069-1.467c-0.233-0.298-0.494-0.621-0.786-0.968 c-0.239-0.283-0.505-0.585-0.799-0.905C35.868,9.537,36.004,9.294,36.141,9.091z"/><path fill="#9F663A" d="M36.133,9.132c0.448-0.276,0.848-0.433,1.181-0.429c0.446,0.004,0.757,0.186,0.97,0.505 c0.238,0.358,0.351,0.89,0.386,1.531c0.022,0.394,0.017,0.759-0.011,1.103c-0.01,0.126-0.025,0.247-0.043,0.363 c-0.054,0.341-0.138,0.623-0.221,0.874c-0.254-0.374-0.601-0.864-1.061-1.452c-0.23-0.294-0.487-0.613-0.775-0.953 c-0.233-0.276-0.491-0.57-0.777-0.881C35.881,9.568,36.007,9.331,36.133,9.132z"/><path fill="#9C6338" d="M36.126,9.174c0.447-0.274,0.843-0.429,1.173-0.424c0.437,0.005,0.743,0.183,0.953,0.498 c0.234,0.352,0.346,0.873,0.382,1.504c0.022,0.385,0.019,0.744-0.007,1.083c-0.01,0.124-0.023,0.242-0.041,0.356 c-0.051,0.333-0.131,0.611-0.21,0.861c-0.253-0.373-0.599-0.858-1.052-1.438c-0.227-0.29-0.481-0.604-0.764-0.939 c-0.227-0.269-0.478-0.555-0.755-0.857C35.895,9.599,36.011,9.368,36.126,9.174z"/><path fill="#996036" d="M36.119,9.215c0.445-0.271,0.838-0.424,1.164-0.419c0.429,0.005,0.729,0.18,0.936,0.49 c0.23,0.345,0.341,0.857,0.379,1.477c0.023,0.376,0.021,0.729-0.004,1.064c-0.009,0.121-0.022,0.238-0.038,0.35 c-0.048,0.326-0.124,0.6-0.199,0.847c-0.253-0.371-0.596-0.851-1.043-1.423c-0.224-0.286-0.474-0.595-0.752-0.925 c-0.221-0.261-0.465-0.54-0.734-0.833C35.909,9.63,36.014,9.405,36.119,9.215z"/><path fill="#975E34" d="M36.111,9.256c0.443-0.269,0.833-0.419,1.156-0.415c0.42,0.005,0.715,0.177,0.919,0.483 c0.226,0.339,0.337,0.841,0.375,1.45c0.023,0.368,0.023,0.714,0,1.044c-0.008,0.119-0.02,0.233-0.036,0.343 c-0.045,0.319-0.117,0.589-0.188,0.834c-0.253-0.37-0.593-0.845-1.035-1.408c-0.221-0.282-0.467-0.586-0.741-0.91 c-0.215-0.254-0.452-0.525-0.712-0.809C35.922,9.66,36.017,9.442,36.111,9.256z"/><path fill="#945B32" d="M36.104,9.298c0.441-0.267,0.828-0.415,1.148-0.41c0.412,0.005,0.702,0.174,0.902,0.476 c0.221,0.332,0.332,0.824,0.372,1.423c0.024,0.359,0.024,0.698,0.004,1.025c-0.007,0.116-0.019,0.228-0.033,0.337 c-0.042,0.312-0.11,0.578-0.177,0.821c-0.253-0.368-0.59-0.838-1.026-1.394c-0.218-0.278-0.461-0.577-0.73-0.896 c-0.209-0.247-0.438-0.509-0.691-0.786C35.936,9.691,36.02,9.479,36.104,9.298z"/><path fill="#925830" d="M36.097,9.339c0.439-0.265,0.823-0.41,1.14-0.405c0.403,0.005,0.688,0.172,0.886,0.468 c0.217,0.326,0.327,0.808,0.368,1.396c0.024,0.35,0.026,0.683,0.007,1.005c-0.007,0.114-0.017,0.224-0.031,0.33 c-0.039,0.304-0.103,0.567-0.166,0.808c-0.253-0.367-0.587-0.832-1.017-1.379c-0.215-0.274-0.454-0.568-0.718-0.882 c-0.203-0.24-0.425-0.494-0.669-0.762C35.95,9.722,36.024,9.516,36.097,9.339z"/><path fill="#8F552E" d="M36.09,9.38c0.437-0.263,0.818-0.405,1.131-0.4c0.395,0.005,0.674,0.169,0.869,0.461 c0.213,0.319,0.322,0.792,0.364,1.369c0.025,0.341,0.028,0.668,0.011,0.986c-0.006,0.111-0.016,0.219-0.028,0.324 c-0.036,0.297-0.096,0.555-0.155,0.795c-0.253-0.366-0.585-0.825-1.009-1.365c-0.212-0.27-0.447-0.559-0.707-0.867 c-0.196-0.233-0.412-0.479-0.648-0.738C35.964,9.753,36.027,9.553,36.09,9.38z"/><path fill="#8C532D" d="M36.082,9.422c0.436-0.26,0.812-0.401,1.123-0.396c0.386,0.005,0.66,0.166,0.852,0.453 c0.209,0.313,0.318,0.775,0.361,1.342c0.025,0.332,0.03,0.653,0.015,0.966c-0.005,0.109-0.014,0.214-0.026,0.317 c-0.033,0.29-0.089,0.544-0.144,0.781c-0.252-0.364-0.582-0.819-1-1.35c-0.209-0.266-0.441-0.55-0.696-0.853 c-0.19-0.225-0.399-0.464-0.626-0.714C35.977,9.784,36.03,9.59,36.082,9.422z"/><path fill="#8A502B" d="M36.075,9.463c0.434-0.258,0.807-0.396,1.115-0.391c0.377,0.005,0.647,0.163,0.835,0.446 c0.205,0.306,0.313,0.759,0.357,1.315c0.026,0.323,0.031,0.638,0.018,0.947c-0.005,0.106-0.012,0.21-0.023,0.311 c-0.03,0.283-0.082,0.533-0.133,0.768c-0.252-0.363-0.579-0.812-0.991-1.335c-0.206-0.262-0.434-0.542-0.684-0.839 c-0.184-0.218-0.385-0.449-0.604-0.69C35.991,9.815,36.033,9.627,36.075,9.463z"/><path fill="#874D29" d="M36.068,9.504c0.432-0.256,0.802-0.392,1.107-0.386c0.369,0.005,0.633,0.16,0.819,0.438 c0.2,0.3,0.308,0.743,0.353,1.288c0.026,0.314,0.033,0.622,0.022,0.927c-0.004,0.104-0.011,0.205-0.02,0.304 c-0.027,0.275-0.075,0.522-0.122,0.755c-0.252-0.362-0.576-0.806-0.983-1.321c-0.203-0.258-0.427-0.533-0.673-0.824 c-0.178-0.211-0.372-0.434-0.583-0.666C36.005,9.846,36.037,9.664,36.068,9.504z"/><path fill="#854A27" d="M36.06,9.546c0.43-0.254,0.797-0.387,1.098-0.381c0.36,0.006,0.619,0.158,0.802,0.431 c0.196,0.294,0.303,0.727,0.35,1.261c0.027,0.306,0.035,0.607,0.025,0.908c-0.003,0.101-0.009,0.2-0.018,0.298 c-0.024,0.268-0.068,0.511-0.111,0.742c-0.252-0.36-0.573-0.799-0.974-1.306c-0.2-0.253-0.421-0.524-0.662-0.81 c-0.172-0.204-0.359-0.418-0.561-0.643C36.018,9.877,36.04,9.701,36.06,9.546z"/><path fill="#824825" d="M36.053,9.587c0.428-0.252,0.792-0.382,1.09-0.377c0.352,0.006,0.605,0.155,0.785,0.424 c0.192,0.287,0.299,0.71,0.346,1.234c0.027,0.297,0.037,0.592,0.029,0.888c-0.002,0.099-0.008,0.196-0.015,0.291 c-0.021,0.261-0.061,0.499-0.1,0.728c-0.252-0.359-0.571-0.793-0.965-1.291c-0.197-0.249-0.414-0.515-0.65-0.796 c-0.166-0.197-0.345-0.403-0.54-0.619C36.032,9.908,36.043,9.739,36.053,9.587z"/><path fill="#7F4523" d="M36.046,9.628c0.426-0.25,0.787-0.378,1.082-0.372c0.343,0.006,0.591,0.152,0.768,0.416 c0.188,0.281,0.294,0.694,0.343,1.207c0.027,0.288,0.038,0.577,0.033,0.868c-0.002,0.096-0.006,0.191-0.013,0.285 c-0.018,0.254-0.054,0.488-0.089,0.715c-0.252-0.357-0.568-0.786-0.957-1.277c-0.195-0.245-0.407-0.506-0.639-0.781 c-0.16-0.189-0.332-0.388-0.518-0.595C36.046,9.938,36.046,9.776,36.046,9.628z"/><path fill="#7D4221" d="M36.038,9.669c0.425-0.247,0.782-0.373,1.074-0.367c0.335,0.006,0.578,0.149,0.752,0.409 c0.184,0.274,0.289,0.678,0.339,1.18c0.028,0.279,0.04,0.561,0.036,0.849c-0.001,0.094-0.005,0.186-0.01,0.278 c-0.015,0.246-0.047,0.477-0.078,0.702c-0.251-0.356-0.565-0.78-0.948-1.262c-0.192-0.241-0.401-0.497-0.628-0.767 c-0.154-0.182-0.319-0.373-0.497-0.571C36.059,9.969,36.05,9.813,36.038,9.669z"/><path fill="#7A3F1F" d="M36.031,9.711c0.423-0.245,0.777-0.369,1.065-0.363c0.326,0.006,0.564,0.146,0.735,0.401 c0.179,0.268,0.284,0.661,0.335,1.153c0.028,0.27,0.042,0.546,0.04,0.829c0,0.091-0.003,0.182-0.008,0.272 c-0.012,0.239-0.04,0.466-0.067,0.689c-0.251-0.355-0.562-0.773-0.939-1.247c-0.189-0.237-0.394-0.488-0.617-0.753 c-0.147-0.175-0.306-0.358-0.475-0.547C36.073,10,36.053,9.85,36.031,9.711z"/><path fill="#783D1D" d="M36.024,9.752c0.421-0.243,0.772-0.364,1.057-0.358c0.318,0.006,0.55,0.144,0.718,0.394 c0.175,0.261,0.279,0.645,0.332,1.126c0.029,0.261,0.043,0.531,0.044,0.81c0,0.089-0.002,0.177-0.005,0.265 c-0.01,0.232-0.033,0.454-0.056,0.676c-0.251-0.353-0.559-0.767-0.931-1.233c-0.186-0.233-0.387-0.479-0.605-0.738 c-0.141-0.168-0.292-0.342-0.453-0.524C36.087,10.031,36.056,9.887,36.024,9.752z"/><path fill="#753A1B" d="M36.017,9.793c0.419-0.241,0.767-0.359,1.049-0.353c0.309,0.006,0.536,0.141,0.701,0.386 c0.171,0.255,0.274,0.629,0.328,1.099c0.029,0.253,0.045,0.516,0.047,0.79c0.001,0.086,0,0.172-0.003,0.259 c-0.007,0.224-0.026,0.443-0.045,0.662c-0.251-0.352-0.557-0.76-0.922-1.218c-0.183-0.229-0.381-0.471-0.594-0.724 c-0.135-0.16-0.279-0.327-0.432-0.5C36.1,10.062,36.059,9.924,36.017,9.793z"/><path fill="#72371A" d="M36.009,9.835c0.417-0.239,0.762-0.355,1.041-0.348c0.3,0.006,0.523,0.138,0.685,0.379 c0.167,0.248,0.269,0.613,0.324,1.072c0.029,0.244,0.046,0.501,0.051,0.771c0.001,0.084,0.001,0.168,0,0.252 c-0.004,0.217-0.019,0.432-0.034,0.649c-0.251-0.351-0.554-0.754-0.913-1.204c-0.18-0.225-0.374-0.462-0.583-0.71 c-0.129-0.153-0.266-0.312-0.41-0.476C36.114,10.093,36.063,9.961,36.009,9.835z"/><path fill="#703418" d="M36.002,9.876c0.416-0.237,0.757-0.35,1.032-0.344c0.292,0.007,0.509,0.135,0.668,0.372 c0.163,0.242,0.264,0.596,0.321,1.045c0.03,0.235,0.048,0.485,0.055,0.751c0.002,0.081,0.003,0.163,0.002,0.246 c-0.001,0.21-0.011,0.421-0.023,0.636c-0.251-0.349-0.551-0.747-0.905-1.189c-0.177-0.221-0.367-0.453-0.571-0.695 c-0.123-0.146-0.252-0.297-0.389-0.452C36.128,10.124,36.066,9.998,36.002,9.876z"/><path fill="#6D3216" d="M35.995,9.917c0.414-0.234,0.751-0.345,1.024-0.339c0.283,0.007,0.495,0.132,0.651,0.364 c0.158,0.235,0.259,0.58,0.317,1.018c0.03,0.226,0.049,0.47,0.058,0.732c0.003,0.079,0.004,0.158,0.005,0.239 c0.001,0.203-0.004,0.41-0.012,0.623c-0.25-0.348-0.548-0.741-0.896-1.174c-0.174-0.217-0.361-0.444-0.56-0.681 c-0.117-0.139-0.239-0.282-0.367-0.428C36.141,10.155,36.069,10.035,35.995,9.917z"/><path fill="#6B2F14" d="M35.987,9.959c0.412-0.232,0.746-0.341,1.016-0.334c0.275,0.007,0.481,0.13,0.634,0.357 c0.154,0.229,0.253,0.564,0.314,0.991c0.03,0.217,0.05,0.455,0.062,0.712c0.003,0.076,0.006,0.154,0.007,0.233 c0.004,0.195,0.003,0.398-0.001,0.61c-0.25-0.346-0.545-0.734-0.887-1.16c-0.171-0.213-0.354-0.435-0.549-0.667 c-0.111-0.132-0.226-0.266-0.346-0.404C36.155,10.186,36.072,10.072,35.987,9.959z"/><path fill="#682C12" d="M38,12.5c-0.25-0.345-0.542-0.728-0.879-1.145c-0.168-0.209-0.347-0.426-0.537-0.652 S36.192,10.242,35.98,10c0.41-0.23,0.741-0.336,1.008-0.329c0.266,0.007,0.468,0.127,0.618,0.349s0.249,0.548,0.31,0.964 c0.031,0.208,0.052,0.44,0.065,0.693S38,12.205,38,12.5z"/><g><linearGradient id="_pE~QBoKR5mAoyCjNNkDDh" x1="-137.451" x2="-140.171" y1="6.183" y2="13.253" gradientTransform="matrix(-1 0 0 1 -128.61 0)" gradientUnits="userSpaceOnUse"><stop offset="0" stop-color="#fab780"/><stop offset=".055" stop-color="#f8a76c"/><stop offset=".148" stop-color="#f59252"/><stop offset=".25" stop-color="#f3813e"/><stop offset=".365" stop-color="#f1752f"/><stop offset=".503" stop-color="#f06e27"/><stop offset=".727" stop-color="#f06c24"/></linearGradient><path fill="url(#_pE~QBoKR5mAoyCjNNkDDh)" d="M7.005,9.71c0,3.02,0.85,4.33,1.62,4.89c0.07-0.13,1.38-2.6,4.99-6.32C12.495,7.24,10.905,6,9.675,6 C7.535,6,7.005,7.59,7.005,9.71z"/><path fill="#FFCC80" d="M8.005,10.31c0,1.035,0.113,1.82,0.283,2.428s0.397,1.037,0.627,1.362c0.26-0.425,0.705-1.105,1.381-1.994 c0.338-0.444,0.734-0.941,1.194-1.484s0.983-1.132,1.575-1.762c-0.435-0.435-0.947-0.9-1.464-1.256S10.565,7,10.115,7 C8.425,7,8.005,8.42,8.005,10.31z"/><path fill="#FCC97E" d="M10.131,7.046c-0.754,0-1.253,0.286-1.573,0.772c-0.389,0.591-0.515,1.477-0.517,2.503 c-0.001,0.713,0.053,1.306,0.142,1.805c0.039,0.216,0.084,0.414,0.135,0.597c0.167,0.6,0.39,1.026,0.616,1.349 c0.26-0.424,0.702-1.098,1.373-1.979c0.335-0.44,0.727-0.932,1.182-1.47c0.453-0.536,0.969-1.117,1.554-1.739 c-0.426-0.429-0.928-0.888-1.434-1.24C11.094,7.291,10.578,7.046,10.131,7.046z"/><path fill="#FAC67C" d="M10.146,7.092c-0.745,0-1.239,0.283-1.556,0.765c-0.385,0.584-0.511,1.46-0.513,2.476 c-0.001,0.704,0.051,1.291,0.138,1.785c0.038,0.214,0.082,0.41,0.132,0.59c0.164,0.593,0.383,1.015,0.606,1.336 c0.26-0.422,0.699-1.092,1.364-1.964c0.332-0.436,0.721-0.923,1.171-1.455c0.447-0.529,0.956-1.102,1.532-1.715 c-0.417-0.424-0.908-0.876-1.404-1.224C11.104,7.334,10.59,7.092,10.146,7.092z"/><path fill="#F7C47A" d="M10.162,7.138c-0.737,0-1.225,0.281-1.54,0.757C8.241,8.473,8.116,9.34,8.113,10.345 c-0.002,0.695,0.049,1.276,0.134,1.766c0.037,0.211,0.081,0.405,0.13,0.584c0.161,0.586,0.376,1.004,0.595,1.323 c0.259-0.421,0.697-1.085,1.355-1.95c0.329-0.432,0.714-0.914,1.16-1.441c0.441-0.521,0.943-1.087,1.51-1.691 c-0.408-0.418-0.889-0.864-1.374-1.208C11.113,7.378,10.602,7.138,10.162,7.138z"/><path fill="#F5C178" d="M10.177,7.184c-0.728,0-1.211,0.278-1.523,0.75c-0.377,0.571-0.501,1.428-0.506,2.422 c-0.002,0.686,0.047,1.261,0.131,1.746c0.036,0.209,0.079,0.4,0.127,0.577c0.158,0.579,0.369,0.993,0.584,1.31 c0.259-0.419,0.694-1.079,1.347-1.935c0.326-0.428,0.707-0.905,1.148-1.427c0.435-0.514,0.93-1.072,1.489-1.667 c-0.399-0.412-0.869-0.853-1.343-1.192C11.122,7.421,10.615,7.184,10.177,7.184z"/><path fill="#F2BE77" d="M10.193,7.23c-0.72,0.001-1.197,0.275-1.506,0.743C8.314,8.538,8.19,9.384,8.185,10.368 c-0.003,0.677,0.045,1.245,0.127,1.727c0.036,0.206,0.078,0.396,0.124,0.571c0.155,0.571,0.362,0.981,0.573,1.296 c0.259-0.418,0.691-1.072,1.338-1.921c0.323-0.424,0.701-0.897,1.137-1.412c0.429-0.507,0.916-1.056,1.467-1.643 c-0.39-0.407-0.85-0.841-1.313-1.176C11.131,7.465,10.627,7.23,10.193,7.23z"/><path fill="#EFBB75" d="M10.209,7.276C9.498,7.277,9.025,7.548,8.719,8.011C8.351,8.57,8.227,9.407,8.221,10.38 c-0.003,0.668,0.044,1.23,0.124,1.707c0.035,0.204,0.076,0.391,0.122,0.564c0.152,0.564,0.355,0.97,0.562,1.283 c0.259-0.417,0.688-1.066,1.329-1.906c0.321-0.42,0.694-0.888,1.126-1.398c0.423-0.5,0.903-1.041,1.446-1.619 c-0.381-0.401-0.83-0.829-1.283-1.16C11.14,7.508,10.64,7.276,10.209,7.276z"/><path fill="#EDB973" d="M10.224,7.322C9.522,7.323,9.054,7.592,8.752,8.05c-0.364,0.552-0.487,1.379-0.495,2.341 c-0.004,0.66,0.041,1.215,0.12,1.688c0.034,0.201,0.074,0.387,0.119,0.558c0.148,0.557,0.348,0.959,0.551,1.27 c0.259-0.415,0.685-1.059,1.321-1.891c0.318-0.416,0.687-0.879,1.114-1.384c0.417-0.492,0.89-1.026,1.424-1.596 c-0.372-0.395-0.811-0.817-1.253-1.144C11.149,7.552,10.652,7.321,10.224,7.322z"/><path fill="#EAB671" d="M10.24,7.368c-0.694,0.001-1.156,0.267-1.456,0.72c-0.36,0.545-0.483,1.362-0.491,2.314 c-0.004,0.651,0.039,1.2,0.116,1.668c0.033,0.199,0.072,0.382,0.117,0.551c0.144,0.55,0.341,0.948,0.54,1.257 c0.259-0.414,0.683-1.053,1.312-1.877c0.315-0.412,0.681-0.87,1.103-1.369c0.411-0.485,0.876-1.011,1.403-1.572 c-0.362-0.39-0.791-0.805-1.223-1.127C11.158,7.595,10.664,7.367,10.24,7.368z"/><path fill="#E8B36F" d="M10.255,7.414C9.57,7.415,9.113,7.678,8.816,8.127C8.46,8.666,8.338,9.474,8.329,10.415 c-0.005,0.642,0.037,1.185,0.113,1.649c0.032,0.196,0.071,0.377,0.114,0.545c0.141,0.543,0.334,0.937,0.529,1.244 c0.258-0.413,0.68-1.046,1.303-1.862c0.312-0.408,0.674-0.861,1.092-1.355c0.404-0.478,0.863-0.996,1.381-1.548 c-0.353-0.384-0.772-0.793-1.193-1.111C11.167,7.639,10.677,7.413,10.255,7.414z"/><path fill="#E5B06D" d="M10.271,7.46C9.594,7.462,9.142,7.721,8.849,8.166c-0.352,0.533-0.473,1.33-0.484,2.26 c-0.005,0.633,0.035,1.17,0.109,1.629c0.031,0.194,0.069,0.373,0.112,0.538c0.138,0.536,0.327,0.925,0.518,1.23 c0.258-0.411,0.677-1.04,1.295-1.847c0.309-0.404,0.667-0.852,1.08-1.341c0.398-0.471,0.85-0.98,1.359-1.524 c-0.344-0.378-0.752-0.782-1.163-1.095C11.177,7.682,10.689,7.459,10.271,7.46z"/><path fill="#E2AE6B" d="M10.286,7.506C9.618,7.508,9.172,7.765,8.881,8.205c-0.347,0.526-0.469,1.314-0.48,2.233 c-0.006,0.624,0.033,1.154,0.105,1.61c0.03,0.191,0.067,0.368,0.109,0.532c0.135,0.528,0.32,0.914,0.507,1.217 c0.258-0.41,0.674-1.033,1.286-1.833c0.306-0.4,0.661-0.843,1.069-1.326c0.392-0.464,0.837-0.965,1.338-1.5 c-0.335-0.373-0.733-0.77-1.133-1.079C11.186,7.726,10.702,7.505,10.286,7.506z"/><path fill="#E0AB69" d="M10.302,7.553c-0.66,0.001-1.101,0.255-1.389,0.691C8.57,8.763,8.449,9.541,8.437,10.45 c-0.006,0.615,0.031,1.139,0.102,1.59c0.03,0.189,0.066,0.363,0.107,0.525c0.132,0.521,0.313,0.903,0.496,1.204 c0.258-0.408,0.671-1.027,1.277-1.818c0.303-0.396,0.654-0.834,1.058-1.312c0.386-0.456,0.823-0.95,1.316-1.476 c-0.326-0.367-0.713-0.758-1.103-1.063C11.195,7.769,10.714,7.551,10.302,7.553z"/><path fill="#DDA867" d="M10.318,7.599C9.666,7.6,9.23,7.851,8.946,8.282c-0.339,0.513-0.459,1.281-0.473,2.179 c-0.007,0.606,0.029,1.124,0.098,1.571c0.029,0.186,0.064,0.359,0.104,0.519c0.128,0.514,0.306,0.892,0.485,1.191 c0.258-0.407,0.669-1.02,1.269-1.803c0.3-0.392,0.647-0.826,1.047-1.297c0.38-0.449,0.81-0.935,1.295-1.453 c-0.317-0.361-0.694-0.746-1.073-1.047C11.204,7.813,10.726,7.597,10.318,7.599z"/><path fill="#DBA565" d="M10.333,7.645C9.69,7.646,9.26,7.894,8.978,8.32c-0.335,0.507-0.457,1.265-0.469,2.152 C8.5,11.07,8.535,11.582,8.603,12.024c0.028,0.184,0.063,0.354,0.102,0.512c0.125,0.507,0.299,0.881,0.474,1.178 c0.258-0.406,0.666-1.014,1.26-1.789c0.297-0.387,0.641-0.817,1.035-1.283c0.374-0.442,0.797-0.92,1.273-1.429 c-0.308-0.356-0.674-0.734-1.043-1.031C11.213,7.856,10.739,7.643,10.333,7.645z"/><path fill="#D8A364" d="M10.349,7.691C9.715,7.692,9.289,7.938,9.01,8.359c-0.331,0.5-0.452,1.248-0.466,2.125 c-0.009,0.589,0.025,1.094,0.091,1.532c0.027,0.181,0.061,0.349,0.099,0.506c0.122,0.5,0.292,0.869,0.463,1.164 c0.257-0.404,0.663-1.007,1.251-1.774c0.294-0.383,0.634-0.808,1.024-1.269c0.368-0.435,0.784-0.904,1.252-1.405 c-0.299-0.35-0.655-0.722-1.013-1.015C11.222,7.9,10.751,7.689,10.349,7.691z"/><path fill="#D5A062" d="M10.364,7.737C9.739,7.739,9.318,7.981,9.043,8.398C8.716,8.891,8.595,9.63,8.58,10.496 c-0.01,0.58,0.023,1.079,0.087,1.512c0.026,0.179,0.059,0.345,0.097,0.499C8.883,13,9.049,13.366,9.216,13.659 c0.257-0.403,0.66-1.001,1.243-1.76c0.291-0.379,0.627-0.799,1.013-1.254c0.362-0.427,0.77-0.889,1.23-1.381 c-0.29-0.344-0.635-0.711-0.983-0.999C11.231,7.943,10.764,7.735,10.364,7.737z"/><path fill="#D39D60" d="M10.38,7.783C9.763,7.785,9.348,8.024,9.075,8.436c-0.322,0.487-0.443,1.216-0.459,2.071 C8.606,11.079,8.637,11.571,8.7,12c0.026,0.176,0.058,0.34,0.094,0.493c0.116,0.485,0.278,0.847,0.441,1.138 c0.257-0.402,0.657-0.994,1.234-1.745c0.288-0.375,0.621-0.79,1.001-1.24c0.356-0.42,0.757-0.874,1.208-1.357 c-0.281-0.338-0.616-0.699-0.953-0.982C11.241,7.987,10.776,7.781,10.38,7.783z"/><path fill="#D09A5E" d="M10.395,7.829C9.787,7.831,9.377,8.067,9.107,8.475c-0.318,0.481-0.438,1.199-0.455,2.044 c-0.011,0.562,0.019,1.048,0.08,1.473c0.025,0.174,0.056,0.335,0.091,0.486c0.113,0.478,0.271,0.836,0.43,1.125 c0.257-0.4,0.655-0.988,1.225-1.73c0.285-0.371,0.614-0.781,0.99-1.226c0.349-0.413,0.744-0.859,1.187-1.334 c-0.272-0.333-0.596-0.687-0.923-0.966C11.25,8.03,10.788,7.827,10.395,7.829z"/><path fill="#CE985C" d="M10.411,7.875c-0.6,0.002-1.005,0.236-1.271,0.639c-0.314,0.474-0.434,1.183-0.451,2.017 c-0.012,0.553,0.017,1.033,0.076,1.454c0.024,0.171,0.054,0.331,0.089,0.48c0.109,0.471,0.264,0.824,0.419,1.112 c0.257-0.399,0.652-0.981,1.217-1.716c0.282-0.367,0.607-0.772,0.979-1.211c0.343-0.406,0.73-0.844,1.165-1.31 c-0.263-0.327-0.577-0.675-0.893-0.95C11.259,8.074,10.801,7.873,10.411,7.875z"/><path fill="#CB955A" d="M10.426,7.921C9.835,7.923,9.436,8.154,9.172,8.552c-0.31,0.468-0.429,1.167-0.448,1.99 c-0.012,0.545,0.015,1.018,0.073,1.434c0.023,0.169,0.053,0.326,0.086,0.473c0.106,0.464,0.257,0.813,0.408,1.098 c0.257-0.397,0.649-0.975,1.208-1.701c0.28-0.363,0.601-0.763,0.967-1.197c0.337-0.399,0.717-0.829,1.144-1.286 c-0.254-0.321-0.557-0.663-0.862-0.934C11.268,8.117,10.813,7.919,10.426,7.921z"/><path fill="#C89258" d="M10.442,7.967c-0.583,0.002-0.977,0.23-1.238,0.624C8.899,9.052,8.78,9.741,8.76,10.554 c-0.013,0.536,0.013,1.003,0.069,1.415c0.023,0.166,0.051,0.321,0.084,0.467c0.103,0.456,0.25,0.802,0.397,1.085 c0.256-0.396,0.646-0.968,1.199-1.686c0.277-0.359,0.594-0.755,0.956-1.183c0.331-0.391,0.704-0.813,1.122-1.262 c-0.245-0.316-0.538-0.651-0.832-0.918C11.277,8.161,10.825,7.964,10.442,7.967z"/><path fill="#C68F56" d="M10.458,8.013C9.883,8.016,9.494,8.24,9.237,8.629c-0.301,0.455-0.42,1.134-0.44,1.936 c-0.013,0.527,0.011,0.987,0.065,1.395c0.022,0.164,0.049,0.317,0.081,0.46c0.1,0.449,0.243,0.791,0.386,1.072 c0.256-0.395,0.643-0.962,1.191-1.672c0.274-0.355,0.587-0.746,0.945-1.168c0.325-0.384,0.691-0.798,1.101-1.238 c-0.235-0.31-0.518-0.639-0.802-0.902C11.286,8.204,10.838,8.01,10.458,8.013z"/><path fill="#C38D54" d="M10.473,8.059c-0.566,0.003-0.95,0.225-1.204,0.609c-0.297,0.449-0.415,1.118-0.437,1.909 c-0.014,0.518,0.009,0.972,0.062,1.376c0.021,0.161,0.048,0.312,0.079,0.454c0.097,0.442,0.236,0.78,0.375,1.059 c0.256-0.393,0.641-0.955,1.182-1.657c0.271-0.351,0.581-0.737,0.933-1.154c0.319-0.377,0.677-0.783,1.079-1.214 c-0.226-0.304-0.499-0.628-0.772-0.886C11.295,8.248,10.85,8.056,10.473,8.059z"/><path fill="#C18A52" d="M10.489,8.105C9.932,8.108,9.553,8.327,9.301,8.707C9.008,9.149,8.89,9.808,8.868,10.589 c-0.015,0.509,0.007,0.957,0.058,1.356c0.02,0.159,0.046,0.308,0.076,0.447c0.094,0.435,0.229,0.768,0.364,1.045 c0.256-0.392,0.638-0.949,1.173-1.643c0.268-0.347,0.574-0.728,0.922-1.14c0.313-0.37,0.664-0.768,1.057-1.191 c-0.217-0.299-0.479-0.616-0.742-0.87C11.305,8.291,10.863,8.102,10.489,8.105z"/><path fill="#BE8751" d="M10.504,8.151C9.956,8.154,9.582,8.37,9.334,8.745c-0.289,0.436-0.406,1.085-0.43,1.855 c-0.015,0.5,0.005,0.942,0.054,1.337c0.019,0.156,0.045,0.303,0.074,0.441c0.091,0.428,0.222,0.757,0.353,1.032 c0.256-0.391,0.635-0.942,1.165-1.628c0.265-0.343,0.567-0.719,0.911-1.125c0.307-0.363,0.651-0.753,1.036-1.167 c-0.208-0.293-0.46-0.604-0.712-0.854C11.314,8.335,10.875,8.148,10.504,8.151z"/><path fill="#BB844F" d="M10.52,8.197C9.98,8.2,9.612,8.413,9.366,8.784C9.081,9.213,8.964,9.853,8.94,10.612 c-0.016,0.491,0.004,0.927,0.051,1.317c0.019,0.154,0.043,0.298,0.071,0.434c0.087,0.42,0.215,0.746,0.342,1.019 c0.256-0.389,0.632-0.936,1.156-1.613c0.262-0.339,0.561-0.71,0.899-1.111c0.3-0.355,0.637-0.737,1.014-1.143 c-0.199-0.287-0.44-0.592-0.682-0.838C11.323,8.378,10.887,8.194,10.52,8.197z"/><path fill="#B9824D" d="M10.535,8.243c-0.531,0.003-0.894,0.214-1.137,0.579c-0.28,0.423-0.397,1.053-0.422,1.801 c-0.016,0.483,0.002,0.911,0.047,1.298c0.018,0.151,0.041,0.294,0.069,0.428c0.084,0.413,0.208,0.735,0.331,1.006 c0.255-0.388,0.629-0.929,1.147-1.599c0.259-0.335,0.554-0.701,0.888-1.097c0.294-0.348,0.624-0.722,0.993-1.119 c-0.19-0.282-0.421-0.58-0.652-0.821C11.332,8.422,10.9,8.24,10.535,8.243z"/><path fill="#B67F4B" d="M10.551,8.289C10.028,8.293,9.67,8.5,9.43,8.861c-0.276,0.416-0.392,1.036-0.419,1.774 c-0.017,0.474,0,0.896,0.044,1.278c0.017,0.149,0.04,0.289,0.066,0.421c0.081,0.406,0.201,0.724,0.32,0.993 c0.255-0.386,0.627-0.923,1.139-1.584c0.256-0.331,0.547-0.692,0.877-1.082c0.288-0.341,0.611-0.707,0.971-1.095 c-0.181-0.276-0.401-0.568-0.622-0.805C11.341,8.465,10.912,8.286,10.551,8.289z"/><path fill="#B37C49" d="M10.566,8.335C10.052,8.339,9.7,8.543,9.463,8.9c-0.272,0.41-0.388,1.02-0.415,1.747 c-0.017,0.465-0.002,0.881,0.04,1.259c0.016,0.146,0.038,0.284,0.064,0.415c0.078,0.399,0.194,0.712,0.309,0.979 c0.255-0.385,0.624-0.916,1.13-1.569c0.253-0.327,0.541-0.684,0.865-1.068c0.282-0.334,0.598-0.692,0.95-1.071 c-0.172-0.27-0.382-0.557-0.592-0.789C11.35,8.509,10.925,8.332,10.566,8.335z"/><path fill="#B17947" d="M10.582,8.381c-0.506,0.004-0.853,0.205-1.087,0.557c-0.268,0.403-0.383,1.004-0.411,1.72 c-0.018,0.456-0.004,0.866,0.036,1.239c0.016,0.144,0.036,0.28,0.061,0.408c0.075,0.391,0.187,0.701,0.298,0.966 c0.255-0.384,0.621-0.91,1.121-1.555c0.25-0.323,0.534-0.675,0.854-1.054c0.276-0.326,0.584-0.677,0.928-1.048 c-0.163-0.265-0.362-0.545-0.562-0.773C11.359,8.552,10.937,8.378,10.582,8.381z"/><path fill="#AE7645" d="M10.598,8.427C10.1,8.431,9.758,8.63,9.527,8.977C9.264,9.374,9.149,9.965,9.12,10.67 c-0.019,0.447-0.006,0.851,0.033,1.22c0.015,0.141,0.035,0.275,0.059,0.402c0.072,0.384,0.18,0.69,0.287,0.953 c0.255-0.382,0.618-0.903,1.113-1.54c0.247-0.318,0.527-0.666,0.843-1.039c0.27-0.319,0.571-0.661,0.906-1.024 c-0.154-0.259-0.343-0.533-0.532-0.757C11.369,8.596,10.949,8.424,10.598,8.427z"/><path fill="#AC7443" d="M10.613,8.473c-0.489,0.004-0.826,0.2-1.053,0.542c-0.259,0.39-0.374,0.971-0.404,1.666 c-0.019,0.438-0.008,0.835,0.029,1.2c0.014,0.139,0.033,0.27,0.056,0.395c0.069,0.377,0.173,0.679,0.276,0.94 c0.254-0.381,0.615-0.897,1.104-1.525c0.244-0.314,0.521-0.657,0.832-1.025c0.264-0.312,0.558-0.646,0.885-1 c-0.145-0.253-0.323-0.521-0.502-0.741C11.378,8.639,10.962,8.47,10.613,8.473z"/><path fill="#A97141" d="M10.629,8.519c-0.48,0.004-0.812,0.197-1.037,0.535c-0.255,0.384-0.369,0.955-0.401,1.639 c-0.02,0.429-0.01,0.82,0.025,1.181c0.013,0.136,0.032,0.266,0.053,0.389c0.066,0.37,0.166,0.668,0.265,0.927 c0.254-0.379,0.613-0.89,1.095-1.511c0.241-0.31,0.514-0.648,0.82-1.011c0.258-0.305,0.545-0.631,0.863-0.976 c-0.136-0.248-0.304-0.509-0.472-0.725C11.387,8.683,10.974,8.516,10.629,8.519z"/><path fill="#A66E40" d="M10.644,8.566c-0.472,0.004-0.798,0.194-1.02,0.527C9.374,9.47,9.26,10.031,9.227,10.705 c-0.02,0.421-0.012,0.805,0.022,1.161C9.262,12,9.279,12.127,9.3,12.249c0.063,0.362,0.159,0.656,0.254,0.913 c0.254-0.378,0.61-0.884,1.087-1.496c0.238-0.306,0.507-0.639,0.809-0.996c0.251-0.298,0.531-0.616,0.842-0.952 c-0.127-0.242-0.284-0.497-0.442-0.709C11.396,8.726,10.987,8.561,10.644,8.566z"/><path fill="#A46B3E" d="M10.66,8.612c-0.463,0.004-0.784,0.191-1.003,0.52c-0.247,0.371-0.36,0.922-0.393,1.585 c-0.021,0.412-0.014,0.79,0.018,1.142c0.012,0.131,0.028,0.256,0.048,0.376c0.06,0.355,0.152,0.645,0.243,0.9 c0.254-0.377,0.607-0.877,1.078-1.482c0.236-0.302,0.501-0.63,0.798-0.982c0.245-0.29,0.518-0.601,0.82-0.929 c-0.118-0.236-0.265-0.486-0.412-0.693C11.405,8.77,10.999,8.607,10.66,8.612z"/><path fill="#A1693C" d="M10.675,8.658c-0.454,0.004-0.77,0.188-0.986,0.513c-0.242,0.365-0.355,0.906-0.39,1.558 c-0.021,0.403-0.015,0.775,0.014,1.122c0.011,0.129,0.027,0.252,0.046,0.369c0.057,0.348,0.145,0.634,0.232,0.887 c0.254-0.375,0.604-0.871,1.069-1.467c0.233-0.298,0.494-0.621,0.786-0.968c0.239-0.283,0.505-0.585,0.799-0.905 c-0.109-0.231-0.245-0.474-0.381-0.676C11.414,8.813,11.011,8.653,10.675,8.658z"/><path fill="#9F663A" d="M10.691,8.704c-0.446,0.004-0.757,0.186-0.97,0.505c-0.238,0.358-0.351,0.89-0.386,1.531 c-0.022,0.394-0.017,0.759,0.011,1.103c0.01,0.126,0.025,0.247,0.043,0.363c0.054,0.341,0.138,0.623,0.221,0.874 c0.254-0.374,0.601-0.864,1.061-1.452c0.23-0.294,0.487-0.613,0.775-0.953c0.233-0.276,0.491-0.57,0.777-0.881 c-0.099-0.225-0.225-0.462-0.351-0.66C11.423,8.857,11.024,8.699,10.691,8.704z"/><path fill="#9C6338" d="M10.707,8.75c-0.437,0.005-0.743,0.183-0.953,0.498c-0.234,0.352-0.346,0.873-0.382,1.504 c-0.022,0.385-0.019,0.744,0.007,1.083c0.01,0.124,0.023,0.242,0.041,0.356c0.051,0.333,0.131,0.611,0.21,0.861 c0.253-0.373,0.599-0.858,1.052-1.438c0.227-0.29,0.481-0.604,0.764-0.939c0.227-0.269,0.478-0.555,0.755-0.857 c-0.09-0.219-0.206-0.45-0.321-0.644C11.432,8.9,11.036,8.745,10.707,8.75z"/><path fill="#996036" d="M10.722,8.796c-0.429,0.005-0.729,0.18-0.936,0.49c-0.23,0.345-0.341,0.857-0.379,1.477 c-0.023,0.376-0.021,0.729,0.004,1.064c0.009,0.121,0.022,0.238,0.038,0.35c0.048,0.326,0.124,0.6,0.199,0.847 c0.253-0.371,0.596-0.851,1.043-1.423c0.224-0.286,0.474-0.595,0.752-0.925c0.221-0.261,0.465-0.54,0.734-0.833 c-0.081-0.214-0.186-0.438-0.291-0.628C11.442,8.944,11.049,8.791,10.722,8.796z"/><path fill="#975E34" d="M10.738,8.842c-0.42,0.005-0.715,0.177-0.919,0.483c-0.226,0.339-0.337,0.841-0.375,1.45 c-0.023,0.368-0.023,0.714,0,1.044c0.008,0.119,0.02,0.233,0.036,0.343c0.045,0.319,0.117,0.589,0.188,0.834 c0.253-0.37,0.593-0.845,1.035-1.408c0.221-0.282,0.467-0.586,0.741-0.91c0.215-0.254,0.452-0.525,0.712-0.809 c-0.072-0.208-0.167-0.426-0.261-0.612C11.451,8.987,11.061,8.837,10.738,8.842z"/><path fill="#945B32" d="M10.753,8.888c-0.412,0.005-0.702,0.174-0.902,0.476c-0.221,0.332-0.332,0.824-0.372,1.423 c-0.024,0.359-0.024,0.698-0.004,1.025c0.007,0.116,0.019,0.228,0.033,0.337c0.042,0.312,0.11,0.578,0.177,0.821 c0.253-0.368,0.59-0.838,1.026-1.394c0.218-0.278,0.461-0.577,0.73-0.896c0.209-0.247,0.438-0.509,0.691-0.786 c-0.063-0.202-0.147-0.414-0.231-0.596C11.46,9.031,11.073,8.883,10.753,8.888z"/><path fill="#925830" d="M10.769,8.934c-0.403,0.005-0.688,0.172-0.886,0.468c-0.217,0.326-0.327,0.808-0.368,1.396 c-0.024,0.35-0.026,0.683-0.007,1.005c0.007,0.114,0.017,0.224,0.031,0.33c0.039,0.304,0.103,0.567,0.166,0.808 c0.253-0.367,0.587-0.832,1.017-1.379c0.215-0.274,0.454-0.568,0.718-0.882c0.203-0.24,0.425-0.494,0.669-0.762 c-0.054-0.197-0.128-0.403-0.201-0.58C11.469,9.074,11.086,8.929,10.769,8.934z"/><path fill="#8F552E" d="M10.784,8.98C10.39,8.985,10.11,9.149,9.915,9.441C9.702,9.76,9.593,10.232,9.551,10.81 c-0.025,0.341-0.028,0.668-0.011,0.986c0.006,0.111,0.016,0.219,0.028,0.324c0.036,0.297,0.096,0.555,0.155,0.795 c0.253-0.366,0.585-0.825,1.009-1.365c0.212-0.27,0.447-0.559,0.707-0.867c0.196-0.233,0.412-0.479,0.648-0.738 c-0.045-0.191-0.108-0.391-0.171-0.564C11.478,9.118,11.098,8.975,10.784,8.98z"/><path fill="#8C532D" d="M10.8,9.026c-0.386,0.005-0.66,0.166-0.852,0.453c-0.209,0.313-0.318,0.775-0.361,1.342 c-0.025,0.332-0.03,0.653-0.015,0.966c0.005,0.109,0.014,0.214,0.026,0.317c0.033,0.29,0.089,0.544,0.144,0.781 c0.252-0.364,0.582-0.819,1-1.35c0.209-0.266,0.441-0.55,0.696-0.853c0.19-0.225,0.399-0.464,0.626-0.714 c-0.036-0.185-0.089-0.379-0.141-0.548C11.487,9.161,11.111,9.021,10.8,9.026z"/><path fill="#8A502B" d="M10.815,9.072c-0.377,0.005-0.647,0.163-0.835,0.446c-0.205,0.306-0.313,0.759-0.357,1.315 c-0.026,0.323-0.031,0.638-0.018,0.947c0.005,0.106,0.012,0.21,0.023,0.311c0.03,0.283,0.082,0.533,0.133,0.768 c0.252-0.363,0.579-0.812,0.991-1.335c0.206-0.262,0.434-0.542,0.684-0.839c0.184-0.218,0.385-0.449,0.604-0.69 c-0.027-0.18-0.069-0.367-0.111-0.532C11.496,9.205,11.123,9.067,10.815,9.072z"/><path fill="#874D29" d="M10.831,9.118c-0.369,0.005-0.633,0.16-0.819,0.438c-0.2,0.3-0.308,0.743-0.353,1.288 c-0.026,0.314-0.033,0.622-0.022,0.927c0.004,0.104,0.011,0.205,0.02,0.304c0.027,0.275,0.075,0.522,0.122,0.755 c0.252-0.362,0.576-0.806,0.983-1.321c0.203-0.258,0.427-0.533,0.673-0.824c0.178-0.211,0.372-0.434,0.583-0.666 c-0.018-0.174-0.05-0.355-0.081-0.515C11.506,9.248,11.135,9.113,10.831,9.118z"/><path fill="#854A27" d="M10.847,9.164c-0.36,0.006-0.619,0.158-0.802,0.431c-0.196,0.294-0.303,0.727-0.35,1.261 c-0.027,0.306-0.035,0.607-0.025,0.908c0.003,0.101,0.009,0.2,0.018,0.298c0.024,0.268,0.068,0.511,0.111,0.742 c0.252-0.36,0.573-0.799,0.974-1.306c0.2-0.253,0.421-0.524,0.662-0.81c0.172-0.204,0.359-0.418,0.561-0.643 c-0.009-0.168-0.03-0.343-0.051-0.499C11.515,9.292,11.148,9.159,10.847,9.164z"/><path fill="#824825" d="M10.862,9.21c-0.352,0.006-0.605,0.155-0.785,0.424c-0.192,0.287-0.299,0.71-0.346,1.234 c-0.027,0.297-0.037,0.592-0.029,0.888c0.002,0.099,0.008,0.196,0.015,0.291c0.021,0.261,0.061,0.499,0.1,0.728 c0.252-0.359,0.571-0.793,0.965-1.291c0.197-0.249,0.414-0.515,0.65-0.796c0.166-0.197,0.345-0.403,0.54-0.619 c0-0.163-0.011-0.332-0.021-0.483C11.524,9.335,11.16,9.204,10.862,9.21z"/><path fill="#7F4523" d="M10.878,9.256c-0.343,0.006-0.591,0.152-0.768,0.416c-0.188,0.281-0.294,0.694-0.343,1.207 c-0.027,0.288-0.038,0.577-0.033,0.868c0.002,0.096,0.006,0.191,0.013,0.285c0.018,0.254,0.054,0.488,0.089,0.715 c0.252-0.357,0.568-0.786,0.957-1.277c0.195-0.245,0.407-0.506,0.639-0.781c0.16-0.189,0.332-0.388,0.518-0.595 c0.009-0.157,0.009-0.32,0.009-0.467C11.533,9.379,11.172,9.25,10.878,9.256z"/><path fill="#7D4221" d="M10.893,9.302c-0.335,0.006-0.578,0.149-0.752,0.409c-0.184,0.274-0.289,0.678-0.339,1.18 c-0.028,0.279-0.04,0.561-0.036,0.849c0.001,0.094,0.005,0.186,0.01,0.278c0.015,0.246,0.047,0.477,0.078,0.702 c0.251-0.356,0.565-0.78,0.948-1.262c0.192-0.241,0.401-0.497,0.628-0.767c0.154-0.182,0.319-0.373,0.497-0.571 c0.018-0.151,0.028-0.308,0.039-0.451C11.542,9.422,11.185,9.296,10.893,9.302z"/><path fill="#7A3F1F" d="M10.909,9.348c-0.326,0.006-0.564,0.146-0.735,0.401c-0.179,0.268-0.284,0.661-0.335,1.153 c-0.028,0.27-0.042,0.546-0.04,0.829c0,0.091,0.003,0.182,0.008,0.272c0.012,0.239,0.04,0.466,0.067,0.689 c0.251-0.355,0.562-0.773,0.939-1.247c0.189-0.237,0.394-0.488,0.617-0.753c0.147-0.175,0.306-0.358,0.475-0.547 C11.932,10,11.952,9.85,11.974,9.711C11.551,9.466,11.197,9.342,10.909,9.348z"/><path fill="#783D1D" d="M10.924,9.394c-0.318,0.006-0.55,0.144-0.718,0.394c-0.175,0.261-0.279,0.645-0.332,1.126 c-0.029,0.261-0.043,0.531-0.044,0.81c0,0.089,0.002,0.177,0.005,0.265c0.01,0.232,0.033,0.454,0.056,0.676 c0.251-0.353,0.559-0.767,0.931-1.233c0.186-0.233,0.387-0.479,0.605-0.738c0.141-0.168,0.292-0.342,0.453-0.524 c0.037-0.14,0.067-0.284,0.099-0.419C11.56,9.509,11.21,9.388,10.924,9.394z"/><path fill="#753A1B" d="M10.94,9.44c-0.309,0.006-0.536,0.141-0.701,0.386c-0.171,0.255-0.274,0.629-0.328,1.099 c-0.029,0.253-0.045,0.516-0.047,0.79c-0.001,0.086,0,0.172,0.003,0.259c0.007,0.224,0.026,0.443,0.045,0.662 c0.251-0.352,0.557-0.76,0.922-1.218c0.183-0.229,0.381-0.471,0.594-0.724c0.135-0.16,0.279-0.327,0.432-0.5 c0.046-0.134,0.087-0.272,0.13-0.403C11.57,9.553,11.222,9.434,10.94,9.44z"/><path fill="#72371A" d="M10.955,9.486c-0.3,0.006-0.523,0.138-0.685,0.379c-0.167,0.248-0.269,0.613-0.324,1.072 c-0.029,0.244-0.046,0.501-0.051,0.771c-0.001,0.084-0.001,0.168,0,0.252C9.9,12.178,9.914,12.393,9.93,12.61 c0.251-0.351,0.554-0.754,0.913-1.204c0.18-0.225,0.374-0.462,0.583-0.71c0.129-0.153,0.266-0.312,0.41-0.476 c0.055-0.128,0.106-0.261,0.16-0.387C11.579,9.596,11.234,9.48,10.955,9.486z"/><path fill="#703418" d="M10.971,9.532c-0.292,0.007-0.509,0.135-0.668,0.372c-0.163,0.242-0.264,0.596-0.321,1.045 c-0.03,0.235-0.048,0.485-0.055,0.751c-0.002,0.081-0.003,0.163-0.002,0.246c0.001,0.21,0.011,0.421,0.023,0.636 c0.251-0.349,0.551-0.747,0.905-1.189c0.177-0.221,0.367-0.453,0.571-0.695c0.123-0.146,0.252-0.297,0.389-0.452 c0.064-0.123,0.126-0.249,0.19-0.37C11.588,9.64,11.247,9.526,10.971,9.532z"/><path fill="#6D3216" d="M10.987,9.579c-0.283,0.007-0.495,0.132-0.651,0.364c-0.158,0.235-0.259,0.58-0.317,1.018 c-0.03,0.226-0.049,0.47-0.058,0.732c-0.003,0.079-0.004,0.158-0.005,0.239c-0.001,0.203,0.004,0.41,0.012,0.623 c0.25-0.348,0.548-0.741,0.896-1.174c0.174-0.217,0.361-0.444,0.56-0.681c0.117-0.139,0.239-0.282,0.367-0.428 c0.073-0.117,0.145-0.237,0.22-0.354C11.597,9.683,11.259,9.572,10.987,9.579z"/><path fill="#6B2F14" d="M11.002,9.625c-0.275,0.007-0.481,0.13-0.634,0.357c-0.154,0.229-0.253,0.564-0.314,0.991 c-0.03,0.217-0.05,0.455-0.062,0.712c-0.003,0.076-0.006,0.154-0.007,0.233c-0.004,0.195-0.003,0.398,0.001,0.61 c0.25-0.346,0.545-0.734,0.887-1.16c0.171-0.213,0.354-0.435,0.549-0.667c0.111-0.132,0.226-0.266,0.346-0.404 c0.082-0.111,0.165-0.225,0.25-0.338C11.606,9.726,11.272,9.618,11.002,9.625z"/><path fill="#682C12" d="M10.005,12.5c0.25-0.345,0.542-0.728,0.879-1.145c0.168-0.209,0.347-0.426,0.537-0.652 s0.391-0.46,0.604-0.703c-0.41-0.23-0.741-0.336-1.008-0.329S10.55,9.797,10.4,10.02s-0.249,0.548-0.31,0.964 c-0.031,0.208-0.052,0.44-0.065,0.693C10.011,11.93,10.005,12.205,10.005,12.5z"/></g><radialGradient id="_pE~QBoKR5mAoyCjNNkDDi" cx="24" cy="26.141" r="11.653" gradientTransform="matrix(1 0 0 1.2506 0 -10.056)" gradientUnits="userSpaceOnUse"><stop offset=".728" stop-color="#ffcc80"/><stop offset=".8" stop-color="#ffca7b"/><stop offset=".882" stop-color="#ffc56e"/><stop offset=".968" stop-color="#ffbb57"/><stop offset="1" stop-color="#ffb74d"/></radialGradient><path fill="url(#_pE~QBoKR5mAoyCjNNkDDi)" d="M24,11.981c-1.016,0-2.577-0.981-4-0.981c-3.667,0-7,5.886-7,8.83c0,3.924,3.665,14.898,8.25,17.776	c0.795,0.499,4.664,0.551,5.5,0C31.28,34.622,35,23.754,35,19.83c0-2.943-3.333-8.83-7-8.83C26.551,11,25.032,11.981,24,11.981z"/><radialGradient id="_pE~QBoKR5mAoyCjNNkDDj" cx="23.692" cy="23.2" r="11.679" gradientTransform="matrix(1 0 0 1.2506 0 -9.263)" gradientUnits="userSpaceOnUse"><stop offset=".553" stop-color="#ffe0b2" stop-opacity="0"/><stop offset=".579" stop-color="#ffddab" stop-opacity=".059"/><stop offset=".767" stop-color="#ffca80" stop-opacity=".479"/><stop offset=".913" stop-color="#ffbd66" stop-opacity=".806"/><stop offset="1" stop-color="#ffb95c"/></radialGradient><path fill="url(#_pE~QBoKR5mAoyCjNNkDDj)" d="M24,11.981c-1.016,0-2.577-0.981-4-0.981c-3.667,0-7,5.886-7,8.83c0,3.924,3.665,14.898,8.25,17.776	c0.795,0.499,4.664,0.551,5.5,0C31.28,34.622,35,23.754,35,19.83c0-2.943-3.333-8.83-7-8.83C26.551,11,25.032,11.981,24,11.981z"/><radialGradient id="_pE~QBoKR5mAoyCjNNkDDk" cx="23.907" cy="15.247" r="4.504" gradientTransform="matrix(1 0 0 6.6355 0 -89.225)" gradientUnits="userSpaceOnUse"><stop offset="0" stop-color="#ffb95d"/><stop offset=".166" stop-color="#ffbe66" stop-opacity=".629"/><stop offset=".439" stop-color="#ffcc7f" stop-opacity=".018"/><stop offset=".447" stop-color="#ffcc80" stop-opacity="0"/></radialGradient><path fill="url(#_pE~QBoKR5mAoyCjNNkDDk)" d="M24,11.981c-1.016,0-2.577-0.981-4-0.981c-3.667,0-7,5.886-7,8.83c0,3.924,3.665,14.898,8.25,17.776	c0.795,0.499,4.664,0.551,5.5,0C31.28,34.622,35,23.754,35,19.83c0-2.943-3.333-8.83-7-8.83C26.551,11,25.032,11.981,24,11.981z"/><radialGradient id="_pE~QBoKR5mAoyCjNNkDDl" cx="23.962" cy="3.834" r="14.021" gradientTransform="matrix(0 .9811 -1.0131 0 27.847 -22.757)" gradientUnits="userSpaceOnUse"><stop offset=".797" stop-color="#ffb85a"/><stop offset=".835" stop-color="#ffbc63" stop-opacity=".813"/><stop offset=".897" stop-color="#ffc87c" stop-opacity=".504"/><stop offset=".977" stop-color="#ffdaa5" stop-opacity=".115"/><stop offset="1" stop-color="#ffe0b2" stop-opacity="0"/></radialGradient><path fill="url(#_pE~QBoKR5mAoyCjNNkDDl)" d="M24,11.981c-1.016,0-2.577-0.981-4-0.981c-3.667,0-7,5.886-7,8.83c0,3.924,3.665,14.898,8.25,17.776	c0.795,0.499,4.664,0.551,5.5,0C31.28,34.622,35,23.754,35,19.83c0-2.943-3.333-8.83-7-8.83C26.551,11,25.032,11.981,24,11.981z"/><g><radialGradient id="_pE~QBoKR5mAoyCjNNkDDm" cx="79.699" cy="20.58" r="6.33" gradientTransform="matrix(.6506 -.7969 .8853 .6232 -42.118 71.267)" gradientUnits="userSpaceOnUse"><stop offset=".268" stop-color="#ffe0b2"/><stop offset=".927" stop-color="#ffe0b2" stop-opacity="0"/></radialGradient><path fill="url(#_pE~QBoKR5mAoyCjNNkDDm)" d="M30.993,32.767c0,0,2.637-5.592,3.507-9.3c0,0-1.5-4.467-4.5-4.467s-3,3.225-3,4 c0.007,0.42,0,1.5,0,2L30.993,32.767z"/><path fill="#020102" d="M28.015,23c0,0-0.24-2.43,1.203-2.901C30.66,19.628,32,20.992,32,20.992s-1.417,1.785-3.349,1.587 L28.015,23z"/><path fill="#845828" d="M30.71,20.92c0,0.6-0.48,1.08-1.08,1.08s-1.08-0.48-1.08-1.08c0-0.16,0.03-0.31,0.1-0.45 c0.15-0.16,0.34-0.29,0.57-0.37c0.36-0.12,0.71-0.12,1.04-0.06C30.53,20.23,30.71,20.55,30.71,20.92z"/><circle cx="29.63" cy="21" r=".29" fill="#1A1A1A"/></g><g><radialGradient id="_pE~QBoKR5mAoyCjNNkDDn" cx="29.053" cy="20.58" r="6.33" gradientTransform="matrix(-.6506 -.7969 -.8853 .6232 57.21 30.907)" gradientUnits="userSpaceOnUse"><stop offset=".268" stop-color="#ffe0b2"/><stop offset=".927" stop-color="#ffe0b2" stop-opacity="0"/></radialGradient><path fill="url(#_pE~QBoKR5mAoyCjNNkDDn)" d="M21.04,25c0-0.5-0.007-1.58,0-2c0-0.775,0-4-3-4s-4.5,4.467-4.5,4.467 c0.871,3.708,3.507,9.3,3.507,9.3L21.04,25z"/><path fill="#020102" d="M19.985,23c0,0,0.24-2.43-1.203-2.901C17.34,19.628,16,20.992,16,20.992s1.417,1.785,3.349,1.587L19.985,23 z"/><path fill="#845828" d="M17.29,20.92c0,0.6,0.48,1.08,1.08,1.08s1.08-0.48,1.08-1.08c0-0.16-0.03-0.31-0.1-0.45 c-0.15-0.16-0.34-0.29-0.57-0.37c-0.36-0.12-0.71-0.12-1.04-0.06C17.47,20.23,17.29,20.55,17.29,20.92z"/><circle cx="18.37" cy="21" r=".29" fill="#1A1A1A"/></g><g><circle cx="24" cy="34" r="5" fill="#EDE1D6"/><radialGradient id="_pE~QBoKR5mAoyCjNNkDDo" cx="24" cy="34" r="5" gradientUnits="userSpaceOnUse"><stop offset=".66" stop-color="#e2dfd7" stop-opacity="0"/><stop offset=".792" stop-color="#d8c3ad" stop-opacity=".388"/><stop offset="1" stop-color="#c69363"/></radialGradient><circle cx="24" cy="34" r="5" fill="url(#_pE~QBoKR5mAoyCjNNkDDo)"/><radialGradient id="_pE~QBoKR5mAoyCjNNkDDp" cx="24" cy="34" r="5" gradientUnits="userSpaceOnUse"><stop offset="0" stop-color="#c69363"/><stop offset=".105" stop-color="#c79668" stop-opacity=".833"/><stop offset=".226" stop-color="#cb9f76" stop-opacity=".641"/><stop offset=".355" stop-color="#d0ae8d" stop-opacity=".436"/><stop offset=".489" stop-color="#d8c4ad" stop-opacity=".222"/><stop offset=".627" stop-color="#e2dfd6" stop-opacity=".004"/><stop offset=".629" stop-color="#e2dfd7" stop-opacity="0"/></radialGradient><circle cx="24" cy="34" r="5" fill="url(#_pE~QBoKR5mAoyCjNNkDDp)"/></g><path fill="#FFCC80" d="M27,23h-6c0,2-4,6-4,10c0,2,1.34,4,3,4s4-1.221,4-3c0,1.779,2.34,3,4,3s3-2,3-4C31,29,27,25,27,23z"/><linearGradient id="_pE~QBoKR5mAoyCjNNkDDq" x1="17" x2="24" y1="30" y2="30" gradientUnits="userSpaceOnUse"><stop offset="0" stop-color="#f7b982"/><stop offset=".024" stop-color="#f7ba82" stop-opacity=".976"/><stop offset=".541" stop-color="#fdc780" stop-opacity=".459"/><stop offset="1" stop-color="#ffcc80" stop-opacity="0"/></linearGradient><path fill="url(#_pE~QBoKR5mAoyCjNNkDDq)" d="M24,23h-3c0,2-4,6-4,10c0,2,1.34,4,3,4s4-1.221,4-3C24,34,24,25,24,23z"/><linearGradient id="_pE~QBoKR5mAoyCjNNkDDr" x1="-51" x2="-44" y1="30" y2="30" gradientTransform="matrix(-1 0 0 1 -20 0)" gradientUnits="userSpaceOnUse"><stop offset="0" stop-color="#f7b982"/><stop offset=".024" stop-color="#f7ba82" stop-opacity=".976"/><stop offset=".541" stop-color="#fdc780" stop-opacity=".459"/><stop offset="1" stop-color="#ffcc80" stop-opacity="0"/></linearGradient><path fill="url(#_pE~QBoKR5mAoyCjNNkDDr)" d="M24,23h3c0,2,4,6,4,10c0,2-1.34,4-3,4s-4-1.221-4-3C24,34,24,25,24,23z"/><radialGradient id="_pE~QBoKR5mAoyCjNNkDDs" cx="24.125" cy="29.866" r="8.921" gradientTransform="matrix(1 0 0 1.1278 0 -3.818)" gradientUnits="userSpaceOnUse"><stop offset="0" stop-color="#c69363"/><stop offset=".472" stop-color="#ede1d6"/><stop offset=".555" stop-color="#ecdfd2"/><stop offset=".631" stop-color="#e8d7c7"/><stop offset=".704" stop-color="#e2cab5"/><stop offset=".776" stop-color="#d9b99b"/><stop offset=".845" stop-color="#cea279"/><stop offset=".885" stop-color="#c69363"/></radialGradient><path fill="url(#_pE~QBoKR5mAoyCjNNkDDs)" d="M28,29.693c-3.712,2.896-4.319,2.896-7.971,0C20.029,29.693,17,30,17,33c0,2,1.34,4,3,4s4-1.221,4-3	c0,1.779,2.34,3,4,3s3-2,3-4C31,30,28,29.693,28,29.693z"/><path fill="#7F3F26" d="M23.998,34c1.139-2,3.423-4,2.277-4c-0.366,0-0.73,0.04-1.056,0.095c-0.805,0.136-1.634,0.136-2.44,0	C22.453,30.04,22.088,30,21.721,30C20.579,30,22.859,32,23.998,34z"/><path fill="#130E15" d="M28,29.693c0,0.686-2.65,2.934-2.906,2.709c-0.256-0.225-0.393-0.438-0.393-0.781	c0-0.686,0.634-1.243,1.415-1.243c0.142,0,0.28,0.018,0.409,0.053C27.108,30.585,28,29.131,28,29.693z"/><path fill="#130E15" d="M20.029,29.693c0,0.686,2.65,2.934,2.906,2.709c0.256-0.225,0.393-0.438,0.393-0.781	c0-0.686-0.634-1.243-1.415-1.243c-0.142,0-0.28,0.018-0.409,0.053C20.921,30.585,20.029,29.131,20.029,29.693z"/></svg>