<svg xmlns="http://www.w3.org/2000/svg"  viewBox="0 0 48 48" width="96px" height="96px"><path fill="#ef9a9a" d="M47.3,11.5c0.4,0.6,0.3,1.5-0.2,2.1c-0.4,0.6-1.2,1-2,1c-0.4,0-0.8-0.1-1.2-0.3c-0.4-0.2-0.6-0.6-0.8-0.9 C43.1,13,43,12.6,43,12.2c0-0.4,0.3-1,0.8-1.2c0.5-0.2,1,0,1.4,0.2c0.4,0.2,0.7,0.5,0.9,0.9c0.6,0.8,0.4,1.9-0.1,2.6 c-0.5,0.7-1.4,1.2-2.3,1.3c-0.9,0.1-1.9-0.2-2.5-1.2l1.3-0.8c0.2,0.3,0.6,0.6,1.2,0.6c0.5,0,1.1-0.2,1.4-0.6c0.3-0.4,0.5-1,0.2-1.4 c-0.3-0.5-0.8-1-1.2-0.8c-0.4,0.1-0.5,0.8-0.3,1.4c0.2,0.6,0.7,1,1.4,1.1c0.7,0,1.4-0.3,1.8-0.8C47.5,13,47.7,12.1,47.3,11.5z"/><radialGradient id="mGzFPg8zgV0ZQn0A_DowQa" cx="34.907" cy="34.501" r="5.814" fx="35.922" fy="32.98" gradientUnits="userSpaceOnUse"><stop offset=".027" stop-color="#af4646"/><stop offset=".404" stop-color="#cb5d5d"/><stop offset=".756" stop-color="#de6d6d"/><stop offset="1" stop-color="#e57373"/></radialGradient><path fill="url(#mGzFPg8zgV0ZQn0A_DowQa)" d="M33,31c0,3-2,8-2,8h4c0,0,1-4,2-6c0-1,0-2,0-2H33z"/><linearGradient id="mGzFPg8zgV0ZQn0A_DowQb" x1="31.267" x2="35.542" y1="37.268" y2="38.826" gradientUnits="userSpaceOnUse"><stop offset=".027" stop-color="#af4646"/><stop offset=".274" stop-color="#e57373"/><stop offset="1" stop-color="#af4646"/></linearGradient><path fill="url(#mGzFPg8zgV0ZQn0A_DowQb)" d="M31.7,37c-0.4,1.2-0.7,2-0.7,2h4c0,0,0.2-0.9,0.5-2H31.7z"/><radialGradient id="mGzFPg8zgV0ZQn0A_DowQc" cx="19.25" cy="35.5" r="4.941" fx="17.273" fy="33.593" gradientUnits="userSpaceOnUse"><stop offset=".027" stop-color="#af4646"/><stop offset=".814" stop-color="#e57373"/></radialGradient><path fill="url(#mGzFPg8zgV0ZQn0A_DowQc)" d="M16.5,32c0,2,1.4,3.7,1.4,3.7L19,39l3-1c0,0,0,0-0.6-2.2c0.2-3.1-0.2-3.8-0.2-3.8C20.2,32,17.5,32,16.5,32z"/><path fill="#ef9a9a" d="M44,20.7c0,0.5,0,1-0.1,1.5C43.9,21.7,44,21.2,44,20.7z"/><path fill="#ffcdd2" d="M42.4,22.4c0,0.4-0.1,0.7-0.2,1.1C42.3,23.1,42.3,22.8,42.4,22.4z"/><path fill="#ffa726" d="M11.2,29.8c0.3,0.1,0.5,0.2,0.8,0.4C11.7,30,11.4,29.9,11.2,29.8z"/><path fill="#ffa726" d="M12.6,30.4c-0.2-0.1-0.4-0.2-0.6-0.3c0.1,0.1,0.3,0.1,0.4,0.2C12.5,30.3,12.5,30.4,12.6,30.4z"/><path fill="#ef9a9a" d="M1,21C6.5,21,6.4,7,24.7,7C25.7,7,44,6.4,44,19.9C44,27.7,41,34,26,34c-7,0-12-1-16.6-3.4C6.4,29,3.5,27,1,27 V21z"/><path fill="#f09c9c" d="M24.7,7.1c0.1,0,0.3,0,0.6,0c3.3,0,17.9,0.5,18.6,12c0,0.3,0,0.6,0,0.9c0,0.8,0,1.5-0.1,2.2 c-0.3,3.1-1.3,5.9-3.6,7.9c-1.7,1.5-4,2.6-7.2,3.2c-2.1,0.4-4.5,0.6-7.4,0.6c-2.6,0-5.1-0.2-7.3-0.5c-0.1,0-0.2,0-0.3-0.1 c-1.3-0.2-2.5-0.5-3.7-0.8c-1.5-0.4-2.8-1-4.1-1.6c-0.3-0.1-0.5-0.3-0.8-0.4c-1.9-1-3.7-2.1-5.4-2.8c-1-0.4-2-0.7-2.9-0.7v-5.9 c0.7,0,1.3-0.2,1.9-0.6c1.4-0.9,2.5-2.8,4-4.9C9.8,11.7,14.2,7.1,24.7,7.1z"/><path fill="#f19d9d" d="M24.7,7.1c0.1,0,0.3,0,0.6,0c3.4,0,17.8,0.5,18.5,12c0,0.3,0,0.6,0,0.9c0,0.9,0,1.6-0.1,2.2 c-0.3,3.1-1.3,5.9-3.8,7.9c-1.7,1.4-4.1,2.5-7.4,3.1c-2.2,0.4-4.6,0.6-7.4,0.5c-2.5,0-5-0.2-7.1-0.6c-0.1,0-0.2,0-0.3-0.1 c-1.3-0.2-2.5-0.5-3.7-0.9c-1.4-0.4-2.8-1-4.1-1.6c-0.3-0.1-0.5-0.3-0.8-0.4c-1.8-1-3.6-2.1-5.3-2.8c-0.9-0.4-2-0.6-2.9-0.6v-5.8 c0.6,0,1.4-0.2,1.9-0.5c1.4-0.9,2.5-2.8,4-4.8C9.8,11.8,14.2,7.1,24.7,7.1z"/><path fill="#f19f9f" d="M24.7,7.2c0.1,0,0.3,0,0.6,0c3.4,0,17.8,0.6,18.4,11.9c0,0.2,0,0.6,0,0.9c0,0.9,0,1.6-0.1,2.3 c-0.3,3.1-1.4,5.9-3.9,7.9c-1.8,1.4-4.2,2.5-7.5,3c-2.2,0.4-4.7,0.5-7.5,0.4c-2.4,0-4.9-0.2-7-0.6c-0.1,0-0.2,0-0.3-0.1 c-1.3-0.2-2.5-0.5-3.6-0.9c-1.4-0.4-2.7-1-4-1.6c-0.3-0.1-0.5-0.3-0.8-0.4c-1.8-1-3.6-2.1-5.2-2.7c-0.9-0.4-2-0.6-2.8-0.6v-5.6 c0.6,0,1.4-0.2,1.9-0.5c1.4-0.9,2.5-2.8,4-4.8C9.9,11.9,14.1,7.2,24.7,7.2z"/><path fill="#f2a1a1" d="M24.7,7.3c0.1,0,0.4,0,0.6,0c3.5,0,17.7,0.6,18.4,11.9c0,0.2,0,0.6,0,0.9c0,1-0.1,1.6-0.1,2.3 c-0.3,3.1-1.4,5.9-4.1,7.9c-1.8,1.4-4.2,2.4-7.6,2.9c-2.3,0.4-4.8,0.5-7.6,0.4c-2.2,0-4.8-0.3-6.9-0.7c-0.1,0-0.2,0-0.3-0.1 c-1.3-0.2-2.4-0.5-3.5-0.9c-1.4-0.4-2.7-1-3.9-1.6C9.5,30.3,9.2,30.1,9,30c-1.8-1-3.5-2-5.1-2.7c-0.8-0.3-2-0.6-2.8-0.6v-5.5 c0.6,0,1.4-0.2,1.9-0.5C4.4,19.9,5.5,18,7,16C9.9,12,14.1,7.3,24.7,7.3z"/><path fill="#f3a2a2" d="M24.7,7.4c0.1,0,0.4,0,0.6,0c3.5,0,17.7,0.6,18.3,11.9c0,0.2,0,0.6,0,0.9c0,1-0.1,1.7-0.1,2.3 c-0.3,3.1-1.5,5.9-4.2,7.9c-1.8,1.3-4.3,2.4-7.7,2.8c-2.4,0.3-4.9,0.4-7.7,0.3c-2.1,0-4.7-0.3-6.7-0.7c-0.1,0-0.2,0-0.3-0.1 c-1.2-0.2-2.4-0.5-3.4-0.9c-1.3-0.4-2.6-1-3.8-1.6c-0.3-0.1-0.5-0.3-0.7-0.4c-1.7-0.9-3.4-2-5-2.6c-0.8-0.3-2-0.5-2.7-0.5v-5.4 c0.5,0,1.5-0.2,1.9-0.5c1.5-0.9,2.6-2.7,4.1-4.8C9.9,12.1,14.1,7.4,24.7,7.4z"/><path fill="#f4a4a4" d="M24.7,7.4c0.1,0,0.4,0,0.6,0C28.8,7.4,43,8,43.6,19.3c0,0.2,0,0.6,0,0.9c0,1.1-0.1,1.7-0.1,2.3 c-0.4,3.2-1.5,5.9-4.4,7.9c-1.9,1.3-4.4,2.3-7.8,2.7c-2.4,0.3-5,0.4-7.7,0.2c-2,0-4.6-0.3-6.6-0.7c-0.1,0-0.2,0-0.3-0.1 c-1.2-0.3-2.3-0.5-3.4-0.9c-1.3-0.4-2.5-1-3.7-1.6c-0.2-0.1-0.5-0.3-0.7-0.4c-1.7-0.9-3.3-2-4.9-2.6c-0.7-0.3-2-0.5-2.7-0.5v-5.3 c0.5,0,1.5-0.2,1.9-0.4c1.5-0.8,2.6-2.7,4.1-4.8C9.9,12.2,14.1,7.4,24.7,7.4z"/><path fill="#f4a6a6" d="M24.7,7.5c0.1,0,0.4,0,0.6,0c3.6,0,17.6,0.6,18.2,11.8c0,0.2,0,0.6,0,0.9c0,1.1-0.1,1.7-0.1,2.4 c-0.4,3.2-1.6,5.9-4.6,7.9c-1.9,1.3-4.5,2.2-7.9,2.6c-2.5,0.3-5.1,0.3-7.8,0.2c-1.8,0-4.5-0.4-6.5-0.8c-0.1,0-0.2,0-0.3-0.1 c-1.2-0.3-2.3-0.6-3.3-0.9c-1.3-0.4-2.5-1-3.7-1.6c-0.2-0.1-0.5-0.3-0.7-0.4C7,28.6,5.4,27.6,3.8,27c-0.7-0.3-2-0.5-2.6-0.5v-5.1 c0.5,0,1.5-0.1,1.9-0.4c1.5-0.8,2.7-2.7,4.1-4.7C10,12.3,14,7.5,24.7,7.5z"/><path fill="#f5a7a7" d="M24.7,7.6c0.1,0,0.4,0,0.6,0c3.6,0,17.5,0.6,18.1,11.8c0,0.2,0,0.6,0,0.9c0,1.2-0.1,1.8-0.2,2.4 c-0.4,3.2-1.7,5.9-4.7,7.9c-2,1.2-4.6,2.2-8,2.6c-2.6,0.3-5.1,0.3-7.9,0.1c-1.7,0-4.4-0.4-6.3-0.8c-0.1,0-0.2,0-0.3-0.1 c-1.2-0.3-2.2-0.6-3.2-0.9c-1.3-0.4-2.4-1-3.6-1.6c-0.2-0.1-0.5-0.3-0.7-0.4c-1.6-0.9-3.2-1.9-4.8-2.4c-0.6-0.3-2-0.4-2.6-0.4v-5 c0.4,0,1.6-0.1,1.9-0.4c1.5-0.8,2.7-2.7,4.1-4.7C10,12.4,14,7.6,24.7,7.6z"/><path fill="#f6a9a9" d="M24.7,7.6c0,0,0.4,0,0.6,0c3.6,0,17.5,0.6,18,11.8c0,0.2,0,0.6,0,0.9c0,1.2-0.1,1.8-0.2,2.4 c-0.4,3.2-1.7,5.9-4.9,7.8c-2,1.2-4.7,2.1-8.1,2.5c-2.6,0.3-5.2,0.3-7.9,0c-1.6,0-4.3-0.4-6.2-0.9c-0.1,0-0.2,0-0.3-0.1 c-1.1-0.3-2.2-0.6-3.2-0.9c-1.2-0.5-2.4-1-3.5-1.6c-0.2-0.1-0.5-0.3-0.7-0.4c-1.6-0.9-3.1-1.8-4.7-2.4c-0.6-0.2-2-0.4-2.5-0.4 v-4.9c0.4,0,1.6-0.1,1.9-0.3c1.6-0.8,2.7-2.7,4.1-4.7C10,12.5,14,7.6,24.7,7.6z"/><path fill="#f7abab" d="M24.7,7.7c0,0,0.5,0,0.6,0c3.7,0,17.4,0.7,18,11.7c0,0.2,0,0.6,0,0.9c0,1.3-0.1,1.8-0.2,2.4 c-0.4,3.2-1.8,6-5,7.8c-2,1.2-4.7,2-8.3,2.4c-2.7,0.2-5.3,0.2-8,0c-1.4,0-4.2-0.5-6.1-0.9c-0.1,0-0.2,0-0.3-0.1 c-1.1-0.3-2.1-0.6-3.1-0.9c-1.2-0.5-2.3-1-3.4-1.6c-0.2-0.1-0.5-0.2-0.7-0.4c-1.6-0.9-3.1-1.8-4.6-2.3c-0.5-0.2-2-0.4-2.5-0.4 v-4.8c0.4,0,1.6-0.1,1.9-0.3c1.6-0.8,2.7-2.7,4.1-4.7C10.1,12.6,14,7.7,24.7,7.7z"/><path fill="#f7acac" d="M24.7,7.8c0,0,0.5,0,0.6,0c3.7,0,17.4,0.7,17.9,11.7c0,0.1,0,0.6,0,0.9c0,1.3-0.1,1.9-0.2,2.5 c-0.4,3.2-1.8,6-5.2,7.8c-2.1,1.1-4.8,2-8.4,2.3c-2.7,0.2-5.4,0.2-8.1-0.1c-1.3,0-4.1-0.5-5.9-0.9c-0.1,0-0.2,0-0.3-0.1 c-1.1-0.3-2.1-0.6-3-0.9c-1.2-0.5-2.3-1-3.3-1.6c-0.2-0.1-0.4-0.2-0.7-0.4c-1.5-0.9-3-1.8-4.5-2.3c-0.5-0.2-2-0.3-2.4-0.3v-4.7 c0.3,0,1.7-0.1,1.9-0.3c1.6-0.8,2.8-2.7,4.1-4.7C10.1,12.7,13.9,7.8,24.7,7.8z"/><path fill="#f8aeae" d="M24.7,7.9c0,0,0.5,0,0.6,0c3.7,0,17.3,0.7,17.8,11.7c0,0.1,0,0.6,0,0.9c0,1.4-0.1,1.9-0.2,2.5 c-0.5,3.2-1.9,6-5.3,7.8c-2.1,1.1-4.9,1.9-8.5,2.2c-2.8,0.2-5.5,0.1-8.1-0.2c-1.2,0-4-0.5-5.8-1c-0.1,0-0.2,0-0.2-0.1 c-1.1-0.3-2-0.6-2.9-1c-1.2-0.5-2.2-1-3.2-1.6c-0.2-0.1-0.4-0.2-0.6-0.4c-1.5-0.9-2.9-1.7-4.4-2.2c-0.4-0.2-2-0.3-2.4-0.3v-4.5 c0.3,0,1.7-0.1,1.9-0.3c1.6-0.8,2.8-2.6,4.2-4.6C10.1,12.8,13.9,7.9,24.7,7.9z"/><path fill="#f9b0b0" d="M24.7,7.9c0,0,0.5,0,0.6,0c3.8,0,17.3,0.7,17.7,11.6c0,0.1,0,0.6,0,0.9c0,1.4-0.1,1.9-0.2,2.5 c-0.5,3.2-1.9,6-5.5,7.8c-2.2,1.1-5,1.8-8.6,2.1c-2.9,0.2-5.6,0.1-8.2-0.2c-1,0-3.9-0.5-5.7-1c-0.1,0-0.2,0-0.2-0.1 c-1.1-0.3-2-0.6-2.9-1c-1.1-0.5-2.2-1-3.2-1.6c-0.2-0.1-0.4-0.2-0.6-0.4c-1.5-0.8-2.9-1.7-4.3-2.2c-0.4-0.2-2-0.3-2.4-0.3v-4.4 c0.3,0,1.7-0.1,1.9-0.2c1.7-0.8,2.8-2.6,4.2-4.6C10.2,12.9,13.9,7.9,24.7,7.9z"/><path fill="#fab1b1" d="M24.7,8c0,0,0.5,0,0.6,0C29.1,8,42.6,8.7,43,19.6c0,0.1,0,0.6,0,0.9c0,1.5-0.1,2-0.2,2.5 c-0.5,3.2-2,6-5.6,7.8c-2.2,1.1-5.1,1.8-8.7,2c-2.9,0.2-5.7,0-8.3-0.3c-0.9,0-3.8-0.6-5.5-1.1c-0.1,0-0.2-0.1-0.2-0.1 c-1-0.3-2-0.6-2.8-1c-1.1-0.5-2.1-1-3.1-1.6c-0.2-0.1-0.4-0.2-0.6-0.4c-1.4-0.8-2.8-1.7-4.2-2.1c-0.3-0.1-2-0.2-2.3-0.2v-4.3 c0.2,0,1.8-0.1,1.9-0.2C5,20.9,6.1,19,7.5,17C10.2,13,13.9,8,24.7,8z"/><path fill="#fab3b3" d="M24.7,8.1c0,0,0.5,0,0.6,0c3.8,0,17.2,0.7,17.6,11.6c0,0.1,0,0.6,0,0.9c0,1.5-0.1,2-0.2,2.6 c-0.5,3.2-2,6-5.8,7.8c-2.2,1-5.2,1.7-8.8,1.9c-3,0.1-5.7,0-8.4-0.4c-0.8,0-3.8-0.6-5.4-1.1c-0.1,0-0.1-0.1-0.2-0.1 c-1-0.3-1.9-0.6-2.7-1c-1.1-0.5-2.1-1-3-1.5c-0.2-0.1-0.4-0.2-0.6-0.4c-1.4-0.8-2.7-1.6-4.1-2.1c-0.3-0.1-2-0.2-2.3-0.2v-4.2 c0.2,0,1.8-0.1,2-0.2C5,21,6.2,19.1,7.5,17.1C10.2,13.1,13.8,8.1,24.7,8.1z"/><path fill="#fbb5b5" d="M24.7,8.1c0,0,0.6,0,0.6,0c3.9,0,17.1,0.8,17.5,11.6c0,0.1,0,0.6,0,0.9c0,1.6-0.1,2-0.2,2.6 c-0.5,3.2-2.1,6-5.9,7.8c-2.3,1-5.2,1.7-8.9,1.8c-3.1,0.1-5.8,0-8.4-0.4c-0.7,0-3.7-0.6-5.3-1.1c-0.1,0-0.1-0.1-0.2-0.1 c-1-0.3-1.9-0.6-2.7-1c-1.1-0.5-2-1-2.9-1.5c-0.2-0.1-0.4-0.2-0.6-0.4c-1.3-0.8-2.7-1.6-4-2c-0.2-0.1-2-0.2-2.2-0.2v-4 c0.2,0,1.8-0.1,2-0.1c1.7-0.7,2.9-2.6,4.2-4.6C10.3,13.2,13.8,8.1,24.7,8.1z"/><path fill="#fcb6b6" d="M24.7,8.2c0,0,0.6,0,0.6,0c3.9,0,17.1,0.8,17.5,11.5c0,0.1,0,0.6,0,0.9c0,1.6-0.1,2.1-0.2,2.6 c-0.5,3.2-2.1,6.1-6.1,7.8c-2.3,1-5.3,1.6-9,1.7c-3.1,0.1-5.9-0.1-8.5-0.5c-0.5,0-3.6-0.7-5.1-1.2c-0.1,0-0.1-0.1-0.2-0.1 c-1-0.3-1.8-0.7-2.6-1c-1-0.5-1.9-1-2.8-1.5c-0.2-0.1-0.4-0.2-0.6-0.3c-1.3-0.8-2.6-1.6-4-1.9c-0.2-0.1-2-0.1-2.2-0.1V22 c0.1,0,1.9,0,2-0.1c1.8-0.7,2.9-2.6,4.2-4.5C10.3,13.3,13.8,8.2,24.7,8.2z"/><path fill="#fdb8b8" d="M24.7,8.3c0,0,0.6,0,0.6,0c3.9,0,17.1,0.8,17.4,11.5c0,0,0,0.6,0,0.9c-0.1,1.7-0.2,2.1-0.2,2.6 c-0.5,3.3-2.2,6.1-6.3,7.7c-2.3,1-5.4,1.5-9.2,1.6c-3.2,0.1-6-0.1-8.6-0.6c-0.4,0-3.5-0.7-5-1.2c-0.1,0-0.1-0.1-0.2-0.1 c-1-0.3-1.8-0.7-2.5-1c-1-0.5-1.9-1-2.8-1.5c-0.2-0.1-0.4-0.2-0.6-0.3c-1.3-0.8-2.5-1.5-3.9-1.9c-0.1-0.1-2-0.1-2.1-0.1v-3.8 c0.1,0,1.9,0,2-0.1c1.8-0.7,2.9-2.6,4.2-4.5C10.3,13.4,13.8,8.3,24.7,8.3z"/><path fill="#fdbaba" d="M24.7,8.4c0,0,0.6,0,0.6,0c4,0,17,0.8,17.3,11.5c0,0,0,0.6,0,0.9c-0.1,1.7-0.2,2.1-0.2,2.7 c-0.6,3.3-2.2,6.1-6.4,7.7c-2.4,0.9-5.5,1.5-9.3,1.5c-3.3,0-6.1-0.2-8.6-0.6c-0.3,0-3.4-0.7-4.9-1.3c-0.1,0-0.1-0.1-0.2-0.1 c-0.9-0.3-1.7-0.7-2.4-1c-1-0.5-1.8-1-2.7-1.5c-0.2-0.1-0.4-0.2-0.5-0.3c-1.2-0.8-2.4-1.5-3.8-1.8c-0.1,0-2-0.1-2.1-0.1v-3.7 c0.1,0,1.9,0,2-0.1c1.8-0.7,3-2.5,4.2-4.5C10.3,13.5,13.7,8.4,24.7,8.4z"/><path fill="#febbbb" d="M24.7,8.4c0,0,0.6,0,0.6,0c4,0,17,0.8,17.3,11.4c0,0,0,0.6,0,0.9c-0.1,1.8-0.2,2.2-0.3,2.7 c-0.6,3.3-2.3,6.1-6.6,7.7c-2.4,0.9-5.6,1.4-9.4,1.4c-3.3,0-6.2-0.2-8.7-0.7c-0.1,0-3.3-0.8-4.8-1.3c-0.1,0-0.1-0.1-0.2-0.1 c-0.9-0.4-1.7-0.7-2.4-1c-0.9-0.5-1.8-1-2.6-1.5c-0.2-0.1-0.4-0.2-0.5-0.3c-1.2-0.8-2.4-1.4-3.7-1.8c0,0-2,0-2,0v-3.6c0,0,2,0,2,0 c1.8-0.7,3-2.5,4.3-4.5C10.4,13.6,13.7,8.4,24.7,8.4z"/><path fill="#ffbdbd" d="M42.5,19.9c0,0,0,0.6,0,0.8c0,1.9-0.2,2.2-0.3,2.7c-0.6,3.3-2.3,6.1-6.7,7.7c-2.5,0.9-5.7,1.3-9.5,1.3 c-3.4,0-6.2-0.2-8.8-0.8c0,0-3.2-0.8-4.6-1.4c-0.1,0-0.1-0.1-0.2-0.1c-0.9-0.4-1.6-0.7-2.3-1c-0.9-0.5-1.7-1-2.5-1.5 C6.3,26.9,5,26,3.5,25.7h-2v-3.4h2c1.8-0.7,3-2.5,4.3-4.5c2.6-4.1,5.9-9.3,16.9-9.3h0.6C29.3,8.5,42.5,9.3,42.5,19.9z"/><g><path fill="#ffcdd2" d="M42.4,22.4c0,0.4-0.1,0.7-0.2,1.1C42.3,23.1,42.3,22.8,42.4,22.4z"/></g><g><path fill="#ef9a9a" d="M42.9,27.3c-0.8,2.5-1.1,5.1-1,7.6c0,0.4,0,0.8,0,1.1c0,1.6-0.3,3.3-0.4,4H38v-3c0-0.6-0.2-1.1-0.5-1.6 c-0.4-0.6-1-1.6-1.3-2.8c1.4-0.5,2.5-1.1,3.4-1.8s1.7-1.5,2.3-2.4c1.2-1.8,1.8-3.9,2-6.1C43.7,24.3,43.3,26,42.9,27.3z"/><path fill="#f09c9c" d="M41.5,39.9h-0.9L39,39.9c0,0-0.9,0-0.9,0c0,0,0-2,0-2c0,0,0-1,0-1c0-0.6-0.2-1.1-0.5-1.6c0,0,0-0.1-0.1-0.1 c-0.2-0.3-0.5-0.7-0.7-1.2c-0.1-0.2-0.2-0.5-0.3-0.7c-0.1-0.2-0.1-0.4-0.2-0.5c0-0.1,0-0.1-0.1-0.2c1.3-0.5,2.5-1.1,3.4-1.8 c0.9-0.7,1.7-1.5,2.3-2.4c1.1-1.6,1.7-3.5,2-5.5c0-0.2,0-0.3,0.1-0.5c-0.1,1.3-0.3,2.5-0.6,3.6c-0.1,0.5-0.3,1-0.4,1.4 c-0.4,1.1-0.6,2.3-0.8,3.4c-0.2,1.4-0.2,2.8-0.1,4.2c0,0.3,0,0.6,0,0.9c0,0.1,0,0.1,0,0.2c0,0.3,0,0.6,0,1 C41.8,38.2,41.6,39.4,41.5,39.9z"/><path fill="#f19d9d" d="M41.5,39.9h-0.9L39,39.7c0,0-0.9-0.1-0.9-0.1c0-0.1,0-1.9-0.1-2c0,0,0-1,0-1c0-0.6-0.2-1.1-0.5-1.6 c0,0,0-0.1-0.1-0.1c-0.2-0.3-0.5-0.7-0.7-1.2c-0.1-0.2-0.2-0.5-0.3-0.7c-0.1-0.2-0.1-0.3-0.2-0.5c0-0.1,0-0.1-0.1-0.2 c1.3-0.5,2.4-1.1,3.4-1.8c0.9-0.7,1.7-1.5,2.2-2.3c1.1-1.6,1.7-3.5,2-5.5c0-0.1,0-0.3,0.1-0.4c-0.1,1.3-0.3,2.5-0.6,3.5 c-0.1,0.5-0.3,1-0.4,1.4c-0.4,1.1-0.6,2.2-0.8,3.4c-0.2,1.4-0.2,2.7-0.1,4.1c0,0.3,0,0.6,0,0.9c0,0.1,0,0.1,0,0.2c0,0.3,0,0.6,0,1 C41.8,38.1,41.6,39.3,41.5,39.9z"/><path fill="#f19f9f" d="M41.4,39.8h-0.9L39,39.6c0,0-0.8-0.1-0.8-0.1c0-0.1-0.1-1.9-0.1-1.9c0,0,0-1-0.1-1c0-0.5-0.2-1.1-0.5-1.6 c0,0,0-0.1-0.1-0.1c-0.2-0.3-0.5-0.7-0.7-1.2c-0.1-0.2-0.3-0.4-0.4-0.7c-0.1-0.2-0.2-0.3-0.2-0.5c0-0.1,0-0.1-0.1-0.2 c1.3-0.5,2.4-1.1,3.3-1.8c0.9-0.7,1.6-1.5,2.2-2.3c1.1-1.6,1.7-3.4,2-5.4c0-0.1,0-0.3,0.1-0.4c-0.1,1.3-0.3,2.5-0.6,3.5 c-0.1,0.5-0.3,1-0.4,1.4c-0.4,1.1-0.6,2.2-0.8,3.4c-0.2,1.3-0.2,2.7-0.1,4.1c0,0.3,0,0.6,0,0.9c0,0.1,0,0.1,0,0.2 c0,0.3,0,0.6,0,0.9C41.7,38,41.5,39.2,41.4,39.8z"/><path fill="#f2a1a1" d="M41.4,39.7h-0.9l-1.4-0.3c0-0.1-0.8-0.1-0.8-0.2c0-0.1-0.1-1.8-0.1-1.9c0,0-0.1-0.9-0.1-1 c0-0.5-0.2-1.1-0.5-1.6c0,0,0-0.1-0.1-0.1c-0.2-0.3-0.5-0.7-0.7-1.2c-0.1-0.2-0.3-0.4-0.4-0.6c-0.1-0.2-0.2-0.3-0.2-0.5 c0-0.1,0-0.1-0.1-0.2c1.3-0.5,2.4-1.1,3.3-1.7c0.9-0.7,1.6-1.4,2.2-2.3c1.1-1.6,1.7-3.4,2-5.4c0-0.1,0-0.2,0-0.3 C43.4,23.8,43.2,25,43,26c-0.1,0.5-0.3,1-0.4,1.4c-0.4,1.1-0.6,2.2-0.8,3.3c-0.2,1.3-0.2,2.7-0.1,4c0,0.3,0,0.6,0,0.9 c0,0.1,0,0.1,0,0.2c0,0.3,0,0.6,0,0.9C41.6,38,41.5,39.1,41.4,39.7z"/><path fill="#f3a2a2" d="M41.3,39.6h-0.9l-1.3-0.4c0-0.1-0.7-0.1-0.7-0.2c0-0.1-0.1-1.8-0.2-1.9c0,0-0.1-0.9-0.1-1 c0-0.5-0.2-1.1-0.5-1.5c0,0,0-0.1-0.1-0.1c-0.2-0.3-0.5-0.7-0.7-1.2c-0.1-0.2-0.3-0.4-0.4-0.6c-0.1-0.1-0.2-0.3-0.3-0.4 c0,0-0.1-0.1-0.1-0.1c1.3-0.5,2.4-1,3.3-1.7c0.9-0.7,1.6-1.4,2.2-2.3c1.1-1.6,1.7-3.4,2-5.3c0-0.1,0-0.2,0-0.3 c-0.1,1.3-0.3,2.4-0.6,3.4c-0.1,0.5-0.3,1-0.4,1.4c-0.3,1.1-0.6,2.2-0.8,3.3c-0.2,1.3-0.2,2.7-0.1,4c0,0.3,0,0.6,0,0.8 c0,0.1,0,0.1,0,0.2c0,0.3,0,0.6,0,0.9C41.6,37.9,41.4,39,41.3,39.6z"/><path fill="#f4a4a4" d="M41.2,39.6h-0.9l-1.2-0.4c0-0.1-0.7-0.2-0.7-0.2c0-0.2-0.1-1.7-0.2-1.9c0-0.1-0.1-0.9-0.1-1 c-0.1-0.5-0.2-1-0.5-1.5c0,0,0-0.1,0-0.1c-0.2-0.3-0.4-0.7-0.7-1.1c-0.1-0.2-0.3-0.4-0.4-0.6c-0.1-0.1-0.2-0.3-0.3-0.4 c0,0-0.1-0.1-0.1-0.1c1.3-0.5,2.4-1,3.2-1.7c0.9-0.7,1.6-1.4,2.2-2.2c1.1-1.5,1.7-3.3,2-5.3c0-0.1,0-0.2,0-0.2 c-0.1,1.3-0.3,2.4-0.6,3.4c-0.1,0.5-0.3,1-0.4,1.4c-0.3,1.1-0.6,2.2-0.7,3.3c-0.2,1.3-0.2,2.6-0.1,4c0,0.3,0,0.6,0,0.8 c0,0.1,0,0.1,0,0.2c0,0.3,0,0.6,0,0.9C41.5,37.8,41.3,39,41.2,39.6z"/><path fill="#f4a6a6" d="M41.2,39.5h-0.9L39.1,39c0-0.1-0.6-0.2-0.7-0.3c0-0.2-0.1-1.7-0.2-1.9c0-0.1-0.1-0.8-0.2-0.9 c-0.1-0.5-0.3-1-0.5-1.5c0,0,0-0.1,0-0.1c-0.2-0.3-0.4-0.7-0.7-1.1c-0.2-0.2-0.3-0.4-0.4-0.6c-0.1-0.1-0.2-0.2-0.3-0.4 c0,0-0.1-0.1-0.1-0.1c1.3-0.5,2.3-1,3.2-1.7c0.9-0.7,1.6-1.4,2.2-2.2c1.1-1.5,1.7-3.3,2-5.2c0-0.1,0-0.1,0-0.2 c-0.1,1.2-0.3,2.4-0.6,3.4c-0.1,0.5-0.3,0.9-0.4,1.4c-0.3,1.1-0.6,2.1-0.7,3.2c-0.2,1.3-0.2,2.6-0.1,3.9c0,0.3,0,0.6,0,0.8 c0,0.1,0,0.1,0,0.2c0,0.3,0,0.6,0,0.9C41.4,37.8,41.3,38.9,41.2,39.5z"/><path fill="#f5a7a7" d="M41.1,39.4h-0.9l-1.1-0.6c0-0.1-0.6-0.2-0.6-0.3c0-0.2-0.1-1.7-0.3-1.8c0-0.1-0.1-0.8-0.2-0.9 c-0.1-0.5-0.3-1-0.5-1.5c0,0,0-0.1,0-0.1c-0.2-0.4-0.4-0.7-0.7-1.1c-0.2-0.2-0.3-0.4-0.5-0.5c-0.1-0.1-0.2-0.2-0.3-0.3 c0,0-0.1-0.1-0.1-0.1c1.3-0.5,2.3-1,3.2-1.7s1.6-1.4,2.2-2.2c1.1-1.5,1.7-3.3,2-5.2c0-0.1,0-0.1,0-0.2c-0.1,1.2-0.3,2.3-0.6,3.3 c-0.1,0.5-0.3,0.9-0.4,1.4c-0.3,1.1-0.6,2.1-0.7,3.2c-0.2,1.3-0.2,2.6-0.1,3.9c0,0.3,0,0.6,0,0.8c0,0.1,0,0.1,0,0.2 c0,0.3,0,0.6,0,0.9C41.4,37.7,41.2,38.8,41.1,39.4z"/><path fill="#f6a9a9" d="M41.1,39.4h-0.9l-1-0.7c0-0.1-0.6-0.2-0.6-0.4c-0.1-0.3-0.2-1.6-0.3-1.8c-0.1-0.1-0.1-0.8-0.2-0.9 c-0.1-0.5-0.3-1-0.5-1.5c0,0,0-0.1,0-0.1c-0.2-0.4-0.4-0.7-0.7-1.1c-0.2-0.2-0.3-0.4-0.5-0.5c-0.1-0.1-0.2-0.2-0.3-0.3 c0,0-0.1-0.1-0.1-0.1c1.2-0.5,2.3-1,3.2-1.6s1.6-1.4,2.1-2.1c1.1-1.5,1.7-3.2,1.9-5.1c0,0,0-0.1,0-0.1c-0.1,1.2-0.3,2.3-0.6,3.3 c-0.1,0.5-0.3,0.9-0.4,1.3c-0.3,1-0.6,2.1-0.7,3.2c-0.2,1.3-0.2,2.6-0.1,3.9c0,0.3,0,0.6,0,0.8c0,0.1,0,0.1,0,0.2 c0,0.3,0,0.6,0,0.9C41.3,37.6,41.1,38.7,41.1,39.4z"/><path fill="#f7abab" d="M41,39.3h-0.9l-0.9-0.7c0-0.1-0.5-0.3-0.5-0.4c-0.1-0.3-0.2-1.6-0.3-1.8c-0.1-0.1-0.1-0.8-0.2-0.9 c-0.1-0.5-0.3-1-0.5-1.5c0,0,0-0.1,0-0.1c-0.2-0.4-0.4-0.7-0.7-1.1c-0.2-0.2-0.3-0.3-0.5-0.5c-0.1-0.1-0.2-0.2-0.3-0.3 c0,0-0.1-0.1-0.1-0.1c1.2-0.4,2.3-1,3.1-1.6c0.9-0.6,1.6-1.3,2.1-2.1c1.1-1.5,1.6-3.2,1.9-5.1c0,0,0,0,0-0.1 c-0.1,1.2-0.3,2.3-0.6,3.3c-0.1,0.5-0.3,0.9-0.4,1.3c-0.3,1-0.5,2.1-0.7,3.2c-0.2,1.3-0.2,2.5-0.1,3.8c0,0.3,0,0.5,0,0.8 c0,0.1,0,0.1,0,0.2c0,0.3,0,0.6,0,0.9C41.2,37.6,41.1,38.6,41,39.3z"/><path fill="#f7acac" d="M40.9,39.2h-0.9l-0.8-0.8c0-0.2-0.5-0.3-0.5-0.4c-0.1-0.3-0.2-1.5-0.4-1.8c-0.1-0.1-0.2-0.7-0.2-0.9 c-0.1-0.5-0.3-1-0.5-1.5c0,0,0-0.1,0-0.1c-0.2-0.4-0.4-0.8-0.7-1.1c-0.2-0.2-0.3-0.3-0.5-0.5C36.2,32,36,32,35.9,31.9 c0,0-0.1,0-0.1-0.1c1.2-0.4,2.2-1,3.1-1.6c0.9-0.6,1.6-1.3,2.1-2.1c1.1-1.5,1.6-3.2,1.9-5c0,0,0,0,0,0c-0.1,1.2-0.4,2.3-0.6,3.2 c-0.1,0.5-0.3,0.9-0.4,1.3c-0.3,1-0.5,2.1-0.7,3.1c-0.2,1.3-0.2,2.5-0.1,3.8c0,0.3,0,0.5,0,0.8c0,0.1,0,0.1,0,0.2 c0,0.3,0,0.6,0,0.9C41.2,37.5,41,38.6,40.9,39.2z"/><path fill="#f8aeae" d="M40.9,39.1H40l-0.7-0.9c0-0.2-0.4-0.3-0.5-0.5c-0.1-0.3-0.2-1.5-0.4-1.8c-0.1-0.1-0.2-0.7-0.3-0.9 c-0.1-0.5-0.3-1-0.5-1.5c0,0,0-0.1,0-0.1c-0.1-0.4-0.4-0.8-0.7-1.1c-0.2-0.2-0.4-0.3-0.5-0.4c-0.1-0.1-0.3-0.1-0.4-0.2 c0,0-0.1,0-0.1-0.1c1.2-0.4,2.2-1,3.1-1.6c0.9-0.6,1.5-1.3,2.1-2.1c1.1-1.5,1.6-3.1,1.9-5c0,0,0,0,0,0c-0.1,1.2-0.4,2.2-0.6,3.2 c-0.1,0.5-0.3,0.9-0.4,1.3c-0.3,1-0.5,2.1-0.7,3.1c-0.2,1.2-0.2,2.5-0.1,3.8c0,0.3,0,0.5,0,0.8c0,0.1,0,0.1,0,0.2 c0,0.3,0,0.6,0,0.9C41.1,37.4,41,38.5,40.9,39.1z"/><path fill="#f9b0b0" d="M40.8,39.1h-0.9l-0.7-0.9c0-0.2-0.4-0.4-0.4-0.5c-0.1-0.4-0.2-1.5-0.4-1.8c-0.1-0.1-0.2-0.7-0.3-0.9 c-0.1-0.5-0.3-1-0.5-1.5c0,0,0-0.1,0-0.1c-0.1-0.4-0.4-0.8-0.7-1.1c-0.2-0.2-0.4-0.3-0.6-0.4c-0.1-0.1-0.3-0.1-0.4-0.2 c0,0-0.1,0-0.1,0c1.2-0.4,2.2-1,3.1-1.6c0.8-0.6,1.5-1.3,2.1-2c1.1-1.4,1.6-3.1,1.9-4.9c0,0,0,0.1,0,0.1c-0.1,1.1-0.4,2.2-0.6,3.2 c-0.1,0.4-0.3,0.9-0.4,1.3c-0.3,1-0.5,2-0.7,3.1C41,32,40.9,33.3,41,34.5c0,0.3,0,0.5,0,0.8c0,0.1,0,0.1,0,0.2c0,0.3,0,0.6,0,0.9 C41,37.4,40.9,38.4,40.8,39.1z"/><path fill="#fab1b1" d="M40.8,39h-0.9l-0.6-1c0-0.2-0.3-0.4-0.4-0.6c-0.1-0.4-0.2-1.4-0.5-1.7c-0.1-0.1-0.2-0.6-0.3-0.9 c-0.1-0.4-0.3-0.9-0.5-1.5c0,0,0-0.1,0-0.1c-0.1-0.4-0.4-0.8-0.7-1.1c-0.2-0.2-0.4-0.3-0.6-0.4c-0.1-0.1-0.3-0.1-0.4-0.1 c0,0-0.1,0-0.1,0c1.2-0.4,2.2-0.9,3-1.5c0.8-0.6,1.5-1.3,2.1-2c1.1-1.4,1.6-3.1,1.9-4.9c0,0,0,0.1,0,0.1c-0.1,1.1-0.4,2.2-0.6,3.1 c-0.1,0.4-0.3,0.9-0.4,1.3c-0.3,1-0.5,2-0.6,3c-0.2,1.2-0.2,2.5-0.1,3.7c0,0.3,0,0.5,0,0.8c0,0.1,0,0.1,0,0.2c0,0.3,0,0.6,0,0.9 C41,37.3,40.8,38.3,40.8,39z"/><path fill="#fab3b3" d="M40.7,38.9h-0.9l-0.5-1.1c0-0.2-0.3-0.4-0.3-0.6c-0.1-0.4-0.3-1.4-0.5-1.7c-0.1-0.1-0.2-0.6-0.3-0.8 c-0.1-0.4-0.4-0.9-0.5-1.5c0,0,0-0.1,0-0.1c-0.1-0.4-0.4-0.8-0.7-1.1c-0.2-0.2-0.4-0.3-0.6-0.3c-0.1-0.1-0.3-0.1-0.4-0.1 c0,0-0.1,0-0.1,0c1.2-0.4,2.2-0.9,3-1.5c0.8-0.6,1.5-1.3,2.1-2c1.1-1.4,1.6-3,1.9-4.8c0,0.1,0,0.1,0,0.2c-0.1,1.1-0.4,2.1-0.6,3.1 c-0.1,0.4-0.3,0.9-0.4,1.3c-0.3,1-0.5,2-0.6,3c-0.2,1.2-0.2,2.4-0.1,3.7c0,0.3,0,0.5,0,0.8c0,0.1,0,0.1,0,0.2c0,0.3,0,0.6,0,0.8 C40.9,37.2,40.8,38.2,40.7,38.9z"/><path fill="#fbb5b5" d="M40.6,38.9h-0.9l-0.4-1.2c0-0.2-0.2-0.4-0.3-0.6c-0.1-0.4-0.3-1.3-0.5-1.7c-0.1-0.1-0.2-0.6-0.4-0.8 c-0.2-0.4-0.4-0.9-0.5-1.5c0,0,0-0.1,0-0.1c-0.1-0.4-0.4-0.8-0.7-1c-0.2-0.1-0.4-0.3-0.6-0.3c-0.1,0-0.3-0.1-0.4-0.1 c0,0-0.1,0-0.1,0c1.2-0.4,2.1-0.9,3-1.5c0.8-0.6,1.5-1.2,2-1.9c1.1-1.4,1.6-3,1.9-4.8c0,0.1,0,0.1,0,0.2c-0.2,1.1-0.4,2.1-0.6,3.1 c-0.1,0.4-0.3,0.9-0.4,1.3c-0.3,1-0.5,2-0.6,3c-0.2,1.2-0.2,2.4-0.1,3.6c0,0.3,0,0.5,0,0.8c0,0.1,0,0.1,0,0.2c0,0.3,0,0.6,0,0.8 C40.8,37.2,40.7,38.2,40.6,38.9z"/><path fill="#fcb6b6" d="M40.6,38.8h-0.8l-0.3-1.2c0-0.2-0.2-0.5-0.2-0.7c-0.1-0.5-0.3-1.3-0.6-1.7c-0.1-0.1-0.2-0.5-0.4-0.8 c-0.2-0.4-0.4-0.9-0.5-1.4c0,0,0-0.1,0-0.1c-0.1-0.4-0.4-0.8-0.7-1c-0.2-0.1-0.4-0.2-0.6-0.3c-0.2,0-0.3,0-0.4,0 c-0.1,0-0.1,0-0.1,0c1.2-0.4,2.1-0.9,2.9-1.5s1.5-1.2,2-1.9c1.1-1.4,1.6-3,1.9-4.7c0,0.1,0,0.2,0,0.3c-0.2,1.1-0.4,2.1-0.7,3 c-0.1,0.4-0.3,0.8-0.4,1.3c-0.3,1-0.5,2-0.6,3c-0.2,1.2-0.2,2.4-0.1,3.6c0,0.3,0,0.5,0,0.7c0,0.1,0,0.1,0,0.2c0,0.3,0,0.6,0,0.8 C40.8,37.1,40.7,38.1,40.6,38.8z"/><path fill="#fdb8b8" d="M40.5,38.7h-0.8l-0.2-1.3c0-0.2-0.2-0.5-0.2-0.7c-0.1-0.5-0.3-1.3-0.6-1.7c-0.1-0.2-0.3-0.5-0.4-0.8 c-0.2-0.4-0.4-0.9-0.5-1.4c0,0,0-0.1,0-0.1c-0.1-0.4-0.4-0.8-0.7-1c-0.2-0.1-0.4-0.2-0.7-0.3c-0.2,0-0.3,0-0.5,0 c-0.1,0-0.1,0-0.2,0c1.1-0.4,2.1-0.9,2.9-1.5c0.8-0.6,1.5-1.2,2-1.9c1.1-1.4,1.6-3,1.9-4.7c0,0.1,0,0.2,0,0.3 c-0.2,1.1-0.4,2.1-0.7,3c-0.1,0.4-0.3,0.8-0.4,1.2c-0.3,1-0.5,1.9-0.6,2.9c-0.1,1.2-0.2,2.4-0.1,3.5c0,0.2,0,0.5,0,0.7 c0,0.1,0,0.1,0,0.2c0,0.3,0,0.6,0,0.8C40.7,37,40.6,38,40.5,38.7z"/><path fill="#fdbaba" d="M40.4,38.6h-0.8l-0.2-1.4c0-0.3-0.1-0.5-0.2-0.8c-0.1-0.5-0.3-1.2-0.6-1.7c-0.1-0.2-0.3-0.5-0.4-0.8 c-0.2-0.4-0.4-0.9-0.6-1.4c0,0,0-0.1,0-0.1c-0.1-0.4-0.4-0.8-0.7-1c-0.2-0.1-0.4-0.2-0.7-0.2c-0.2,0-0.3,0-0.5,0 c-0.1,0-0.1,0-0.2,0c1.1-0.4,2.1-0.9,2.9-1.4c0.8-0.6,1.5-1.2,2-1.9c1.1-1.4,1.6-2.9,1.9-4.6c0,0.1,0,0.2-0.1,0.4 c-0.2,1-0.4,2-0.7,2.9c-0.1,0.4-0.3,0.8-0.4,1.2c-0.3,1-0.5,1.9-0.6,2.9c-0.1,1.2-0.2,2.3-0.1,3.5c0,0.2,0,0.5,0,0.7 c0,0.1,0,0.1,0,0.2c0,0.3,0,0.6,0,0.8C40.6,37,40.5,37.9,40.4,38.6z"/><path fill="#febbbb" d="M40.4,38.6h-0.8l-0.1-1.5c0-0.3-0.1-0.5-0.1-0.8c-0.1-0.6-0.3-1.2-0.7-1.6c-0.1-0.2-0.3-0.5-0.5-0.8 c-0.2-0.4-0.4-0.9-0.6-1.4c0,0,0-0.1,0-0.1c-0.1-0.4-0.4-0.8-0.7-1c-0.2-0.1-0.5-0.2-0.7-0.2c-0.2,0-0.3,0-0.5,0.1 c-0.1,0-0.1,0-0.2,0c1.1-0.4,2.1-0.9,2.9-1.4c0.8-0.5,1.4-1.2,2-1.8c1.1-1.3,1.6-2.9,1.9-4.5c0,0.1,0,0.3-0.1,0.4 c-0.2,1-0.4,2-0.7,2.9c-0.1,0.4-0.3,0.8-0.4,1.2c-0.3,0.9-0.4,1.9-0.6,2.9c-0.1,1.1-0.2,2.3-0.1,3.5c0,0.2,0,0.5,0,0.7 c0,0.1,0,0.1,0,0.2c0,0.3,0,0.6,0,0.8C40.6,36.9,40.5,37.8,40.4,38.6z"/><path fill="#ffbdbd" d="M41.5,26.8c-0.4,1.3-0.7,2.7-0.9,4.1s-0.2,2.8-0.1,4.2c0,0.4,0,0.7,0,1c0,0.8-0.1,1.8-0.2,2.5h-0.8V37 c0-0.9-0.3-1.8-0.8-2.5c-0.3-0.4-0.8-1.2-1.1-2.3c-0.1-0.4-0.4-0.8-0.7-1c-0.2-0.1-0.5-0.2-0.7-0.2c-0.2,0-0.3,0-0.5,0.1 c-0.1,0-0.1,0-0.2,0c1.1-0.4,2-0.9,2.8-1.4c0.8-0.5,1.4-1.1,2-1.8c1.1-1.3,1.6-2.9,1.9-4.5C42.1,24.6,41.8,25.8,41.5,26.8z"/></g><g><path fill="#ef9a9a" d="M12,31.8c0,1-0.1,2-0.2,3c-0.1,1-0.2,1.9-0.3,2.6C11.2,38.9,11,40,11,40h1.5H14c0,0,0.5-0.7,1.1-1.9 c0.3-0.6,0.6-1.3,1-2.1c0.3-0.8,0.6-1.7,0.9-2.7c-0.9-0.2-1.7-0.4-2.6-0.6S12.8,32.1,12,31.8z"/><path fill="#f09c9c" d="M12,31.7c0.8,0.3,1.6,0.6,2.4,0.8c0.4,0.1,0.7,0.2,1.1,0.3c0.4,0.1,0.8,0.2,1.2,0.3c0.1,0,0.2,0,0.2,0.1 c-0.3,0.9-0.6,1.7-0.8,2.4c0,0.1,0,0.1-0.1,0.2c-0.3,0.8-0.6,1.5-0.9,2.1c-0.6,1.2-1.1,1.9-1.1,1.9c0,0-1.4,0-1.5,0.1 c0,0-1.1,0-1.1,0h-0.3c0,0,0.2-1.1,0.5-2.6c0.1-0.8,0.2-1.6,0.3-2.6c0.1-0.6,0.1-1.3,0.1-2c0-0.1,0-0.3,0-0.4c0,0,0,0,0-0.1 c0,0,0-0.1,0-0.1C12,32.1,12,31.9,12,31.7z"/><path fill="#f19d9d" d="M12,31.6c0.8,0.3,1.6,0.6,2.4,0.8c0.4,0.1,0.7,0.2,1.1,0.3c0.4,0.1,0.8,0.2,1.2,0.3c0.1,0,0.1,0,0.2,0 c-0.3,0.8-0.6,1.6-0.9,2.4c0,0.1,0,0.1-0.1,0.2c-0.3,0.8-0.6,1.5-0.9,2.1c-0.6,1.1-1,1.8-1,1.9c0,0-1.4,0.1-1.4,0.1 c0,0-1.1,0.1-1.1,0.1h-0.3c0,0,0.2-1,0.5-2.5c0.1-0.7,0.2-1.6,0.3-2.5c0.1-0.7,0.1-1.4,0.1-2.1c0-0.1,0-0.3,0-0.4c0,0,0,0,0-0.1 c0,0,0-0.1,0-0.1C12.1,32,12.1,31.8,12,31.6z"/><path fill="#f19f9f" d="M12.1,31.6c0.8,0.3,1.6,0.6,2.4,0.8c0.4,0.1,0.7,0.2,1.1,0.3c0.4,0.1,0.8,0.2,1.2,0.3c0.1,0,0.1,0,0.2,0 c-0.3,0.8-0.6,1.6-0.9,2.3c0,0.1,0,0.1-0.1,0.2c-0.3,0.8-0.6,1.5-0.9,2.1c-0.5,1.1-1,1.8-1,1.9c0,0.1-1.3,0.1-1.4,0.2 c0,0.1-1.1,0.1-1.1,0.1h-0.3c0-0.1,0.2-1,0.5-2.4c0.1-0.7,0.2-1.6,0.3-2.5c0.1-0.7,0.1-1.4,0.1-2.2c0-0.1,0-0.3,0-0.4 c0,0,0,0,0-0.1c0,0,0-0.1,0-0.1C12.1,31.9,12.1,31.7,12.1,31.6z"/><path fill="#f2a1a1" d="M12.1,31.5c0.8,0.3,1.6,0.6,2.4,0.8c0.4,0.1,0.7,0.2,1.1,0.3c0.4,0.1,0.8,0.2,1.2,0.3c0.1,0,0.1,0,0.2,0 c-0.3,0.7-0.7,1.5-0.9,2.2c0,0.1,0,0.1-0.1,0.2c-0.3,0.8-0.6,1.5-0.9,2.1c-0.5,1.1-1,1.8-1,1.9c0,0.1-1.3,0.2-1.3,0.2 c0,0.1-1,0.1-1.1,0.2h-0.3c0-0.1,0.2-1,0.4-2.4c0.1-0.7,0.2-1.5,0.3-2.4c0.1-0.7,0.1-1.5,0.1-2.2c0-0.1,0-0.3,0-0.4c0,0,0,0,0-0.1 c0,0,0-0.1,0-0.1C12.2,31.9,12.2,31.7,12.1,31.5z"/><path fill="#f3a2a2" d="M12.1,31.4c0.8,0.3,1.5,0.6,2.4,0.8c0.4,0.1,0.7,0.2,1.1,0.3c0.4,0.1,0.8,0.2,1.2,0.3c0,0,0.1,0,0.1,0 c-0.3,0.7-0.7,1.4-1,2.2c0,0.1,0,0.1-0.1,0.2c-0.3,0.8-0.6,1.5-0.9,2c-0.5,1.1-0.9,1.7-1,1.8c-0.1,0.1-1.2,0.2-1.3,0.3 c0,0.1-1,0.2-1,0.2h-0.3c0-0.1,0.2-1,0.4-2.3c0.1-0.7,0.2-1.5,0.3-2.4c0.1-0.7,0.1-1.5,0.2-2.3c0-0.2,0-0.3,0-0.4c0,0,0,0,0-0.1 c0,0,0-0.1,0-0.1C12.3,31.8,12.2,31.6,12.1,31.4z"/><path fill="#f4a4a4" d="M12.2,31.4c0.8,0.3,1.5,0.6,2.3,0.8c0.4,0.1,0.7,0.2,1.1,0.3c0.4,0.1,0.8,0.2,1.2,0.3c0,0,0.1,0,0.1,0 c-0.4,0.6-0.7,1.4-1,2.1c0,0.1,0,0.1-0.1,0.2c-0.3,0.8-0.6,1.4-0.8,2c-0.5,1-0.9,1.7-1,1.8c-0.1,0.1-1.2,0.3-1.2,0.4 c-0.1,0.1-0.9,0.2-1,0.3h-0.3c0-0.1,0.2-1,0.4-2.3c0.1-0.7,0.2-1.5,0.3-2.3c0.1-0.8,0.1-1.6,0.2-2.4c0-0.2,0-0.3,0-0.5 c0,0,0,0,0-0.1c0,0,0-0.1,0-0.1C12.3,31.7,12.2,31.5,12.2,31.4z"/><path fill="#f4a6a6" d="M12.2,31.3c0.8,0.3,1.5,0.6,2.3,0.8c0.4,0.1,0.7,0.2,1.1,0.3c0.4,0.1,0.8,0.2,1.2,0.3c0,0,0.1,0,0.1,0 c-0.4,0.6-0.8,1.3-1,2c0,0.1,0,0.1-0.1,0.2c-0.3,0.7-0.5,1.4-0.8,2c-0.5,1-0.9,1.6-0.9,1.8c-0.1,0.2-1.1,0.3-1.2,0.4 c-0.1,0.1-0.9,0.2-1,0.3h-0.3c0-0.1,0.2-1,0.4-2.2c0.1-0.7,0.2-1.4,0.3-2.3c0.1-0.8,0.1-1.6,0.2-2.5c0-0.2,0-0.3,0-0.5 c0,0,0,0,0-0.1c0,0,0-0.1,0-0.1C12.4,31.7,12.3,31.5,12.2,31.3z"/><path fill="#f5a7a7" d="M12.2,31.2c0.8,0.3,1.5,0.6,2.3,0.8c0.4,0.1,0.7,0.2,1.1,0.3c0.4,0.1,0.8,0.2,1.2,0.3c0,0,0,0,0.1,0 c-0.4,0.6-0.8,1.2-1.1,2c0,0.1,0,0.1-0.1,0.2c-0.3,0.7-0.5,1.4-0.8,2c-0.4,1-0.8,1.6-0.9,1.8c-0.1,0.2-1.1,0.4-1.2,0.5 c-0.1,0.1-0.9,0.3-0.9,0.4h-0.3c0-0.2,0.2-1,0.4-2.2c0.1-0.7,0.2-1.4,0.3-2.2c0.1-0.8,0.1-1.7,0.2-2.6c0-0.2,0-0.3-0.1-0.5 c0,0,0,0,0-0.1c0,0,0-0.1,0-0.1C12.4,31.6,12.3,31.4,12.2,31.2z"/><path fill="#f6a9a9" d="M12.3,31.2c0.8,0.3,1.5,0.6,2.3,0.8c0.4,0.1,0.8,0.2,1.1,0.3c0.4,0.1,0.8,0.2,1.2,0.3c0,0,0,0,0,0 c-0.4,0.5-0.8,1.2-1.1,1.9c0,0.1,0,0.1-0.1,0.2c-0.3,0.7-0.5,1.4-0.8,1.9c-0.4,0.9-0.8,1.6-0.9,1.8c-0.1,0.2-1,0.4-1.1,0.6 c-0.1,0.2-0.8,0.3-0.9,0.4h-0.3c0-0.2,0.2-1,0.4-2.1c0.1-0.6,0.2-1.4,0.3-2.1c0.1-0.8,0.2-1.7,0.2-2.6c0-0.2,0-0.3-0.1-0.5 c0,0,0,0,0-0.1c0,0,0-0.1,0-0.1C12.5,31.5,12.4,31.4,12.3,31.2z"/><path fill="#f7abab" d="M12.3,31.1c0.7,0.3,1.5,0.6,2.3,0.8c0.4,0.1,0.8,0.2,1.1,0.3c0.4,0.1,0.8,0.2,1.2,0.3c0,0,0,0,0,0 c-0.4,0.5-0.9,1.1-1.1,1.8c0,0.1,0,0.1-0.1,0.2c-0.2,0.7-0.5,1.4-0.8,1.9c-0.4,0.9-0.8,1.5-0.9,1.7c-0.1,0.2-1,0.4-1.1,0.6 c-0.1,0.2-0.8,0.3-0.9,0.5h-0.3c0-0.2,0.2-1,0.4-2.1c0.1-0.6,0.2-1.3,0.3-2.1c0.1-0.9,0.2-1.8,0.2-2.7c0-0.2,0-0.4-0.1-0.5 c0,0,0,0,0-0.1c0,0,0-0.1,0-0.1C12.5,31.5,12.4,31.3,12.3,31.1z"/><path fill="#f7acac" d="M12.3,31.1c0.7,0.3,1.5,0.6,2.3,0.8c0.4,0.1,0.8,0.2,1.1,0.3c0.4,0.1,0.8,0.2,1.2,0.3c0,0,0,0,0,0 c-0.5,0.4-0.9,1.1-1.1,1.8c0,0.1,0,0.1-0.1,0.2c-0.2,0.7-0.5,1.3-0.7,1.9c-0.4,0.9-0.7,1.5-0.8,1.7c-0.1,0.3-0.9,0.5-1,0.7 c-0.1,0.2-0.8,0.4-0.8,0.5H12c0-0.2,0.2-1,0.4-2c0.1-0.6,0.2-1.3,0.3-2c0.1-0.9,0.2-1.8,0.2-2.8c0-0.2,0-0.4-0.1-0.5 c0,0,0-0.1,0-0.1c0,0,0-0.1,0-0.1C12.6,31.4,12.5,31.2,12.3,31.1z"/><path fill="#f8aeae" d="M12.3,31c0.7,0.3,1.5,0.6,2.3,0.8c0.4,0.1,0.8,0.2,1.1,0.3c0.4,0.1,0.8,0.2,1.2,0.3c0,0,0,0,0,0 c-0.5,0.4-1,1-1.2,1.7c0,0.1,0,0.1-0.1,0.2c-0.2,0.7-0.5,1.3-0.7,1.9c-0.4,0.8-0.7,1.4-0.8,1.7c-0.1,0.3-0.9,0.5-1,0.7 c-0.1,0.2-0.7,0.4-0.8,0.6h-0.3c0-0.2,0.2-1,0.3-2c0.1-0.6,0.2-1.3,0.3-2c0.1-0.9,0.2-1.9,0.2-2.9c0-0.2,0-0.4-0.1-0.5 c0,0,0-0.1,0-0.1c0,0,0-0.1,0-0.1C12.6,31.4,12.5,31.2,12.3,31z"/><path fill="#f9b0b0" d="M12.4,30.9c0.7,0.3,1.5,0.6,2.3,0.8c0.4,0.1,0.8,0.2,1.1,0.3c0.4,0.1,0.8,0.2,1.2,0.3c0,0,0,0-0.1,0 c-0.5,0.3-1,0.9-1.2,1.6c0,0.1,0,0.1-0.1,0.2c-0.2,0.7-0.5,1.3-0.7,1.9c-0.3,0.8-0.7,1.4-0.8,1.7c-0.1,0.3-0.8,0.6-1,0.8 c-0.1,0.2-0.7,0.4-0.8,0.6h-0.3c0-0.3,0.2-1,0.3-1.9c0.1-0.6,0.2-1.2,0.2-1.9c0.1-0.9,0.2-1.9,0.2-2.9c0-0.2,0-0.4-0.1-0.6 c0,0,0-0.1,0-0.1c0,0,0-0.1,0-0.1C12.7,31.3,12.5,31.1,12.4,30.9z"/><path fill="#fab1b1" d="M12.4,30.9c0.7,0.3,1.5,0.6,2.3,0.8c0.4,0.1,0.8,0.2,1.1,0.3c0.4,0.1,0.8,0.2,1.2,0.3c0,0-0.1,0-0.1,0 c-0.5,0.3-1,0.9-1.2,1.6c0,0.1,0,0.1-0.1,0.2c-0.2,0.7-0.4,1.3-0.7,1.8c-0.3,0.8-0.6,1.4-0.8,1.7c-0.1,0.3-0.8,0.6-0.9,0.9 c-0.1,0.3-0.6,0.5-0.7,0.6h-0.3c0.1-0.3,0.2-1,0.3-1.8c0.1-0.6,0.2-1.2,0.2-1.9c0.1-1,0.2-2,0.2-3c0-0.2,0-0.4-0.1-0.6 c0,0,0-0.1,0-0.1c0,0,0-0.1,0-0.1C12.7,31.2,12.6,31,12.4,30.9z"/><path fill="#fab3b3" d="M12.4,30.8c0.7,0.3,1.5,0.6,2.3,0.8c0.4,0.1,0.8,0.2,1.2,0.3c0.4,0.1,0.8,0.2,1.2,0.3c0,0-0.1,0-0.1,0 c-0.5,0.3-1.1,0.8-1.3,1.5c0,0.1,0,0.1-0.1,0.2c-0.2,0.7-0.4,1.3-0.7,1.8c-0.3,0.7-0.6,1.3-0.8,1.7c-0.2,0.3-0.7,0.7-0.9,0.9 c-0.1,0.3-0.6,0.5-0.7,0.7h-0.3c0.1-0.3,0.2-1,0.3-1.8c0.1-0.6,0.2-1.2,0.2-1.8c0.1-1,0.2-2,0.2-3.1c0-0.2,0-0.4-0.1-0.6 c0,0,0-0.1,0-0.1c0,0,0-0.1,0-0.1C12.8,31.2,12.6,31,12.4,30.8z"/><path fill="#fbb5b5" d="M12.5,30.7c0.7,0.3,1.5,0.6,2.3,0.8c0.4,0.1,0.8,0.2,1.2,0.3c0.4,0.1,0.8,0.2,1.2,0.3c0,0-0.1,0-0.1,0 c-0.6,0.2-1.1,0.8-1.3,1.4c0,0.1,0,0.1-0.1,0.2c-0.2,0.6-0.4,1.2-0.6,1.8c-0.3,0.7-0.6,1.3-0.7,1.6c-0.2,0.4-0.7,0.7-0.8,1 c-0.1,0.3-0.6,0.5-0.7,0.7h-0.3c0.1-0.3,0.2-1,0.3-1.7c0.1-0.5,0.2-1.1,0.2-1.8c0.1-1,0.2-2.1,0.2-3.2c0-0.2,0-0.4-0.1-0.6 c0,0,0-0.1,0-0.1c0,0,0-0.1,0-0.1C12.8,31.1,12.7,30.9,12.5,30.7z"/><path fill="#fcb6b6" d="M12.5,30.7c0.7,0.3,1.5,0.5,2.3,0.8c0.4,0.1,0.8,0.2,1.2,0.3c0.4,0.1,0.8,0.2,1.2,0.3c-0.1,0-0.1,0-0.2,0 c-0.6,0.2-1.1,0.7-1.3,1.4c0,0.1,0,0.1,0,0.2c-0.2,0.6-0.4,1.2-0.6,1.8c-0.3,0.7-0.5,1.2-0.7,1.6c-0.2,0.4-0.6,0.7-0.8,1.1 c-0.2,0.3-0.5,0.6-0.6,0.8h-0.3c0.1-0.3,0.2-0.9,0.3-1.7c0.1-0.5,0.2-1.1,0.2-1.7c0.1-1,0.2-2.1,0.2-3.3c0-0.2,0-0.4-0.1-0.6 c0,0,0-0.1,0-0.1c0,0,0-0.1,0-0.1C12.9,31,12.7,30.8,12.5,30.7z"/><path fill="#fdb8b8" d="M12.5,30.6c0.7,0.3,1.5,0.5,2.3,0.8c0.4,0.1,0.8,0.2,1.2,0.3c0.4,0.1,0.8,0.2,1.2,0.3c-0.1,0-0.1,0-0.2,0 c-0.6,0.1-1.2,0.6-1.4,1.3c0,0.1,0,0.1,0,0.2c-0.2,0.6-0.4,1.2-0.6,1.8c-0.3,0.6-0.5,1.2-0.7,1.6c-0.2,0.4-0.6,0.8-0.7,1.1 c-0.2,0.3-0.5,0.6-0.6,0.8h-0.3c0.1-0.4,0.2-0.9,0.3-1.6c0.1-0.5,0.2-1.1,0.2-1.6c0.1-1,0.2-2.2,0.2-3.3c0-0.2,0-0.4-0.1-0.6 c0,0,0-0.1,0-0.1c0,0-0.1-0.1-0.1-0.1C12.9,31,12.8,30.8,12.5,30.6z"/><path fill="#fdbaba" d="M12.6,30.5c0.7,0.3,1.5,0.5,2.2,0.8c0.4,0.1,0.8,0.2,1.2,0.3c0.4,0.1,0.8,0.2,1.2,0.3c-0.1,0-0.1,0-0.2,0 c-0.6,0.1-1.2,0.6-1.4,1.3c0,0.1,0,0.1,0,0.2c-0.2,0.6-0.4,1.2-0.6,1.7c-0.2,0.6-0.5,1.2-0.7,1.6c-0.2,0.4-0.5,0.8-0.7,1.2 c-0.2,0.3-0.5,0.6-0.6,0.9h-0.3c0.1-0.4,0.2-0.9,0.3-1.6c0.1-0.5,0.1-1,0.2-1.6c0.1-1.1,0.2-2.2,0.2-3.4c0-0.2,0-0.4-0.1-0.6 c0,0,0-0.1,0-0.1c0,0-0.1-0.1-0.1-0.1C13,30.9,12.8,30.7,12.6,30.5z"/><path fill="#febbbb" d="M12.6,30.5c0.7,0.3,1.5,0.5,2.2,0.8c0.4,0.1,0.8,0.2,1.2,0.3c0.4,0.1,0.8,0.2,1.2,0.3c-0.1,0-0.2,0-0.3,0 c-0.6,0-1.2,0.5-1.4,1.2c0,0.1,0,0.1,0,0.2c-0.2,0.6-0.4,1.2-0.6,1.7c-0.2,0.6-0.4,1.1-0.6,1.6c-0.2,0.5-0.5,0.9-0.7,1.2 c-0.2,0.4-0.4,0.7-0.6,0.9h-0.3c0.1-0.4,0.2-0.9,0.3-1.5c0.1-0.5,0.1-1,0.2-1.5c0.1-1.1,0.2-2.3,0.2-3.5c0-0.2,0-0.5-0.2-0.7 c0,0,0-0.1,0-0.1c0,0-0.1-0.1-0.1-0.1C13.1,30.9,12.8,30.6,12.6,30.5z"/><path fill="#ffbdbd" d="M12.6,30.4c0.7,0.3,1.5,0.5,2.2,0.8c0.4,0.1,0.8,0.2,1.2,0.3s0.8,0.2,1.2,0.3c-0.1,0-0.2,0-0.3,0 c-0.7,0-1.3,0.5-1.5,1.1c-0.3,1.3-0.8,2.4-1.2,3.4s-0.8,1.8-1.1,2.3h-0.3c0.1-0.8,0.3-1.8,0.4-2.9s0.2-2.3,0.2-3.6 c0-0.2,0-0.5-0.2-0.7c0,0,0-0.1,0-0.1l-0.1-0.1C13.1,30.8,12.9,30.6,12.6,30.4z"/></g><radialGradient id="mGzFPg8zgV0ZQn0A_DowQd" cx="28.489" cy="20.086" r="19.183" gradientTransform="matrix(1 0 0 .6468 0 7.095)" gradientUnits="userSpaceOnUse"><stop offset="0" stop-color="#ffcdd2"/><stop offset=".447" stop-color="#ffcacf" stop-opacity=".553"/><stop offset=".839" stop-color="#ffc2c4" stop-opacity=".161"/><stop offset="1" stop-color="#ffbdbd" stop-opacity="0"/></radialGradient><path fill="url(#mGzFPg8zgV0ZQn0A_DowQd)" d="M42.9,19.6c0,0,0,0.6,0,0.8c0,1.9-0.2,2.2-0.3,2.7c-0.6,3.3-2.3,6.1-6.7,7.7c-2.5,0.9-5.7,1.3-9.5,1.3	c-3.4,0-6.2-0.3-8.8-0.8c0,0-3.2-0.8-4.6-1.4c-0.1,0-0.1-0.1-0.2-0.1c-0.9-0.4-1.6-0.7-2.3-1c-0.9-0.5-1.7-1-2.5-1.5	c-1.3-0.9-2.6-1.7-4.1-2.1h-2v-3.4h2c1.8-0.7,3-2.5,4.3-4.5c2.6-4.1,5.9-9.3,16.9-9.3h0.6C29.7,8.2,42.9,9,42.9,19.6z"/><radialGradient id="mGzFPg8zgV0ZQn0A_DowQe" cx=".922" cy="23.981" r="1.055" fx=".07" fy="23.983" gradientTransform="matrix(1 0 0 3.5529 0 -61.22)" gradientUnits="userSpaceOnUse"><stop offset=".151" stop-color="#e57373"/><stop offset=".745" stop-color="#ef9a9a"/><stop offset="1" stop-color="#e57373"/></radialGradient><path fill="url(#mGzFPg8zgV0ZQn0A_DowQe)" d="M1,27c0.6,0,1-1.3,1-3c0-1.7-0.4-3-1-3s-1,1.3-1,3C0,25.7,0.4,27,1,27z"/><radialGradient id="mGzFPg8zgV0ZQn0A_DowQf" cx="12.62" cy="15.661" r="11.342" fx="12.694" fy="15.574" gradientUnits="userSpaceOnUse"><stop offset=".475" stop-color="#ffbdbd"/><stop offset=".866" stop-color="#ef9a9a"/></radialGradient><path fill="url(#mGzFPg8zgV0ZQn0A_DowQf)" d="M10.3,14c0,0,2.5,2.2,4.7,3c0,0,1-1.4,1-2.4c0,0,0.5,0.4,1,0.4c0.8,0,2-0.8,2-2.5c0-6-2.7-8.5-3-8.5	c-0.2,0-0.4,0.5-0.6,0.7C14,6.3,12.4,7.5,12,9c-0.3,1.2,0,3,0,3S11.2,12.6,10.3,14z"/><radialGradient id="mGzFPg8zgV0ZQn0A_DowQg" cx="16.521" cy="10.397" r="5.052" fx="11.688" fy="10.409" gradientTransform="matrix(.6973 -.7168 .9291 .9038 -4.659 12.842)" gradientUnits="userSpaceOnUse"><stop offset=".027" stop-color="#300b0b"/><stop offset=".434" stop-color="#af4646"/><stop offset=".462" stop-color="#b54f4f"/><stop offset=".613" stop-color="#d57e7e"/><stop offset=".747" stop-color="#eca1a1"/><stop offset=".857" stop-color="#fab5b5"/><stop offset=".93" stop-color="#ffbdbd"/></radialGradient><path fill="url(#mGzFPg8zgV0ZQn0A_DowQg)" d="M13.5,13.8c0.1,0.6,1.5,0.2,2.5,0.8c0,0,0.5,0.4,1,0.4c0.8,0,1.6-0.8,1.6-2.5c0-6-2.3-7.5-2.6-7.5	c-0.2,0-0.4,0.5-0.6,0.7C14,7.3,13.4,7.5,13,9C12.3,11.7,13.4,13,13.5,13.8z"/><linearGradient id="mGzFPg8zgV0ZQn0A_DowQh" x1="11.242" x2="15.032" y1="38.211" y2="39.846" gradientUnits="userSpaceOnUse"><stop offset=".037" stop-color="#e57373"/><stop offset=".28" stop-color="#ef9a9a"/><stop offset=".837" stop-color="#e57373"/></linearGradient><path fill="url(#mGzFPg8zgV0ZQn0A_DowQh)" d="M11.4,38c-0.2,1.2-0.4,2-0.4,2h3c0,0,0.5-0.8,1.1-2C14,38,13,38,11.4,38z"/><linearGradient id="mGzFPg8zgV0ZQn0A_DowQi" x1="-1.273" x2="1.972" y1="-40.963" y2="-40.963" gradientTransform="rotate(-17.955 258.82 -64.61)" gradientUnits="userSpaceOnUse"><stop offset=".027" stop-color="#af4646"/><stop offset=".274" stop-color="#e57373"/><stop offset="1" stop-color="#af4646"/></linearGradient><path fill="url(#mGzFPg8zgV0ZQn0A_DowQi)" d="M21.5,36.1c-1,0.3-2.1,0.7-3.1,1L19,39l3-1C22,38,22,38,21.5,36.1z"/><linearGradient id="mGzFPg8zgV0ZQn0A_DowQj" x1="38.06" x2="42.621" y1="38.899" y2="39.131" gradientUnits="userSpaceOnUse"><stop offset="0" stop-color="#e57373"/><stop offset=".317" stop-color="#ef9a9a"/><stop offset=".825" stop-color="#e57373"/></linearGradient><path fill="url(#mGzFPg8zgV0ZQn0A_DowQj)" d="M38,38v2h3.6c0.1-0.4,0.2-1.2,0.3-2C40.8,38,39.5,38,38,38z"/><radialGradient id="mGzFPg8zgV0ZQn0A_DowQk" cx="671.591" cy="33.519" r="2.336" gradientTransform="matrix(-.7146 -.5943 -.7609 .7231 516.11 392.822)" gradientUnits="userSpaceOnUse"><stop offset=".22" stop-color="#ffcdd2"/><stop offset=".671" stop-color="#ffcbd0" stop-opacity=".422"/><stop offset=".863" stop-color="#ffc6c9" stop-opacity=".176"/><stop offset="1" stop-color="#ffbdbd" stop-opacity="0"/></radialGradient><path fill="url(#mGzFPg8zgV0ZQn0A_DowQk)" d="M9.6,17.5c0,0-0.1-1.1,0.1-1.4c0.3-0.2,1.7-0.1,2,0c1.2,0.4,1.5,1.5,1.2,2.3c0,0-1,1.6-3.3,1.6	C8.3,20,9.6,17.5,9.6,17.5z"/><circle cx="10.5" cy="17.7" r=".7" fill="#212121"/></svg>