<svg xmlns="http://www.w3.org/2000/svg" xmlns:xlink="http://www.w3.org/1999/xlink" viewBox="0 0 48 48" width="96px" height="96px"><defs><linearGradient id="mrvLyhe0~PYcV3zkFykBGh" x1="26.114" x2="24.334" y1="3.816" y2="13.137" data-name="Безымянный градиент 406" gradientUnits="userSpaceOnUse"><stop offset="0" stop-color="#b2b797"/><stop offset=".257" stop-color="#8d9572"/><stop offset=".586" stop-color="#636f48"/><stop offset=".845" stop-color="#4a582e"/><stop offset="1" stop-color="#404f24"/></linearGradient><linearGradient id="mrvLyhe0~PYcV3zkFykBGi" x1="22.766" x2="23.186" y1="11.78" y2="5.354" data-name="Безымянный градиент 411" gradientTransform="matrix(-1 0 0 1 47.743 0)" gradientUnits="userSpaceOnUse"><stop offset=".188" stop-color="#404f24"/><stop offset=".354" stop-color="#4e5c32" stop-opacity=".878"/><stop offset=".633" stop-color="#737e58" stop-opacity=".55"/><stop offset=".989" stop-color="#b0b595" stop-opacity=".019"/><stop offset="1" stop-color="#b2b797" stop-opacity="0"/></linearGradient><radialGradient id="mrvLyhe0~PYcV3zkFykBGj" cx="37.859" cy="18.279" r="19.074" data-name="Безымянный градиент 293" gradientTransform="scale(-1 1) rotate(-3.96 8.528 717.164)" gradientUnits="userSpaceOnUse"><stop offset=".052" stop-color="#ff9843"/><stop offset="1" stop-color="#e23007" stop-opacity=".96"/></radialGradient><radialGradient id="mrvLyhe0~PYcV3zkFykBGa" cx="24.158" cy="3.462" r="18.777" data-name="Безымянный градиент 389" gradientTransform="scale(-1 1) rotate(-3.96 8.557 717.165)" gradientUnits="userSpaceOnUse"><stop offset=".037" stop-color="#681111"/><stop offset="1" stop-color="#f15a24" stop-opacity="0"/></radialGradient><radialGradient id="mrvLyhe0~PYcV3zkFykBGc" cx="23.694" cy="17.272" r="40.707" data-name="Безымянный градиент 305" gradientTransform="matrix(-1 0 0 1 47.743 0)" gradientUnits="userSpaceOnUse"><stop offset="0" stop-color="#f15a24" stop-opacity="0"/><stop offset=".132" stop-color="#e85422" stop-opacity=".076"/><stop offset=".355" stop-color="#d1421c" stop-opacity=".28"/><stop offset=".639" stop-color="#ab2712" stop-opacity=".613"/><stop offset=".923" stop-color="#7f0606"/></radialGradient><radialGradient id="mrvLyhe0~PYcV3zkFykBGk" cx="11.617" cy="17.026" r="29.834" data-name="Безымянный градиент 295" gradientTransform="scale(-1 1) rotate(-86.5 -8.673 51.154)" gradientUnits="userSpaceOnUse"><stop offset=".052" stop-color="#ffa33e"/><stop offset=".875" stop-color="#e23007" stop-opacity=".96"/></radialGradient><radialGradient id="mrvLyhe0~PYcV3zkFykBGl" cx="30.751" cy="8.671" r="25.035" gradientTransform="scale(-1 1) rotate(-86.5 -8.673 51.154)" xlink:href="#mrvLyhe0~PYcV3zkFykBGa"/><linearGradient id="mrvLyhe0~PYcV3zkFykBGm" x1="24.45" x2="1.769" y1="31.717" y2="17.146" data-name="Безымянный градиент 296" gradientTransform="scale(-1 1) rotate(-86.5 -8.673 51.154)" gradientUnits="userSpaceOnUse"><stop offset=".142" stop-color="#681111"/><stop offset="1" stop-color="#f15a24" stop-opacity="0"/></linearGradient><linearGradient id="mrvLyhe0~PYcV3zkFykBGb" x1="26.562" x2="48.123" y1="28.57" y2="18.548" data-name="Безымянный градиент 269" gradientTransform="scale(-1 1) rotate(-3.96 8.528 717.164)" gradientUnits="userSpaceOnUse"><stop offset="0" stop-color="#681111"/><stop offset="1" stop-color="#f15a24" stop-opacity="0"/></linearGradient><radialGradient id="mrvLyhe0~PYcV3zkFykBGn" cx="15.887" cy="16.07" r="20.975" data-name="Безымянный градиент 294" gradientTransform="matrix(-1 0 0 1 47.743 0)" gradientUnits="userSpaceOnUse"><stop offset=".052" stop-color="#ffa73e"/><stop offset="1" stop-color="#f24c19" stop-opacity=".96"/></radialGradient><linearGradient id="mrvLyhe0~PYcV3zkFykBGo" x1="27.704" x2="8.385" y1="29.849" y2="21.145" data-name="Безымянный градиент 275" gradientTransform="matrix(-1 0 0 1 47.743 0)" xlink:href="#mrvLyhe0~PYcV3zkFykBGa"/><radialGradient id="mrvLyhe0~PYcV3zkFykBGp" cx="32.716" cy="19.07" r="16.699" data-name="Безымянный градиент 290" gradientTransform="matrix(-1 0 0 1 47.743 0)" gradientUnits="userSpaceOnUse"><stop offset=".052" stop-color="#ffa943"/><stop offset="1" stop-color="#f24c19" stop-opacity=".96"/></radialGradient><radialGradient id="mrvLyhe0~PYcV3zkFykBGq" cx="22.246" cy="6.957" r="13.36" gradientTransform="matrix(-1 0 0 1 47.743 0)" xlink:href="#mrvLyhe0~PYcV3zkFykBGa"/><linearGradient id="mrvLyhe0~PYcV3zkFykBGr" x1="20.871" x2="41.029" y1="33.822" y2="15.444" gradientTransform="matrix(-1 0 0 1 47.743 0)" xlink:href="#mrvLyhe0~PYcV3zkFykBGb"/><linearGradient id="mrvLyhe0~PYcV3zkFykBGs" x1="24.947" x2="24.288" y1="44.839" y2="21.894" data-name="Безымянный градиент 272" gradientTransform="matrix(-1 0 0 1 47.743 0)" gradientUnits="userSpaceOnUse"><stop offset=".077" stop-color="#7f0606"/><stop offset=".361" stop-color="#ab2712" stop-opacity=".613"/><stop offset=".645" stop-color="#d1421c" stop-opacity=".28"/><stop offset=".868" stop-color="#e85422" stop-opacity=".076"/><stop offset="1" stop-color="#f15a24" stop-opacity="0"/></linearGradient><radialGradient id="mrvLyhe0~PYcV3zkFykBGt" cx="23.667" cy="17.294" r="40.707" xlink:href="#mrvLyhe0~PYcV3zkFykBGc"/><radialGradient id="mrvLyhe0~PYcV3zkFykBGu" cx="30.422" cy="11.77" r="16.758" gradientTransform="matrix(-1 0 0 1 47.743 0)" xlink:href="#mrvLyhe0~PYcV3zkFykBGa"/><radialGradient id="mrvLyhe0~PYcV3zkFykBGv" cx="24.507" cy="19.037" r="18.989" data-name="Безымянный градиент 287" gradientTransform="matrix(-1 0 0 1 47.743 0)" gradientUnits="userSpaceOnUse"><stop offset="0" stop-color="#fbb03b"/><stop offset="1" stop-color="#f15a24" stop-opacity=".96"/></radialGradient><radialGradient id="mrvLyhe0~PYcV3zkFykBGw" cx="24.356" cy="22.253" r="26.835" data-name="Безымянный градиент 390" gradientTransform="matrix(.002 1 .607 -.001 9.822 -2.069)" gradientUnits="userSpaceOnUse"><stop offset="0" stop-color="#f15a24" stop-opacity="0"/><stop offset=".963" stop-color="#681111"/></radialGradient><radialGradient id="mrvLyhe0~PYcV3zkFykBGx" cx="24.322" cy="17.336" r="11.551" data-name="Безымянный градиент 400" gradientTransform="matrix(-1 0 0 1 47.743 0)" gradientUnits="userSpaceOnUse"><stop offset=".015" stop-color="#ffbb69"/><stop offset=".073" stop-color="#ffb763" stop-opacity=".852"/><stop offset=".201" stop-color="#ffae52" stop-opacity=".475"/><stop offset=".354" stop-color="#ffa33e" stop-opacity="0"/></radialGradient><radialGradient id="mrvLyhe0~PYcV3zkFykBGd" cx="33.455" cy="7.023" r="22.582" data-name="Безымянный градиент 402" gradientTransform="matrix(-1 0 0 1 47.743 0)" gradientUnits="userSpaceOnUse"><stop offset="0" stop-color="#ffa13b"/><stop offset=".06" stop-color="#ffa13b" stop-opacity=".852"/><stop offset=".195" stop-color="#ffa23d" stop-opacity=".475"/><stop offset=".354" stop-color="#ffa33e" stop-opacity="0"/></radialGradient><radialGradient id="mrvLyhe0~PYcV3zkFykBGy" cx="14.705" cy="11.086" r="11.949" xlink:href="#mrvLyhe0~PYcV3zkFykBGd"/><radialGradient id="mrvLyhe0~PYcV3zkFykBGe" cx="23.8" cy="24.538" r="5.83" data-name="Безымянный градиент 352" gradientTransform="matrix(-1 0 0 1 47.743 0)" gradientUnits="userSpaceOnUse"><stop offset=".053" stop-color="#fff"/><stop offset=".104" stop-color="#ffe"/><stop offset=".36" stop-color="#ffff9a"/><stop offset=".586" stop-color="#ffff58"/><stop offset=".775" stop-color="#ffff28"/><stop offset=".918" stop-color="#ffff0b"/><stop offset="1" stop-color="#ff0"/></radialGradient><linearGradient id="mrvLyhe0~PYcV3zkFykBGf" x1="23.664" x2="20.301" y1="24.488" y2="22.972" data-name="Безымянный градиент 388" gradientTransform="matrix(-1 0 0 1 47.743 0)" gradientUnits="userSpaceOnUse"><stop offset=".035" stop-color="#fcee21"/><stop offset=".337" stop-color="#fbb03b"/><stop offset=".723" stop-color="#c4370c"/><stop offset="1" stop-color="#5f0000"/></linearGradient><radialGradient id="mrvLyhe0~PYcV3zkFykBGz" cx="23.732" cy="28.343" r="13.254" data-name="Безымянный градиент 349" gradientTransform="matrix(-1 0 0 1 47.743 0)" gradientUnits="userSpaceOnUse"><stop offset="0" stop-color="#fff"/><stop offset=".054" stop-color="#ffe"/><stop offset=".324" stop-color="#ffff9a"/><stop offset=".563" stop-color="#ffff58"/><stop offset=".762" stop-color="#ffff28"/><stop offset=".914" stop-color="#ffff0b"/><stop offset="1" stop-color="#ff0"/></radialGradient><radialGradient id="mrvLyhe0~PYcV3zkFykBGA" cx="20.615" cy="19.547" r="9.267" xlink:href="#mrvLyhe0~PYcV3zkFykBGe"/><linearGradient id="mrvLyhe0~PYcV3zkFykBGB" x1="17.426" x2="11.391" y1="25.089" y2="15.363" xlink:href="#mrvLyhe0~PYcV3zkFykBGf"/><radialGradient id="mrvLyhe0~PYcV3zkFykBGC" cx="24.188" cy="24.093" r="6.216" xlink:href="#mrvLyhe0~PYcV3zkFykBGe"/><linearGradient id="mrvLyhe0~PYcV3zkFykBGD" x1="23.889" x2="28.183" y1="25.043" y2="22.163" xlink:href="#mrvLyhe0~PYcV3zkFykBGf"/><radialGradient id="mrvLyhe0~PYcV3zkFykBGE" cx="26.45" cy="19.201" r="12.275" data-name="Безымянный градиент 357" gradientTransform="matrix(-1 0 0 1 47.743 0)" gradientUnits="userSpaceOnUse"><stop offset=".053" stop-color="#fff"/><stop offset=".291" stop-color="#fefaba"/><stop offset=".539" stop-color="#fdf579"/><stop offset=".749" stop-color="#fdf149"/><stop offset=".909" stop-color="#fcef2c"/><stop offset="1" stop-color="#fcee21"/></radialGradient><linearGradient id="mrvLyhe0~PYcV3zkFykBGF" x1="29.848" x2="37.007" y1="24.748" y2="15.401" xlink:href="#mrvLyhe0~PYcV3zkFykBGf"/><linearGradient id="mrvLyhe0~PYcV3zkFykBGG" x1="14.848" x2="5.106" y1="35.613" y2="23.399" xlink:href="#mrvLyhe0~PYcV3zkFykBGf"/><linearGradient id="mrvLyhe0~PYcV3zkFykBGg" x1="19.214" x2="9.983" y1="29.206" y2="35.206" data-name="Безымянный градиент 377" gradientTransform="matrix(-1 0 0 1 47.743 0)" gradientUnits="userSpaceOnUse"><stop offset=".035" stop-color="#fcee21"/><stop offset=".337" stop-color="#fbb03b"/><stop offset=".38" stop-color="#f1a437"/><stop offset="1" stop-color="#5f0000"/></linearGradient><linearGradient id="mrvLyhe0~PYcV3zkFykBGH" x1="21.31" x2="18.969" y1="30.387" y2="38.205" xlink:href="#mrvLyhe0~PYcV3zkFykBGg"/><linearGradient id="mrvLyhe0~PYcV3zkFykBGI" x1="24.811" x2="29.261" y1="30.999" y2="36.488" xlink:href="#mrvLyhe0~PYcV3zkFykBGg"/><linearGradient id="mrvLyhe0~PYcV3zkFykBGJ" x1="29.494" x2="33.416" y1="31.113" y2="33.992" xlink:href="#mrvLyhe0~PYcV3zkFykBGg"/><linearGradient id="mrvLyhe0~PYcV3zkFykBGK" x1="32.983" x2="37.533" y1="30.742" y2="32.126" xlink:href="#mrvLyhe0~PYcV3zkFykBGg"/><linearGradient id="mrvLyhe0~PYcV3zkFykBGL" x1="35.015" x2="41.147" y1="34.542" y2="23.366" xlink:href="#mrvLyhe0~PYcV3zkFykBGf"/><linearGradient id="mrvLyhe0~PYcV3zkFykBGM" x1="34.96" x2="36.146" y1="28.133" y2="26.748" xlink:href="#mrvLyhe0~PYcV3zkFykBGf"/><linearGradient id="mrvLyhe0~PYcV3zkFykBGN" x1="29.88" x2="32.023" y1="29.236" y2="27.621" xlink:href="#mrvLyhe0~PYcV3zkFykBGf"/><linearGradient id="mrvLyhe0~PYcV3zkFykBGO" x1="23.372" x2="25.902" y1="29.904" y2="27.175" xlink:href="#mrvLyhe0~PYcV3zkFykBGf"/><linearGradient id="mrvLyhe0~PYcV3zkFykBGP" x1="19.047" x2="18.008" y1="30.32" y2="26.858" xlink:href="#mrvLyhe0~PYcV3zkFykBGf"/><linearGradient id="mrvLyhe0~PYcV3zkFykBGQ" x1="15.684" x2="12.42" y1="30.16" y2="27.523" xlink:href="#mrvLyhe0~PYcV3zkFykBGf"/></defs><path fill="url(#mrvLyhe0~PYcV3zkFykBGh)" d="M28.072,5.077a.3.3,0,0,1,.051.152.57.57,0,0,1,.292.217.528.528,0,0,1,.087.217.6.6,0,0,1-.323.546.606.606,0,0,1,.385.186.481.481,0,0,1,.143.341.5.5,0,0,1-.242.373.559.559,0,0,1-.257.526.616.616,0,0,1-.445-.048c-.131-.064-.187-.146-.328-.159a.454.454,0,0,0-.183.025h0a2.394,2.394,0,0,0-1.665.69c-.941.811-.851,3.281.528,5.961l-5.019.421a14.6,14.6,0,0,1,1.433-5.887A6.5,6.5,0,0,1,24.1,6.412C25.538,5.194,27.72,4.577,28.072,5.077Z"/><path fill="url(#mrvLyhe0~PYcV3zkFykBGi)" d="M28.072,5.077a.3.3,0,0,1,.051.152.57.57,0,0,1,.292.217.528.528,0,0,1,.087.217.6.6,0,0,1-.323.546.606.606,0,0,1,.385.186.481.481,0,0,1,.143.341.5.5,0,0,1-.242.373.559.559,0,0,1-.257.526.616.616,0,0,1-.445-.048c-.131-.064-.187-.146-.328-.159a.454.454,0,0,0-.183.025h0a2.394,2.394,0,0,0-1.665.69c-.941.811-.851,3.281.528,5.961l-5.019.421a14.6,14.6,0,0,1,1.433-5.887A6.5,6.5,0,0,1,24.1,6.412C25.538,5.194,27.72,4.577,28.072,5.077Z"/><ellipse cx="15.507" cy="25.933" fill="url(#mrvLyhe0~PYcV3zkFykBGj)" rx="10.879" ry="14.472" transform="rotate(-3.96 15.593 26.06)"/><ellipse cx="15.484" cy="25.933" fill="url(#mrvLyhe0~PYcV3zkFykBGa)" rx="10.879" ry="14.472" transform="rotate(-3.976 15.483 25.935)"/><path fill="url(#mrvLyhe0~PYcV3zkFykBGc)" d="M14.473,11.474a8.352,8.352,0,0,1,1.371.031,5.956,5.956,0,0,1,2.319-.5,4.337,4.337,0,0,1,2.693,1.031,4.48,4.48,0,0,1,2.434-.766,4.631,4.631,0,0,1,2.766,1,4.529,4.529,0,0,1,2.986-1.27,5.938,5.938,0,0,1,2.2.445A8.341,8.341,0,0,1,33.4,11.3c6,.365,10.466,7.127,9.981,15.1S37.64,40.557,31.643,40.192a8.161,8.161,0,0,1-.929-.119,10.571,10.571,0,0,1-1.672.739,12.976,12.976,0,0,1-3.959.634,4.26,4.26,0,0,1-1.793.421,4.413,4.413,0,0,1-2.265-.658,11.352,11.352,0,0,1-2.862-.4A9.58,9.58,0,0,1,16.81,40.3c-.111.012-.218.037-.33.045-5.994.417-11.3-5.709-11.857-13.683S8.479,11.891,14.473,11.474Z"/><ellipse cx="32.551" cy="25.769" fill="url(#mrvLyhe0~PYcV3zkFykBGk)" rx="14.472" ry="10.879" transform="rotate(-86.524 32.551 25.769)"/><ellipse cx="32.551" cy="25.769" fill="url(#mrvLyhe0~PYcV3zkFykBGl)" rx="14.472" ry="10.879" transform="rotate(-86.524 32.551 25.769)"/><ellipse cx="32.551" cy="25.769" fill="url(#mrvLyhe0~PYcV3zkFykBGm)" rx="14.472" ry="10.879" transform="rotate(-86.524 32.551 25.769)"/><ellipse cx="15.507" cy="25.933" fill="url(#mrvLyhe0~PYcV3zkFykBGb)" rx="10.879" ry="14.472" transform="rotate(-3.96 15.593 26.06)"/><path fill="url(#mrvLyhe0~PYcV3zkFykBGn)" d="M19.859,25.933c-1.029,4.131-2.75,11.035.9,14.113,2.963,2.5,7.706.991,8.315.788,5.955-1.983,9.215-9.016,9.215-14.9,0-8.229-4.126-14.9-9.215-14.9C23.534,11.032,20.52,23.282,19.859,25.933Z"/><path fill="url(#mrvLyhe0~PYcV3zkFykBGo)" d="M19.859,25.933c-1.029,4.131-2.75,11.035.9,14.113,2.963,2.5,7.706.991,8.315.788,5.955-1.983,9.215-9.016,9.215-14.9,0-8.229-4.126-14.9-9.215-14.9C23.534,11.032,20.52,23.282,19.859,25.933Z"/><path fill="url(#mrvLyhe0~PYcV3zkFykBGp)" d="M8.98,25.933c0,5.832,3.173,13.194,9.214,14.9,2.424.685,6.229.72,8.564-1.563,3.238-3.166,1.767-8.947.65-13.338-.75-2.948-3.752-14.9-9.214-14.9C13.105,11.032,8.98,17.7,8.98,25.933Z"/><path fill="url(#mrvLyhe0~PYcV3zkFykBGq)" d="M8.956,25.933c0,5.832,3.173,13.194,9.215,14.9,2.423.685,6.229.72,8.564-1.563,3.238-3.166,1.767-8.947.65-13.338-.75-2.948-3.752-14.9-9.214-14.9C13.082,11.032,8.956,17.7,8.956,25.933Z"/><path fill="url(#mrvLyhe0~PYcV3zkFykBGr)" d="M8.98,25.933c0,5.832,3.173,13.194,9.214,14.9,2.424.685,6.229.72,8.564-1.563,3.238-3.166,1.767-8.947.65-13.338-.75-2.948-3.752-14.9-9.214-14.9C13.105,11.032,8.98,17.7,8.98,25.933Z"/><ellipse cx="23.32" cy="26.593" fill="url(#mrvLyhe0~PYcV3zkFykBGs)" rx="7.813" ry="15.296"/><path fill="url(#mrvLyhe0~PYcV3zkFykBGt)" d="M14.5,11.5a8.337,8.337,0,0,1,1.37.031,5.965,5.965,0,0,1,2.32-.495,4.339,4.339,0,0,1,2.693,1.031,4.488,4.488,0,0,1,2.433-.766,4.631,4.631,0,0,1,2.767,1,4.529,4.529,0,0,1,2.986-1.27,5.942,5.942,0,0,1,2.2.445,8.293,8.293,0,0,1,2.156-.153c6,.364,10.467,7.127,9.982,15.1S37.667,40.579,31.67,40.214a8.161,8.161,0,0,1-.929-.119,10.611,10.611,0,0,1-1.672.739,12.943,12.943,0,0,1-3.959.634,4.265,4.265,0,0,1-1.794.421,4.412,4.412,0,0,1-2.264-.658,11.306,11.306,0,0,1-2.862-.4,9.534,9.534,0,0,1-1.353-.509c-.111.012-.218.038-.33.045-5.994.417-11.3-5.709-11.857-13.682S8.506,11.913,14.5,11.5Z"/><path fill="url(#mrvLyhe0~PYcV3zkFykBGu)" d="M19.859,25.933c-1.029,4.131-2.75,11.035.9,14.113,2.963,2.5,7.706.991,8.315.788,5.955-1.983,9.215-9.016,9.215-14.9,0-8.229-4.126-14.9-9.215-14.9C23.534,11.032,20.52,23.282,19.859,25.933Z"/><ellipse cx="23.32" cy="26.593" fill="url(#mrvLyhe0~PYcV3zkFykBGv)" rx="7.813" ry="15.296"/><ellipse cx="23.32" cy="26.593" fill="url(#mrvLyhe0~PYcV3zkFykBGw)" rx="7.813" ry="15.296"/><ellipse cx="23.091" cy="19.396" fill="url(#mrvLyhe0~PYcV3zkFykBGx)" rx="4.549" ry="6.373"/><path fill="url(#mrvLyhe0~PYcV3zkFykBGd)" d="M13.057,14.088c-.8,1.848-.165,4.315.745,4.534.583.141.8-.754,3.561-4.1a5.163,5.163,0,0,0,1.119-2.442c.068-.443.1-.668-.031-.822C17.852,10.552,14.164,11.52,13.057,14.088Z"/><path fill="url(#mrvLyhe0~PYcV3zkFykBGy)" d="M33.671,13.207c1.126,1.669.962,4.209.109,4.594-.546.246-.929-.592-4.26-3.373a5.173,5.173,0,0,1-1.553-2.192c-.149-.423-.221-.638-.121-.814C28.3,10.621,32.108,10.889,33.671,13.207Z"/><path fill="url(#mrvLyhe0~PYcV3zkFykBGe)" d="M25.1,21.924a10.3,10.3,0,0,0-.107,1.52,2.336,2.336,0,0,0,.107.952c.292.668,1.2,1.2,1.681.923.439-.251.405-1.111.264-1.615A2.971,2.971,0,0,0,25.1,21.924Z"/><path fill="url(#mrvLyhe0~PYcV3zkFykBGf)" d="M25.705,24.722a.622.622,0,0,1-.33.08,1.3,1.3,0,0,0,.757.552.9.9,0,0,0,.653-.032c.442-.259.4-1.137.26-1.62a2.969,2.969,0,0,0-1.88-1.76,2.4,2.4,0,0,1,.81,1.17C26.115,23.612,26.145,24.472,25.705,24.722Z"/><path fill="url(#mrvLyhe0~PYcV3zkFykBGz)" d="M41.521,22.755a7.193,7.193,0,0,1-2.7,3.413,6.652,6.652,0,0,1-1.4.692l-.247,1.78-2.077.4-.049-1.83-1.83-.1v1.78l-3.462.594.149-2.473-2.077-.1-.148,2.72-3.462-.049-.346-2.869H22.383l-.3,2.819-4.055.1-.544-2.522H16.3l-.594,2.126-2.472-.741.1-1.632-1.385-.445L11.5,28.047,10.07,27.6l-.1-2.176a4.152,4.152,0,0,1-3.511-3.66,11.627,11.627,0,0,0,2.374,7.372,10.464,10.464,0,0,0,2.077,1.975l.269-1.193,1.214.8.1,1.582,1.236.841.2-1.533L16.2,32.1l.148,1.879,1.83.1.2-1.583,2.571.05.149,1.928,2.274.2L23.323,32.6l2.571.3.149,1.879,1.681.148.148-2.522,2.918-.049.148,2.027,2.473-.989V31.113l2.324-.891.3,1.237a7.769,7.769,0,0,0,3.274-1.939A8.629,8.629,0,0,0,41.521,22.755Z"/><path fill="url(#mrvLyhe0~PYcV3zkFykBGA)" d="M27.512,19.837c.389,3.178,2.316,5.4,4.319,5.538a3.94,3.94,0,0,0,2.606-.924c1.421-1.217,1.385-3.108,1.366-4.219a6.942,6.942,0,0,0-1.43-3.969,1.836,1.836,0,0,0-1.154-.725,1.726,1.726,0,0,0-1.1.278c-1.325.76-1.336,1.957-2.429,2.966A4.423,4.423,0,0,1,27.512,19.837Z"/><path fill="url(#mrvLyhe0~PYcV3zkFykBGB)" d="M31.085,25.236a3.423,3.423,0,0,0,.768.151,4.064,4.064,0,0,0,2.663-.935c1.455-1.218,1.424-3.119,1.4-4.245a6.871,6.871,0,0,0-1.464-3.984,1.888,1.888,0,0,0-1.188-.734,1.82,1.82,0,0,0-1.127.282l-.092.06a2.422,2.422,0,0,1,.43.392,6.876,6.876,0,0,1,1.465,3.984c.02,1.126.051,3.027-1.4,4.245A4.3,4.3,0,0,1,31.085,25.236Z"/><path fill="url(#mrvLyhe0~PYcV3zkFykBGC)" d="M22.611,21.915a10.3,10.3,0,0,1,.107,1.52,2.336,2.336,0,0,1-.107.952c-.292.668-1.2,1.2-1.681.923-.439-.251-.405-1.111-.264-1.615A2.967,2.967,0,0,1,22.611,21.915Z"/><path fill="url(#mrvLyhe0~PYcV3zkFykBGD)" d="M22.007,24.713a.709.709,0,0,0,.157.062.661.661,0,0,0,.226.018,1.278,1.278,0,0,1-.717.553.983.983,0,0,1-.746-.033c-.456-.28-.393-1.158-.26-1.62a2.969,2.969,0,0,1,1.88-1.76,2.4,2.4,0,0,0-.81,1.17C21.6,23.6,21.567,24.463,22.007,24.713Z"/><path fill="url(#mrvLyhe0~PYcV3zkFykBGE)" d="M20.159,19.838c-.389,3.178-2.316,5.4-4.319,5.538a3.939,3.939,0,0,1-2.606-.925c-1.421-1.216-1.385-3.107-1.366-4.218a6.947,6.947,0,0,1,1.43-3.97,1.845,1.845,0,0,1,1.154-.725,1.733,1.733,0,0,1,1.1.279c1.325.759,1.336,1.957,2.429,2.966A4.432,4.432,0,0,0,20.159,19.838Z"/><path fill="url(#mrvLyhe0~PYcV3zkFykBGF)" d="M16.586,25.228a3.4,3.4,0,0,1-.758.15,3.976,3.976,0,0,1-2.627-.934c-1.435-1.215-1.405-3.112-1.384-4.237a6.914,6.914,0,0,1,1.444-3.976,1.857,1.857,0,0,1,1.172-.733,1.776,1.776,0,0,1,1.112.281l.091.06a2.412,2.412,0,0,0-.425.392,6.914,6.914,0,0,0-1.444,3.976c-.021,1.125-.051,3.022,1.384,4.237A4.193,4.193,0,0,0,16.586,25.228Z"/><path fill="url(#mrvLyhe0~PYcV3zkFykBGG)" d="M35.84,30.706c.07.25.13.51.19.77a7.837,7.837,0,0,0,3.28-1.94,8.621,8.621,0,0,0,2.21-6.77A7.478,7.478,0,0,1,39.8,25.4a6.33,6.33,0,0,1-.99,2.86A6.413,6.413,0,0,1,35.84,30.706Z"/><path fill="url(#mrvLyhe0~PYcV3zkFykBGg)" d="M30.846,33.038q.028.407.06.813c.013.177.026.354.04.531q.606-.249,1.235-.494.651-.253,1.286-.488l-.006-2.278q.54-.219,1.093-.435.57-.224,1.132-.435c-.183-.059-.367-.121-.554-.185-.266-.092-.527-.185-.78-.279q-.442.142-.891.294-.489.166-.964.334.055.588.1,1.2c.024.348.045.69.061,1.027l-.89.259Z"/><path fill="url(#mrvLyhe0~PYcV3zkFykBGH)" d="M23.321,32.588c.408.075.838.144,1.289.2.431.057.847.1,1.245.132q.043.45.085.905.045.489.087.973l1.737.131.137-2.526c.461.005.935,0,1.421-.006.5-.01.994-.029,1.469-.054q-.146-.216-.3-.435c-.17-.241-.341-.471-.51-.692l-1.348.074-1.545.062-.012,1.51.014.817a3.034,3.034,0,0,0-.324-.025,3.243,3.243,0,0,0-.367.013c-.014-.189-.026-.384-.036-.582q-.027-.608-.017-1.164-.55-.033-1.113-.074c-.366-.027-.729-.056-1.087-.087-.142.162-.3.33-.473.5Q23.494,32.437,23.321,32.588Z"/><path fill="url(#mrvLyhe0~PYcV3zkFykBGI)" d="M18.378,32.508c.85.01,1.71.03,2.57.04.05.65.1,1.29.15,1.93.76.07,1.51.14,2.27.2,0-.116-.007-.233-.01-.35q-.009-.372-.011-.735l-.772-.061-.91-.085.044-.6.1-1.125-2.744-.173-.416.664Z"/><path fill="url(#mrvLyhe0~PYcV3zkFykBGJ)" d="M13.9,31.613c.764.17,1.527.33,2.29.5.04.62.09,1.25.141,1.88.612.03,1.225.06,1.837.1.013-.114.028-.231.045-.35.028-.188.058-.37.092-.545-.231-.038-.465-.076-.7-.112q-.293-.043-.579-.083l.079-1.788-1.185-.3L14.827,30.7a7.086,7.086,0,0,1-.5.538C14.181,31.377,14.04,31.5,13.9,31.613Z"/><path fill="url(#mrvLyhe0~PYcV3zkFykBGK)" d="M11.177,29.926c.41.26.81.53,1.22.79.03.53.06,1.06.1,1.59l1.23.84c.023-.179.047-.359.07-.54q.04-.325.08-.648a2.952,2.952,0,0,1-.692-.352l.086-.649.124-.841-.73-.383-.482-.3q-.341.155-.693.33C11.384,29.819,11.28,29.872,11.177,29.926Z"/><path fill="url(#mrvLyhe0~PYcV3zkFykBGL)" d="M6.46,21.766A11.277,11.277,0,0,0,8.8,29.175a10.082,10.082,0,0,0,2.109,1.941c.07-.33.15-.65.22-.97A7.2,7.2,0,0,1,9.36,27.8a9.036,9.036,0,0,1-.71-2.81,4.06,4.06,0,0,1-1.01-.74A4.231,4.231,0,0,1,6.46,21.766Z"/><path fill="url(#mrvLyhe0~PYcV3zkFykBGM)" d="M11.5,28.041c.36-.17.72-.34,1.08-.52.05-.28.1-.56.15-.85-.26-.09-.53-.17-.79-.26C11.793,26.951,11.653,27.5,11.5,28.041Z"/><path fill="url(#mrvLyhe0~PYcV3zkFykBGN)" d="M15.7,29.231c.49-.23.97-.46,1.46-.69l.03-1.44h-.9C16.1,27.811,15.9,28.521,15.7,29.231Z"/><path fill="url(#mrvLyhe0~PYcV3zkFykBGO)" d="M22.089,29.531c.123-.137.258-.278.406-.421.207-.2.411-.379.606-.536.023-.3.055-.613.1-.939s.093-.632.148-.924h-.986Z"/><path fill="url(#mrvLyhe0~PYcV3zkFykBGP)" d="M28.886,26.961v1.75c.29.26.59.51.88.77.05-.83.1-1.65.15-2.48C29.576,26.991,29.226,26.971,28.886,26.961Z"/><path fill="url(#mrvLyhe0~PYcV3zkFykBGQ)" d="M34.116,27.158c.02.32.05.65.07.97.31.3.61.61.92.91-.02-.61-.04-1.22-.05-1.83C34.746,27.188,34.426,27.178,34.116,27.158Z"/></svg>