<svg xmlns="http://www.w3.org/2000/svg"  viewBox="0 0 48 48" width="96px" height="96px"><radialGradient id="qbhiDLESd68adCB6n2Vsya" cx="27.462" cy="24" r="17.843" fx="27.367" fy="16.356" gradientTransform="rotate(1.146 23.98 23.96)" gradientUnits="userSpaceOnUse"><stop offset="0" stop-color="#ffe16e"/><stop offset=".629" stop-color="#ffd426"/><stop offset=".72" stop-color="#fdcd23"/><stop offset=".854" stop-color="#f8b919"/><stop offset="1" stop-color="#f09c0c"/></radialGradient><path fill="url(#qbhiDLESd68adCB6n2Vsya)" d="M45.3,24.417c-0.193,9.852-8.336,17.683-18.189,17.49c-10.473-0.205-12.43-4.21-15.317-9.907 c-1.277-2.52-2.232-5.26-2.173-8.282c0.193-9.852,8.336-17.683,18.189-17.49S45.493,14.565,45.3,24.417z"/><radialGradient id="qbhiDLESd68adCB6n2Vsyb" cx="22.555" cy="24.848" r="4.193" gradientTransform="rotate(1.146 23.98 23.96)" gradientUnits="userSpaceOnUse"><stop offset="0" stop-color="#1f1f1f"/><stop offset=".697" stop-color="#0a0a0a"/><stop offset="1"/></radialGradient><circle cx="22.538" cy="24.819" r="4.193" fill="url(#qbhiDLESd68adCB6n2Vsyb)"/><circle cx="21.305" cy="23.537" r="1.067" fill="#fff"/><linearGradient id="qbhiDLESd68adCB6n2Vsyc" x1="9.029" x2="9.939" y1="30.978" y2="36.39" gradientTransform="rotate(1.146 23.98 23.96)" gradientUnits="userSpaceOnUse"><stop offset=".408" stop-color="#ffa561"/><stop offset=".487" stop-color="#b94624"/><stop offset=".531" stop-color="#961605"/></linearGradient><path fill="url(#qbhiDLESd68adCB6n2Vsyc)" d="M3.34,33.524l11.63-2.168c0,0-0.809,1.48-1.204,4.302 C13.766,35.657,8.069,36.703,3.34,33.524z"/><path fill="#310e02" d="M3.156,33.393c0,0,8.475-2.225,11.835-2.084l-0.374,0.863c0,0-5.573,0.359-10.744,1.69L3.156,33.393 z"/><radialGradient id="qbhiDLESd68adCB6n2Vsyd" cx="7.506" cy="27.878" r="8.399" fx="7.464" fy="28.058" gradientTransform="matrix(.8686 -.4956 .3171 .5557 -7.925 15.782)" gradientUnits="userSpaceOnUse"><stop offset="0" stop-color="#ff9b52"/><stop offset=".477" stop-color="#e44723"/><stop offset=".776" stop-color="#d41708"/></radialGradient><path fill="url(#qbhiDLESd68adCB6n2Vsyd)" d="M9.632,23.19c-1.36,0.694-5.932,4.505-7.108,9.853c-0.074,0.334,0.242,0.676,0.565,0.564 c2.496-0.863,8.777-1.7,11.539-1.975c0.396-0.039,0.513-0.575,0.205-0.827c-1.107-0.907-3.717-4.453-4.543-7.311 C10.207,23.206,9.898,23.054,9.632,23.19z"/></svg>