<svg xmlns="http://www.w3.org/2000/svg"  viewBox="0 0 48 48" width="96px" height="96px"><linearGradient id="lqP99P5_ON9uJZhpAmjP~a" x1="31.138" x2="43.497" y1="8.321" y2="15.773" gradientUnits="userSpaceOnUse"><stop offset="0" stop-color="#f57f17"/><stop offset=".294" stop-color="#f27d17"/><stop offset=".474" stop-color="#ea7816"/><stop offset=".623" stop-color="#dc7015"/><stop offset=".756" stop-color="#c76413"/><stop offset=".877" stop-color="#ad5411"/><stop offset=".989" stop-color="#8d410e"/><stop offset="1" stop-color="#893f0e"/></linearGradient><path fill="url(#lqP99P5_ON9uJZhpAmjP~a)" d="M28,13c0,0,10-10,12-10c1,0,3,5,3,9c0,10.253-4,11-5,11C31,20,28,13,28,13z"/><path fill="#d8bfac" d="M29,14c0,0,8.6-8,10-8c0.8,0,2,4.093,2,6.526C41,20.621,37.8,22,37,22C31.4,19.632,29,14,29,14z"/><path fill="#d7beab" d="M29.039,14.039c0,0,8.537-7.947,9.946-7.947c0.796,0,1.988,4.063,1.988,6.484 c0,8.052-3.186,9.424-3.982,9.424C31.416,19.644,29.039,14.039,29.039,14.039z"/><path fill="#d6bdaa" d="M29.079,14.079c0,0,8.474-7.895,9.893-7.895c0.793,0,1.975,4.034,1.975,6.442 c0,8.009-3.172,9.374-3.965,9.374C31.432,19.657,29.079,14.079,29.079,14.079z"/><path fill="#d6bca9" d="M29.118,14.118c0,0,8.411-7.842,9.839-7.842c0.789,0,1.963,4.004,1.963,6.4 c0,7.966-3.158,9.324-3.947,9.324C31.447,19.669,29.118,14.118,29.118,14.118z"/><path fill="#d5bba8" d="M29.158,14.158c0,0,8.347-7.789,9.786-7.789c0.786,0,1.951,3.975,1.951,6.357 c0,7.924-3.144,9.274-3.93,9.274C31.463,19.681,29.158,14.158,29.158,14.158z"/><path fill="#d4bba7" d="M29.197,14.197c0,0,8.284-7.737,9.732-7.737c0.782,0,1.939,3.945,1.939,6.315 c0,7.881-3.13,9.224-3.912,9.224C31.479,19.694,29.197,14.197,29.197,14.197z"/><path fill="#d3baa6" d="M29.237,14.237c0,0,8.221-7.684,9.679-7.684c0.779,0,1.926,3.916,1.926,6.273 c0,7.839-3.116,9.175-3.895,9.175C31.495,19.706,29.237,14.237,29.237,14.237z"/><path fill="#d3b9a5" d="M29.276,14.276c0,0,8.158-7.632,9.625-7.632c0.775,0,1.914,3.886,1.914,6.231 c0,7.796-3.102,9.125-3.877,9.125C31.511,19.719,29.276,14.276,29.276,14.276z"/><path fill="#d2b8a4" d="M29.316,14.316c0,0,8.095-7.579,9.572-7.579c0.772,0,1.902,3.857,1.902,6.188 c0,7.753-3.088,9.075-3.86,9.075C31.526,19.731,29.316,14.316,29.316,14.316z"/><path fill="#d1b7a3" d="M29.355,14.355c0,0,8.032-7.526,9.518-7.526c0.768,0,1.889,3.828,1.889,6.146 c0,7.711-3.074,9.025-3.842,9.025C31.542,19.744,29.355,14.355,29.355,14.355z"/><path fill="#d0b6a2" d="M29.395,14.395c0,0,7.968-7.474,9.465-7.474c0.765,0,1.877,3.798,1.877,6.104 c0,7.668-3.06,8.975-3.825,8.975C31.558,19.756,29.395,14.395,29.395,14.395z"/><path fill="#d0b5a1" d="M29.434,14.434c0,0,7.905-7.421,9.411-7.421c0.761,0,1.865,3.769,1.865,6.062 c0,7.626-3.046,8.925-3.807,8.925C31.574,19.769,29.434,14.434,29.434,14.434z"/><path fill="#cfb4a0" d="M29.474,14.474c0,0,7.842-7.368,9.358-7.368c0.758,0,1.853,3.739,1.853,6.019 c0,7.583-3.032,8.875-3.789,8.875C31.589,19.781,29.474,14.474,29.474,14.474z"/><path fill="#ceb39f" d="M29.513,14.513c0,0,7.779-7.316,9.304-7.316c0.754,0,1.84,3.71,1.84,5.977 c0,7.54-3.018,8.825-3.772,8.825C31.605,19.794,29.513,14.513,29.513,14.513z"/><path fill="#cdb29e" d="M29.553,14.553c0,0,7.716-7.263,9.251-7.263c0.751,0,1.828,3.68,1.828,5.935 c0,7.498-3.004,8.776-3.754,8.776C31.621,19.806,29.553,14.553,29.553,14.553z"/><path fill="#cdb29d" d="M29.592,14.592c0,0,7.653-7.211,9.197-7.211c0.747,0,1.816,3.651,1.816,5.893 c0,7.455-2.989,8.726-3.737,8.726C31.637,19.819,29.592,14.592,29.592,14.592z"/><path fill="#ccb19c" d="M29.632,14.632c0,0,7.589-7.158,9.144-7.158c0.744,0,1.804,3.622,1.804,5.85 c0,7.413-2.975,8.676-3.719,8.676C31.653,19.831,29.632,14.632,29.632,14.632z"/><path fill="#cbb09b" d="M29.671,14.671c0,0,7.526-7.105,9.09-7.105c0.74,0,1.791,3.592,1.791,5.808 c0,7.37-2.961,8.626-3.702,8.626C31.668,19.843,29.671,14.671,29.671,14.671z"/><path fill="#caaf9a" d="M29.711,14.711c0,0,7.463-7.053,9.037-7.053c0.737,0,1.779,3.563,1.779,5.766 c0,7.327-2.947,8.576-3.684,8.576C31.684,19.856,29.711,14.711,29.711,14.711z"/><path fill="#c9ae99" d="M29.75,14.75c0,0,7.4-7,8.983-7c0.733,0,1.767,3.533,1.767,5.724c0,7.285-2.933,8.526-3.667,8.526 C31.7,19.868,29.75,14.75,29.75,14.75z"/><path fill="#c9ad98" d="M29.789,14.789c0,0,7.337-6.947,8.93-6.947c0.73,0,1.754,3.504,1.754,5.681 c0,7.242-2.919,8.476-3.649,8.476C31.716,19.881,29.789,14.789,29.789,14.789z"/><path fill="#c8ac97" d="M29.829,14.829c0,0,7.274-6.895,8.876-6.895c0.726,0,1.742,3.474,1.742,5.639 c0,7.2-2.905,8.427-3.632,8.427C31.732,19.893,29.829,14.829,29.829,14.829z"/><path fill="#c7ab96" d="M29.868,14.868c0,0,7.211-6.842,8.823-6.842c0.723,0,1.73,3.445,1.73,5.597 c0,7.157-2.891,8.377-3.614,8.377C31.747,19.906,29.868,14.868,29.868,14.868z"/><path fill="#c6aa95" d="M29.908,14.908c0,0,7.147-6.789,8.769-6.789c0.719,0,1.718,3.416,1.718,5.555 c0,7.114-2.877,8.327-3.596,8.327C31.763,19.918,29.908,14.908,29.908,14.908z"/><path fill="#c6aa94" d="M29.947,14.947c0,0,7.084-6.737,8.716-6.737c0.716,0,1.705,3.386,1.705,5.512 c0,7.072-2.863,8.277-3.579,8.277C31.779,19.931,29.947,14.947,29.947,14.947z"/><path fill="#c5a993" d="M29.987,14.987c0,0,7.021-6.684,8.662-6.684c0.712,0,1.693,3.357,1.693,5.47 c0,7.029-2.849,8.227-3.561,8.227C31.795,19.943,29.987,14.987,29.987,14.987z"/><path fill="#c4a892" d="M30.026,15.026c0,0,6.958-6.632,8.609-6.632c0.709,0,1.681,3.327,1.681,5.428 c0,6.987-2.835,8.177-3.544,8.177C31.811,19.956,30.026,15.026,30.026,15.026z"/><path fill="#c3a791" d="M30.066,15.066c0,0,6.895-6.579,8.555-6.579c0.705,0,1.668,3.298,1.668,5.386 c0,6.944-2.821,8.127-3.526,8.127C31.826,19.968,30.066,15.066,30.066,15.066z"/><path fill="#c3a690" d="M30.105,15.105c0,0,6.832-6.526,8.502-6.526c0.702,0,1.656,3.268,1.656,5.343 c0,6.901-2.807,8.078-3.509,8.078C31.842,19.981,30.105,15.105,30.105,15.105z"/><path fill="#c2a58f" d="M30.145,15.145c0,0,6.768-6.474,8.448-6.474c0.698,0,1.644,3.239,1.644,5.301 c0,6.859-2.793,8.028-3.491,8.028C31.858,19.993,30.145,15.145,30.145,15.145z"/><path fill="#c1a48e" d="M30.184,15.184c0,0,6.705-6.421,8.395-6.421c0.695,0,1.632,3.209,1.632,5.259 c0,6.816-2.779,7.978-3.474,7.978C31.874,20.006,30.184,15.184,30.184,15.184z"/><path fill="#c0a38d" d="M30.224,15.224c0,0,6.642-6.368,8.341-6.368c0.691,0,1.619,3.18,1.619,5.217 c0,6.774-2.765,7.928-3.456,7.928C31.889,20.018,30.224,15.224,30.224,15.224z"/><path fill="#c0a28c" d="M30.263,15.263c0,0,6.579-6.316,8.288-6.316c0.688,0,1.607,3.151,1.607,5.175 c0,6.731-2.751,7.878-3.439,7.878C31.905,20.03,30.263,15.263,30.263,15.263z"/><path fill="#bfa18b" d="M30.303,15.303c0,0,6.516-6.263,8.234-6.263c0.684,0,1.595,3.121,1.595,5.132 c0,6.688-2.737,7.828-3.421,7.828C31.921,20.043,30.303,15.303,30.303,15.303z"/><path fill="#bea18a" d="M30.342,15.342c0,0,6.453-6.211,8.181-6.211c0.681,0,1.582,3.092,1.582,5.09 c0,6.646-2.723,7.778-3.404,7.778C31.937,20.055,30.342,15.342,30.342,15.342z"/><path fill="#bda089" d="M30.382,15.382c0,0,6.389-6.158,8.127-6.158c0.677,0,1.57,3.062,1.57,5.048 c0,6.603-2.709,7.729-3.386,7.729C31.953,20.068,30.382,15.382,30.382,15.382z"/><path fill="#bd9f88" d="M30.421,15.421c0,0,6.326-6.105,8.074-6.105c0.674,0,1.558,3.033,1.558,5.006 c0,6.561-2.695,7.679-3.368,7.679C31.968,20.08,30.421,15.421,30.421,15.421z"/><path fill="#bc9e87" d="M30.461,15.461c0,0,6.263-6.053,8.02-6.053c0.67,0,1.546,3.003,1.546,4.963 c0,6.518-2.681,7.629-3.351,7.629C31.984,20.093,30.461,15.461,30.461,15.461z"/><path fill="#bb9d86" d="M30.5,15.5c0,0,6.2-6,7.967-6C39.133,9.5,40,12.474,40,14.421C40,20.896,37.333,22,36.667,22 C32,20.105,30.5,15.5,30.5,15.5z"/><path fill="#ba9c86" d="M30.539,15.539c0,0,6.137-5.947,7.913-5.947c0.663,0,1.521,2.945,1.521,4.879 c0,6.433-2.653,7.529-3.316,7.529C32.016,20.118,30.539,15.539,30.539,15.539z"/><path fill="#b99b85" d="M30.579,15.579c0,0,6.074-5.895,7.86-5.895c0.66,0,1.509,2.915,1.509,4.837 c0,6.39-2.639,7.479-3.298,7.479C32.032,20.13,30.579,15.579,30.579,15.579z"/><path fill="#b99a84" d="M30.618,15.618c0,0,6.011-5.842,7.806-5.842c0.656,0,1.496,2.886,1.496,4.794 c0,6.348-2.625,7.429-3.281,7.429C32.047,20.143,30.618,15.618,30.618,15.618z"/><path fill="#b89983" d="M30.658,15.658c0,0,5.947-5.789,7.753-5.789c0.653,0,1.484,2.856,1.484,4.752 c0,6.305-2.611,7.38-3.263,7.38C32.063,20.155,30.658,15.658,30.658,15.658z"/><path fill="#b79982" d="M30.697,15.697c0,0,5.884-5.737,7.699-5.737c0.649,0,1.472,2.827,1.472,4.71 c0,6.262-2.596,7.33-3.246,7.33C32.079,20.168,30.697,15.697,30.697,15.697z"/><path fill="#b69881" d="M30.737,15.737c0,0,5.821-5.684,7.646-5.684c0.646,0,1.46,2.797,1.46,4.668 c0,6.22-2.582,7.28-3.228,7.28C32.095,20.18,30.737,15.737,30.737,15.737z"/><path fill="#b69780" d="M30.776,15.776c0,0,5.758-5.632,7.592-5.632c0.642,0,1.447,2.768,1.447,4.625 c0,6.177-2.568,7.23-3.211,7.23C32.111,20.193,30.776,15.776,30.776,15.776z"/><path fill="#b5967f" d="M30.816,15.816c0,0,5.695-5.579,7.539-5.579c0.639,0,1.435,2.739,1.435,4.583 c0,6.135-2.554,7.18-3.193,7.18C32.126,20.205,30.816,15.816,30.816,15.816z"/><path fill="#b4957e" d="M30.855,15.855c0,0,5.632-5.526,7.485-5.526c0.635,0,1.423,2.709,1.423,4.541 c0,6.092-2.54,7.13-3.175,7.13C32.142,20.217,30.855,15.855,30.855,15.855z"/><path fill="#b3947d" d="M30.895,15.895c0,0,5.568-5.474,7.432-5.474c0.632,0,1.411,2.68,1.411,4.499 c0,6.049-2.526,7.08-3.158,7.08C32.158,20.23,30.895,15.895,30.895,15.895z"/><path fill="#b3937c" d="M30.934,15.934c0,0,5.505-5.421,7.378-5.421c0.628,0,1.398,2.65,1.398,4.456 c0,6.007-2.512,7.03-3.14,7.03C32.174,20.242,30.934,15.934,30.934,15.934z"/><path fill="#b2927b" d="M30.974,15.974c0,0,5.442-5.368,7.325-5.368c0.625,0,1.386,2.621,1.386,4.414 c0,5.964-2.498,6.981-3.123,6.981C32.189,20.255,30.974,15.974,30.974,15.974z"/><path fill="#b1917a" d="M31.013,16.013c0,0,5.379-5.316,7.271-5.316c0.621,0,1.374,2.591,1.374,4.372 c0,5.922-2.484,6.931-3.105,6.931C32.205,20.267,31.013,16.013,31.013,16.013z"/><path fill="#b09079" d="M31.053,16.053c0,0,5.316-5.263,7.218-5.263c0.618,0,1.361,2.562,1.361,4.33 c0,5.879-2.47,6.881-3.088,6.881C32.221,20.28,31.053,16.053,31.053,16.053z"/><path fill="#b09078" d="M31.092,16.092c0,0,5.253-5.211,7.164-5.211c0.614,0,1.349,2.533,1.349,4.287 c0,5.836-2.456,6.831-3.07,6.831C32.237,20.292,31.092,16.092,31.092,16.092z"/><path fill="#af8f77" d="M31.132,16.132c0,0,5.189-5.158,7.111-5.158c0.611,0,1.337,2.503,1.337,4.245 c0,5.794-2.442,6.781-3.053,6.781C32.253,20.305,31.132,16.132,31.132,16.132z"/><path fill="#ae8e76" d="M31.171,16.171c0,0,5.126-5.105,7.057-5.105c0.607,0,1.325,2.474,1.325,4.203 c0,5.751-2.428,6.731-3.035,6.731C32.268,20.317,31.171,16.171,31.171,16.171z"/><path fill="#ad8d75" d="M31.211,16.211c0,0,5.063-5.053,7.004-5.053c0.604,0,1.312,2.444,1.312,4.161 c0,5.709-2.414,6.681-3.018,6.681C32.284,20.33,31.211,16.211,31.211,16.211z"/><path fill="#ad8c74" d="M31.25,16.25c0,0,5-5,6.95-5c0.6,0,1.3,2.415,1.3,4.118c0,5.666-2.4,6.632-3,6.632 C32.3,20.342,31.25,16.25,31.25,16.25z"/><path fill="#ac8b73" d="M31.289,16.289c0,0,4.937-4.947,6.896-4.947c0.596,0,1.288,2.385,1.288,4.076 c0,5.623-2.386,6.582-2.982,6.582C32.316,20.355,31.289,16.289,31.289,16.289z"/><path fill="#ab8a72" d="M31.329,16.329c0,0,4.874-4.895,6.843-4.895c0.593,0,1.275,2.356,1.275,4.034 c0,5.581-2.372,6.532-2.965,6.532C32.332,20.367,31.329,16.329,31.329,16.329z"/><path fill="#aa8971" d="M31.368,16.368c0,0,4.811-4.842,6.789-4.842c0.589,0,1.263,2.326,1.263,3.992 c0,5.538-2.358,6.482-2.947,6.482C32.347,20.38,31.368,16.368,31.368,16.368z"/><path fill="#a98870" d="M31.408,16.408c0,0,4.747-4.789,6.736-4.789c0.586,0,1.251,2.297,1.251,3.949 c0,5.496-2.344,6.432-2.93,6.432C32.363,20.392,31.408,16.408,31.408,16.408z"/><path fill="#a9886f" d="M31.447,16.447c0,0,4.684-4.737,6.682-4.737c0.582,0,1.239,2.268,1.239,3.907 c0,5.453-2.33,6.382-2.912,6.382C32.379,20.404,31.447,16.447,31.447,16.447z"/><path fill="#a8876e" d="M31.487,16.487c0,0,4.621-4.684,6.629-4.684c0.579,0,1.226,2.238,1.226,3.865 c0,5.41-2.316,6.332-2.895,6.332C32.395,20.417,31.487,16.487,31.487,16.487z"/><path fill="#a7866d" d="M31.526,16.526c0,0,4.558-4.632,6.575-4.632c0.575,0,1.214,2.209,1.214,3.823 c0,5.368-2.302,6.283-2.877,6.283C32.411,20.429,31.526,16.526,31.526,16.526z"/><path fill="#a6856c" d="M31.566,16.566c0,0,4.495-4.579,6.522-4.579c0.572,0,1.202,2.179,1.202,3.78 c0,5.325-2.288,6.233-2.86,6.233C32.426,20.442,31.566,16.566,31.566,16.566z"/><path fill="#a6846b" d="M31.605,16.605c0,0,4.432-4.526,6.468-4.526c0.568,0,1.189,2.15,1.189,3.738 c0,5.283-2.274,6.183-2.842,6.183C32.442,20.454,31.605,16.605,31.605,16.605z"/><path fill="#a5836a" d="M31.645,16.645c0,0,4.368-4.474,6.415-4.474c0.565,0,1.177,2.12,1.177,3.696 c0,5.24-2.26,6.133-2.825,6.133C32.458,20.467,31.645,16.645,31.645,16.645z"/><path fill="#a48269" d="M31.684,16.684c0,0,4.305-4.421,6.361-4.421c0.561,0,1.165,2.091,1.165,3.654 c0,5.197-2.246,6.083-2.807,6.083C32.474,20.479,31.684,16.684,31.684,16.684z"/><path fill="#a38168" d="M31.724,16.724c0,0,4.242-4.368,6.308-4.368c0.558,0,1.153,2.062,1.153,3.611 c0,5.155-2.232,6.033-2.789,6.033C32.489,20.492,31.724,16.724,31.724,16.724z"/><path fill="#a38067" d="M31.763,16.763c0,0,4.179-4.316,6.254-4.316c0.554,0,1.14,2.032,1.14,3.569 c0,5.112-2.218,5.983-2.772,5.983C32.505,20.504,31.763,16.763,31.763,16.763z"/><path fill="#a27f66" d="M31.803,16.803c0,0,4.116-4.263,6.201-4.263c0.551,0,1.128,2.003,1.128,3.527 c0,5.07-2.204,5.934-2.754,5.934C32.521,20.517,31.803,16.803,31.803,16.803z"/><path fill="#a17f65" d="M31.842,16.842c0,0,4.053-4.211,6.147-4.211c0.547,0,1.116,1.973,1.116,3.485 c0,5.027-2.189,5.884-2.737,5.884C32.537,20.529,31.842,16.842,31.842,16.842z"/><path fill="#a07e64" d="M31.882,16.882c0,0,3.989-4.158,6.094-4.158c0.544,0,1.104,1.944,1.104,3.443 c0,4.984-2.175,5.834-2.719,5.834C32.553,20.542,31.882,16.882,31.882,16.882z"/><path fill="#a07d63" d="M31.921,16.921c0,0,3.926-4.105,6.04-4.105c0.54,0,1.091,1.914,1.091,3.4 c0,4.942-2.161,5.784-2.702,5.784C32.568,20.554,31.921,16.921,31.921,16.921z"/><path fill="#9f7c62" d="M31.961,16.961c0,0,3.863-4.053,5.987-4.053c0.537,0,1.079,1.885,1.079,3.358 c0,4.899-2.147,5.734-2.684,5.734C32.584,20.566,31.961,16.961,31.961,16.961z"/><path fill="#9e7b61" d="M32,17c0,0,3.8-4,5.933-4C38.467,13,39,14.856,39,16.316C39,21.172,36.867,22,36.333,22 C32.6,20.579,32,17,32,17z"/><linearGradient id="lqP99P5_ON9uJZhpAmjP~b" x1="-404.934" x2="-415.139" y1="5.577" y2="15.782" gradientTransform="matrix(-1 0 0 1 -403 0)" gradientUnits="userSpaceOnUse"><stop offset="0" stop-color="#f57f17"/><stop offset=".294" stop-color="#f27d17"/><stop offset=".474" stop-color="#ea7816"/><stop offset=".623" stop-color="#dc7015"/><stop offset=".756" stop-color="#c76413"/><stop offset=".877" stop-color="#ad5411"/><stop offset=".989" stop-color="#8d410e"/><stop offset="1" stop-color="#893f0e"/></linearGradient><path fill="url(#lqP99P5_ON9uJZhpAmjP~b)" d="M20,13C20,13,10,3,8,3c-1,0-3,5-3,9c0,10.253,4,11,5,11C17,20,20,13,20,13z"/><g><path fill="#cdb29d" d="M19,14c0,0-8.6-8-10-8c-0.8,0-2,4.093-2,6.526C7,20.621,10.2,22,11,22C16.6,19.632,19,14,19,14z"/><path fill="#ccb19c" d="M18.951,14.049c0,0-8.521-7.934-9.933-7.934c-0.796,0-1.985,4.056-1.985,6.474 c0,8.041,3.183,9.412,3.978,9.412C16.58,19.647,18.951,14.049,18.951,14.049z"/><path fill="#cbb09b" d="M18.902,14.098c0,0-8.443-7.869-9.867-7.869c-0.791,0-1.969,4.019-1.969,6.421 c0,7.988,3.165,9.349,3.956,9.349C16.561,19.663,18.902,14.098,18.902,14.098z"/><path fill="#cbaf9a" d="M18.852,14.148c0,0-8.364-7.803-9.8-7.803c-0.787,0-1.954,3.983-1.954,6.368 c0,7.935,3.148,9.287,3.934,9.287C16.541,19.678,18.852,14.148,18.852,14.148z"/><path fill="#caae99" d="M18.803,14.197c0,0-8.285-7.738-9.733-7.738c-0.783,0-1.939,3.946-1.939,6.316 c0,7.882,3.13,9.225,3.913,9.225C16.521,19.694,18.803,14.197,18.803,14.197z"/><path fill="#c9ad98" d="M18.754,14.246c0,0-8.207-7.672-9.667-7.672c-0.778,0-1.923,3.909-1.923,6.263 c0,7.829,3.113,9.163,3.891,9.163C16.502,19.709,18.754,14.246,18.754,14.246z"/><path fill="#c8ad97" d="M18.705,14.295c0,0-8.128-7.607-9.6-7.607c-0.774,0-1.908,3.872-1.908,6.211 c0,7.776,3.095,9.101,3.869,9.101C16.482,19.725,18.705,14.295,18.705,14.295z"/><path fill="#c8ac96" d="M18.656,14.344c0,0-8.049-7.541-9.533-7.541c-0.769,0-1.893,3.836-1.893,6.158 c0,7.723,3.078,9.039,3.847,9.039C16.462,19.74,18.656,14.344,18.656,14.344z"/><path fill="#c7ab95" d="M18.607,14.393c0,0-7.97-7.475-9.467-7.475c-0.765,0-1.878,3.799-1.878,6.105 c0,7.67,3.06,8.977,3.825,8.977C16.443,19.756,18.607,14.393,18.607,14.393z"/><path fill="#c6aa94" d="M18.557,14.443c0,0-7.892-7.41-9.4-7.41c-0.761,0-1.862,3.762-1.862,6.053 c0,7.617,3.043,8.915,3.803,8.915C16.423,19.771,18.557,14.443,18.557,14.443z"/><path fill="#c5a993" d="M18.508,14.492c0,0-7.813-7.344-9.333-7.344c-0.756,0-1.847,3.726-1.847,6 c0,7.563,3.025,8.852,3.781,8.852C16.403,19.787,18.508,14.492,18.508,14.492z"/><path fill="#c5a892" d="M18.459,14.541c0,0-7.734-7.279-9.267-7.279c-0.752,0-1.832,3.689-1.832,5.947 c0,7.51,3.008,8.79,3.76,8.79C16.384,19.802,18.459,14.541,18.459,14.541z"/><path fill="#c4a791" d="M18.41,14.59c0,0-7.656-7.213-9.2-7.213c-0.748,0-1.816,3.652-1.816,5.895 c0,7.457,2.99,8.728,3.738,8.728C16.364,19.818,18.41,14.59,18.41,14.59z"/><path fill="#c3a690" d="M18.361,14.639c0,0-7.577-7.148-9.133-7.148c-0.743,0-1.801,3.616-1.801,5.842 c0,7.404,2.973,8.666,3.716,8.666C16.344,19.833,18.361,14.639,18.361,14.639z"/><path fill="#c2a58f" d="M18.311,14.689c0,0-7.498-7.082-9.067-7.082c-0.739,0-1.786,3.579-1.786,5.789 c0,7.351,2.955,8.604,3.694,8.604C16.325,19.849,18.311,14.689,18.311,14.689z"/><path fill="#c1a48e" d="M18.262,14.738c0,0-7.42-7.016-9-7.016c-0.734,0-1.77,3.542-1.77,5.737 c0,7.298,2.938,8.542,3.672,8.542C16.305,19.865,18.262,14.738,18.262,14.738z"/><path fill="#c1a48d" d="M18.213,14.787c0,0-7.341-6.951-8.933-6.951c-0.73,0-1.755,3.506-1.755,5.684 c0,7.245,2.92,8.48,3.65,8.48C16.285,19.88,18.213,14.787,18.213,14.787z"/><path fill="#c0a38c" d="M18.164,14.836c0,0-7.262-6.885-8.867-6.885c-0.726,0-1.74,3.469-1.74,5.632 c0,7.192,2.903,8.418,3.628,8.418C16.266,19.896,18.164,14.836,18.164,14.836z"/><path fill="#bfa28b" d="M18.115,14.885c0,0-7.184-6.82-8.8-6.82c-0.721,0-1.725,3.432-1.725,5.579 c0,7.139,2.885,8.355,3.607,8.355C16.246,19.911,18.115,14.885,18.115,14.885z"/><path fill="#bea18a" d="M18.066,14.934c0,0-7.105-6.754-8.733-6.754c-0.717,0-1.709,3.396-1.709,5.526 c0,7.086,2.868,8.293,3.585,8.293C16.226,19.927,18.066,14.934,18.066,14.934z"/><path fill="#bea089" d="M18.016,14.984c0,0-7.026-6.689-8.667-6.689c-0.713,0-1.694,3.359-1.694,5.474 c0,7.033,2.85,8.231,3.563,8.231C16.207,19.942,18.016,14.984,18.016,14.984z"/><path fill="#bd9f88" d="M17.967,15.033c0,0-6.948-6.623-8.6-6.623c-0.708,0-1.679,3.322-1.679,5.421 c0,6.98,2.833,8.169,3.541,8.169C16.187,19.958,17.967,15.033,17.967,15.033z"/><path fill="#bc9e87" d="M17.918,15.082c0,0-6.869-6.557-8.533-6.557c-0.704,0-1.663,3.286-1.663,5.368 C7.721,20.82,10.537,22,11.24,22C16.167,19.973,17.918,15.082,17.918,15.082z"/><path fill="#bb9d86" d="M17.869,15.131c0,0-6.79-6.492-8.467-6.492c-0.699,0-1.648,3.249-1.648,5.316 c0,6.873,2.798,8.045,3.497,8.045C16.148,19.989,17.869,15.131,17.869,15.131z"/><path fill="#bb9c85" d="M17.82,15.18c0,0-6.711-6.426-8.4-6.426c-0.695,0-1.633,3.212-1.633,5.263 c0,6.82,2.78,7.983,3.475,7.983C16.128,20.004,17.82,15.18,17.82,15.18z"/><path fill="#ba9b84" d="M17.77,15.23c0,0-6.633-6.361-8.333-6.361c-0.691,0-1.617,3.176-1.617,5.211 c0,6.767,2.763,7.921,3.454,7.921C16.108,20.02,17.77,15.23,17.77,15.23z"/><path fill="#b99b83" d="M17.721,15.279c0,0-6.554-6.295-8.267-6.295c-0.686,0-1.602,3.139-1.602,5.158 c0,6.714,2.745,7.858,3.432,7.858C16.089,20.035,17.721,15.279,17.721,15.279z"/><path fill="#b89a82" d="M17.672,15.328c0,0-6.475-6.23-8.2-6.23c-0.682,0-1.587,3.102-1.587,5.105 c0,6.661,2.728,7.796,3.41,7.796C16.069,20.051,17.672,15.328,17.672,15.328z"/><path fill="#b79981" d="M17.623,15.377c0,0-6.397-6.164-8.133-6.164c-0.678,0-1.572,3.066-1.572,5.053 c0,6.608,2.71,7.734,3.388,7.734C16.049,20.066,17.623,15.377,17.623,15.377z"/><path fill="#b79880" d="M17.574,15.426c0,0-6.318-6.098-8.067-6.098c-0.673,0-1.556,3.029-1.556,5 c0,6.555,2.693,7.672,3.366,7.672C16.03,20.082,17.574,15.426,17.574,15.426z"/><path fill="#b6977f" d="M17.525,15.475c0,0-6.239-6.033-8-6.033c-0.669,0-1.541,2.992-1.541,4.947 c0,6.502,2.675,7.61,3.344,7.61C16.01,20.097,17.525,15.475,17.525,15.475z"/><path fill="#b5967f" d="M17.475,15.525c0,0-6.161-5.967-7.933-5.967c-0.664,0-1.526,2.956-1.526,4.895 c0,6.449,2.658,7.548,3.322,7.548C15.99,20.113,17.475,15.525,17.475,15.525z"/><path fill="#b4957e" d="M17.426,15.574c0,0-6.082-5.902-7.867-5.902c-0.66,0-1.51,2.919-1.51,4.842 C8.049,20.91,10.69,22,11.35,22C15.97,20.129,17.426,15.574,17.426,15.574z"/><path fill="#b4947d" d="M17.377,15.623c0,0-6.003-5.836-7.8-5.836c-0.656,0-1.495,2.882-1.495,4.789 c0,6.343,2.623,7.424,3.279,7.424C15.951,20.144,17.377,15.623,17.377,15.623z"/><path fill="#b3937c" d="M17.328,15.672c0,0-5.925-5.77-7.733-5.77c-0.651,0-1.48,2.846-1.48,4.737 c0,6.29,2.605,7.362,3.257,7.362C15.931,20.16,17.328,15.672,17.328,15.672z"/><path fill="#b2927b" d="M17.279,15.721c0,0-5.846-5.705-7.667-5.705c-0.647,0-1.464,2.809-1.464,4.684 c0,6.237,2.588,7.299,3.235,7.299C15.911,20.175,17.279,15.721,17.279,15.721z"/><path fill="#b1927a" d="M17.23,15.77c0,0-5.767-5.639-7.6-5.639c-0.643,0-1.449,2.772-1.449,4.632 c0,6.183,2.57,7.237,3.213,7.237C15.892,20.191,17.23,15.77,17.23,15.77z"/><path fill="#b09179" d="M17.18,15.82c0,0-5.689-5.574-7.533-5.574c-0.638,0-1.434,2.736-1.434,4.579 c0,6.13,2.553,7.175,3.191,7.175C15.872,20.206,17.18,15.82,17.18,15.82z"/><path fill="#b09078" d="M17.131,15.869c0,0-5.61-5.508-7.467-5.508c-0.634,0-1.419,2.699-1.419,4.526 c0,6.077,2.536,7.113,3.169,7.113C15.852,20.222,17.131,15.869,17.131,15.869z"/><path fill="#af8f77" d="M17.082,15.918c0,0-5.531-5.443-7.4-5.443c-0.63,0-1.403,2.662-1.403,4.474 c0,6.024,2.518,7.051,3.148,7.051C15.833,20.237,17.082,15.918,17.082,15.918z"/><path fill="#ae8e76" d="M17.033,15.967c0,0-5.452-5.377-7.333-5.377c-0.625,0-1.388,2.626-1.388,4.421 c0,5.971,2.501,6.989,3.126,6.989C15.813,20.253,17.033,15.967,17.033,15.967z"/><path fill="#ad8d75" d="M16.984,16.016c0,0-5.374-5.311-7.267-5.311c-0.621,0-1.373,2.589-1.373,4.368 c0,5.918,2.483,6.927,3.104,6.927C15.793,20.268,16.984,16.016,16.984,16.016z"/><path fill="#ad8c74" d="M16.934,16.066c0,0-5.295-5.246-7.2-5.246c-0.616,0-1.357,2.552-1.357,4.316 C8.377,21,10.843,22,11.459,22C15.774,20.284,16.934,16.066,16.934,16.066z"/><path fill="#ac8b73" d="M16.885,16.115c0,0-5.216-5.18-7.133-5.18c-0.612,0-1.342,2.516-1.342,4.263 c0,5.812,2.448,6.802,3.06,6.802C15.754,20.299,16.885,16.115,16.885,16.115z"/><path fill="#ab8a72" d="M16.836,16.164c0,0-5.138-5.115-7.067-5.115c-0.608,0-1.327,2.479-1.327,4.211 c0,5.759,2.431,6.74,3.038,6.74C15.734,20.315,16.836,16.164,16.836,16.164z"/><path fill="#aa8971" d="M16.787,16.213c0,0-5.059-5.049-7-5.049c-0.603,0-1.311,2.442-1.311,4.158 c0,5.706,2.413,6.678,3.016,6.678C15.715,20.33,16.787,16.213,16.787,16.213z"/><path fill="#aa8970" d="M16.738,16.262c0,0-4.98-4.984-6.933-4.984c-0.599,0-1.296,2.406-1.296,4.105 c0,5.653,2.396,6.616,2.995,6.616C15.695,20.346,16.738,16.262,16.738,16.262z"/><path fill="#a9886f" d="M16.689,16.311c0,0-4.902-4.918-6.867-4.918c-0.595,0-1.281,2.369-1.281,4.053 c0,5.6,2.378,6.554,2.973,6.554C15.675,20.362,16.689,16.311,16.689,16.311z"/><path fill="#a8876e" d="M16.639,16.361c0,0-4.823-4.852-6.8-4.852c-0.59,0-1.266,2.332-1.266,4 c0,5.547,2.361,6.492,2.951,6.492C15.656,20.377,16.639,16.361,16.639,16.361z"/><path fill="#a7866d" d="M16.59,16.41c0,0-4.744-4.787-6.733-4.787c-0.586,0-1.25,2.296-1.25,3.947 c0,5.493,2.343,6.43,2.929,6.43C15.636,20.393,16.59,16.41,16.59,16.41z"/><path fill="#a6856c" d="M16.541,16.459c0,0-4.666-4.721-6.667-4.721c-0.581,0-1.235,2.259-1.235,3.895 c0,5.44,2.326,6.368,2.907,6.368C15.616,20.408,16.541,16.459,16.541,16.459z"/><path fill="#a6846b" d="M16.492,16.508c0,0-4.587-4.656-6.6-4.656c-0.577,0-1.22,2.222-1.22,3.842 c0,5.387,2.308,6.305,2.885,6.305C15.597,20.424,16.492,16.508,16.492,16.508z"/><path fill="#a5836a" d="M16.443,16.557c0,0-4.508-4.59-6.533-4.59c-0.573,0-1.204,2.186-1.204,3.789 c0,5.334,2.291,6.243,2.863,6.243C15.577,20.439,16.443,16.557,16.443,16.557z"/><path fill="#a48269" d="M16.393,16.607c0,0-4.43-4.525-6.467-4.525c-0.568,0-1.189,2.149-1.189,3.737 C8.738,21.1,11.011,22,11.579,22C15.557,20.455,16.393,16.607,16.393,16.607z"/><path fill="#a38168" d="M16.344,16.656c0,0-4.351-4.459-6.4-4.459c-0.564,0-1.174,2.112-1.174,3.684 c0,5.228,2.256,6.119,2.82,6.119C15.538,20.47,16.344,16.656,16.344,16.656z"/><path fill="#a38067" d="M16.295,16.705c0,0-4.272-4.393-6.333-4.393c-0.56,0-1.158,2.076-1.158,3.632 c0,5.175,2.238,6.057,2.798,6.057C15.518,20.486,16.295,16.705,16.295,16.705z"/><path fill="#a28066" d="M16.246,16.754c0,0-4.193-4.328-6.267-4.328c-0.555,0-1.143,2.039-1.143,3.579 c0,5.122,2.221,5.995,2.776,5.995C15.498,20.501,16.246,16.754,16.246,16.754z"/><path fill="#a17f65" d="M16.197,16.803c0,0-4.115-4.262-6.2-4.262c-0.551,0-1.128,2.002-1.128,3.526 c0,5.069,2.203,5.933,2.754,5.933C15.479,20.517,16.197,16.803,16.197,16.803z"/><path fill="#a07e64" d="M16.148,16.852c0,0-4.036-4.197-6.133-4.197c-0.546,0-1.113,1.966-1.113,3.474 c0,5.016,2.186,5.871,2.732,5.871C15.459,20.532,16.148,16.852,16.148,16.852z"/><path fill="#a07d63" d="M16.098,16.902c0,0-3.957-4.131-6.067-4.131c-0.542,0-1.097,1.929-1.097,3.421 c0,4.963,2.168,5.808,2.71,5.808C15.439,20.548,16.098,16.902,16.098,16.902z"/><path fill="#9f7c62" d="M16.049,16.951c0,0-3.879-4.066-6-4.066c-0.538,0-1.082,1.892-1.082,3.368 c0,4.91,2.151,5.746,2.689,5.746C15.42,20.563,16.049,16.951,16.049,16.951z"/><path fill="#9e7b61" d="M16,17c0,0-3.8-4-5.933-4C9.533,13,9,14.856,9,16.316C9,21.172,11.133,22,11.667,22 C15.4,20.579,16,17,16,17z"/></g><radialGradient id="lqP99P5_ON9uJZhpAmjP~c" cx="35.933" cy="33.184" r="9.31" gradientTransform="matrix(.9524 -.00053 .0009 1.6636 -10.218 -26.58)" gradientUnits="userSpaceOnUse"><stop offset="0" stop-color="#ffbb78" stop-opacity="0"/><stop offset=".288" stop-color="#feb874" stop-opacity=".288"/><stop offset=".556" stop-color="#faad69" stop-opacity=".556"/><stop offset=".816" stop-color="#f39c56" stop-opacity=".816"/><stop offset="1" stop-color="#ec8b44"/></radialGradient><path fill="url(#lqP99P5_ON9uJZhpAmjP~c)" d="M22.095,13.857c0.467,0,0.952,2.914,0.952,5.829c0,1.867-0.581,5.662-0.952,6.8h3.81	c-0.399-0.815-0.952-4.74-0.952-6.8c0-2.914,0.503-5.829,0.952-5.829"/><g><radialGradient id="lqP99P5_ON9uJZhpAmjP~d" cx="35.851" cy="37.072" r="19.556" gradientTransform="matrix(.9524 0 0 .8661 -10.188 -5.193)" gradientUnits="userSpaceOnUse"><stop offset="0" stop-color="#ffb74d"/><stop offset=".471" stop-color="#ffb54b"/><stop offset=".662" stop-color="#fdae44"/><stop offset=".802" stop-color="#fba238"/><stop offset=".917" stop-color="#f89028"/><stop offset=".997" stop-color="#f57f17"/></radialGradient><path fill="url(#lqP99P5_ON9uJZhpAmjP~d)" d="M38.286,16.549c-1.905-1.887-2.857-2.831-7.619-5.662C29.572,10.236,27.81,9,24,9 s-5.572,1.236-6.667,1.887c-4.762,2.831-5.714,3.775-7.619,5.662C7.809,18.437,4,21.629,4.063,29.349C4.157,40.972,20.698,43,24,43 s19.843-2.028,19.937-13.651C44,21.629,40.191,18.437,38.286,16.549z"/><radialGradient id="lqP99P5_ON9uJZhpAmjP~e" cx="35.897" cy="32.681" r="19.806" gradientTransform="matrix(.9524 0 0 .8358 -10.188 .804)" gradientUnits="userSpaceOnUse"><stop offset=".141" stop-color="#ffb74d" stop-opacity="0"/><stop offset=".351" stop-color="#feb148" stop-opacity=".244"/><stop offset=".619" stop-color="#fba238" stop-opacity=".556"/><stop offset=".917" stop-color="#f7881f" stop-opacity=".903"/><stop offset="1" stop-color="#f57f17"/></radialGradient><path fill="url(#lqP99P5_ON9uJZhpAmjP~e)" d="M38.286,16.548c-1.905-1.885-2.857-2.827-7.619-5.663C29.571,10.234,27.81,9,24,9 s-5.571,1.234-6.667,1.885c-4.762,2.837-5.714,3.779-7.619,5.663S4,21.629,4.066,29.351C4.162,40.97,20.695,43,24,43 s19.838-2.03,19.934-13.649C44,21.629,40.191,18.433,38.286,16.548z M24,42c-7.619,0-18-6.638-18-12c0-9.714,8.143-13,11-13 c0.952,0,2.202,6.415,3,6c0.797-0.414,1.235-9,2-9c0.467,0,1,3.086,1,6c0,1.867-0.533,5.348-0.905,6.486h3.81 C25.506,25.671,25,22.06,25,20c0-2.914,0.551-6,1-6c0.866,0,1.076,8.512,2,9c0.779,0.412,2.048-6,3-6c2.857,0,11,3.286,11,13 C42,35.362,31.619,42,24,42z"/><radialGradient id="lqP99P5_ON9uJZhpAmjP~f" cx="47.571" cy="45.75" r="5.739" gradientTransform="matrix(.9553 0 0 .8661 -9.495 -4.52)" gradientUnits="userSpaceOnUse"><stop offset="0" stop-color="#ffc392"/><stop offset=".92" stop-color="#fcb16e" stop-opacity=".077"/><stop offset=".997" stop-color="#fcaf6b" stop-opacity="0"/></radialGradient><path fill="url(#lqP99P5_ON9uJZhpAmjP~f)" d="M38.33,16.549c-1.911-1.887-2.866-2.831-7.643-5.662C29.589,10.236,27.821,9,24,9 s-5.589,1.236-6.687,1.887c-4.777,2.831-5.732,3.775-7.643,5.662c-1.911,1.887-5.732,5.079-5.669,12.8 C4.096,40.972,20.688,43,24,43s19.904-2.028,19.999-13.651C44.062,21.629,40.241,18.437,38.33,16.549z"/><radialGradient id="lqP99P5_ON9uJZhpAmjP~g" cx="-450.578" cy="45.75" r="5.739" gradientTransform="matrix(-.9555 0 0 .8661 -418.475 -4.52)" gradientUnits="userSpaceOnUse"><stop offset="0" stop-color="#ffc392"/><stop offset=".92" stop-color="#fcb16e" stop-opacity=".077"/><stop offset=".997" stop-color="#fcaf6b" stop-opacity="0"/></radialGradient><path fill="url(#lqP99P5_ON9uJZhpAmjP~g)" d="M9.668,16.549c1.911-1.887,2.866-2.831,7.644-5.662C18.41,10.236,20.178,9,24,9 s5.59,1.236,6.688,1.887c4.777,2.831,5.733,3.775,7.644,5.662c1.911,1.887,5.73,5.079,5.667,12.8C43.904,40.972,27.312,43,24,43 S4.096,40.972,4.001,29.349C3.938,21.629,7.757,18.437,9.668,16.549z"/></g><radialGradient id="lqP99P5_ON9uJZhpAmjP~h" cx="-56.42" cy="6.334" r="3.711" gradientTransform="matrix(1.4357 -.4569 .8575 1.3817 107.65 -9.153)" gradientUnits="userSpaceOnUse"><stop offset="0" stop-color="#fff3e0"/><stop offset=".124" stop-color="#ffeed6" stop-opacity=".875"/><stop offset=".339" stop-color="#ffe2ba" stop-opacity=".66"/><stop offset=".619" stop-color="#fece8c" stop-opacity=".379"/><stop offset=".95" stop-color="#fdb24e" stop-opacity=".047"/><stop offset=".997" stop-color="#fdae44" stop-opacity="0"/></radialGradient><path fill="url(#lqP99P5_ON9uJZhpAmjP~h)" d="M26.003,27.75c0,0,5.997-2.75,11.997-1.75c0-1-4.125-6-6.874-6	c-2.126,0-5.096,2.537-5.123,5.613C25.985,27.657,26.003,27.75,26.003,27.75z"/><radialGradient id="lqP99P5_ON9uJZhpAmjP~i" cx="-347.8" cy="6.334" r="3.711" gradientTransform="matrix(-1.435 -.4569 -.8571 1.3817 -477.75 -142.283)" gradientUnits="userSpaceOnUse"><stop offset="0" stop-color="#fff3e0"/><stop offset=".124" stop-color="#ffeed6" stop-opacity=".875"/><stop offset=".339" stop-color="#ffe2ba" stop-opacity=".66"/><stop offset=".619" stop-color="#fece8c" stop-opacity=".379"/><stop offset=".95" stop-color="#fdb24e" stop-opacity=".047"/><stop offset=".997" stop-color="#fdae44" stop-opacity="0"/></radialGradient><path fill="url(#lqP99P5_ON9uJZhpAmjP~i)" d="M21.992,27.75C21.992,27.75,17,24,10,26c0-1,4.123-6,6.871-6c2.129,0,5.094,2.537,5.121,5.613	C22.01,27.657,21.992,27.75,21.992,27.75z"/><radialGradient id="lqP99P5_ON9uJZhpAmjP~j" cx="-372.301" cy="33.659" r="7.976" gradientTransform="matrix(-1.0769 0 0 1 -389.069 0)" gradientUnits="userSpaceOnUse"><stop offset=".659" stop-color="#ffbb78" stop-opacity="0"/><stop offset=".88" stop-color="#f89235" stop-opacity=".655"/><stop offset=".997" stop-color="#f57f17"/></radialGradient><path fill="url(#lqP99P5_ON9uJZhpAmjP~j)" d="M21.055,29.782c0-0.602-0.009-1.277-0.001-1.782c0.041-2.498-1.56-4-4.055-4	c-5.401,0-9,3.951-9,3.951c0,7,8.332,7.895,8.332,7.895S21.055,34,21.055,29.782z"/><radialGradient id="lqP99P5_ON9uJZhpAmjP~k" cx="87.36" cy="33.659" r="7.976" gradientTransform="matrix(1.0769 0 0 1 -57.876 0)" gradientUnits="userSpaceOnUse"><stop offset=".659" stop-color="#ffbb78" stop-opacity="0"/><stop offset=".88" stop-color="#f89235" stop-opacity=".655"/><stop offset=".997" stop-color="#f57f17"/></radialGradient><path fill="url(#lqP99P5_ON9uJZhpAmjP~k)" d="M31.723,35.846c0,0,8.332-0.895,8.332-7.895c0,0-3.599-3.951-9-3.951	c-2.495,0-4.095,1.502-4.055,4C27.009,28.506,27,29.181,27,29.782C27,34,31.723,35.846,31.723,35.846z"/><g><path fill="#310a03" d="M20.477,26.622C19.846,25.708,18.844,25,17.266,25h-2.177C14.487,25,14,25.487,14,26.089v1.089 c0,1.677,1.371,3.267,3.266,3.267h2.502c0.495,0,0.924-0.332,1.054-0.809C21.037,28.843,21.185,27.613,20.477,26.622z"/><radialGradient id="lqP99P5_ON9uJZhpAmjP~l" cx="-20.997" cy="27.273" r="3.269" gradientTransform="matrix(.9998 0 0 .9591 38.291 1.115)" gradientUnits="userSpaceOnUse"><stop offset="0" stop-color="#dce775"/><stop offset=".019" stop-color="#d8e473"/><stop offset=".325" stop-color="#9cbf53"/><stop offset=".55" stop-color="#76a83f"/><stop offset=".668" stop-color="#689f38"/><stop offset=".714" stop-color="#669a36"/><stop offset=".77" stop-color="#608b31"/><stop offset=".832" stop-color="#577228"/><stop offset=".898" stop-color="#4a4f1b"/><stop offset=".967" stop-color="#3a220c"/><stop offset="1" stop-color="#310a03"/></radialGradient><path fill="url(#lqP99P5_ON9uJZhpAmjP~l)" d="M20.532,27.178c0,0.751-0.261,1.448-0.686,1.993c-0.588,0.773-1.524,1.274-2.58,1.274 c-1.807,0-3.266-1.459-3.266-3.267c0-0.664,0.196-1.285,0.533-1.797c0.088-0.117,0.176-0.235,0.272-0.344 C14.929,25,15.089,25,15.089,25h2.177c1.579,0,2.58,0.708,3.212,1.622c0.011,0.011,0,0.011,0,0.011 C20.521,26.808,20.532,26.993,20.532,27.178z"/><path fill="#160604" d="M17.799,26.198c-0.229,1.176-0.958,2.025-0.958,2.025s-0.337-1.056-0.109-2.243 c0.076-0.37,0.185-0.697,0.327-0.98h0.207c0.207,0,0.414,0.011,0.599,0.033C17.886,25.37,17.876,25.773,17.799,26.198z"/><path fill="#fff" d="M16.712 25.535A0.554 0.554 0 1 0 16.712 26.642999999999997A0.554 0.554 0 1 0 16.712 25.535Z"/></g><path fill="#e2dfd7" d="M24,34c-1.768,0-2,0.067-5,1s-5,1.298-5,3c0,4,7,5,10,5s10-1,10-5c0-1.702-2-2.067-5-3	S25.768,34,24,34z"/><radialGradient id="lqP99P5_ON9uJZhpAmjP~m" cx="24" cy="37.398" r="10.065" gradientTransform="matrix(1 0 0 .5248 0 17.77)" gradientUnits="userSpaceOnUse"><stop offset=".712" stop-color="#f3f4f1" stop-opacity="0"/><stop offset=".842" stop-color="#e7e0dd" stop-opacity=".451"/><stop offset="1" stop-color="#daccc8"/></radialGradient><path fill="url(#lqP99P5_ON9uJZhpAmjP~m)" d="M34,38c0,4-7,5-10,5s-10-1-10-5c0-1.7,2-2.07,5-3s3.23-1,5-1s2,0.07,5,1S34,36.3,34,38z"/><g><radialGradient id="lqP99P5_ON9uJZhpAmjP~n" cx="-12.445" cy="-31.128" r="4.717" gradientTransform="matrix(1.1808 0 0 1.8179 38.693 89.669)" gradientUnits="userSpaceOnUse"><stop offset=".739" stop-color="#daccc8"/><stop offset="1" stop-color="#e2dfd7"/></radialGradient><path fill="url(#lqP99P5_ON9uJZhpAmjP~n)" d="M17.994,37c0,0,0.005,6,6.016,6C30,43,30,37,30,37H17.994z"/><radialGradient id="lqP99P5_ON9uJZhpAmjP~o" cx="-12.458" cy="-27.453" r="4.263" gradientTransform="matrix(1.1808 0 0 .8861 38.693 63.57)" gradientUnits="userSpaceOnUse"><stop offset=".66" stop-color="#e2dfd7" stop-opacity="0"/><stop offset="1" stop-color="#daccc8"/></radialGradient><path fill="url(#lqP99P5_ON9uJZhpAmjP~o)" d="M17.994,37c0,0,0.005,6,6.016,6C30,43,30,37,30,37H17.994z"/></g><radialGradient id="lqP99P5_ON9uJZhpAmjP~p" cx="24.085" cy="30.294" r="8.522" gradientUnits="userSpaceOnUse"><stop offset=".52" stop-color="#f57f16"/><stop offset=".544" stop-color="#f6851d"/><stop offset=".678" stop-color="#fba243"/><stop offset=".772" stop-color="#f2b877"/><stop offset=".877" stop-color="#e9cdab"/><stop offset=".956" stop-color="#e4dacb"/><stop offset="1" stop-color="#e2dfd7"/></radialGradient><path fill="url(#lqP99P5_ON9uJZhpAmjP~p)" d="M27,28c-0.86,0-2.29,3-3,3s-2.14-3-3-3c0,6.13-5,6.78-5,8.56c0,1.77,1.45,4.44,3.91,4.44	c1.64,0,4.09-1.78,4.09-2.67c0,0.89,2.45,2.67,4.09,2.67c2.46,0,3.91-2.67,3.91-4.44C32,34.78,27,34.13,27,28z"/><path fill="#ffb74d" d="M27,24h-3h-3c0,0,0,2,0,4c0,2.44-1,5-1,6h4h4c0-1-1-3.56-1-6C27,26,27,24,27,24z"/><linearGradient id="lqP99P5_ON9uJZhpAmjP~q" x1="20.557" x2="24.531" y1="31.222" y2="30.768" gradientUnits="userSpaceOnUse"><stop offset=".003" stop-color="#ef944e"/><stop offset=".11" stop-color="#f29c58" stop-opacity=".717"/><stop offset=".289" stop-color="#f9b072" stop-opacity=".238"/><stop offset=".379" stop-color="#fdbc82" stop-opacity="0"/></linearGradient><path fill="url(#lqP99P5_ON9uJZhpAmjP~q)" d="M21,28c0,2.44-1,5-1,6h4L21,28z"/><linearGradient id="lqP99P5_ON9uJZhpAmjP~r" x1="-459.443" x2="-455.469" y1="31.222" y2="30.768" gradientTransform="matrix(-1 0 0 1 -432 0)" gradientUnits="userSpaceOnUse"><stop offset=".003" stop-color="#ef944e"/><stop offset=".11" stop-color="#f29c58" stop-opacity=".717"/><stop offset=".289" stop-color="#f9b072" stop-opacity=".238"/><stop offset=".379" stop-color="#fdbc82" stop-opacity="0"/></linearGradient><path fill="url(#lqP99P5_ON9uJZhpAmjP~r)" d="M27,28c0,2.44,1,5,1,6h-4L27,28z"/><g><radialGradient id="lqP99P5_ON9uJZhpAmjP~s" cx="24.024" cy="38.338" r="1.901" gradientTransform="matrix(1 0 0 2.4489 0 -55.547)" gradientUnits="userSpaceOnUse"><stop offset="0" stop-color="#8a4723"/><stop offset=".325" stop-color="#8d4a26"/><stop offset=".578" stop-color="#96542e"/><stop offset=".807" stop-color="#a4643c"/><stop offset="1" stop-color="#b7794d"/></radialGradient><path fill="url(#lqP99P5_ON9uJZhpAmjP~s)" d="M20,34c0,1.742,2.275,2.725,2.863,3.61c0.172,0.258,0.48,0.39,0.791,0.39h0.693 c0.31,0,0.619-0.131,0.791-0.39C25.725,36.725,28,35.742,28,34C28,32,20,32,20,34z"/><radialGradient id="lqP99P5_ON9uJZhpAmjP~t" cx="23.971" cy="33.918" r="3.77" gradientTransform="matrix(1 0 0 1.0247 0 -.837)" gradientUnits="userSpaceOnUse"><stop offset="0" stop-color="#bc9475" stop-opacity="0"/><stop offset=".23" stop-color="#ba9172" stop-opacity=".255"/><stop offset=".421" stop-color="#b48767" stop-opacity=".468"/><stop offset=".6" stop-color="#a97756" stop-opacity=".665"/><stop offset=".769" stop-color="#9b603e" stop-opacity=".853"/><stop offset=".901" stop-color="#8c4925"/></radialGradient><path fill="url(#lqP99P5_ON9uJZhpAmjP~t)" d="M20,34c0,1.742,2.275,2.725,2.863,3.61c0.172,0.258,0.48,0.39,0.791,0.39h0.693 c0.31,0,0.619-0.131,0.791-0.39C25.725,36.725,28,35.742,28,34C28,32,20,32,20,34z"/><path fill="#bc9475" d="M24.571,32h-1.143c0,0-3.429,0-3.429,2c0,0,1-1,4-1c3,0,4,1,4,1C28,32,24.571,32,24.571,32z"/><path fill="#310a03" d="M25.327 36.093c-.475-.509-.467-1.3.018-1.766s1.263-.43 1.738.079C27.558 34.916 25.802 36.602 25.327 36.093zM20.876 34.407c.475-.509 1.253-.545 1.738-.079s.493 1.256.018 1.766C22.157 36.602 20.401 34.916 20.876 34.407z"/></g><g><linearGradient id="lqP99P5_ON9uJZhpAmjP~u" x1="17.867" x2="11.783" y1="37.706" y2="38.118" gradientUnits="userSpaceOnUse"><stop offset="0" stop-color="#e4e0da" stop-opacity="0"/><stop offset=".288" stop-color="#d0bdb0" stop-opacity=".288"/><stop offset=".936" stop-color="#9d6645" stop-opacity=".936"/><stop offset="1" stop-color="#985d3a"/></linearGradient><path fill="url(#lqP99P5_ON9uJZhpAmjP~u)" d="M3.128,38.468l15.16-1.315c0.283-0.025,0.531,0.189,0.556,0.477 c0.024,0.288-0.186,0.542-0.468,0.566c-0.008,0.001-0.017,0.001-0.025,0.002L3.145,38.753C3.068,38.756,3.003,38.694,3,38.615 C2.997,38.539,3.054,38.474,3.128,38.468z"/><linearGradient id="lqP99P5_ON9uJZhpAmjP~v" x1="18.084" x2="11.482" y1="38.724" y2="40.66" gradientUnits="userSpaceOnUse"><stop offset="0" stop-color="#e4e0da" stop-opacity="0"/><stop offset=".288" stop-color="#d0bdb0" stop-opacity=".288"/><stop offset=".936" stop-color="#9d6645" stop-opacity=".936"/><stop offset="1" stop-color="#985d3a"/></linearGradient><path fill="url(#lqP99P5_ON9uJZhpAmjP~v)" d="M5.123,42.692l13.197-4.582c0.269-0.093,0.561,0.053,0.652,0.327s-0.052,0.571-0.321,0.664 c-0.008,0.003-0.018,0.006-0.026,0.008L5.206,42.965c-0.075,0.021-0.152-0.023-0.173-0.099C5.013,42.793,5.053,42.717,5.123,42.692 z"/><linearGradient id="lqP99P5_ON9uJZhpAmjP~w" x1="18.365" x2="12.468" y1="36.616" y2="35.411" gradientUnits="userSpaceOnUse"><stop offset="0" stop-color="#e4e0da" stop-opacity="0"/><stop offset=".288" stop-color="#d0bdb0" stop-opacity=".288"/><stop offset=".936" stop-color="#9d6645" stop-opacity=".936"/><stop offset="1" stop-color="#985d3a"/></linearGradient><path fill="url(#lqP99P5_ON9uJZhpAmjP~w)" d="M3.492,34.001l14.913,1.91c0.282,0.036,0.481,0.298,0.446,0.585 c-0.035,0.287-0.292,0.49-0.574,0.454c-0.008-0.001-0.017-0.003-0.025-0.004L3.451,34.284c-0.076-0.014-0.127-0.088-0.114-0.166 C3.35,34.043,3.419,33.992,3.492,34.001z"/><linearGradient id="lqP99P5_ON9uJZhpAmjP~x" x1="-625.29" x2="-631.374" y1="37.706" y2="38.118" gradientTransform="matrix(-1 0 0 1 -595.157 0)" gradientUnits="userSpaceOnUse"><stop offset="0" stop-color="#e4e0da" stop-opacity="0"/><stop offset=".288" stop-color="#d0bdb0" stop-opacity=".288"/><stop offset=".936" stop-color="#9d6645" stop-opacity=".936"/><stop offset="1" stop-color="#985d3a"/></linearGradient><path fill="url(#lqP99P5_ON9uJZhpAmjP~x)" d="M44.872,38.468l-15.16-1.315c-0.283-0.025-0.531,0.189-0.556,0.477 c-0.024,0.288,0.186,0.542,0.468,0.566c0.008,0.001,0.017,0.001,0.025,0.002l15.205,0.555c0.077,0.003,0.142-0.059,0.145-0.138 C45.003,38.539,44.946,38.474,44.872,38.468z"/><linearGradient id="lqP99P5_ON9uJZhpAmjP~y" x1="-625.073" x2="-631.674" y1="38.724" y2="40.66" gradientTransform="matrix(-1 0 0 1 -595.157 0)" gradientUnits="userSpaceOnUse"><stop offset="0" stop-color="#e4e0da" stop-opacity="0"/><stop offset=".288" stop-color="#d0bdb0" stop-opacity=".288"/><stop offset=".936" stop-color="#9d6645" stop-opacity=".936"/><stop offset="1" stop-color="#985d3a"/></linearGradient><path fill="url(#lqP99P5_ON9uJZhpAmjP~y)" d="M42.877,42.692L29.68,38.111c-0.269-0.093-0.561,0.053-0.652,0.327s0.052,0.571,0.321,0.664 c0.008,0.003,0.018,0.006,0.026,0.008l13.419,3.855c0.075,0.021,0.152-0.023,0.173-0.099 C42.987,42.793,42.947,42.717,42.877,42.692z"/><linearGradient id="lqP99P5_ON9uJZhpAmjP~z" x1="-624.792" x2="-630.688" y1="36.616" y2="35.411" gradientTransform="matrix(-1 0 0 1 -595.157 0)" gradientUnits="userSpaceOnUse"><stop offset="0" stop-color="#e4e0da" stop-opacity="0"/><stop offset=".288" stop-color="#d0bdb0" stop-opacity=".288"/><stop offset=".936" stop-color="#9d6645" stop-opacity=".936"/><stop offset="1" stop-color="#985d3a"/></linearGradient><path fill="url(#lqP99P5_ON9uJZhpAmjP~z)" d="M44.508,34.001l-14.913,1.91c-0.282,0.036-0.481,0.298-0.446,0.585 c0.035,0.287,0.292,0.49,0.574,0.454c0.008-0.001,0.017-0.003,0.025-0.004l14.801-2.662c0.076-0.014,0.127-0.088,0.114-0.166 C44.65,34.043,44.581,33.992,44.508,34.001z"/></g><g><path fill="#310a03" d="M27.523,26.622C28.154,25.708,29.156,25,30.734,25h2.177C33.513,25,34,25.487,34,26.089v1.089 c0,1.677-1.371,3.267-3.266,3.267h-2.502c-0.495,0-0.924-0.332-1.054-0.809C26.963,28.843,26.815,27.613,27.523,26.622z"/><radialGradient id="lqP99P5_ON9uJZhpAmjP~A" cx="-478.044" cy="27.273" r="3.269" gradientTransform="matrix(-.9998 0 0 .9591 -447.236 1.115)" gradientUnits="userSpaceOnUse"><stop offset="0" stop-color="#dce775"/><stop offset=".019" stop-color="#d8e473"/><stop offset=".325" stop-color="#9cbf53"/><stop offset=".55" stop-color="#76a83f"/><stop offset=".668" stop-color="#689f38"/><stop offset=".714" stop-color="#669a36"/><stop offset=".77" stop-color="#608b31"/><stop offset=".832" stop-color="#577228"/><stop offset=".898" stop-color="#4a4f1b"/><stop offset=".967" stop-color="#3a220c"/><stop offset="1" stop-color="#310a03"/></radialGradient><path fill="url(#lqP99P5_ON9uJZhpAmjP~A)" d="M27.468,27.178c0,0.751,0.261,1.448,0.686,1.993c0.588,0.773,1.524,1.274,2.58,1.274 c1.807,0,3.266-1.459,3.266-3.267c0-0.664-0.196-1.285-0.533-1.797c-0.088-0.117-0.176-0.235-0.272-0.344 C33.071,25,32.911,25,32.911,25h-2.177c-1.579,0-2.58,0.708-3.212,1.622c-0.011,0.011,0,0.011,0,0.011 C27.479,26.808,27.468,26.993,27.468,27.178z"/><path fill="#160604" d="M30.201,26.198c0.229,1.176,0.958,2.025,0.958,2.025s0.337-1.056,0.109-2.243 c-0.076-0.37-0.185-0.697-0.327-0.98h-0.207c-0.207,0-0.414,0.011-0.599,0.033C30.114,25.37,30.124,25.773,30.201,26.198z"/><path fill="#fff" d="M30.125 25.535A0.554 0.554 0 1 0 30.125 26.642999999999997A0.554 0.554 0 1 0 30.125 25.535Z"/></g></svg>