<svg xmlns="http://www.w3.org/2000/svg"  viewBox="0 0 48 48" width="96px" height="96px"><path fill="#f0af13" d="M6.369,6.198l10.884,6.787l-11.454,8.91c-0.746-2.007-1.541-4.841-1.722-8.295	c-0.128-2.443,0.011-6.598,0.974-7.416C5.389,5.898,5.933,5.926,6.369,6.198z"/><radialGradient id="PG9PNkklQOH1WXH7l4YIma" cx="1132.672" cy="21.232" r="4.272" fx="1133.42" fy="21.028" gradientTransform="matrix(.9988 -.0093 .0095 .9898 -1127.718 1.711)" gradientUnits="userSpaceOnUse"><stop offset="0" stop-color="#e89b9b"/><stop offset=".509" stop-color="#e84a4a"/><stop offset=".582" stop-color="#e34848"/><stop offset=".667" stop-color="#d54242"/><stop offset=".759" stop-color="#be3937"/><stop offset=".854" stop-color="#9d2b29"/><stop offset=".951" stop-color="#741a17"/><stop offset=".984" stop-color="#641410"/></radialGradient><path fill="url(#PG9PNkklQOH1WXH7l4YIma)" d="M6.119,8.113l5.169,3.452L5.82,17.053c-0.351-1.017-0.725-3.452-0.805-5.199	c-0.057-1.236,0.017-3.338,0.477-3.75C5.653,7.959,5.912,7.974,6.119,8.113z"/><path fill="#f0af13" d="M41.65,6.247l-10.884,6.787l11.454,8.91c0.746-2.007,1.541-4.841,1.722-8.295	c0.128-2.443-0.011-6.598-0.974-7.416C42.63,5.947,42.086,5.975,41.65,6.247z"/><radialGradient id="PG9PNkklQOH1WXH7l4YImb" cx="302.556" cy="13.428" r="4.272" fx="303.304" fy="13.224" gradientTransform="matrix(-.9988 -.0093 -.0095 .9898 346.466 1.711)" gradientUnits="userSpaceOnUse"><stop offset="0" stop-color="#e89b9b"/><stop offset=".509" stop-color="#e84a4a"/><stop offset=".582" stop-color="#e34848"/><stop offset=".667" stop-color="#d54242"/><stop offset=".759" stop-color="#be3937"/><stop offset=".854" stop-color="#9d2b29"/><stop offset=".951" stop-color="#741a17"/><stop offset=".984" stop-color="#641410"/></radialGradient><path fill="url(#PG9PNkklQOH1WXH7l4YImb)" d="M41.863,8.113l-5.169,3.452l5.468,5.489c0.351-1.017,0.725-3.452,0.805-5.199	c0.057-1.236-0.017-3.338-0.477-3.75C42.329,7.959,42.07,7.974,41.863,8.113z"/><radialGradient id="PG9PNkklQOH1WXH7l4YImc" cx="30.34" cy="36.007" r="18.865" gradientTransform="matrix(.9777 0 0 .8334 -5.54 -6.095)" gradientUnits="userSpaceOnUse"><stop offset="0" stop-color="#ffe16e"/><stop offset=".629" stop-color="#ffd226"/><stop offset=".75" stop-color="#fdcd23"/><stop offset=".899" stop-color="#f6bd1b"/><stop offset=".999" stop-color="#f0af13"/></radialGradient><path fill="url(#PG9PNkklQOH1WXH7l4YImc)" d="M24.447,7.105c-0.223-0.006-0.67-0.006-0.893,0C15.55,7.314,4,12.41,4,23.333	c0,2.646,0.644,5.315,1.758,7.163c3.6,5.971,14.997,10.727,14.997,10.727c0.669,0.322,2.069,0.626,2.794,0.755	c0.301,0.054,0.6,0.054,0.901,0c0.726-0.13,2.126-0.434,2.794-0.755c0,0,11.396-4.757,14.997-10.727	C43.356,28.648,44,25.979,44,23.333C44,12.41,32.45,7.314,24.447,7.105z"/><path fill="#d38b0b" d="M24.447,7.105c-0.223-0.006-0.67-0.006-0.893,0c-0.504,0.013-1.022,0.046-1.55,0.098	c0.031,4.332,1.136,7.816,2.497,7.816c1.348,0,2.444-3.418,2.495-7.693C26.12,7.201,25.264,7.126,24.447,7.105z"/><path fill="#d38b0b" d="M16.222,8.488c0.332,2.095,1.003,3.53,1.778,3.53c0.891,0,1.645-1.894,1.904-4.51	C18.689,7.737,17.449,8.062,16.222,8.488z"/><path fill="#d38b0b" d="M32.717,8.838c-1.188-0.467-2.399-0.839-3.597-1.116c0.278,2.504,1.013,4.297,1.88,4.297	C31.731,12.018,32.368,10.74,32.717,8.838z"/><radialGradient id="PG9PNkklQOH1WXH7l4YImd" cx="24" cy="34.972" r="5.014" gradientUnits="userSpaceOnUse"><stop offset=".899" stop-color="#ffe16e"/><stop offset="1" stop-color="#ffe16e" stop-opacity="0"/></radialGradient><circle cx="24" cy="35" r="5" fill="url(#PG9PNkklQOH1WXH7l4YImd)"/><radialGradient id="PG9PNkklQOH1WXH7l4YIme" cx="24" cy="33.5" r="5.256" gradientUnits="userSpaceOnUse"><stop offset="0" stop-color="#1c1911"/><stop offset=".999" stop-color="#171714"/></radialGradient><path fill="url(#PG9PNkklQOH1WXH7l4YIme)" d="M29,33c0-2.761-2.239-5-5-5s-5,2.239-5,5c0,0.171,0,0.829,0,1c0,2.761,2.239,5,5,5 s5-2.239,5-5C29,33.829,29,33.171,29,33z"/><radialGradient id="PG9PNkklQOH1WXH7l4YImf" cx="-78.079" cy="149.32" r="3.653" gradientTransform="matrix(1.3333 0 0 1.74 128 -224.504)" gradientUnits="userSpaceOnUse"><stop offset=".696" stop-color="#cc9000"/><stop offset="1" stop-color="#cc9000" stop-opacity="0"/></radialGradient><path fill="url(#PG9PNkklQOH1WXH7l4YImf)" d="M24,40c-4.633,0-5-4.75-5-4.75s0.269,6.5,5,6.5s5-6.5,5-6.5S28.633,40,24,40z"/><linearGradient id="PG9PNkklQOH1WXH7l4YImg" x1="20.555" x2="27.445" y1="30" y2="30" gradientUnits="userSpaceOnUse"><stop offset=".001" stop-color="#968f72"/><stop offset=".048" stop-color="#b2ad97"/><stop offset=".098" stop-color="#cac6b7"/><stop offset=".153" stop-color="#dddbd2"/><stop offset=".213" stop-color="#ecebe6"/><stop offset=".281" stop-color="#f7f6f4"/><stop offset=".363" stop-color="#fdfdfc"/><stop offset=".5" stop-color="#fff"/><stop offset=".637" stop-color="#fdfdfc"/><stop offset=".719" stop-color="#f7f6f4"/><stop offset=".787" stop-color="#ecebe6"/><stop offset=".847" stop-color="#dddbd2"/><stop offset=".902" stop-color="#cac6b7"/><stop offset=".952" stop-color="#b2ad97"/><stop offset="1" stop-color="#968f72"/></linearGradient><radialGradient id="PG9PNkklQOH1WXH7l4YImh" cx="24" cy="40.327" r="4.417" gradientTransform="matrix(0 1 -.9954 0 64.141 16.327)" gradientUnits="userSpaceOnUse"><stop offset=".456" stop-color="#db4a59"/><stop offset=".602" stop-color="#d84756"/><stop offset=".729" stop-color="#cd3e4d"/><stop offset=".85" stop-color="#bb303e"/><stop offset=".965" stop-color="#a21b29"/><stop offset=".999" stop-color="#991421"/></radialGradient><path fill="url(#PG9PNkklQOH1WXH7l4YImh)" d="M24,38c1.264,0,2.38-0.601,3.113-1.519c-0.479-0.461-1.276-1.037-2.297-1.037	c-0.421,0-0.816,0.408-0.816,0.408s-0.395-0.408-0.816-0.408c-1.021,0-1.818,0.576-2.297,1.037C21.621,37.399,22.736,38,24,38z"/><ellipse cx="32.4" cy="18.5" fill="#fff" rx="3.6" ry="4.5"/><ellipse cx="15.5" cy="18.625" fill="#fff" rx="3.5" ry="4.375"/><radialGradient id="PG9PNkklQOH1WXH7l4YImi" cx="12.463" cy="35.172" r="6.011" gradientTransform="matrix(-.672 -.8736 .6747 -.579 -4.474 66.32)" gradientUnits="userSpaceOnUse"><stop offset=".846" stop-color="#cc9000"/><stop offset="1" stop-color="#cc9000" stop-opacity="0"/></radialGradient><path fill="url(#PG9PNkklQOH1WXH7l4YImi)" d="M17.403,37.597c-2.524,2.524-6.83,2.31-9.618-0.478c-2.788-2.788-3.002-7.094-0.478-9.618	s6.83-2.31,9.618,0.478S19.926,35.074,17.403,37.597z"/><radialGradient id="PG9PNkklQOH1WXH7l4YImj" cx="8.001" cy="30.01" r="11.428" gradientTransform="matrix(.2771 .9608 -.7146 .2061 27.229 16.137)" gradientUnits="userSpaceOnUse"><stop offset="0" stop-color="#ffe16e"/><stop offset=".461" stop-color="#ffd226"/><stop offset=".741" stop-color="#f8c21d"/><stop offset=".999" stop-color="#f0af13"/></radialGradient><path fill="url(#PG9PNkklQOH1WXH7l4YImj)" d="M15.107,33.93c-0.381-0.995-0.921-2.048-1.848-2.93c-2.29-2.176-5.527-2.629-7.23-1.01	c-0.856,0.814-1.16,1.997-0.961,3.248l-0.002,0c0.001,0.002,0.002,0.004,0.003,0.005c0.094,0.588,0.303,1.191,0.617,1.777	c0.613,1.144,1.154,2.336,1.309,3.611C7.3,41.135,6.787,43.588,5.621,46h9.977C16.086,41.657,16.021,36.313,15.107,33.93z"/><path fill="#d38b0b" d="M10.618,40.49c0.066-0.557-1.755-1.26-3.611-1.721c0.094,0.853,0.093,1.7,0.004,2.542	C8.824,41.277,10.555,41.019,10.618,40.49z"/><path fill="#d38b0b" d="M8.998,44.032c0-0.462-1.28-0.751-2.318-0.904c-0.161,0.628-0.367,1.253-0.62,1.876	C7.103,44.991,8.998,44.824,8.998,44.032z"/><path fill="#d38b0b" d="M5.687,35.021c0.323,0.602,0.621,1.218,0.857,1.851c1.277-0.043,2.166-0.288,2.214-0.688	c0.044-0.37-0.927-1.037-3.146-1.332C5.641,34.908,5.657,34.965,5.687,35.021z"/><radialGradient id="PG9PNkklQOH1WXH7l4YImk" cx="59.148" cy="91.808" r="3.241" gradientTransform="matrix(.6415 -.4633 .4362 .3554 -66.086 27.951)" gradientUnits="userSpaceOnUse"><stop offset=".249" stop-color="#ffed94"/><stop offset=".473" stop-color="#fff2b0" stop-opacity=".702"/><stop offset=".955" stop-color="#fffef8" stop-opacity=".059"/><stop offset="1" stop-color="#fff" stop-opacity="0"/></radialGradient><path fill="url(#PG9PNkklQOH1WXH7l4YImk)" d="M14.237,32.181c0.489,1.007-0.159,2.267-1.446,2.816c-1.287,0.548-2.727,0.177-3.216-0.83	s0.159-2.267,1.446-2.816S13.748,31.175,14.237,32.181z"/><radialGradient id="PG9PNkklQOH1WXH7l4YIml" cx="49.839" cy="90.268" r="2.946" gradientTransform="matrix(.8418 -.5898 .5206 .3068 -79.53 33.678)" gradientUnits="userSpaceOnUse"><stop offset=".294" stop-color="#fff7e6"/><stop offset=".615" stop-color="#fffaee" stop-opacity=".546"/><stop offset="1" stop-color="#fff" stop-opacity="0"/></radialGradient><path fill="url(#PG9PNkklQOH1WXH7l4YIml)" d="M12.417,30.562c0.536,0.986-0.375,2.419-2.034,3.2s-3.44,0.614-3.976-0.372	c-0.536-0.986,0.375-2.419,2.034-3.2S11.881,29.576,12.417,30.562z"/><radialGradient id="PG9PNkklQOH1WXH7l4YImm" cx="58.578" cy="92.675" r="2.946" gradientTransform="matrix(.6884 -.332 .3386 .2411 -64.041 27.546)" gradientUnits="userSpaceOnUse"><stop offset="0" stop-color="#ffed94"/><stop offset=".159" stop-color="#ffee9c" stop-opacity=".841"/><stop offset=".412" stop-color="#fff2b3" stop-opacity=".588"/><stop offset=".724" stop-color="#fff9d8" stop-opacity=".276"/><stop offset="1" stop-color="#fff" stop-opacity="0"/></radialGradient><path fill="url(#PG9PNkklQOH1WXH7l4YImm)" d="M10.338,29.85c0.262,0.694-0.586,1.581-1.894,1.982s-2.58,0.163-2.842-0.531	c-0.262-0.694,0.586-1.581,1.894-1.982C8.804,28.918,10.076,29.156,10.338,29.85z"/><ellipse cx="15.5" cy="19" fill="#212121" rx="1.5" ry="2"/><ellipse cx="32.5" cy="19" fill="#212121" rx="1.5" ry="2"/><radialGradient id="PG9PNkklQOH1WXH7l4YImn" cx="-2.816" cy="46.856" r="6.011" gradientTransform="matrix(.672 -.8736 -.6747 -.579 70.53 59.737)" gradientUnits="userSpaceOnUse"><stop offset=".846" stop-color="#cc9000"/><stop offset="1" stop-color="#cc9000" stop-opacity="0"/></radialGradient><path fill="url(#PG9PNkklQOH1WXH7l4YImn)" d="M30.503,37.597c2.524,2.524,6.83,2.31,9.618-0.478c2.788-2.788,3.002-7.094,0.478-9.618	s-6.83-2.31-9.618,0.478C28.193,30.767,27.979,35.074,30.503,37.597z"/><radialGradient id="PG9PNkklQOH1WXH7l4YImo" cx="-15.731" cy="30.01" r="11.428" gradientTransform="matrix(-.2771 .9608 .7146 .2061 14.1 38.94)" gradientUnits="userSpaceOnUse"><stop offset="0" stop-color="#ffe16e"/><stop offset=".461" stop-color="#ffd226"/><stop offset=".741" stop-color="#f8c21d"/><stop offset=".999" stop-color="#f0af13"/></radialGradient><path fill="url(#PG9PNkklQOH1WXH7l4YImo)" d="M32.798,33.93c0.381-0.995,0.921-2.048,1.848-2.93c2.29-2.176,5.527-2.629,7.23-1.01	c0.856,0.814,1.16,1.997,0.961,3.248l0.002,0c-0.001,0.002-0.002,0.004-0.003,0.005c-0.094,0.588-0.303,1.191-0.617,1.777	c-0.613,1.144-1.154,2.336-1.309,3.611c-0.304,2.503,0.209,4.955,1.375,7.368h-9.977C31.82,41.657,31.885,36.313,32.798,33.93z"/><path fill="#d38b0b" d="M37.287,40.49c-0.066-0.557,1.755-1.26,3.611-1.721c-0.094,0.853-0.093,1.7-0.004,2.542	C39.082,41.277,37.351,41.019,37.287,40.49z"/><path fill="#d38b0b" d="M38.907,44.032c0-0.462,1.28-0.751,2.318-0.904c0.161,0.628,0.367,1.253,0.62,1.876	C40.803,44.991,38.907,44.824,38.907,44.032z"/><path fill="#d38b0b" d="M42.219,35.021c-0.323,0.602-0.621,1.218-0.857,1.851c-1.277-0.043-2.166-0.288-2.214-0.688	c-0.044-0.37,0.927-1.037,3.146-1.332C42.265,34.908,42.249,34.965,42.219,35.021z"/><radialGradient id="PG9PNkklQOH1WXH7l4YImp" cx="39.538" cy="66.242" r="3.241" gradientTransform="matrix(-.6415 -.4633 -.4362 .3554 90.26 27.951)" gradientUnits="userSpaceOnUse"><stop offset=".249" stop-color="#ffed94"/><stop offset=".473" stop-color="#fff2b0" stop-opacity=".702"/><stop offset=".955" stop-color="#fffef8" stop-opacity=".059"/><stop offset="1" stop-color="#fff" stop-opacity="0"/></radialGradient><path fill="url(#PG9PNkklQOH1WXH7l4YImp)" d="M33.669,32.181c-0.489,1.007,0.159,2.267,1.446,2.816c1.287,0.548,2.727,0.177,3.216-0.83	s-0.159-2.267-1.446-2.816C35.597,30.803,34.158,31.175,33.669,32.181z"/><radialGradient id="PG9PNkklQOH1WXH7l4YImq" cx="36.959" cy="65.505" r="2.946" gradientTransform="matrix(-.8418 -.5898 -.5206 .3068 103.704 33.678)" gradientUnits="userSpaceOnUse"><stop offset=".324" stop-color="#ffed94"/><stop offset=".431" stop-color="#ffee9c" stop-opacity=".841"/><stop offset=".602" stop-color="#fff2b3" stop-opacity=".588"/><stop offset=".814" stop-color="#fff9d8" stop-opacity=".276"/><stop offset="1" stop-color="#fff" stop-opacity="0"/></radialGradient><path fill="url(#PG9PNkklQOH1WXH7l4YImq)" d="M35.488,30.562c-0.536,0.986,0.375,2.419,2.034,3.2c1.66,0.781,3.44,0.614,3.976-0.372	c0.536-0.986-0.375-2.419-2.034-3.2C37.805,29.409,36.025,29.576,35.488,30.562z"/><radialGradient id="PG9PNkklQOH1WXH7l4YImr" cx="38.023" cy="64.375" r="2.946" gradientTransform="matrix(-.6884 -.332 -.3386 .2411 88.215 27.546)" gradientUnits="userSpaceOnUse"><stop offset="0" stop-color="#ffed94"/><stop offset=".159" stop-color="#ffee9c" stop-opacity=".841"/><stop offset=".412" stop-color="#fff2b3" stop-opacity=".588"/><stop offset=".724" stop-color="#fff9d8" stop-opacity=".276"/><stop offset="1" stop-color="#fff" stop-opacity="0"/></radialGradient><path fill="url(#PG9PNkklQOH1WXH7l4YImr)" d="M37.568,29.85c-0.262,0.694,0.586,1.581,1.894,1.982s2.58,0.163,2.842-0.531	c0.262-0.694-0.586-1.581-1.894-1.982C39.102,28.918,37.83,29.156,37.568,29.85z"/><radialGradient id="PG9PNkklQOH1WXH7l4YIms" cx="59.148" cy="91.808" r="3.241" gradientTransform="matrix(.6415 -.4633 .4362 .3554 -66.086 27.951)" gradientUnits="userSpaceOnUse"><stop offset=".249" stop-color="#fff7e6"/><stop offset="1" stop-color="#fff" stop-opacity="0"/></radialGradient><path fill="url(#PG9PNkklQOH1WXH7l4YIms)" d="M14.237,32.181c0.489,1.007-0.159,2.267-1.446,2.816c-1.287,0.548-2.727,0.177-3.216-0.83	s0.159-2.267,1.446-2.816S13.748,31.175,14.237,32.181z"/><path fill="#261714" d="M27,24c0,0.552-2,3-3,3s-3-2.448-3-3s1.343-1,3-1S27,23.448,27,24z"/><path fill="#291916" d="M26.95,23.991c0,0.543-1.967,2.95-2.95,2.95s-2.95-2.407-2.95-2.95c0-0.543,1.321-0.983,2.95-0.983 S26.95,23.448,26.95,23.991z"/><path fill="#2b1b17" d="M26.9,23.982c0,0.534-1.934,2.9-2.9,2.9s-2.9-2.366-2.9-2.9c0-0.534,1.299-0.967,2.9-0.967 S26.9,23.448,26.9,23.982z"/><path fill="#2e1d19" d="M26.851,23.973c0,0.525-1.9,2.851-2.851,2.851s-2.851-2.326-2.851-2.851s1.276-0.95,2.851-0.95 S26.851,23.448,26.851,23.973z"/><path fill="#301f1a" d="M26.801,23.964c0,0.516-1.867,2.801-2.801,2.801s-2.801-2.285-2.801-2.801s1.254-0.934,2.801-0.934 S26.801,23.449,26.801,23.964z"/><path fill="#33221c" d="M26.751,23.955c0,0.506-1.834,2.751-2.751,2.751s-2.751-2.245-2.751-2.751s1.232-0.917,2.751-0.917 S26.751,23.449,26.751,23.955z"/><path fill="#35241d" d="M26.701,23.947c0,0.497-1.801,2.701-2.701,2.701s-2.701-2.204-2.701-2.701 c0-0.497,1.209-0.9,2.701-0.9S26.701,23.449,26.701,23.947z"/><path fill="#38261f" d="M26.652,23.938c0,0.488-1.768,2.652-2.652,2.652s-2.652-2.163-2.652-2.652 c0-0.488,1.187-0.884,2.652-0.884S26.652,23.449,26.652,23.938z"/><path fill="#3b2820" d="M26.602,23.929c0,0.479-1.734,2.602-2.602,2.602s-2.602-2.123-2.602-2.602s1.165-0.867,2.602-0.867 S26.602,23.45,26.602,23.929z"/><path fill="#3d2a22" d="M26.552,23.92c0,0.47-1.701,2.552-2.552,2.552s-2.552-2.082-2.552-2.552s1.143-0.851,2.552-0.851 S26.552,23.45,26.552,23.92z"/><path fill="#402c23" d="M26.502,23.911c0,0.461-1.668,2.502-2.502,2.502s-2.502-2.042-2.502-2.502s1.12-0.834,2.502-0.834 S26.502,23.45,26.502,23.911z"/><path fill="#422e25" d="M26.452,23.902c0,0.451-1.635,2.452-2.452,2.452s-2.452-2.001-2.452-2.452 c0-0.451,1.098-0.817,2.452-0.817S26.452,23.451,26.452,23.902z"/><path fill="#453026" d="M26.403,23.893c0,0.442-1.602,2.403-2.403,2.403s-2.403-1.96-2.403-2.403 c0-0.442,1.076-0.801,2.403-0.801S26.403,23.451,26.403,23.893z"/><path fill="#473228" d="M26.353,23.884c0,0.433-1.569,2.353-2.353,2.353s-2.353-1.92-2.353-2.353 c0-0.433,1.053-0.784,2.353-0.784S26.353,23.451,26.353,23.884z"/><path fill="#4a3429" d="M26.303,23.875c0,0.424-1.535,2.303-2.303,2.303s-2.303-1.879-2.303-2.303 c0-0.424,1.031-0.768,2.303-0.768S26.303,23.451,26.303,23.875z"/><path fill="#4d372b" d="M26.253,23.866c0,0.415-1.502,2.253-2.253,2.253s-2.253-1.838-2.253-2.253s1.009-0.751,2.253-0.751 S26.253,23.452,26.253,23.866z"/><path fill="#4f392c" d="M26.204,23.857c0,0.406-1.469,2.203-2.204,2.203s-2.204-1.798-2.204-2.203s0.987-0.735,2.204-0.735 S26.204,23.452,26.204,23.857z"/><path fill="#523b2e" d="M26.154,23.849c0,0.396-1.436,2.154-2.154,2.154s-2.154-1.757-2.154-2.154s0.964-0.718,2.154-0.718 S26.154,23.452,26.154,23.849z"/><path fill="#543d2f" d="M26.104,23.84c0,0.387-1.403,2.104-2.104,2.104s-2.104-1.717-2.104-2.104 c0-0.387,0.942-0.701,2.104-0.701S26.104,23.452,26.104,23.84z"/><path fill="#573f31" d="M26.054,23.831c0,0.378-1.369,2.054-2.054,2.054s-2.054-1.676-2.054-2.054 c0-0.378,0.92-0.685,2.054-0.685S26.054,23.453,26.054,23.831z"/><path fill="#594132" d="M26.004,23.822c0,0.369-1.336,2.004-2.004,2.004s-2.004-1.635-2.004-2.004s0.897-0.668,2.004-0.668 S26.004,23.453,26.004,23.822z"/><path fill="#5c4334" d="M25.955,23.813c0,0.36-1.303,1.955-1.955,1.955s-1.955-1.595-1.955-1.955s0.875-0.652,1.955-0.652 S25.955,23.453,25.955,23.813z"/><path fill="#5f4535" d="M25.905,23.804c0,0.351-1.27,1.905-1.905,1.905s-1.905-1.554-1.905-1.905s0.853-0.635,1.905-0.635 S25.905,23.453,25.905,23.804z"/><path fill="#614737" d="M25.855,23.795c0,0.342-1.237,1.855-1.855,1.855s-1.855-1.514-1.855-1.855 c0-0.342,0.831-0.618,1.855-0.618S25.855,23.454,25.855,23.795z"/><path fill="#644938" d="M25.805,23.786c0,0.332-1.204,1.805-1.805,1.805s-1.805-1.473-1.805-1.805 c0-0.332,0.808-0.602,1.805-0.602S25.805,23.454,25.805,23.786z"/><path fill="#664c3a" d="M25.755,23.777c0,0.323-1.17,1.755-1.755,1.755s-1.755-1.432-1.755-1.755S23.03,23.192,24,23.192 S25.755,23.454,25.755,23.777z"/><path fill="#694e3b" d="M25.706,23.768c0,0.314-1.137,1.706-1.706,1.706s-1.706-1.392-1.706-1.706S23.058,23.2,24,23.2 S25.706,23.454,25.706,23.768z"/><path fill="#6b503d" d="M25.656,23.759c0,0.305-1.104,1.656-1.656,1.656s-1.656-1.351-1.656-1.656s0.741-0.552,1.656-0.552 S25.656,23.455,25.656,23.759z"/><path fill="#6e523e" d="M25.606,23.751c0,0.296-1.071,1.606-1.606,1.606s-1.606-1.31-1.606-1.606s0.719-0.535,1.606-0.535 S25.606,23.455,25.606,23.751z"/><path fill="#715440" d="M25.556,23.742c0,0.287-1.038,1.556-1.556,1.556s-1.556-1.27-1.556-1.556S23.14,23.223,24,23.223 S25.556,23.455,25.556,23.742z"/><path fill="#735641" d="M25.507,23.733c0,0.277-1.004,1.507-1.507,1.507s-1.507-1.229-1.507-1.507 c0-0.277,0.675-0.502,1.507-0.502S25.507,23.455,25.507,23.733z"/><path fill="#765843" d="M25.457,23.724c0,0.268-0.971,1.457-1.457,1.457s-1.457-1.189-1.457-1.457 c0-0.268,0.652-0.486,1.457-0.486S25.457,23.456,25.457,23.724z"/><path fill="#785a44" d="M25.407,23.715c0,0.259-0.938,1.407-1.407,1.407s-1.407-1.148-1.407-1.407s0.63-0.469,1.407-0.469 S25.407,23.456,25.407,23.715z"/><path fill="#7b5c46" d="M25.357,23.706c0,0.25-0.905,1.357-1.357,1.357s-1.357-1.107-1.357-1.357S23.25,23.254,24,23.254 S25.357,23.456,25.357,23.706z"/><path fill="#7d5e47" d="M25.307,23.697c0,0.241-0.872,1.307-1.307,1.307s-1.307-1.067-1.307-1.307s0.585-0.436,1.307-0.436 S25.307,23.456,25.307,23.697z"/><path fill="#806149" d="M25.258,23.688c0,0.232-0.838,1.258-1.258,1.258s-1.258-1.026-1.258-1.258 c0-0.232,0.563-0.419,1.258-0.419S25.258,23.457,25.258,23.688z"/><path fill="#83634a" d="M25.208,23.679c0,0.222-0.805,1.208-1.208,1.208s-1.208-0.986-1.208-1.208 c0-0.222,0.541-0.403,1.208-0.403S25.208,23.457,25.208,23.679z"/><path fill="#85654c" d="M25.158,23.67c0,0.213-0.772,1.158-1.158,1.158s-1.158-0.945-1.158-1.158S23.36,23.284,24,23.284 S25.158,23.457,25.158,23.67z"/><path fill="#88674d" d="M25.108,23.661c0,0.204-0.739,1.108-1.108,1.108s-1.108-0.904-1.108-1.108s0.496-0.369,1.108-0.369 S25.108,23.457,25.108,23.661z"/><path fill="#8a694f" d="M25.059,23.652c0,0.195-0.706,1.059-1.059,1.059s-1.059-0.864-1.059-1.059S23.415,23.3,24,23.3 S25.059,23.458,25.059,23.652z"/><path fill="#8d6b50" d="M25.009,23.644c0,0.186-0.673,1.009-1.009,1.009s-1.009-0.823-1.009-1.009 c0-0.186,0.452-0.336,1.009-0.336S25.009,23.458,25.009,23.644z"/><path fill="#8f6d52" d="M24.959,23.635c0,0.177-0.639,0.959-0.959,0.959s-0.959-0.782-0.959-0.959 c0-0.177,0.429-0.32,0.959-0.32S24.959,23.458,24.959,23.635z"/><path fill="#926f53" d="M24.909,23.626c0,0.167-0.606,0.909-0.909,0.909s-0.909-0.742-0.909-0.909s0.407-0.303,0.909-0.303 S24.909,23.458,24.909,23.626z"/><path fill="#957155" d="M24.859,23.617c0,0.158-0.573,0.859-0.859,0.859s-0.859-0.701-0.859-0.859S23.525,23.33,24,23.33 S24.859,23.459,24.859,23.617z"/><path fill="#977356" d="M24.81,23.608c0,0.149-0.54,0.81-0.81,0.81s-0.81-0.661-0.81-0.81s0.362-0.27,0.81-0.27 S24.81,23.459,24.81,23.608z"/><path fill="#9a7658" d="M24.76,23.599c0,0.14-0.507,0.76-0.76,0.76s-0.76-0.62-0.76-0.76s0.34-0.253,0.76-0.253 S24.76,23.459,24.76,23.599z"/><path fill="#9c7859" d="M24.71,23.59c0,0.131-0.473,0.71-0.71,0.71s-0.71-0.579-0.71-0.71s0.318-0.237,0.71-0.237 S24.71,23.459,24.71,23.59z"/><path fill="#9f7a5b" d="M24.66,23.581c0,0.122-0.44,0.66-0.66,0.66s-0.66-0.539-0.66-0.66c0-0.122,0.296-0.22,0.66-0.22 S24.66,23.46,24.66,23.581z"/><path fill="#a17c5c" d="M24.611,23.572c0,0.112-0.407,0.61-0.611,0.61s-0.611-0.498-0.611-0.61 c0-0.112,0.273-0.204,0.611-0.204S24.611,23.46,24.611,23.572z"/><path fill="#a47e5e" d="M24.561,23.563c0,0.103-0.374,0.561-0.561,0.561s-0.561-0.457-0.561-0.561S23.69,23.376,24,23.376 S24.561,23.46,24.561,23.563z"/><linearGradient id="PG9PNkklQOH1WXH7l4YImt" x1="15.272" x2="9.272" y1="26.875" y2="27.281" gradientUnits="userSpaceOnUse"><stop offset="0" stop-color="#d38b0b" stop-opacity="0"/><stop offset="1" stop-color="#c9800a"/></linearGradient><path fill="url(#PG9PNkklQOH1WXH7l4YImt)" d="M0.737,27.612l14.951-1.273c0.279-0.024,0.524,0.183,0.548,0.462	c0.024,0.279-0.183,0.524-0.462,0.548c-0.008,0.001-0.017,0.001-0.025,0.002L0.753,27.888c-0.076,0.003-0.14-0.057-0.143-0.133	C0.608,27.681,0.664,27.618,0.737,27.612z"/><linearGradient id="PG9PNkklQOH1WXH7l4YImu" x1="15.759" x2="9.947" y1="25.846" y2="24.659" gradientUnits="userSpaceOnUse"><stop offset="0" stop-color="#d38b0b" stop-opacity="0"/><stop offset="1" stop-color="#c9800a"/></linearGradient><path fill="url(#PG9PNkklQOH1WXH7l4YImu)" d="M1.096,23.288l14.707,1.848c0.278,0.035,0.475,0.288,0.44,0.566	c-0.035,0.278-0.288,0.475-0.566,0.44c-0.008-0.001-0.017-0.002-0.025-0.004L1.054,23.562c-0.075-0.013-0.125-0.085-0.112-0.16	C0.955,23.329,1.023,23.279,1.096,23.288z"/><linearGradient id="PG9PNkklQOH1WXH7l4YImv" x1="-831.885" x2="-837.885" y1="26.875" y2="27.281" gradientTransform="matrix(-1 0 0 1 -799.157 0)" gradientUnits="userSpaceOnUse"><stop offset="0" stop-color="#d38b0b" stop-opacity="0"/><stop offset="1" stop-color="#c9800a"/></linearGradient><path fill="url(#PG9PNkklQOH1WXH7l4YImv)" d="M47.263,27.612l-14.951-1.273c-0.279-0.024-0.524,0.183-0.548,0.462	c-0.024,0.279,0.183,0.524,0.462,0.548c0.008,0.001,0.017,0.001,0.025,0.002l14.996,0.538c0.076,0.003,0.14-0.057,0.143-0.133	C47.392,27.681,47.336,27.618,47.263,27.612z"/><linearGradient id="PG9PNkklQOH1WXH7l4YImw" x1="-831.398" x2="-837.21" y1="25.846" y2="24.659" gradientTransform="matrix(-1 0 0 1 -799.157 0)" gradientUnits="userSpaceOnUse"><stop offset="0" stop-color="#d38b0b" stop-opacity="0"/><stop offset="1" stop-color="#c9800a"/></linearGradient><path fill="url(#PG9PNkklQOH1WXH7l4YImw)" d="M46.904,23.288l-14.707,1.848c-0.278,0.035-0.475,0.288-0.44,0.566	c0.035,0.278,0.288,0.475,0.566,0.44c0.008-0.001,0.017-0.002,0.025-0.004l14.597-2.577c0.075-0.013,0.125-0.085,0.112-0.16	C47.045,23.329,46.977,23.279,46.904,23.288z"/><radialGradient id="PG9PNkklQOH1WXH7l4YImx" cx="58.578" cy="92.675" r="2.946" gradientTransform="matrix(.6998 -.2958 .3042 .1318 -61.635 35.185)" gradientUnits="userSpaceOnUse"><stop offset="0" stop-color="#fff7e6"/><stop offset=".454" stop-color="#fffaee" stop-opacity=".546"/><stop offset="1" stop-color="#fff" stop-opacity="0"/></radialGradient><path fill="url(#PG9PNkklQOH1WXH7l4YImx)" d="M10.197,29.402c0.185,0.45-0.724,1.142-2.031,1.546s-2.516,0.367-2.701-0.083	c-0.185-0.45,0.724-1.142,2.031-1.546S10.012,28.952,10.197,29.402z"/><path fill="#d38b0b" d="M9.671,33.804c0.599-0.661,1.271-1.26,2.03-1.634c0.75-0.376,1.539-0.486,2.32-0.301	c-0.23-0.302-0.447-0.591-0.739-0.869c-0.037-0.035-0.079-0.061-0.117-0.096c-0.653,0.082-1.286,0.295-1.815,0.639	c-0.831,0.526-1.468,1.241-2.018,1.985c-0.064,0.09-0.054,0.219,0.031,0.293C9.453,33.902,9.591,33.894,9.671,33.804z"/><path fill="#d38b0b" d="M6.703,31.916c0.663-0.784,1.548-1.352,2.488-1.711c0.775-0.293,1.641-0.448,2.426-0.398	c-0.545-0.292-1.11-0.504-1.667-0.633c-0.346,0.116-0.708,0.263-1.03,0.424c-0.984,0.501-1.865,1.214-2.481,2.121	c-0.046,0.069-0.034,0.165,0.031,0.219C6.542,31.996,6.645,31.986,6.703,31.916z"/><radialGradient id="PG9PNkklQOH1WXH7l4YImy" cx="39.538" cy="66.242" r="3.241" gradientTransform="matrix(-.6415 -.4633 -.4362 .3554 90.26 27.951)" gradientUnits="userSpaceOnUse"><stop offset=".249" stop-color="#fff7e6"/><stop offset="1" stop-color="#fff" stop-opacity="0"/></radialGradient><path fill="url(#PG9PNkklQOH1WXH7l4YImy)" d="M33.669,32.181c-0.489,1.007,0.159,2.267,1.446,2.816c1.287,0.548,2.727,0.177,3.216-0.83	s-0.159-2.267-1.446-2.816C35.597,30.803,34.158,31.175,33.669,32.181z"/><radialGradient id="PG9PNkklQOH1WXH7l4YImz" cx="36.959" cy="65.505" r="2.946" gradientTransform="matrix(-.8418 -.5898 -.5206 .3068 103.704 33.678)" gradientUnits="userSpaceOnUse"><stop offset=".324" stop-color="#fff7e6"/><stop offset=".631" stop-color="#fffaee" stop-opacity=".546"/><stop offset="1" stop-color="#fff" stop-opacity="0"/></radialGradient><path fill="url(#PG9PNkklQOH1WXH7l4YImz)" d="M35.488,30.562c-0.536,0.986,0.375,2.419,2.034,3.2c1.66,0.781,3.44,0.614,3.976-0.372	c0.536-0.986-0.375-2.419-2.034-3.2C37.805,29.409,36.025,29.576,35.488,30.562z"/><radialGradient id="PG9PNkklQOH1WXH7l4YImA" cx="38.023" cy="64.375" r="2.946" gradientTransform="matrix(-.6884 -.332 -.3386 .2411 88.215 27.546)" gradientUnits="userSpaceOnUse"><stop offset="0" stop-color="#fff7e6"/><stop offset=".454" stop-color="#fffaee" stop-opacity=".546"/><stop offset="1" stop-color="#fff" stop-opacity="0"/></radialGradient><path fill="url(#PG9PNkklQOH1WXH7l4YImA)" d="M37.568,29.85c-0.262,0.694,0.586,1.581,1.894,1.982s2.58,0.163,2.842-0.531	c0.262-0.694-0.586-1.581-1.894-1.982C39.102,28.918,37.83,29.156,37.568,29.85z"/><path fill="#d38b0b" d="M38.235,33.804c-0.599-0.661-1.271-1.26-2.03-1.634c-0.75-0.376-1.539-0.486-2.32-0.301	c0.23-0.302,0.447-0.591,0.739-0.869c0.037-0.035,0.079-0.061,0.117-0.096c0.653,0.082,1.286,0.295,1.815,0.639	c0.831,0.526,1.468,1.241,2.018,1.985c0.064,0.09,0.054,0.219-0.031,0.293C38.453,33.902,38.315,33.894,38.235,33.804z"/><path fill="#d38b0b" d="M41.202,31.916c-0.663-0.784-1.548-1.352-2.488-1.711c-0.775-0.293-1.641-0.448-2.426-0.398	c0.545-0.292,1.11-0.504,1.667-0.633c0.346,0.116,0.708,0.263,1.03,0.424c0.984,0.501,1.865,1.214,2.481,2.121	c0.046,0.069,0.034,0.165-0.031,0.219C41.364,31.996,41.26,31.986,41.202,31.916z"/></svg>