<svg xmlns="http://www.w3.org/2000/svg"  viewBox="0 0 100 100" width="100px" height="100px"><path d="M32.771,93.195c-3.86,0-7-3.14-7-7c0-3.304,1.406-7.527,3.219-10.043 c-2.919-1.609-5.387-3.413-5.814-6.923c-0.083-0.692-0.099-1.38-0.05-2.056c0.003-0.041,0.032-0.353,0.032-0.353 c0.243-3.145,1.176-6.317,2.668-9.209c-0.418,0.024-0.838,0.037-1.258,0.037c-11.901,0-21.583-9.682-21.583-21.583 S12.666,14.48,24.567,14.48c3.123,0,6.167,0.67,8.968,1.958c4.08-2.851,8.924-4.389,13.97-4.389h6.988 c5.046,0,9.891,1.539,13.97,4.389c2.802-1.289,5.845-1.958,8.968-1.958c11.901,0,21.583,9.682,21.583,21.583 s-9.682,21.583-21.583,21.583c-0.43,0-0.858-0.013-1.286-0.038c1.485,2.888,2.421,6.079,2.679,9.282c0,0,0.017,0.169,0.02,0.216 c0.054,0.734,0.039,1.43-0.046,2.127c-0.424,3.5-2.522,6.439-5.432,8.05c1.816,2.517,2.862,5.603,2.862,8.91c0,3.86-3.14,7-7,7 H32.771z" opacity=".35"/><path fill="#f2f2f2" d="M30.771,91.195c-3.86,0-7-3.14-7-7c0-3.304,1.044-6.388,2.857-8.904 c-2.919-1.609-5.025-4.553-5.453-8.062c-0.083-0.692-0.099-1.38-0.05-2.056c0.003-0.041,0.032-0.353,0.032-0.353 c0.243-3.145,1.176-6.317,2.668-9.209c-0.418,0.024-0.838,0.037-1.258,0.037c-11.901,0-21.583-9.682-21.583-21.583 S10.666,12.48,22.567,12.48c3.123,0,6.167,0.67,8.968,1.958c4.08-2.851,8.924-4.389,13.97-4.389h6.988 c5.046,0,9.891,1.539,13.97,4.389c2.802-1.289,5.845-1.958,8.968-1.958c11.901,0,21.583,9.682,21.583,21.583 s-9.682,21.583-21.583,21.583c-0.43,0-0.858-0.013-1.286-0.038c1.485,2.888,2.421,6.079,2.679,9.282c0,0,0.017,0.169,0.02,0.216 c0.054,0.734,0.039,1.43-0.046,2.127c-0.424,3.5-2.522,6.439-5.432,8.05c1.816,2.517,2.862,5.603,2.862,8.91c0,3.86-3.14,7-7,7 H30.771z"/><path fill="#d47f56" d="M29.016,65.497c0.314-4.051,2.082-7.813,4.63-10.553c1.272-1.384,2.723-2.55,4.317-3.475 c0.483-0.277-1.103-2.911-0.593-3.143c1.178-0.536,4.514,1.442,5.87,1.255c0.997-0.139,1.918,0.56,2.054,1.557 c0.12,0.871-0.396,1.683-1.192,1.967l-0.148,0.053c-2.401,0.857-4.632,2.897-5.999,5.152c-1.402,2.284-1.938,4.833-1.652,7.188 c0.244,2.013-1.189,3.843-3.201,4.087c-2.013,0.244-3.843-1.189-4.087-3.201c-0.029-0.239-0.035-0.474-0.018-0.705L29.016,65.497z"/><path fill="#d47f56" d="M68.984,65.497c-0.314-4.051-2.082-7.813-4.63-10.553c-1.272-1.384-2.723-2.55-4.317-3.475 c-0.619-0.355,1.964-3.304,1.3-3.582c-1.051-0.44-5.386,1.857-6.577,1.693c-0.997-0.139-1.918,0.56-2.054,1.557 c-0.12,0.871,0.396,1.683,1.192,1.967l0.148,0.053c2.401,0.857,4.632,2.897,5.999,5.152c1.402,2.284,1.938,4.833,1.652,7.188 c-0.244,2.013,1.189,3.843,3.201,4.087c2.013,0.244,3.843-1.189,4.087-3.201c0.029-0.239,0.035-0.474,0.018-0.705L68.984,65.497z"/><ellipse cx="49" cy="64.142" fill="#d47f56" rx="12.761" ry="16.406"/><path fill="none" stroke="#40396e" stroke-linecap="round" stroke-linejoin="round" stroke-miterlimit="10" stroke-width="3" d="M35.846,66.574c-0.213-1.678-0.184-3.316,0.054-4.858"/><path fill="none" stroke="#40396e" stroke-linecap="round" stroke-linejoin="round" stroke-miterlimit="10" stroke-width="3" d="M62.062,61.716c0.238,1.542,0.266,3.18,0.054,4.858"/><ellipse cx="49" cy="60.497" fill="#ffb789" rx="9.115" ry="10.938"/><path fill="#d47f56" d="M47.177,84.195c0-4.53-3.673-8.203-8.203-8.203s-8.203,3.673-8.203,8.203H47.177z"/><path fill="#d47f56" d="M67.229,84.195c0-4.53-3.673-8.203-8.203-8.203s-8.203,3.673-8.203,8.203H67.229z"/><circle cx="22.567" cy="34.064" r="14.584" fill="#d47f56"/><circle cx="22.567" cy="34.064" r="10.064" fill="#40396e" opacity=".35"/><circle cx="75.433" cy="34.064" r="14.584" fill="#d47f56"/><circle cx="75.433" cy="34.064" r="10.064" fill="#40396e" opacity=".35"/><path fill="#d47f56" d="M45.506,50.989c-9.082,0-16.47-7.388-16.47-16.47s7.388-16.47,16.47-16.47h6.988 c9.082,0,16.47,7.388,16.47,16.47s-7.388,16.47-16.47,16.47H45.506z"/><path fill="#ffb789" d="M31.96,34.52L31.96,34.52c0-7.467,6.053-13.52,13.52-13.52h7.041c7.467,0,13.52,6.053,13.52,13.52v0 c0,7.467-6.053,13.52-13.52,13.52h-7.041C38.013,48.039,31.96,41.986,31.96,34.52z"/><circle cx="39.885" cy="34.975" r="4.557" fill="#fff"/><circle cx="40.681" cy="34.179" r="3.531" fill="#40396e"/><polygon fill="#40396e" points="47.177,38.988 49,35.343 50.823,38.988"/><circle cx="58.115" cy="34.975" r="4.557" fill="#fff"/><circle cx="58.911" cy="34.179" r="3.531" fill="#40396e"/><path fill="#de5147" d="M45.354,42.506c1.367,0.802,5.925,0.802,7.292,0c-0.456,1.604-1.823,2.407-3.646,2.407 S45.81,44.111,45.354,42.506z"/><path fill="none" stroke="#40396e" stroke-linecap="round" stroke-linejoin="round" stroke-miterlimit="10" stroke-width="3" d="M51.823,84.695c-0.276,0-0.5-0.224-0.5-0.5c0-1.149,0.231-2.289,0.675-3.349c-0.674,0.135-2.342,0.203-2.998,0.203 s-2.324-0.068-2.998-0.203c0.444,1.06,0.675,2.2,0.675,3.349c0,0.276-0.224,0.5-0.5,0.5H30.771c-0.276,0-0.5-0.224-0.5-0.5 c0-4.799,3.904-8.703,8.703-8.703c0.07,0,0.14,0.001,0.211,0.003c-1.787-2.498-2.923-5.553-3.304-8.857 c-0.302,1.772-1.736,3.215-3.609,3.443c-0.17,0.021-0.339,0.03-0.507,0.03c-2.104,0-3.883-1.577-4.137-3.667 c-0.032-0.269-0.039-0.539-0.02-0.802l0.019-0.194c0.307-3.964,2.043-7.921,4.762-10.844c1.301-1.415,2.793-2.616,4.432-3.567 c0.234-0.134,0.48-0.266,0.741-0.397c-2.224-1.102-4.217-2.672-5.829-4.598c-2.621,2.007-5.856,3.106-9.166,3.106 c-8.317,0-15.083-6.767-15.083-15.083S14.25,18.98,22.567,18.98c3.516,0,6.914,1.235,9.624,3.489 c3.412-3.769,8.235-5.92,13.314-5.92h6.988c5.079,0,9.903,2.151,13.314,5.92c2.71-2.254,6.108-3.489,9.624-3.489 c8.317,0,15.083,6.767,15.083,15.083S83.75,49.147,75.433,49.147c-3.31,0-6.545-1.1-9.166-3.106 c-1.615,1.93-3.612,3.502-5.841,4.604c0.256,0.129,0.498,0.259,0.728,0.391c1.641,0.952,3.132,2.152,4.436,3.57 c2.717,2.921,4.453,6.878,4.761,10.853l0.017,0.169c0.02,0.28,0.013,0.55-0.02,0.816c-0.253,2.09-2.032,3.667-4.136,3.667 c-0.167,0-0.336-0.01-0.507-0.03c-1.106-0.134-2.093-0.691-2.78-1.569c-0.417-0.532-0.693-1.144-0.815-1.79 c-0.39,3.271-1.522,6.296-3.294,8.772c0.071-0.002,0.142-0.003,0.211-0.003c4.799,0,8.703,3.904,8.703,8.703 c0,0.276-0.224,0.5-0.5,0.5H51.823z"/><path fill="none" stroke="#40396e" stroke-linecap="round" stroke-linejoin="round" stroke-miterlimit="10" stroke-width="3" d="M39.406,26.251c0.83-0.405,1.906-0.751,3.154-0.751"/><path fill="none" stroke="#40396e" stroke-linecap="round" stroke-linejoin="round" stroke-miterlimit="10" stroke-width="3" d="M58.594,26.251c-0.83-0.405-1.906-0.751-3.154-0.751"/></svg>