<svg xmlns="http://www.w3.org/2000/svg"  viewBox="0 0 48 48" width="48px" height="48px"><path fill="#313131" d="M24,8L24,8C15.716,8,9,14.716,9,23v16c0.871,3.394,2,6,2,6v-6h0.5l0.5,4c1.719,3.625,4,5,4,5v-5h15v5	c0,0,4-2,6-9l1,6c0,0,1-5,1-13v-9C39,14.716,32.284,8,24,8z"/><path fill="#ffdbd0" d="M14,20v20.481c0,0.494,0.178,0.967,0.509,1.334c0.003,0.003,0.005,0.006,0.008,0.01 c0.3,0.33,0.701,0.74,1.147,1.175h-0.008c2.142,2.091,5.721,5,8.344,5s6.202-2.909,8.344-5h-0.008 c0.446-0.435,0.847-0.845,1.147-1.175c0.003-0.003,0.005-0.006,0.008-0.01C33.822,41.448,34,40.976,34,40.481V20H14z"/><path fill="#f5e9e8" d="M35,28c0,0-4,0-5,0c-2,0-3,2-3,2v1l8,0V28z"/><circle cx="30.5" cy="29.5" r="1.5" fill="#bf360c"/><path fill="#212121" d="M27,30c0,0,0.875-1,6.125-1L35,29v-2c0,0-2.5,0-3,0C28,27,27,30,27,30z"/><polygon fill="#2c2c2c" points="36,24 28,27 26,27 31,24"/><path fill="#f5e9e8" d="M13,28c0,0,4,0,5,0c2,0,3,2,3,2v1l-8,0V28z"/><circle cx="17.5" cy="29.5" r="1.5" fill="#bf360c"/><path fill="#212121" d="M21,30c0,0-0.875-1-6.125-1L13,29l0-2c0,0,2.5,0,3,0C20,27,21,30,21,30z"/><polygon fill="#2c2c2c" points="12,24 20,27 22,27 17,24"/><g><path fill="#ffbca7" d="M26,27c0,0-1,1-1,2c0,2,7,9,7,9s-5-8-5-9s1-2,1-2H26z"/><path fill="#ffbca7" d="M22,27c0,0,1,1,1,2c0,2-7,9-7,9s5-8,5-9s-1-2-1-2H22z"/><rect width="6" height="2" x="21" y="41" fill="#ffbca7"/><path fill="#ffbca7" d="M22,37h4c0,0-1,2-2,2S22,37,22,37z"/><path fill="#ffbca7" d="M23,33v-4l-2,1C21,30,22,30.5,23,33z"/></g><g><rect width="26" height="12" x="11" y="13" fill="#6c6c76"/><rect width="26" height="8" x="11" y="15" fill="#b2b2bc"/><path fill="#6c6c76" d="M28.229,16.021c-0.195-0.195-0.512-0.195-0.707,0l-0.806,0.806C26.245,16.487,25.373,16,24.25,16 c-1.775,0-3.164,1.305-3.236,2.992l-0.974,2.314c-0.065,0.154-0.048,0.331,0.044,0.47C20.176,21.916,20.333,22,20.5,22h3.375 C24.696,22,26,21.423,26,19.875C26,18.789,25.369,18,24.5,18c-1.035,0-1.431,0.853-1.495,1.304 c-0.039,0.273,0.151,0.527,0.425,0.566c0.264,0.038,0.525-0.151,0.565-0.424C24.002,19.4,24.071,19,24.5,19 c0.328,0,0.5,0.44,0.5,0.875C25,20.969,23.887,21,23.875,21C22.719,21,22,20.282,22,19.125C22,18.081,22.842,17,24.25,17 c1.263,0,2.14,0.847,2.146,0.854c0.195,0.195,0.512,0.195,0.707,0l1.125-1.125C28.424,16.533,28.424,16.217,28.229,16.021z"/><rect width="26" height="2" x="11" y="18" fill="#6c6c76"/></g><g><rect width="2" height="20" x="12" y="13" fill="#313131"/><rect width="2" height="20" x="34" y="13" fill="#313131"/><rect width="2" height="2" x="16" y="13" fill="#2c2c2c"/><rect width="2" height="2" x="30" y="13" fill="#2c2c2c"/><path fill="#424242" d="M38.5,8.125C35.329,4.161,29.375,2,28,2c-2,0-2.745,1-4,1s-2-1-4-1c-1.375,0-7.329,2.161-10.5,6.125 C7.5,10.625,6,17.078,6,22c0,7.147,1,18,1,18l1-8c0,0,0,2.625,1,7c0-3,1-9,1-9s0,8,2,13c0-8.5,2-25,2-25c1,5,2,7,2,7s0-10,1-12 c0,0,0,15,2,19c0-14,1-22,1-22s2,0,4,3c2-3,4-3,4-3s1,15,1,26c2-4,2-23,2-23c1,5,1,12,1,12s1-1,2-7c0,0,2,5,2,18c2-5,2-8,2-8 s0,9,0,17c2-5,2-13,2-13l1,8c0,0,1-8,1-18C42,17.078,40.5,10.625,38.5,8.125z"/></g></svg>