<?xml version="1.0" ?><svg style="enable-background:new 0 0 24 24;" version="1.1" viewBox="0 0 24 24" xml:space="preserve" xmlns="http://www.w3.org/2000/svg" xmlns:xlink="http://www.w3.org/1999/xlink"><style type="text/css">
	.st0{display:none;}
</style><g class="st0" id="grid"/><g id="icon"><path d="M8.163,12.526l-0.002,0.002c-0.058,0.058-0.093,0.128-0.117,0.201c-0.002,0.008-0.01,0.012-0.012,0.02l-0.991,3.595   c-0.048,0.173,0.001,0.359,0.128,0.486c0.095,0.095,0.223,0.146,0.354,0.146c0.044,0,0.089-0.006,0.133-0.018l3.595-0.991   c0.008-0.002,0.012-0.009,0.02-0.012c0.073-0.024,0.143-0.059,0.201-0.117l0.002-0.002c0,0,0,0,0,0l12.17-12.17   c0.474-0.474,0.474-1.244,0-1.718l-1.593-1.593c-0.474-0.474-1.244-0.474-1.718,0L8.163,12.526   C8.163,12.526,8.163,12.526,8.163,12.526z M21.041,1.063c0.084-0.084,0.22-0.084,0.304,0l1.593,1.593   c0.083,0.084,0.083,0.22,0,0.304l-0.443,0.443l-1.896-1.896L21.041,1.063z M19.891,2.213l1.896,1.896L11.118,14.778l-1.896-1.896   L19.891,2.213z M8.769,13.843l1.389,1.389L8.24,15.76L8.769,13.843z"/><path d="M1.818,24h17.364C20.185,24,21,23.185,21,22.182V10.414c0-0.276-0.224-0.5-0.5-0.5s-0.5,0.224-0.5,0.5v11.768   C20,22.633,19.633,23,19.182,23H1.818C1.367,23,1,22.633,1,22.182V4.818C1,4.367,1.367,4,1.818,4h11.768c0.276,0,0.5-0.224,0.5-0.5   S13.862,3,13.586,3H1.818C0.815,3,0,3.815,0,4.818v17.364C0,23.185,0.815,24,1.818,24z"/></g></svg>