<svg xmlns="http://www.w3.org/2000/svg"  viewBox="0 0 48 48" width="96px" height="96px"><radialGradient id="Dj0xEJi~GZStM8z27iiBla" cx="24" cy="24" r="18" fx="23.905" fy="16.289" gradientUnits="userSpaceOnUse"><stop offset="0" stop-color="#ffe16e"/><stop offset=".629" stop-color="#ffd226"/><stop offset=".75" stop-color="#fdcd23"/><stop offset=".899" stop-color="#f6bd1b"/><stop offset=".999" stop-color="#f0af13"/></radialGradient><circle cx="24" cy="24" r="18" fill="url(#Dj0xEJi~GZStM8z27iiBla)"/><radialGradient id="Dj0xEJi~GZStM8z27iiBlb" cx="36" cy="27" r="5" gradientUnits="userSpaceOnUse"><stop offset="0" stop-color="#ff8400" stop-opacity=".6"/><stop offset=".999" stop-color="#ff8400" stop-opacity="0"/></radialGradient><circle cx="36" cy="27" r="5" fill="url(#Dj0xEJi~GZStM8z27iiBlb)"/><radialGradient id="Dj0xEJi~GZStM8z27iiBlc" cx="12" cy="27" r="5" gradientUnits="userSpaceOnUse"><stop offset="0" stop-color="#ff8400" stop-opacity=".5"/><stop offset=".999" stop-color="#ff8400" stop-opacity="0"/></radialGradient><circle cx="12" cy="27" r="5" fill="url(#Dj0xEJi~GZStM8z27iiBlc)"/><radialGradient id="Dj0xEJi~GZStM8z27iiBld" cx="23.988" cy="29.43" r="5.577" fx="23.984" fy="29.639" gradientUnits="userSpaceOnUse"><stop offset=".914" stop-color="#ffe16e"/><stop offset="1" stop-color="#ffe16e" stop-opacity="0"/></radialGradient><path fill="url(#Dj0xEJi~GZStM8z27iiBld)" d="M24,33c-4.106,0-5.336-1.456-5.336-1.456S19.98,35,24,35l0-0.001V35	c4.02,0,5.336-3.456,5.336-3.456S28.106,33,24,33z"/><radialGradient id="Dj0xEJi~GZStM8z27iiBle" cx="24.046" cy="31.778" r="5.044" gradientUnits="userSpaceOnUse"><stop offset=".696" stop-color="#cc9000"/><stop offset="1" stop-color="#cc9000" stop-opacity="0"/></radialGradient><path fill="url(#Dj0xEJi~GZStM8z27iiBle)" d="M24,35c-3.51,0-5-2.767-5-2.767S20.058,37,24,37s5-4.767,5-4.767S27.51,35,24,35z"/><radialGradient id="Dj0xEJi~GZStM8z27iiBlf" cx="24" cy="28.913" r="15.654" gradientTransform="matrix(-.35 0 0 .1877 32.4 26.03)" gradientUnits="userSpaceOnUse"><stop offset="0" stop-color="#1c1911"/><stop offset=".999" stop-color="#171714"/></radialGradient><path fill="url(#Dj0xEJi~GZStM8z27iiBlf)" d="M19.299,30.805c-0.501-0.276-0.995,0.358-0.608,0.779C19.815,32.806,21.542,34,24,34	s4.185-1.194,5.309-2.416c0.387-0.421-0.107-1.055-0.608-0.779C27.55,31.441,25.976,32,24,32S20.45,31.441,19.299,30.805z"/><radialGradient id="Dj0xEJi~GZStM8z27iiBlg" cx="35.039" cy="8.227" r="5.739" gradientUnits="userSpaceOnUse"><stop offset="0" stop-color="#ff7666"/><stop offset=".126" stop-color="#fb6c59"/><stop offset=".714" stop-color="#ec4023"/><stop offset="1" stop-color="#e62f0e"/></radialGradient><path fill="url(#Dj0xEJi~GZStM8z27iiBlg)" d="M39.273,6C37.92,6,37,6.909,37,6.909S36.085,6,34.727,6C33.221,6,32,7.221,32,8.727	c0,2.727,5,5.455,5,5.455s5-2.727,5-5.455C42,7.221,40.779,6,39.273,6z"/><radialGradient id="Dj0xEJi~GZStM8z27iiBlh" cx="37.431" cy="34.905" r="4.729" gradientUnits="userSpaceOnUse"><stop offset="0" stop-color="#ff7666"/><stop offset=".126" stop-color="#fb6c59"/><stop offset=".714" stop-color="#ec4023"/><stop offset="1" stop-color="#e62f0e"/></radialGradient><path fill="url(#Dj0xEJi~GZStM8z27iiBlh)" d="M40.818,33C39.736,33,39,33.727,39,33.727S38.268,33,37.182,33C35.977,33,35,33.977,35,35.182	C35,37.364,39,40,39,40s4-2.636,4-4.818C43,33.977,42.023,33,40.818,33z"/><radialGradient id="Dj0xEJi~GZStM8z27iiBli" cx="6.646" cy="31.672" r="6.887" gradientUnits="userSpaceOnUse"><stop offset="0" stop-color="#ff7666"/><stop offset=".126" stop-color="#fb6c59"/><stop offset=".714" stop-color="#ec4023"/><stop offset="1" stop-color="#e62f0e"/></radialGradient><path fill="url(#Dj0xEJi~GZStM8z27iiBli)" d="M11.727,29C10.104,29,9,30.091,9,30.091S7.902,29,6.273,29C4.465,29,3,30.465,3,32.273	c0,3.273,6,6.545,6,6.545s6-3.273,6-6.545C15,30.465,13.535,29,11.727,29z"/><circle cx="34.5" cy="22.5" r=".5" fill="#212121"/><path fill="#212121" d="M27.742,22.939c0,0,1.726-0.944,3.258-0.944s3.258,0.944,3.258,0.944l0.631-0.754 c0,0-1.765-2.185-3.889-2.185s-3.889,2.185-3.889,2.185L27.742,22.939z"/><circle cx="27.5" cy="22.5" r=".5" fill="#212121"/><g><circle cx="20.5" cy="22.5" r=".5" fill="#212121"/><path fill="#212121" d="M13.742,22.939c0,0,1.726-0.944,3.258-0.944s3.258,0.944,3.258,0.944l0.631-0.754 c0,0-1.765-2.185-3.889-2.185s-3.889,2.185-3.889,2.185L13.742,22.939z"/><circle cx="13.5" cy="22.5" r=".5" fill="#212121"/></g></svg>