<svg xmlns="http://www.w3.org/2000/svg"  viewBox="0 0 48 48" width="96px" height="96px"><radialGradient id="Lo6zlUyUVwBVQSmIAZ_Cja" cx="34.99" cy="18.834" r="2.47" gradientTransform="matrix(.9938 .1701 -.4458 2.1078 12.493 -17.055)" gradientUnits="userSpaceOnUse"><stop offset="0" stop-color="#f9e5c8"/><stop offset=".103" stop-color="#f8daba"/><stop offset=".306" stop-color="#f5d5b5"/><stop offset=".56" stop-color="#eec7a5"/><stop offset=".839" stop-color="#e1b08c"/><stop offset=".999" stop-color="#d8a07a"/></radialGradient><path fill="url(#Lo6zlUyUVwBVQSmIAZ_Cja)" d="M38,34c-0.6,0-0.932-0.234-0.846-0.753C37.327,32.207,38.01,25,38.01,25	c1.716,0,3.99,0,3.99,3C42,31.34,40.495,34,38,34z"/><radialGradient id="Lo6zlUyUVwBVQSmIAZ_Cjb" cx="-602.485" cy="18.834" r="2.47" gradientTransform="matrix(-.9938 .1701 .4458 2.1078 -597.986 91.398)" gradientUnits="userSpaceOnUse"><stop offset="0" stop-color="#f9e5c8"/><stop offset=".103" stop-color="#f8daba"/><stop offset=".306" stop-color="#f5d5b5"/><stop offset=".56" stop-color="#eec7a5"/><stop offset=".839" stop-color="#e1b08c"/><stop offset=".999" stop-color="#d8a07a"/></radialGradient><path fill="url(#Lo6zlUyUVwBVQSmIAZ_Cjb)" d="M10,34c0.6,0,0.932-0.234,0.846-0.753C10.673,32.207,9.99,25,9.99,25C8.274,25,6,25,6,28	C6,31.34,7.505,34,10,34z"/><radialGradient id="Lo6zlUyUVwBVQSmIAZ_Cjc" cx="38.957" cy="40.994" r="18.583" fx="38.859" fy="33.033" gradientTransform="matrix(.8731 0 0 1.0707 -10.011 -18.058)" gradientUnits="userSpaceOnUse"><stop offset="0" stop-color="#f9e5c8"/><stop offset=".629" stop-color="#f8daba"/><stop offset=".713" stop-color="#f5d5b5"/><stop offset=".818" stop-color="#eec7a5"/><stop offset=".933" stop-color="#e1b08c"/><stop offset=".999" stop-color="#d8a07a"/></radialGradient><path fill="url(#Lo6zlUyUVwBVQSmIAZ_Cjc)" d="M40,25.288c0,3.676-0.241,8.47-1.675,11.411C35.531,42.428,28.094,46,24,46	c-4.255,0-11.61-3.572-14.404-9.301C8.162,33.758,8,28.964,8,25.288c0-0.807,0.022-1.57,0.064-2.293	c0.244-4.161,1.176-7.029,2.622-9.682C13.555,8.045,18.447,5.666,24,5.666c5.523,0,10.392,2.342,13.267,7.561	C38.993,16.359,40,19.837,40,25.288z"/><path fill="#805b2a" d="M12.005,27.542c-0.029,0.438,0.069,0.401,0.246,0.62c0,0,2.001,2.631,8.038,0.83	c0.436-0.148,0.751-0.43,0.706-0.769C20.221,22.393,13,23.102,12.005,27.542z"/><path fill="#fff" d="M12.096,27.484c-0.151,0.309-0.103,0.557,0,0.806c0.43,1.087,3.887,4.957,8.551,0.894	c0.348-0.287,0.403-0.54,0.317-0.898C20.878,27.928,19.669,25,16.503,25C13.368,25,12.358,27.063,12.096,27.484z"/><linearGradient id="Lo6zlUyUVwBVQSmIAZ_Cjd" x1="14" x2="19" y1="27.5" y2="27.5" gradientUnits="userSpaceOnUse"><stop offset="0" stop-color="#c69c6d"/><stop offset="1" stop-color="#754c24"/></linearGradient><circle cx="16.5" cy="27.5" r="2.5" fill="url(#Lo6zlUyUVwBVQSmIAZ_Cjd)"/><radialGradient id="Lo6zlUyUVwBVQSmIAZ_Cje" cx="16.5" cy="27.5" r="1.266" gradientUnits="userSpaceOnUse"><stop offset="0" stop-color="#1c1911"/><stop offset=".999" stop-color="#171714"/></radialGradient><circle cx="16.5" cy="27.5" r="1.266" fill="url(#Lo6zlUyUVwBVQSmIAZ_Cje)"/><path fill="#805b2a" d="M35.995,27.53c0.029,0.44-0.069,0.403-0.246,0.623c0,0-2.001,2.646-8.038,0.834	c-0.436-0.149-0.751-0.433-0.706-0.773C27.779,22.353,35,23.065,35.995,27.53z"/><path fill="#fff" d="M35.904,27.484c0.151,0.309,0.103,0.557,0,0.806c-0.43,1.087-3.887,4.957-8.551,0.894	c-0.348-0.287-0.403-0.54-0.317-0.898C27.122,27.928,28.331,25,31.497,25C34.632,25,35.642,27.063,35.904,27.484z"/><linearGradient id="Lo6zlUyUVwBVQSmIAZ_Cjf" x1="15" x2="20" y1="27.5" y2="27.5" gradientTransform="translate(14)" gradientUnits="userSpaceOnUse"><stop offset="0" stop-color="#c69c6d"/><stop offset="1" stop-color="#754c24"/></linearGradient><circle cx="31.5" cy="27.5" r="2.5" fill="url(#Lo6zlUyUVwBVQSmIAZ_Cjf)"/><radialGradient id="Lo6zlUyUVwBVQSmIAZ_Cjg" cx="-800.5" cy="27.5" r="1.266" gradientTransform="matrix(-1 0 0 1 -769 0)" gradientUnits="userSpaceOnUse"><stop offset="0" stop-color="#1c1911"/><stop offset=".999" stop-color="#171714"/></radialGradient><circle cx="31.5" cy="27.5" r="1.266" fill="url(#Lo6zlUyUVwBVQSmIAZ_Cjg)"/><circle cx="15.5" cy="26.5" r=".5" fill="#fff"/><circle cx="30.5" cy="26.5" r=".5" fill="#fff"/><radialGradient id="Lo6zlUyUVwBVQSmIAZ_Cjh" cx="-50.109" cy="21.83" r="3.789" gradientTransform="matrix(1.0927 0 0 1.0817 78.812 15.353)" gradientUnits="userSpaceOnUse"><stop offset=".57" stop-opacity=".2"/><stop offset="1" stop-opacity="0"/></radialGradient><path fill="url(#Lo6zlUyUVwBVQSmIAZ_Cjh)" d="M24,41c-3.673,0-4.299-1.947-4.299-1.947S20.314,43,24,43s4.299-3.947,4.299-3.947 S27.673,41,24,41z"/><radialGradient id="Lo6zlUyUVwBVQSmIAZ_Cji" cx="51.126" cy="-185.69" r="5.86" fx="51.122" fy="-185.471" gradientTransform="matrix(.7909 0 0 .4766 -16.437 126.69)" gradientUnits="userSpaceOnUse"><stop offset=".78" stop-color="#fff" stop-opacity=".4"/><stop offset="1" stop-color="#fff" stop-opacity="0"/></radialGradient><path fill="url(#Lo6zlUyUVwBVQSmIAZ_Cji)" d="M28.562,38c0,0,0.058,3-4.564,3s-4.564-3-4.564-3s1.014,0.914,4.564,0.914 S28.562,38,28.562,38z"/><radialGradient id="Lo6zlUyUVwBVQSmIAZ_Cjj" cx="23.298" cy="-64.369" r="4.691" gradientTransform="matrix(.8333 0 0 .6703 4.648 81.075)" gradientUnits="userSpaceOnUse"><stop offset="0" stop-color="#1c1911"/><stop offset=".999" stop-color="#171714"/></radialGradient><path fill="url(#Lo6zlUyUVwBVQSmIAZ_Cjj)" d="M19.75,38c-0.249,0-0.394,0.209-0.271,0.377C20.39,39.623,22.477,40,23.999,40 c1.654,0,3.609-0.377,4.519-1.623C28.641,38.209,28.496,38,28.247,38C25.031,38,23.031,38,19.75,38z"/><path fill="#171515" d="M13.592,22.088c0.472-0.189,0.899-0.319,1.354-0.446c0.449-0.123,0.902-0.228,1.358-0.321	c0.911-0.182,1.832-0.313,2.759-0.4l0.006-0.001c0.562-0.052,1.059,0.36,1.112,0.922s-0.36,1.059-0.922,1.112	c-0.064,0.006-0.134,0.005-0.196-0.001c-0.862-0.086-1.73-0.129-2.597-0.125c-0.433,0.004-0.867,0.019-1.299,0.052	c-0.424,0.033-0.875,0.084-1.258,0.156l-0.037,0.007c-0.271,0.051-0.533-0.127-0.584-0.399	C13.242,22.406,13.375,22.175,13.592,22.088z"/><path fill="#171515" d="M34.092,23.037c-0.383-0.072-0.834-0.124-1.258-0.156c-0.431-0.033-0.865-0.048-1.299-0.052	c-0.868-0.004-1.735,0.039-2.597,0.125c-0.561,0.056-1.061-0.354-1.117-0.915c-0.056-0.561,0.354-1.061,0.915-1.117	c0.064-0.006,0.128-0.007,0.19-0.001l0.012,0.001c0.926,0.086,1.848,0.218,2.759,0.4c0.455,0.093,0.908,0.197,1.358,0.321	c0.455,0.127,0.882,0.257,1.354,0.446c0.256,0.103,0.381,0.394,0.278,0.65c-0.091,0.225-0.327,0.349-0.557,0.305L34.092,23.037z"/><g><path d="M39.822,18.905c-0.04-0.129-0.369-0.252-0.481-0.32 c-1.901-1.163-2.497-1.411-4.987-4.521c-0.134-0.168-0.362-0.238-0.562-0.171c-10.731,3.586-17.924-0.105-20.545-1.936 c-0.335-0.234-0.768,0.006-0.786,0.425c-0.137,3.321-2.899,5.535-4.146,6.474c-0.15,0.113-0.326,0.373-0.306,0.564 C8.182,21.07,7.527,27,8,27c0.59-0.208,0.835-0.712,1.712-6.673c0.023-0.187,1.23-0.925,2.558-2.604 c1.328-1.68,1.365-2.863,1.667-3.012S17.284,17.3,24,17.3c6.254,0,9.122-1.447,9.476-1.322c0.354,0.126,0.522,0.95,2.127,2.458 c1.101,1.035,2.431,1.639,2.523,1.758C38.972,21.3,39.414,26.796,40,27C40.384,26.424,40.301,20.442,39.822,18.905z" opacity=".1"/><path d="M39.822,18.905c-0.04-0.129-0.369-0.252-0.481-0.32 c-1.901-1.163-2.497-1.411-4.987-4.521c-0.134-0.168-0.362-0.238-0.562-0.171c-10.731,3.586-17.924-0.105-20.545-1.936 c-0.335-0.234-0.768,0.006-0.786,0.425c-0.137,3.321-2.899,5.535-4.146,6.474c-0.15,0.113-0.326,0.373-0.306,0.564 c0.173,1.65-0.349,7.264,0.124,7.264c0.433-0.197,1.183-6.25,1.289-6.613c0.08-0.275,1.146-0.829,2.474-2.509 c1.328-1.68,1.515-3.104,1.891-3.288c0.39-0.19,3.497,2.67,10.213,2.67c6.254,0,9.198-1.391,9.551-1.264 c0.447,0.162,0.628,1.01,2.233,2.518c1.101,1.035,2.426,1.553,2.518,1.672c0.847,1.105,1.384,6.037,1.921,6.463 C40.607,25.758,40.301,20.442,39.822,18.905z" opacity=".1"/><path d="M39.822,18.905c-0.04-0.129-0.369-0.252-0.481-0.32 c-1.901-1.163-2.497-1.411-4.987-4.521c-0.134-0.168-0.362-0.238-0.562-0.171c-10.731,3.586-17.924-0.105-20.545-1.936 c-0.335-0.234-0.768,0.006-0.786,0.425c-0.137,3.321-2.899,5.535-4.146,6.474c-0.15,0.113-0.326,0.373-0.306,0.564 c0.173,1.65-0.502,6.679-0.03,6.679c0.433-0.197,1.091-5.876,1.196-6.24c0.08-0.275,1.146-0.83,2.475-2.51 s1.618-3.359,1.994-3.542c0.39-0.19,3.639,2.803,10.356,2.803c6.254,0,9.278-1.348,9.631-1.22 c0.447,0.162,0.823,1.084,2.428,2.592c1.101,1.035,2.407,1.511,2.498,1.63c0.847,1.105,1.293,5.861,1.63,6.24 C40.572,25.277,40.301,20.442,39.822,18.905z" opacity=".1"/><path d="M39.822,18.905c-0.04-0.129-0.369-0.252-0.481-0.32 c-1.901-1.163-2.497-1.411-4.987-4.521c-0.134-0.168-0.362-0.238-0.562-0.171c-10.731,3.586-17.924-0.105-20.545-1.936 c-0.335-0.234-0.768,0.006-0.786,0.425c-0.137,3.321-2.899,5.535-4.146,6.474c-0.15,0.113-0.326,0.373-0.306,0.564 c0.173,1.65-0.502,6.679-0.03,6.679c0.433-0.197,0.739-6.041,0.845-6.404c0.08-0.275,1.299-0.819,2.627-2.498 c1.328-1.68,1.513-3.593,1.888-3.777c0.39-0.19,4.316,2.874,10.66,2.874c6.699,0,9.395-1.383,9.748-1.255 c0.447,0.162,0.929,1.155,2.534,2.663c1.101,1.035,2.442,1.511,2.534,1.63c0.847,1.105,1.035,6.142,1.372,6.521 C40.572,25.277,40.301,20.442,39.822,18.905z" opacity=".1"/><radialGradient id="Lo6zlUyUVwBVQSmIAZ_Cjk" cx="24.299" cy="372.306" r="17.823" gradientTransform="matrix(1.0087 0 0 -.8171 -.582 320.539)" gradientUnits="userSpaceOnUse"><stop offset="0" stop-color="#5c5050"/><stop offset=".419" stop-color="#5a4e4e"/><stop offset=".621" stop-color="#524848"/><stop offset=".776" stop-color="#453d3d"/><stop offset=".908" stop-color="#332d2d"/><stop offset=".998" stop-color="#211e1e"/></radialGradient><path fill="url(#Lo6zlUyUVwBVQSmIAZ_Cjk)" d="M8.324,25.544c0-0.304-0.233-4.394-0.05-6.144c1.166-0.829,4.932-3.69,4.413-7.579 c1.49,1.211,8.972,6.297,21.219,2.281c2.721,3.251,3.25,3.818,5.324,5.029c0.518,1.402,0.724,6.07,0.659,6.835 C39.856,26.36,39.945,27,40,27c0.412,0,0.826-0.346,1.111-1.367c0.143-0.502,0.787-4.811,0.878-7.767 c0.198-6.432-2.22-15.983-18.114-15.983C8.458,1.883,6,11.482,6,18.011c0,3.996,0.707,7.621,0.707,7.621 C6.816,26.213,7.085,27,8,27C8.304,27,8.324,25.847,8.324,25.544z"/><g><path fill="#171515" d="M34.179,10.813c-0.501-0.178-3.246,1.438-10.179,1.438 c-6.545,0-11.877-3.579-12.48-3.204c-0.603,0.375-0.374,3.921-1.614,6.06c-1.133,1.954-2.641,2.708-2.853,3.172 C6.725,18.997,6.972,27,8,27c0.262,0,0.487-0.21,0.511-0.871c0.113-3.097-0.066-6.316,0.094-6.595 c0.16-0.279,1.655-1.105,3.016-2.949c1.021-1.382,1.149-3.432,1.476-3.635C13.474,12.716,18.318,16,24.01,16 c7.852,0,9.57-1.475,9.869-1.304c0.213,0.122,1.093,1.471,2.421,2.6c1.164,0.989,2.689,1.578,2.803,1.852 C39.438,19.949,39.538,27,40.006,27c1.012,0,0.853-9.302,0.492-9.754c-0.299-0.374-1.512-1.151-2.657-2.237 C36.433,13.67,34.712,11.002,34.179,10.813z" opacity=".167"/><path fill="#171515" d="M34.156,11.324c-0.501-0.178-3.223,1.39-10.156,1.39 c-6.27,0-11.799-3.645-12.356-3.3c-0.557,0.345-0.396,3.681-1.607,5.77c-1.133,1.954-2.658,2.773-2.87,3.237 C6.84,19.139,7.14,27,8,27c0.262,0,0.487-0.21,0.511-0.871c0.113-3.097-0.066-6.316,0.094-6.595 c0.16-0.279,1.655-1.105,3.016-2.949c1.021-1.382,1.149-3.432,1.476-3.635C13.474,12.716,18.318,16,24.01,16 c7.852,0,9.57-1.475,9.869-1.304c0.213,0.122,1.093,1.471,2.421,2.6c1.164,0.989,2.689,1.578,2.803,1.852 C39.438,19.949,39.538,27,40.006,27c0.883,0,0.718-9.14,0.357-9.591c-0.299-0.374-1.531-1.111-2.693-2.178 C36.259,13.932,34.689,11.513,34.156,11.324z" opacity=".333"/><path fill="#171515" d="M34.133,11.835c-0.501-0.178-3.2,1.342-10.133,1.342 c-5.994,0-11.721-3.712-12.233-3.397c-0.512,0.315-0.418,3.442-1.599,5.48c-1.133,1.955-2.674,2.838-2.886,3.302 C6.954,19.281,7.308,27,8,27c0.262,0,0.487-0.21,0.511-0.871c0.113-3.097-0.066-6.316,0.094-6.595 c0.16-0.279,1.655-1.105,3.016-2.949c1.021-1.382,1.149-3.432,1.476-3.635C13.474,12.716,18.318,16,24.01,16 c7.852,0,9.57-1.475,9.869-1.304c0.213,0.122,1.093,1.471,2.421,2.6c1.164,0.989,2.689,1.578,2.803,1.852 C39.438,19.949,39.538,27,40.006,27c0.754,0,0.584-8.977,0.223-9.428c-0.299-0.374-1.55-1.071-2.73-2.118 C36.085,14.194,34.666,12.025,34.133,11.835z" opacity=".5"/><path fill="#171515" d="M34.109,12.347c-0.501-0.178-3.177,1.294-10.109,1.294 c-5.718,0-11.643-3.778-12.11-3.493c-0.466,0.285-0.44,3.202-1.592,5.19c-1.132,1.955-2.69,2.902-2.902,3.367 C7.068,19.423,7.476,27,8,27c0.262,0,0.487-0.21,0.511-0.871c0.113-3.097-0.066-6.316,0.094-6.595 c0.16-0.279,1.655-1.105,3.016-2.949c1.021-1.382,1.149-3.432,1.476-3.635C13.474,12.716,18.318,16,24.01,16 c7.852,0,9.57-1.475,9.869-1.304c0.213,0.122,1.093,1.471,2.421,2.6c1.164,0.989,2.689,1.578,2.803,1.852 C39.438,19.949,39.538,27,40.006,27c0.626,0,0.449-8.814,0.088-9.265c-0.299-0.374-1.569-1.031-2.766-2.059 C35.911,14.455,34.643,12.536,34.109,12.347z" opacity=".667"/><path fill="#171515" d="M34.086,12.858c-0.501-0.178-3.153,1.246-10.086,1.246 c-5.443,0-11.565-3.844-11.986-3.59c-0.421,0.255-0.462,2.962-1.585,4.901c-1.132,1.955-2.706,2.967-2.918,3.432 C7.183,19.565,7.644,27,8,27c0.262,0,0.487-0.21,0.511-0.871c0.113-3.097-0.066-6.316,0.094-6.595 c0.16-0.279,1.655-1.105,3.016-2.949c1.021-1.382,1.149-3.432,1.476-3.635C13.474,12.716,18.318,16,24.01,16 c7.852,0,9.57-1.475,9.869-1.304c0.213,0.122,1.093,1.471,2.421,2.6c1.164,0.989,2.689,1.578,2.803,1.852 C39.438,19.949,39.538,27,40.006,27c0.497,0,0.314-8.651-0.047-9.102c-0.299-0.374-1.588-0.991-2.802-1.999 C35.737,14.717,34.619,13.047,34.086,12.858z" opacity=".833"/><path fill="#171515" d="M34.063,13.37c-0.501-0.178-3.13,1.198-10.063,1.198c-5.167,0-11.487-3.911-11.863-3.686 c-0.375,0.224-0.485,2.722-1.577,4.611c-1.131,1.955-2.723,3.032-2.935,3.497C7.297,19.707,7.812,27,8,27 c0.262,0,0.487-0.21,0.511-0.871c0.113-3.097-0.066-6.316,0.094-6.595c0.16-0.279,1.655-1.105,3.016-2.949 c1.021-1.382,1.149-3.432,1.476-3.635C13.474,12.716,18.318,16,24.01,16c7.852,0,9.57-1.475,9.869-1.304 c0.213,0.122,1.093,1.471,2.421,2.6c1.164,0.989,2.689,1.578,2.803,1.852C39.438,19.949,39.538,27,40.006,27 c0.369,0,0.18-8.488-0.181-8.939c-0.299-0.374-1.606-0.951-2.838-1.94C35.563,14.979,34.596,13.559,34.063,13.37z"/></g></g><g><radialGradient id="Lo6zlUyUVwBVQSmIAZ_Cjl" cx="24" cy="31.951" r="3.384" gradientTransform="matrix(.9999 -.011 .0059 .5371 -.188 15.056)" gradientUnits="userSpaceOnUse"><stop offset="0" stop-color="#fff"/><stop offset="1" stop-color="#fff" stop-opacity="0"/></radialGradient><ellipse cx="24" cy="32" fill="url(#Lo6zlUyUVwBVQSmIAZ_Cjl)" rx="3.5" ry="2"/><radialGradient id="Lo6zlUyUVwBVQSmIAZ_Cjm" cx="24.029" cy="32.953" r="2.701" gradientTransform="matrix(.0022 1 -1.2107 .0026 63.875 8.837)" gradientUnits="userSpaceOnUse"><stop offset=".415" stop-opacity=".3"/><stop offset="1" stop-opacity="0"/></radialGradient><path fill="url(#Lo6zlUyUVwBVQSmIAZ_Cjm)" d="M26.754,33.238C26.465,33.386,25.66,34,24,34s-2.465-0.614-2.754-0.762 c-0.289-0.148-0.48-0.078-0.48,0.198C20.766,34.155,21.931,36,24,36s3.234-1.845,3.234-2.564 C27.234,33.16,27.043,33.09,26.754,33.238z"/></g></svg>