<svg xmlns="http://www.w3.org/2000/svg"  viewBox="0 0 48 48" width="96px" height="96px"><radialGradient id="Xuk9G0LE0tDZzzCc6s7paa" cx="24" cy="22.694" r="24.8" gradientTransform="matrix(1 0 0 1.2137 0 -4.85)" gradientUnits="userSpaceOnUse"><stop offset=".678" stop-color="#211e1e"/><stop offset="1" stop-color="#5c5050"/></radialGradient><path fill="url(#Xuk9G0LE0tDZzzCc6s7paa)" d="M44.588,37.642c-3.108-7.16-2.408-11.634-2.774-13.037s-0.016-4.882-0.016-4.882	s-7.151-3.46-17.799-3.46s-17.799,3.46-17.799,3.46s0.35,3.479-0.016,4.882s0.334,5.877-2.774,13.037	c-1.073,1.997,0.289,2.812,0.289,2.812S12.113,44,24,44s20.299-3.545,20.299-3.545S45.661,39.639,44.588,37.642z"/><path fill="#171515" d="M44.588,37.642c-3.108-7.16-2.408-11.634-2.774-13.037s-0.016-4.882-0.016-4.882 l-2.725,0.629c-0.087,1.158,0.133,5.221,0.162,5.837c0.103,2.178-0.249,6.085,1.873,10.956c0.46,1.057,0.27,1.415,0.145,1.531 c-0.957,0.381-6.395,2.657-17.254,2.657S7.704,39.058,6.746,38.677c-0.126-0.116-0.316-0.475,0.145-1.531 c2.121-4.87,1.77-8.778,1.873-10.956c0.029-0.616,0.25-4.679,0.162-5.837l-2.725-0.629c0,0,0.35,3.479-0.016,4.882 s0.334,5.877-2.774,13.037c-1.073,1.997,0.289,2.812,0.289,2.812S12.113,44,24,44s20.299-3.545,20.299-3.545 S45.661,39.639,44.588,37.642z" opacity=".167"/><path fill="#171515" d="M44.588,37.642c-3.108-7.16-2.408-11.634-2.774-13.037s-0.016-4.882-0.016-4.882 l-2.391,0.629c-0.087,1.158,0.146,5.234,0.175,5.85c0.103,2.178-0.082,6.252,2.039,11.122c0.46,1.057,0.27,1.415,0.145,1.531 c-0.957,0.381-6.907,2.811-17.766,2.811s-16.809-2.43-17.766-2.811c-0.126-0.116-0.316-0.475,0.145-1.531 c2.121-4.87,1.936-8.944,2.039-11.122c0.029-0.616,0.262-4.692,0.175-5.85l-2.391-0.629c0,0,0.35,3.479-0.016,4.882 s0.334,5.877-2.774,13.037c-1.073,1.997,0.289,2.812,0.289,2.812S12.113,44,24,44s20.299-3.545,20.299-3.545 S45.661,39.639,44.588,37.642z" opacity=".333"/><path fill="#171515" d="M44.588,37.642c-3.108-7.16-2.408-11.634-2.774-13.037s-0.016-4.882-0.016-4.882 l-2.058,0.629c-0.087,1.158,0.158,5.246,0.187,5.862c0.103,2.178,0.085,6.419,2.206,11.289c0.46,1.057,0.27,1.415,0.145,1.531 C41.321,39.416,34.859,42,24,42S6.679,39.416,5.722,39.035c-0.126-0.116-0.316-0.475,0.145-1.531 c2.121-4.87,2.103-9.111,2.206-11.289c0.029-0.616,0.274-4.704,0.187-5.862l-2.058-0.629c0,0,0.35,3.479-0.016,4.882 s0.334,5.877-2.774,13.037c-1.073,1.997,0.289,2.812,0.289,2.812S12.113,44,24,44s20.299-3.545,20.299-3.545 S45.661,39.639,44.588,37.642z" opacity=".5"/><path fill="#171515" d="M44.588,37.642c-3.108-7.16-2.408-11.634-2.774-13.037s-0.016-4.882-0.016-4.882 l-1.725,0.629c-0.087,1.158,0.17,5.258,0.199,5.874c0.103,2.178,0.251,6.585,2.373,11.456c0.46,1.057,0.27,1.415,0.145,1.531 c-0.957,0.381-7.932,3.12-18.791,3.12s-17.833-2.738-18.791-3.12c-0.126-0.116-0.316-0.475,0.145-1.531 c2.121-4.87,2.27-9.278,2.373-11.456c0.029-0.616,0.287-4.716,0.199-5.874l-1.725-0.629c0,0,0.35,3.479-0.016,4.882 s0.334,5.877-2.774,13.037c-1.073,1.997,0.289,2.812,0.289,2.812S12.113,44,24,44s20.299-3.545,20.299-3.545 S45.661,39.639,44.588,37.642z" opacity=".667"/><path fill="#171515" d="M44.588,37.642c-3.108-7.16-2.408-11.634-2.774-13.037s-0.016-4.882-0.016-4.882 l-1.391,0.629c-0.087,1.158,0.183,5.271,0.212,5.887c0.103,2.178,0.418,6.752,2.539,11.622c0.46,1.057,0.27,1.415,0.145,1.531 c-0.957,0.381-8.444,3.274-19.303,3.274S5.654,39.774,4.697,39.393c-0.126-0.116-0.316-0.475,0.145-1.531 c2.121-4.87,2.436-9.444,2.539-11.622c0.029-0.616,0.299-4.729,0.212-5.887l-1.391-0.629c0,0,0.35,3.479-0.016,4.882 s0.334,5.877-2.774,13.037c-1.073,1.997,0.289,2.812,0.289,2.812S12.113,44,24,44s20.299-3.545,20.299-3.545 S45.661,39.639,44.588,37.642z" opacity=".833"/><path fill="#171515" d="M44.588,37.642c-3.108-7.16-2.408-11.634-2.774-13.037s-0.016-4.882-0.016-4.882l-1.058,0.629 c-0.087,1.158,0.195,5.283,0.224,5.899c0.103,2.178,0.585,6.919,2.706,11.789c0.46,1.057,0.27,1.415,0.145,1.531 C42.858,39.953,34.859,43,24,43S5.142,39.953,4.185,39.572c-0.126-0.116-0.316-0.475,0.145-1.531 c2.121-4.87,2.603-9.611,2.706-11.789c0.029-0.616,0.311-4.741,0.224-5.899l-1.058-0.629c0,0,0.35,3.479-0.016,4.882 s0.334,5.877-2.774,13.037c-1.073,1.997,0.289,2.812,0.289,2.812S12.113,44,24,44s20.299-3.545,20.299-3.545 S45.661,39.639,44.588,37.642z"/><radialGradient id="Xuk9G0LE0tDZzzCc6s7pab" cx="34.002" cy="25.549" r="2.47" gradientTransform="matrix(.9938 .1701 -.4458 2.1078 15.469 -31.04)" gradientUnits="userSpaceOnUse"><stop offset="0" stop-color="#f9e5c8"/><stop offset=".103" stop-color="#f8daba"/><stop offset=".306" stop-color="#f5d5b5"/><stop offset=".56" stop-color="#eec7a5"/><stop offset=".839" stop-color="#e1b08c"/><stop offset=".999" stop-color="#d8a07a"/></radialGradient><path fill="url(#Xuk9G0LE0tDZzzCc6s7pab)" d="M37,34c-0.6,0-0.932-0.234-0.846-0.753C36.327,32.207,37.01,25,37.01,25	c1.716,0,3.99,0,3.99,3C41,31.34,39.495,34,37,34z"/><radialGradient id="Xuk9G0LE0tDZzzCc6s7pac" cx="-603.474" cy="25.549" r="2.47" gradientTransform="matrix(-.9938 .1701 .4458 2.1078 -600.961 77.414)" gradientUnits="userSpaceOnUse"><stop offset="0" stop-color="#f9e5c8"/><stop offset=".103" stop-color="#f8daba"/><stop offset=".306" stop-color="#f5d5b5"/><stop offset=".56" stop-color="#eec7a5"/><stop offset=".839" stop-color="#e1b08c"/><stop offset=".999" stop-color="#d8a07a"/></radialGradient><path fill="url(#Xuk9G0LE0tDZzzCc6s7pac)" d="M11,34c0.6,0,0.932-0.234,0.846-0.753C11.673,32.207,10.99,25,10.99,25C9.274,25,7,25,7,28	C7,31.34,8.505,34,11,34z"/><radialGradient id="Xuk9G0LE0tDZzzCc6s7pad" cx="43.144" cy="38.785" r="18.834" fx="43.045" fy="30.716" gradientTransform="matrix(.8731 0 0 1.0951 -13.667 -17.64)" gradientUnits="userSpaceOnUse"><stop offset="0" stop-color="#f9e5c8"/><stop offset=".629" stop-color="#f8daba"/><stop offset=".713" stop-color="#f5d5b5"/><stop offset=".818" stop-color="#eec7a5"/><stop offset=".933" stop-color="#e1b08c"/><stop offset=".999" stop-color="#d8a07a"/></radialGradient><path fill="url(#Xuk9G0LE0tDZzzCc6s7pad)" d="M40,25.761c0,3.76-1.881,8.852-3.64,11.671C32.779,43.172,27.255,46,23.981,46 c-3.192,0-9.003-2.87-12.42-8.568C9.851,34.581,8,29.521,8,25.761c0-0.826,0.022-6.67,0.064-7.41 C8.309,14.095,11.233,3.666,24,3.666c12.77,0,15.61,10.174,15.902,14.18C39.967,18.736,40,24.748,40,25.761z"/><radialGradient id="Xuk9G0LE0tDZzzCc6s7pae" cx="24" cy="39.5" r="4.874" gradientTransform="matrix(1 0 0 .3938 0 23.945)" gradientUnits="userSpaceOnUse"><stop offset="0" stop-color="#8e2809"/><stop offset=".155" stop-color="#9d3414"/><stop offset=".453" stop-color="#b24524"/><stop offset=".739" stop-color="#c04f2e"/><stop offset="1" stop-color="#c45331"/></radialGradient><path fill="url(#Xuk9G0LE0tDZzzCc6s7pae)" d="M19.229,38.425c-0.274-0.028-0.291,0.203-0.114,0.434C20.396,40.537,22.289,41,23.996,41	c1.568,0,3.985-0.655,4.913-2.109c0.157-0.245,0.112-0.518-0.146-0.466c-2.42,0.684-3.54-1.227-4.815,0.046	C22.71,37.235,21.479,38.875,19.229,38.425z"/><path fill="#601808" d="M27.3,39.282c-1.906-0.147-3.208,0.172-3.3,0.196c-0.092-0.023-1.394-0.343-3.3-0.196	c1.489,0.173,3.3,0.927,3.3,0.927C24,40.209,25.811,39.456,27.3,39.282z"/><path fill="#805b2a" d="M12.005,27.542c-0.029,0.438,0.069,0.401,0.246,0.62c0,0,2.001,2.631,8.038,0.83	c0.436-0.148,0.751-0.43,0.706-0.769C20.221,22.393,13,23.102,12.005,27.542z"/><path fill="#fff" d="M12.096,27.484c-0.151,0.309-0.103,0.557,0,0.806c0.43,1.087,3.887,4.957,8.551,0.894	c0.348-0.287,0.403-0.54,0.317-0.898C20.878,27.928,19.669,25,16.503,25C13.368,25,12.358,27.063,12.096,27.484z"/><linearGradient id="Xuk9G0LE0tDZzzCc6s7paf" x1="14" x2="19" y1="27.5" y2="27.5" gradientUnits="userSpaceOnUse"><stop offset="0" stop-color="#c69c6d"/><stop offset="1" stop-color="#754c24"/></linearGradient><circle cx="16.5" cy="27.5" r="2.5" fill="url(#Xuk9G0LE0tDZzzCc6s7paf)"/><radialGradient id="Xuk9G0LE0tDZzzCc6s7pag" cx="16.5" cy="27.5" r="1.266" gradientUnits="userSpaceOnUse"><stop offset="0" stop-color="#1c1911"/><stop offset=".999" stop-color="#171714"/></radialGradient><circle cx="16.5" cy="27.5" r="1.266" fill="url(#Xuk9G0LE0tDZzzCc6s7pag)"/><path fill="#805b2a" d="M35.995,27.53c0.029,0.44-0.069,0.403-0.246,0.623c0,0-2.001,2.646-8.038,0.834	c-0.436-0.149-0.751-0.433-0.706-0.773C27.779,22.353,35,23.065,35.995,27.53z"/><path fill="#fff" d="M35.904,27.484c0.151,0.309,0.103,0.557,0,0.806c-0.43,1.087-3.887,4.957-8.551,0.894	c-0.348-0.287-0.403-0.54-0.317-0.898C27.122,27.928,28.331,25,31.497,25C34.632,25,35.642,27.063,35.904,27.484z"/><linearGradient id="Xuk9G0LE0tDZzzCc6s7pah" x1="15" x2="20" y1="27.5" y2="27.5" gradientTransform="translate(14)" gradientUnits="userSpaceOnUse"><stop offset="0" stop-color="#c69c6d"/><stop offset="1" stop-color="#754c24"/></linearGradient><circle cx="31.5" cy="27.5" r="2.5" fill="url(#Xuk9G0LE0tDZzzCc6s7pah)"/><radialGradient id="Xuk9G0LE0tDZzzCc6s7pai" cx="-800.5" cy="27.5" r="1.266" gradientTransform="matrix(-1 0 0 1 -769 0)" gradientUnits="userSpaceOnUse"><stop offset="0" stop-color="#1c1911"/><stop offset=".999" stop-color="#171714"/></radialGradient><circle cx="31.5" cy="27.5" r="1.266" fill="url(#Xuk9G0LE0tDZzzCc6s7pai)"/><circle cx="15.5" cy="26.5" r=".5" fill="#fff"/><circle cx="30.5" cy="26.5" r=".5" fill="#fff"/><path fill="#171515" d="M13.592,22.088c0.472-0.189,0.899-0.319,1.354-0.446c0.449-0.123,0.902-0.228,1.358-0.321	c0.911-0.182,1.832-0.313,2.759-0.4l0.006-0.001c0.562-0.052,1.059,0.36,1.112,0.922s-0.36,1.059-0.922,1.112	c-0.064,0.006-0.134,0.005-0.196-0.001c-0.862-0.086-1.73-0.129-2.597-0.125c-0.433,0.004-0.867,0.019-1.299,0.052	c-0.424,0.033-0.875,0.084-1.258,0.156l-0.037,0.007c-0.271,0.051-0.533-0.127-0.584-0.399	C13.242,22.406,13.375,22.175,13.592,22.088z"/><path fill="#171515" d="M34.092,23.037c-0.383-0.072-0.834-0.124-1.258-0.156c-0.431-0.033-0.865-0.048-1.299-0.052	c-0.868-0.004-1.735,0.039-2.597,0.125c-0.561,0.056-1.061-0.354-1.117-0.915c-0.056-0.561,0.354-1.061,0.915-1.117	c0.064-0.006,0.128-0.007,0.19-0.001l0.012,0.001c0.926,0.086,1.848,0.218,2.759,0.4c0.455,0.093,0.908,0.197,1.358,0.321	c0.455,0.127,0.882,0.257,1.354,0.446c0.256,0.103,0.381,0.394,0.278,0.65c-0.091,0.225-0.327,0.349-0.557,0.305L34.092,23.037z"/><g><path d="M40.314,23.473c-0.334-1.14-3.708-4.903-5.995-7.635 c-0.28-0.334-0.718-0.484-1.148-0.418c-6.307,0.963-11.482-1.368-13.782-2.827c-0.531-0.337-1.234-0.246-1.626,0.247 c-2.632,3.305-10.11,11.291-10.106,11.289c0,0.012,0.248,0.077,0.248,0.09c5.375-1.906,7.832-5.267,10.531-8.656 c0.393-0.493,0.552-0.483,1.083-0.146c2.299,1.459,6.667,3.292,12.917,2.583c0.432-0.049,0.902,0.058,1.148,0.418 c2.047,3.005,5.658,5.694,6.852,6.394C40.438,24.8,40.357,23.573,40.314,23.473z" opacity=".1"/><path d="M40.241,23.098c-0.334-1.14-3.708-4.903-5.995-7.635 c-0.28-0.334-0.718-0.484-1.148-0.418c-6.307,0.963-11.482-1.368-13.782-2.827c-0.531-0.337-1.234-0.246-1.627,0.247 C15.059,15.77,7.581,23.756,7.585,23.754c0,0.012,0.34,0.375,0.34,0.388c5.02-2.205,7.633-5.572,10.332-8.962 c0.393-0.493,0.653-0.552,1.184-0.215c2.299,1.459,6.931,3.443,13.2,2.649c0.432-0.055,0.849,0.043,1.095,0.404 c2.047,3.005,5.51,5.744,6.619,6.561C40.354,24.568,40.284,23.198,40.241,23.098z" opacity=".1"/><path d="M40.169,22.723c-0.334-1.14-3.708-4.903-5.995-7.635 c-0.28-0.334-0.718-0.484-1.148-0.418c-6.307,0.963-11.482-1.368-13.782-2.827c-0.531-0.337-1.234-0.246-1.627,0.247 c-2.632,3.305-10.11,11.291-10.106,11.289c0,0.012,0.431,0.674,0.431,0.687c4.665-2.503,7.434-5.878,10.134-9.267 c0.393-0.493,0.753-0.622,1.285-0.285c2.299,1.459,7.195,3.593,13.483,2.715c0.431-0.06,0.795,0.029,1.041,0.39 c2.047,3.005,5.363,5.794,6.386,6.728C40.271,24.335,40.211,22.823,40.169,22.723z" opacity=".1"/><path d="M40.096,22.348c-0.334-1.14-3.708-4.903-5.995-7.635 c-0.28-0.334-0.718-0.484-1.148-0.418c-6.307,0.963-11.482-1.368-13.782-2.827c-0.531-0.337-1.234-0.246-1.626,0.247 C14.913,15.02,7.435,23.006,7.439,23.004c0,0.012,0.522,0.973,0.522,0.986c4.31-2.802,7.236-6.183,9.935-9.573 c0.393-0.493,0.854-0.691,1.385-0.354c2.299,1.459,7.459,3.744,13.766,2.781c0.43-0.066,0.742,0.015,0.988,0.376 c2.047,3.005,5.216,5.843,6.153,6.895C40.188,24.102,40.139,22.448,40.096,22.348z" opacity=".1"/></g><radialGradient id="Xuk9G0LE0tDZzzCc6s7paj" cx="-107.98" cy="158.106" r="11.173" gradientTransform="matrix(-.0115 1.0378 1.4699 .0173 -209.51 123.528)" gradientUnits="userSpaceOnUse"><stop offset="0" stop-color="#5c5050"/><stop offset=".419" stop-color="#5a4e4e"/><stop offset=".621" stop-color="#524848"/><stop offset=".776" stop-color="#453d3d"/><stop offset=".908" stop-color="#332d2d"/><stop offset=".998" stop-color="#211e1e"/></radialGradient><path fill="url(#Xuk9G0LE0tDZzzCc6s7paj)" d="M7.586,24.129c2.067-1.915,6.702-6.334,10.118-10.729c0.391-0.503,1.09-0.596,1.618-0.252	c2.288,1.488,7.437,3.864,13.711,2.882c0.428-0.067,0.864,0.086,1.142,0.427c2.343,2.87,4.153,6.695,6.109,7.89	c1.061,1.64,1.33-0.125,1.482,0.903C42.331,20.563,43.433,2,23.832,2c-2.031,0-4.127,0.389-5.555,1.622	c-0.931-0.195-2.383-0.071-3.352,0.389C4.126,9.146,6.21,23.052,6.086,25.149C6.908,24.436,6.908,24.436,7.586,24.129z"/><g><path fill="#171515" d="M39.995,20.799c-1.164-1.83-2.389-4.255-4.668-7.101 c-0.269-0.336-0.716-0.476-1.145-0.411c-6.136,0.923-10.727-0.642-13.108-2.078c-0.652-0.551-1.84-1.274-1.578-4.371 c0.136-1.597-2.367-1.619-3.037,0.093c0,0-1.035,2.019-0.685,4.47c0.14,0.453-0.7,1.291-0.76,1.366 c-3.557,4.55-5.338,6.644-7.358,8.446c-1.47,1.33-1.594,5.64-1.604,5.845c0.173-2.487,1.021-2.895,2.069-3.596 c2.318-1.614,6.234-5.416,9.657-9.651c0.391-0.484,1.174-0.563,1.705-0.231c2.292,1.433,7.353,3.753,13.641,2.807 c0.429-0.065,1.06,0.133,1.331,0.468c2.259,2.786,3.012,4.384,4.748,6.242c1.23,1.284,2.629,2.505,2.784,3.511 C41.999,25.649,40.988,22.364,39.995,20.799z" opacity=".167"/><path fill="#171515" d="M39.865,21.202c-1.203-1.873-2.492-4.15-4.702-7.076 c-0.259-0.343-0.716-0.476-1.145-0.411c-6.136,0.923-10.861-0.756-13.242-2.192c-0.652-0.551-1.814-1.33-1.54-4.586 c0.126-1.467-1.997-1.393-2.559,0.061c0,0-0.949,2.102-0.529,4.534c0.14,0.453-0.56,1.156-0.619,1.233 c-3.691,4.865-5.863,7.169-7.781,8.862c-1.468,1.306-1.681,5.023-1.702,5.433c0.209-2.248,1.1-2.731,2.079-3.407 c3.078-2.251,6.23-5.585,9.653-9.82c0.391-0.484,1.158-0.565,1.688-0.234c2.292,1.433,7.373,3.747,13.661,2.801 c0.429-0.065,1.031,0.116,1.294,0.456c2.171,2.808,2.945,4.276,4.809,6.385c1.194,1.303,2.6,2.485,2.758,3.505 C41.971,25.578,40.834,22.718,39.865,21.202z" opacity=".333"/><path fill="#171515" d="M39.735,21.604c-1.242-1.917-2.596-4.045-4.736-7.052 c-0.249-0.35-0.716-0.476-1.145-0.411c-6.136,0.923-10.995-0.87-13.376-2.306c-0.652-0.551-1.788-1.385-1.501-4.8 c0.116-1.338-1.627-1.168-2.082,0.028c0,0-0.864,2.184-0.374,4.598c0.14,0.453-0.419,1.022-0.477,1.099 c-3.826,5.18-6.389,7.693-8.205,9.278c-1.465,1.282-1.768,4.406-1.799,5.021c0.244-2.01,1.178-2.566,2.09-3.218 c3.839-2.887,6.226-5.754,9.649-9.989c0.391-0.484,1.142-0.568,1.671-0.236c2.292,1.433,7.393,3.741,13.681,2.795 c0.429-0.065,1.002,0.098,1.257,0.445c2.082,2.829,2.879,4.169,4.871,6.528c1.158,1.321,2.571,2.465,2.732,3.5 C41.944,25.508,40.681,23.072,39.735,21.604z" opacity=".5"/><path fill="#171515" d="M39.604,22.007c-1.281-1.96-2.699-3.939-4.769-7.028 c-0.24-0.357-0.716-0.476-1.145-0.411c-6.136,0.923-11.129-0.983-13.51-2.419c-0.652-0.551-1.761-1.441-1.462-5.015 c0.106-1.209-1.257-0.943-1.605-0.004c0,0-0.779,2.266-0.219,4.662c0.14,0.453-0.278,0.888-0.335,0.965 c-3.961,5.495-6.914,8.217-8.628,9.693c-1.463,1.258-1.856,3.79-1.897,4.609c0.28-1.771,1.257-2.402,2.101-3.029 c4.6-3.524,6.223-5.923,9.646-10.159c0.391-0.484,1.125-0.57,1.655-0.238c2.292,1.433,7.412,3.735,13.7,2.789 c0.429-0.065,0.973,0.081,1.219,0.434c1.993,2.85,2.813,4.061,4.932,6.67c1.123,1.339,2.543,2.446,2.707,3.495 C41.916,25.438,40.528,23.426,39.604,22.007z" opacity=".667"/><path fill="#171515" d="M39.474,22.41c-1.32-2.003-2.802-3.834-4.803-7.003 c-0.23-0.364-0.716-0.476-1.145-0.411c-6.136,0.923-11.263-1.097-13.644-2.533c-0.652-0.551-1.735-1.497-1.424-5.23 c0.096-1.079-0.887-0.717-1.127-0.036c0,0-0.693,2.349-0.063,4.726c0.14,0.453-0.138,0.753-0.194,0.832 c-4.095,5.81-7.439,8.742-9.051,10.109c-1.461,1.234-1.943,3.173-1.994,4.197c0.315-1.532,1.335-2.238,2.111-2.84 c5.36-4.161,6.219-6.092,9.642-10.328c0.391-0.484,1.108-0.572,1.639-0.241c2.292,1.433,7.432,3.729,13.72,2.783 c0.429-0.065,0.944,0.063,1.182,0.422c1.905,2.872,2.746,3.954,4.993,6.813c1.087,1.358,2.514,2.426,2.681,3.489 C41.888,25.367,40.374,23.78,39.474,22.41z" opacity=".833"/><path fill="#171515" d="M39.344,22.813c-1.359-2.047-2.906-3.729-4.837-6.979c-0.22-0.371-0.716-0.476-1.145-0.411 c-6.136,0.923-11.397-1.211-13.778-2.647c-0.652-0.551-1.709-1.552-1.385-5.445c0.086-0.95-0.517-0.492-0.65-0.068 c0,0-0.608,2.431,0.092,4.79c0.14,0.453,0.003,0.619-0.052,0.698c-4.23,6.125-7.964,9.266-9.474,10.524 c-1.459,1.21-2.03,2.556-2.092,3.785c0.351-1.293,1.414-2.074,2.122-2.651c6.121-4.798,6.215-6.261,9.638-10.497 c0.391-0.484,1.092-0.574,1.622-0.243c2.292,1.433,7.452,3.723,13.74,2.777c0.429-0.065,0.915,0.046,1.145,0.411 c1.816,2.893,2.68,3.846,5.055,6.956c1.051,1.376,2.485,2.406,2.656,3.484C41.86,25.297,40.221,24.134,39.344,22.813z"/></g><g><radialGradient id="Xuk9G0LE0tDZzzCc6s7pak" cx="24" cy="31.951" r="3.384" gradientTransform="matrix(.9999 -.011 .0059 .5371 -.188 15.056)" gradientUnits="userSpaceOnUse"><stop offset="0" stop-color="#fff"/><stop offset="1" stop-color="#fff" stop-opacity="0"/></radialGradient><ellipse cx="24" cy="32" fill="url(#Xuk9G0LE0tDZzzCc6s7pak)" rx="3.5" ry="2"/><radialGradient id="Xuk9G0LE0tDZzzCc6s7pal" cx="24.029" cy="32.953" r="2.701" gradientTransform="matrix(.0022 1 -1.2107 .0026 63.875 8.837)" gradientUnits="userSpaceOnUse"><stop offset=".415" stop-opacity=".3"/><stop offset="1" stop-opacity="0"/></radialGradient><path fill="url(#Xuk9G0LE0tDZzzCc6s7pal)" d="M26.754,33.238C26.465,33.386,25.66,34,24,34s-2.465-0.614-2.754-0.762 c-0.289-0.148-0.48-0.078-0.48,0.198C20.766,34.155,21.931,36,24,36s3.234-1.845,3.234-2.564 C27.234,33.16,27.043,33.09,26.754,33.238z"/></g></svg>